<svg width="21" height="21" viewBox="0 0 21 21" fill="none" xmlns="http://www.w3.org/2000/svg">
<path d="M19.3396 21H1.9447C1.57603 21 1.27711 20.703 1.27711 20.3398C1.2796 19.6673 1.28458 18.6291 1.28707 17.9591C1.28707 17.5958 1.58599 17.3038 1.95467 17.3038H2.52013C0.48994 14.8175 -0.354519 12.0171 0.136214 8.88784C0.629438 5.74137 2.29095 3.29685 5.01863 1.60336C9.58469 -1.23386 15.6753 -0.252123 19.1154 4.12396C19.3246 4.38903 19.2972 4.767 19.0531 5.00262C18.8937 5.15479 18.7342 5.30696 18.5773 5.45667C20.3858 8.4117 20.5602 11.4379 19.1502 14.5795C19.3147 14.6825 19.4791 14.7856 19.6484 14.8936C19.9623 15.0924 20.052 15.5072 19.8452 15.8115C19.504 16.3171 19.1652 16.8154 18.8239 17.3185H19.347C19.7157 17.3185 20.0146 17.613 20.0146 17.9763C20.0146 18.6463 20.0096 19.6771 20.0047 20.3447C20.0047 20.7055 19.7057 20.9975 19.3371 20.9975L19.3396 21ZM17.7229 4.55347C17.7652 4.5093 17.7702 4.44057 17.7279 4.39394C15.5158 2.00587 12.7782 0.957867 9.51743 1.31866C7.10611 1.58618 5.09835 2.66854 3.52401 4.4823C1.74044 6.53658 1.03298 8.93202 1.31198 11.6171C1.32942 11.7913 1.42408 11.784 1.54863 11.784C3.04075 11.784 4.53039 11.784 6.02252 11.784C6.08978 11.784 6.15703 11.7766 6.21931 11.7741C6.68015 8.59332 10.5114 6.83601 13.3686 8.88784C14.8134 7.44959 16.2606 6.0089 17.7229 4.55593V4.55347ZM18.4254 15.7305C18.4627 15.6765 18.4478 15.6029 18.393 15.5661C18.3456 15.5366 18.3058 15.5096 18.2634 15.4826C16.9183 14.6408 15.5781 13.7916 14.2205 12.9669C13.9564 12.8074 13.8742 12.6405 13.8668 12.3411C13.8169 10.0487 11.4031 8.5565 9.31068 9.53088C8.10751 10.0905 7.49222 11.0673 7.43742 12.3779C7.42746 12.5865 7.43742 12.7951 7.43742 13.016H1.76286C1.68314 13.016 1.62336 13.0921 1.64578 13.1658C2.12655 14.7341 2.96851 16.0864 4.17417 17.2179C4.23396 17.2743 4.34356 17.3038 4.43075 17.3062C5.25528 17.3136 6.0823 17.3111 6.90683 17.3111C10.2224 17.3111 13.5355 17.3111 16.851 17.3111C16.9357 17.3111 17.0453 17.3038 17.1001 17.2547C17.5983 16.8031 18.0343 16.2999 18.4254 15.733V15.7305ZM17.7702 6.53658C17.7328 6.46786 17.6357 6.45559 17.5809 6.50958C16.4574 7.61404 15.3589 8.6964 14.2529 9.78613C14.2529 9.77876 14.2529 9.79349 14.2579 9.80331C14.2878 9.84994 14.3201 9.89412 14.35 9.9383C14.7561 10.5273 15.0052 11.1777 15.0849 11.8846C15.0973 11.9926 15.1596 12.0908 15.2543 12.1497C16.0539 12.643 16.846 13.1412 17.6432 13.6394C17.7453 13.7033 17.8499 13.7671 17.962 13.8382C18.0243 13.8775 18.109 13.8505 18.1364 13.7842C19.1752 11.2906 19.0631 8.88293 17.7702 6.53903V6.53658ZM2.55002 19.7581H18.7542V18.5481H2.55002V19.7581ZM10.6708 10.5052C11.7245 10.5126 12.5889 11.3716 12.5839 12.4074C12.5789 13.4529 11.6896 14.3168 10.6384 14.3021C9.57722 14.2849 8.72279 13.4357 8.72528 12.3975C8.72777 11.352 9.60462 10.5003 10.6708 10.5052ZM10.6633 11.7349C10.2946 11.73 9.98325 12.0269 9.97578 12.3902C9.96831 12.7583 10.2847 13.0749 10.6583 13.0725C11.0245 13.0725 11.3334 12.7657 11.3359 12.4049C11.3359 12.0441 11.032 11.7398 10.6633 11.7349ZM4.90155 14.8691V16.0717H6.12216V14.8691H4.90155ZM8.61319 16.0741V14.8666H7.39258V16.0741H8.61319Z" fill="#7F034D"/>
</svg>
