<svg width="16" height="17" viewBox="0 0 16 17" fill="none" xmlns="http://www.w3.org/2000/svg">
<path d="M15.4047 16.7273H1.54903C1.25537 16.7273 1.01726 16.4907 1.01726 16.2014C1.01925 15.6657 1.02321 14.8388 1.0252 14.3051C1.0252 14.0157 1.2633 13.7831 1.55696 13.7831H2.00738C0.390256 11.8027 -0.282387 9.57208 0.1085 7.07949C0.501371 4.57322 1.82483 2.62606 3.99753 1.27713C7.63456 -0.982813 12.4859 -0.200825 15.2261 3.28489C15.3928 3.49603 15.3709 3.79709 15.1765 3.98477C15.0495 4.10598 14.9225 4.22719 14.7975 4.34644C16.238 6.70023 16.3769 9.11071 15.2539 11.6131C15.3848 11.6952 15.5158 11.7773 15.6507 11.8633C15.9007 12.0217 15.9722 12.352 15.8075 12.5945C15.5356 12.9972 15.2658 13.394 14.9939 13.7948H15.4106C15.7043 13.7948 15.9424 14.0294 15.9424 14.3187C15.9424 14.8525 15.9384 15.6735 15.9345 16.2053C15.9345 16.4927 15.6964 16.7253 15.4027 16.7253L15.4047 16.7273ZM14.1169 3.62701C14.1507 3.59182 14.1546 3.53708 14.1209 3.49994C12.3589 1.59775 10.1783 0.762976 7.58099 1.05036C5.66028 1.26345 4.06102 2.12559 2.80701 3.57032C1.38632 5.20663 0.82281 7.11468 1.04504 9.25342C1.05893 9.39222 1.13433 9.38636 1.23354 9.38636C2.42207 9.38636 3.60862 9.38636 4.79716 9.38636C4.85073 9.38636 4.9043 9.38049 4.95391 9.37854C5.32098 6.84489 8.37268 5.44513 10.6486 7.07949C11.7994 5.93388 12.9522 4.78631 14.1169 3.62896V3.62701ZM14.6765 12.53C14.7062 12.4869 14.6943 12.4283 14.6507 12.399C14.613 12.3755 14.5812 12.354 14.5475 12.3325C13.476 11.6619 12.4085 10.9855 11.3271 10.3287C11.1168 10.2016 11.0513 10.0686 11.0454 9.83014C11.0057 8.00419 9.08302 6.81557 7.4163 7.59169C6.45793 8.03743 5.96783 8.81551 5.92418 9.85946C5.91624 10.0256 5.92418 10.1918 5.92418 10.3678H1.40418C1.34069 10.3678 1.29307 10.4284 1.31092 10.487C1.69387 11.7362 2.36453 12.8134 3.32488 13.7147C3.3725 13.7596 3.45981 13.7831 3.52926 13.785C4.18602 13.7909 4.84478 13.789 5.50155 13.789C8.14251 13.789 10.7815 13.789 13.4225 13.789C13.4899 13.789 13.5772 13.7831 13.6209 13.744C14.0177 13.3843 14.365 12.9835 14.6765 12.5319V12.53ZM14.1546 5.20663C14.1249 5.15189 14.0475 5.14211 14.0038 5.18512C13.109 6.06486 12.2339 6.927 11.3529 7.79501C11.3529 7.78914 11.3529 7.80087 11.3569 7.80869C11.3807 7.84584 11.4065 7.88103 11.4303 7.91622C11.7538 8.38541 11.9522 8.90348 12.0157 9.46651C12.0256 9.55253 12.0752 9.63073 12.1506 9.67765C12.7875 10.0706 13.4185 10.4675 14.0534 10.8643C14.1348 10.9151 14.2181 10.966 14.3074 11.0227C14.357 11.0539 14.4245 11.0324 14.4463 10.9797C15.2737 8.99341 15.1844 7.07558 14.1546 5.20858V5.20663ZM2.03119 15.7381H14.9384V14.7743H2.03119V15.7381ZM8.49967 8.36782C9.33898 8.37368 10.0275 9.05792 10.0235 9.88292C10.0196 10.7157 9.3112 11.4039 8.47387 11.3922C7.62861 11.3785 6.94803 10.7021 6.95001 9.8751C6.95199 9.04228 7.65043 8.36391 8.49967 8.36782ZM8.49372 9.34726C8.20006 9.34335 7.95203 9.5799 7.94608 9.86924C7.94012 10.1625 8.19212 10.4147 8.48975 10.4127C8.78142 10.4127 9.02746 10.1683 9.02945 9.88097C9.02945 9.59358 8.78738 9.35117 8.49372 9.34726ZM3.90427 11.8438V12.8017H4.87652V11.8438H3.90427ZM6.86072 12.8036V11.8418H5.88847V12.8036H6.86072Z" fill="white"/>
</svg>
