<svg width="21" height="16" viewBox="0 0 21 16" fill="none" xmlns="http://www.w3.org/2000/svg">
<path d="M11.0319 16C10.8271 16 10.6191 15.9488 10.4367 15.8496C8.24466 14.6592 1.07666 10.4032 1.07666 5.6672C1.07666 2.5408 3.72626 0 6.98066 0C8.50066 0 9.94386 0.5568 11.0351 1.5456C12.1263 0.5568 13.5695 0 15.0895 0C18.3439 0 20.9935 2.5408 20.9935 5.6672C20.9935 10.2848 13.8319 14.624 11.6367 15.8432C11.4511 15.9456 11.2431 16 11.0319 16Z" fill="#400124"/>
<path d="M6.98074 1.53924C4.57434 1.53924 2.61914 3.38884 2.61914 5.66404C2.61914 8.71684 7.11834 12.2656 11.0319 14.4128C11.8127 13.9712 13.8831 12.7488 15.7775 11.152C18.2159 9.09764 19.4543 7.25124 19.4543 5.66404C19.4543 3.38884 17.4959 1.53924 15.0927 1.53924C13.7295 1.53924 12.4687 2.12484 11.6367 3.14884L11.0415 3.88164L10.4431 3.14884C9.60794 2.12484 8.34714 1.53924 6.98394 1.53924H6.98074Z" fill="#BF067D"/>
<g opacity="0.35">
<path d="M15.7166 10.6912C12.6382 12.6464 8.63503 12.5888 5.60143 10.4896C5.33263 10.304 5.04143 10.1504 4.74383 10.0128C4.59023 9.94238 4.43983 9.86558 4.29263 9.78238C3.40623 9.29598 2.52943 8.71038 1.70703 8.04478C1.71343 8.05438 1.71663 8.06398 1.72303 8.07358C1.74223 8.11198 1.76143 8.14718 1.78063 8.18558C1.79343 8.21118 1.80943 8.23678 1.82223 8.26558C2.01103 8.60478 2.23183 8.94398 2.47503 9.27358C2.51343 9.32478 2.55183 9.37598 2.59023 9.42398C2.62223 9.46558 2.65103 9.50398 2.68303 9.54558C2.71503 9.58398 2.74703 9.62558 2.77903 9.66718C5.23023 12.72 9.54383 15.1712 10.6126 15.7504C10.7662 15.8336 10.9486 15.8304 11.099 15.7504C12.0046 15.248 15.2686 13.3568 17.7326 10.928C18.1422 10.5248 18.5294 10.1056 18.8814 9.67358C19.4126 9.02078 19.8606 8.34558 20.1742 7.65758C20.2478 7.49118 20.3118 7.32798 20.3694 7.16158C19.4574 8.26238 18.3598 9.19358 17.1214 9.87198C16.6446 10.1312 16.1774 10.4032 15.7198 10.6944L15.7166 10.6912Z" fill="#400124"/>
</g>
<g style="mix-blend-mode:soft-light">
<path d="M19.1025 6.37757C19.1025 6.47997 19.0993 6.58557 19.0865 6.68797C18.8977 4.42557 16.9137 2.64637 14.4913 2.64637C13.1761 2.64637 11.9857 3.17437 11.1473 4.01917C11.0929 4.07357 11.4545 4.48637 11.4417 4.55997C11.3617 5.05917 10.9297 4.46077 10.8497 4.34557C10.0081 3.31197 8.6897 2.64637 7.2081 2.64637C4.7857 2.64637 2.7985 4.42877 2.6129 6.69437C2.6033 6.58877 2.6001 6.48317 2.6001 6.37757C2.6001 3.94877 4.6641 1.98077 7.2081 1.98077C8.6897 1.98077 10.0049 2.64637 10.8497 3.67997C11.6945 2.64637 13.0097 1.98077 14.4913 1.98077C17.0385 1.98077 19.0993 3.94877 19.0993 6.37757H19.1025Z" fill="white"/>
</g>
<g style="mix-blend-mode:soft-light">
<path d="M12.9198 3.60641C13.6238 2.92481 15.691 2.81281 16.6158 3.74401C17.4062 4.54081 16.059 4.41281 14.9934 4.35201C14.0686 4.29761 12.2158 4.29121 12.923 3.60641H12.9198Z" fill="white"/>
</g>
</svg>
