<svg width="99" height="18" viewBox="0 0 99 18" fill="none" xmlns="http://www.w3.org/2000/svg">
<path d="M9.32651 2.44385C9.32651 2.44385 9.30611 2.44385 9.29931 2.44385C9.02391 2.45376 8.79271 2.60573 8.68051 2.85021L7.09271 6.29931C7.06211 6.36869 6.99751 6.41824 6.91931 6.43146L3.09431 7.11533C2.82571 7.16489 2.61831 7.34659 2.54351 7.60098C2.46871 7.85867 2.54351 8.11636 2.74751 8.29477L5.63411 10.8287C5.69191 10.8783 5.71911 10.9543 5.70891 11.0303L5.19551 14.7767C5.15811 15.041 5.27371 15.2888 5.50151 15.4374C5.72931 15.5861 6.00811 15.596 6.24611 15.4639L9.61891 13.5807C9.68691 13.5444 9.76851 13.5411 9.83991 13.5741L13.3487 15.2062C13.5969 15.3218 13.8723 15.2921 14.0899 15.1269C14.3041 14.9617 14.3993 14.7073 14.3449 14.4463L13.5425 10.7494C13.5255 10.6768 13.5493 10.5975 13.6037 10.5446L16.2863 7.80581C16.4767 7.6142 16.5311 7.34659 16.4359 7.09881C16.3407 6.84773 16.1231 6.68254 15.8477 6.65281L11.9819 6.24975C11.9037 6.24315 11.8357 6.19689 11.7983 6.13082L9.94871 2.80726C9.82291 2.5793 9.59171 2.44715 9.32991 2.44715L9.32651 2.44385Z" fill="#FFA233"/>
<path d="M5.38965 17.0001C5.12785 17.0001 4.86945 16.9241 4.64165 16.7787C4.21325 16.5012 3.99225 16.0189 4.06025 15.5233L4.62805 11.387L1.43885 8.58546C1.05805 8.24848 0.908454 7.74301 1.04785 7.26066C1.18725 6.77831 1.59185 6.42481 2.09505 6.33561L6.31785 5.58236L8.07565 1.77315C8.28645 1.31393 8.73525 1.0199 9.25205 1.00008C9.76545 0.980255 10.2381 1.24125 10.4829 1.68395L12.5263 5.3544L16.7967 5.80041C17.3101 5.85327 17.7351 6.17703 17.9153 6.64947C18.0921 7.1186 17.9833 7.63729 17.6263 7.99739L14.6649 11.0203L15.5489 15.1037C15.6543 15.5927 15.4707 16.0882 15.0661 16.3988C14.6615 16.7093 14.1209 16.7655 13.6585 16.5508L9.78585 14.7502L6.06285 16.8283C5.85205 16.9439 5.62425 17.0034 5.39305 17.0034L5.38965 17.0001ZM9.33365 2.6982C9.33365 2.6982 9.31665 2.6982 9.30645 2.6982C9.04125 2.70811 8.82025 2.85347 8.71485 3.08804L7.18825 6.40499C7.15765 6.47107 7.09645 6.51732 7.02165 6.53053L3.34625 7.18798C3.08785 7.23423 2.88725 7.40933 2.81585 7.65711C2.74445 7.90489 2.81585 8.15267 3.01305 8.32446L5.78745 10.7593C5.84185 10.8089 5.86905 10.8816 5.85885 10.9509L5.36585 14.552C5.33185 14.8064 5.44065 15.0443 5.66165 15.1863C5.87925 15.3284 6.14785 15.3383 6.37565 15.2095L9.61585 13.399C9.68045 13.3627 9.75865 13.3594 9.82665 13.3924L13.1995 14.9617C13.4375 15.074 13.7027 15.0443 13.9101 14.8857C14.1175 14.7271 14.2093 14.4826 14.1549 14.2315L13.3865 10.6767C13.3695 10.6073 13.3933 10.5314 13.4443 10.4785L16.0215 7.84542C16.2051 7.66041 16.2561 7.40602 16.1677 7.16485C16.0759 6.92368 15.8651 6.7651 15.6033 6.73537L11.8871 6.34883C11.8123 6.34222 11.7477 6.29927 11.7103 6.2332L9.93205 3.03848C9.80965 2.82044 9.58865 2.69489 9.33705 2.69489L9.33365 2.6982Z" fill="#400124"/>
<path opacity="0.35" d="M5.7226 10.2702L5.6682 10.6601L3.0094 8.32431C2.8122 8.15251 2.7408 7.90143 2.8122 7.65695C2.819 7.63713 2.8258 7.61731 2.8326 7.60079L5.6478 10.072C5.7056 10.1215 5.7328 10.1975 5.7226 10.2702ZM14.158 14.2644C14.1308 14.2942 14.1002 14.3206 14.0662 14.347C13.852 14.5122 13.5766 14.5419 13.3318 14.4263L9.8366 12.8009C9.7652 12.7678 9.6836 12.7711 9.619 12.8108L6.2598 14.684C6.0218 14.8162 5.7464 14.8062 5.5186 14.6609C5.4608 14.6212 5.4064 14.575 5.3656 14.5254V14.5552C5.3282 14.8095 5.437 15.0441 5.658 15.1895C5.8756 15.3315 6.1442 15.3414 6.372 15.2126L9.6122 13.4022C9.6768 13.3658 9.7584 13.3625 9.823 13.3955L13.1958 14.9648C13.4338 15.0738 13.699 15.0441 13.9064 14.8888C14.107 14.7369 14.1988 14.5056 14.158 14.2644V14.2644ZM16.164 7.168C16.164 7.168 16.1606 7.15809 16.1572 7.15479L13.5834 9.78126C13.529 9.83742 13.5086 9.91341 13.5222 9.98609L13.597 10.3231L16.0178 7.84857C16.198 7.66356 16.2524 7.40917 16.164 7.168V7.168Z" fill="#400124"/>
<path opacity="0.5" d="M16.0178 7.84864L15.9566 7.91141C15.858 7.83542 15.7356 7.78587 15.5996 7.77265L11.88 7.38612C11.8086 7.3762 11.7406 7.33326 11.7066 7.27048L9.9284 4.07577C9.806 3.85772 9.585 3.72888 9.3334 3.72888H9.3062C9.041 3.73879 8.82 3.88415 8.7112 4.11872L7.1846 7.43567C7.154 7.50175 7.0928 7.548 7.018 7.56121L3.3426 8.21866C3.227 8.23848 3.125 8.28473 3.04 8.35081L3.0094 8.32438C2.8122 8.15258 2.7408 7.9015 2.8122 7.65702C2.8836 7.40924 3.0808 7.23414 3.3426 7.18789L7.018 6.53045C7.0928 6.51723 7.154 6.47098 7.1846 6.40491L8.7112 3.08795C8.82 2.85339 9.041 2.70802 9.3062 2.70142C9.313 2.70142 9.3232 2.70142 9.3334 2.70142C9.585 2.70142 9.806 2.83026 9.9284 3.04831L11.7066 6.24302C11.7406 6.30579 11.8086 6.34874 11.88 6.35865L15.5996 6.74519C15.8614 6.77162 16.0722 6.9302 16.164 7.17137C16.2524 7.41255 16.198 7.66693 16.0178 7.85194V7.84864Z" fill="white"/>
<path d="M29.3283 2.44385C29.3283 2.44385 29.3079 2.44385 29.3011 2.44385C29.0257 2.45376 28.7945 2.60573 28.6823 2.85021L27.0945 6.29931C27.0639 6.36869 26.9993 6.41824 26.9211 6.43146L23.0961 7.11533C22.8275 7.16489 22.6201 7.34659 22.5453 7.60098C22.4705 7.85867 22.5453 8.11636 22.7493 8.29477L25.6359 10.8287C25.6937 10.8783 25.7209 10.9543 25.7107 11.0303L25.1973 14.7767C25.1599 15.041 25.2755 15.2888 25.5033 15.4374C25.7311 15.5861 26.0099 15.596 26.2479 15.4639L29.6207 13.5807C29.6887 13.5444 29.7703 13.5411 29.8417 13.5741L33.3505 15.2062C33.5987 15.3218 33.8741 15.2921 34.0917 15.1269C34.3059 14.9617 34.4011 14.7073 34.3467 14.4463L33.5443 10.7494C33.5273 10.6768 33.5511 10.5975 33.6055 10.5446L36.2881 7.80581C36.4785 7.6142 36.5329 7.34659 36.4377 7.09881C36.3425 6.84773 36.1249 6.68254 35.8495 6.65281L31.9837 6.24975C31.9055 6.24315 31.8375 6.19689 31.8001 6.13082L29.9505 2.80726C29.8247 2.5793 29.5935 2.44715 29.3317 2.44715L29.3283 2.44385Z" fill="#FFA233"/>
<path d="M25.3915 17.0001C25.1297 17.0001 24.8713 16.9241 24.6435 16.7787C24.2151 16.5012 23.9941 16.0189 24.0621 15.5233L24.6299 11.387L21.4407 8.58546C21.0599 8.24848 20.9103 7.74301 21.0497 7.26066C21.1891 6.77831 21.5937 6.42481 22.0969 6.33561L26.3197 5.58236L28.0775 1.77315C28.2883 1.31393 28.7371 1.0199 29.2539 1.00008C29.7673 0.980255 30.2399 1.24125 30.4847 1.68395L32.5281 5.3544L36.7985 5.80041C37.3119 5.85327 37.7369 6.17703 37.9171 6.64947C38.0939 7.1186 37.9851 7.63729 37.6281 7.99739L34.6667 11.0203L35.5507 15.1037C35.6561 15.5927 35.4725 16.0882 35.0679 16.3988C34.6633 16.7093 34.1227 16.7655 33.6603 16.5508L29.7877 14.7502L26.0647 16.8283C25.8539 16.9439 25.6261 17.0034 25.3949 17.0034L25.3915 17.0001ZM29.3355 2.6982C29.3355 2.6982 29.3185 2.6982 29.3083 2.6982C29.0431 2.70811 28.8221 2.85347 28.7167 3.08804L27.1901 6.40499C27.1595 6.47107 27.0983 6.51732 27.0235 6.53053L23.3481 7.18798C23.0897 7.23423 22.8891 7.40933 22.8177 7.65711C22.7463 7.90489 22.8177 8.15267 23.0149 8.32446L25.7893 10.7593C25.8437 10.8089 25.8709 10.8816 25.8607 10.9509L25.3677 14.552C25.3337 14.8064 25.4425 15.0443 25.6635 15.1863C25.8811 15.3284 26.1497 15.3383 26.3775 15.2095L29.6177 13.399C29.6823 13.3627 29.7605 13.3594 29.8285 13.3924L33.2013 14.9617C33.4393 15.074 33.7045 15.0443 33.9119 14.8857C34.1193 14.7271 34.2111 14.4826 34.1567 14.2315L33.3883 10.6767C33.3713 10.6073 33.3951 10.5314 33.4461 10.4785L36.0233 7.84542C36.2069 7.66041 36.2579 7.40602 36.1695 7.16485C36.0777 6.92368 35.8669 6.7651 35.6051 6.73537L31.8889 6.34883C31.8141 6.34222 31.7495 6.29927 31.7121 6.2332L29.9339 3.03848C29.8115 2.82044 29.5905 2.69489 29.3389 2.69489L29.3355 2.6982Z" fill="#400124"/>
<path opacity="0.35" d="M25.7244 10.2702L25.67 10.6601L23.0112 8.32431C22.814 8.15251 22.7426 7.90143 22.814 7.65695C22.8208 7.63713 22.8276 7.61731 22.8344 7.60079L25.6496 10.072C25.7074 10.1215 25.7346 10.1975 25.7244 10.2702ZM34.1598 14.2644C34.1326 14.2942 34.102 14.3206 34.068 14.347C33.8538 14.5122 33.5784 14.5419 33.3336 14.4263L29.8384 12.8009C29.767 12.7678 29.6854 12.7711 29.6208 12.8108L26.2616 14.684C26.0236 14.8162 25.7482 14.8062 25.5204 14.6609C25.4626 14.6212 25.4082 14.575 25.3674 14.5254V14.5552C25.33 14.8095 25.4388 15.0441 25.6598 15.1895C25.8774 15.3315 26.146 15.3414 26.3738 15.2126L29.614 13.4022C29.6786 13.3658 29.7602 13.3625 29.8248 13.3955L33.1976 14.9648C33.4356 15.0738 33.7008 15.0441 33.9082 14.8888C34.1088 14.7369 34.2006 14.5056 34.1598 14.2644V14.2644ZM36.1658 7.168C36.1658 7.168 36.1624 7.15809 36.159 7.15479L33.5852 9.78126C33.5308 9.83742 33.5104 9.91341 33.524 9.98609L33.5988 10.3231L36.0196 7.84857C36.1998 7.66356 36.2542 7.40917 36.1658 7.168V7.168Z" fill="#400124"/>
<path opacity="0.5" d="M36.0196 7.84864L35.9584 7.91141C35.8598 7.83542 35.7374 7.78587 35.6014 7.77265L31.8818 7.38612C31.8104 7.3762 31.7424 7.33326 31.7084 7.27048L29.9302 4.07577C29.8078 3.85772 29.5868 3.72888 29.3352 3.72888H29.308C29.0428 3.73879 28.8218 3.88415 28.713 4.11872L27.1864 7.43567C27.1558 7.50175 27.0946 7.548 27.0198 7.56121L23.3444 8.21866C23.2288 8.23848 23.1268 8.28473 23.0418 8.35081L23.0112 8.32438C22.814 8.15258 22.7426 7.9015 22.814 7.65702C22.8854 7.40924 23.0826 7.23414 23.3444 7.18789L27.0198 6.53045C27.0946 6.51723 27.1558 6.47098 27.1864 6.40491L28.713 3.08795C28.8218 2.85339 29.0428 2.70802 29.308 2.70142C29.3148 2.70142 29.325 2.70142 29.3352 2.70142C29.5868 2.70142 29.8078 2.83026 29.9302 3.04831L31.7084 6.24302C31.7424 6.30579 31.8104 6.34874 31.8818 6.35865L35.6014 6.74519C35.8632 6.77162 36.074 6.9302 36.1658 7.17137C36.2542 7.41255 36.1998 7.66693 36.0196 7.85194V7.84864Z" fill="white"/>
<path d="M49.3301 2.44385C49.3301 2.44385 49.3097 2.44385 49.3029 2.44385C49.0275 2.45376 48.7963 2.60573 48.6841 2.85021L47.0963 6.29931C47.0657 6.36869 47.0011 6.41824 46.9229 6.43146L43.0979 7.11533C42.8293 7.16489 42.6219 7.34659 42.5471 7.60098C42.4723 7.85867 42.5471 8.11636 42.7511 8.29477L45.6377 10.8287C45.6955 10.8783 45.7227 10.9543 45.7125 11.0303L45.1991 14.7767C45.1617 15.041 45.2773 15.2888 45.5051 15.4374C45.7329 15.5861 46.0117 15.596 46.2497 15.4639L49.6225 13.5807C49.6905 13.5444 49.7721 13.5411 49.8435 13.5741L53.3523 15.2062C53.6005 15.3218 53.8759 15.2921 54.0935 15.1269C54.3077 14.9617 54.4029 14.7073 54.3485 14.4463L53.5461 10.7494C53.5291 10.6768 53.5529 10.5975 53.6073 10.5446L56.2899 7.80581C56.4803 7.6142 56.5347 7.34659 56.4395 7.09881C56.3443 6.84773 56.1267 6.68254 55.8513 6.65281L51.9855 6.24975C51.9073 6.24315 51.8393 6.19689 51.8019 6.13082L49.9523 2.80726C49.8265 2.5793 49.5953 2.44715 49.3335 2.44715L49.3301 2.44385Z" fill="#FFA233"/>
<path d="M45.3932 17.0001C45.1314 17.0001 44.873 16.9241 44.6452 16.7787C44.2168 16.5012 43.9958 16.0189 44.0638 15.5233L44.6316 11.387L41.4424 8.58546C41.0616 8.24848 40.912 7.74301 41.0514 7.26066C41.1908 6.77831 41.5954 6.42481 42.0986 6.33561L46.3214 5.58236L48.0792 1.77315C48.29 1.31393 48.7388 1.0199 49.2556 1.00008C49.769 0.980255 50.2416 1.24125 50.4864 1.68395L52.5298 5.3544L56.8002 5.80041C57.3136 5.85327 57.7386 6.17703 57.9188 6.64947C58.0956 7.1186 57.9868 7.63729 57.6298 7.99739L54.6684 11.0203L55.5524 15.1037C55.6578 15.5927 55.4742 16.0882 55.0696 16.3988C54.665 16.7093 54.1244 16.7655 53.662 16.5508L49.7894 14.7502L46.0664 16.8283C45.8556 16.9439 45.6278 17.0034 45.3966 17.0034L45.3932 17.0001ZM49.3372 2.6982C49.3372 2.6982 49.3202 2.6982 49.31 2.6982C49.0448 2.70811 48.8238 2.85347 48.7184 3.08804L47.1918 6.40499C47.1612 6.47107 47.1 6.51732 47.0252 6.53053L43.3498 7.18798C43.0914 7.23423 42.8908 7.40933 42.8194 7.65711C42.748 7.90489 42.8194 8.15267 43.0166 8.32446L45.791 10.7593C45.8454 10.8089 45.8726 10.8816 45.8624 10.9509L45.3694 14.552C45.3354 14.8064 45.4442 15.0443 45.6652 15.1863C45.8828 15.3284 46.1514 15.3383 46.3792 15.2095L49.6194 13.399C49.684 13.3627 49.7622 13.3594 49.8302 13.3924L53.203 14.9617C53.441 15.074 53.7062 15.0443 53.9136 14.8857C54.121 14.7271 54.2128 14.4826 54.1584 14.2315L53.39 10.6767C53.373 10.6073 53.3968 10.5314 53.4478 10.4785L56.025 7.84542C56.2086 7.66041 56.2596 7.40602 56.1712 7.16485C56.0794 6.92368 55.8686 6.7651 55.6068 6.73537L51.8906 6.34883C51.8158 6.34222 51.7512 6.29927 51.7138 6.2332L49.9356 3.03848C49.8132 2.82044 49.5922 2.69489 49.3406 2.69489L49.3372 2.6982Z" fill="#400124"/>
<path opacity="0.35" d="M45.7261 10.2702L45.6717 10.6601L43.0129 8.32431C42.8157 8.15251 42.7443 7.90143 42.8157 7.65695C42.8225 7.63713 42.8293 7.61731 42.8361 7.60079L45.6513 10.072C45.7091 10.1215 45.7363 10.1975 45.7261 10.2702ZM54.1615 14.2644C54.1343 14.2942 54.1037 14.3206 54.0697 14.347C53.8555 14.5122 53.5801 14.5419 53.3353 14.4263L49.8401 12.8009C49.7687 12.7678 49.6871 12.7711 49.6225 12.8108L46.2633 14.684C46.0253 14.8162 45.7499 14.8062 45.5221 14.6609C45.4643 14.6212 45.4099 14.575 45.3691 14.5254V14.5552C45.3317 14.8095 45.4405 15.0441 45.6615 15.1895C45.8791 15.3315 46.1477 15.3414 46.3755 15.2126L49.6157 13.4022C49.6803 13.3658 49.7619 13.3625 49.8265 13.3955L53.1993 14.9648C53.4373 15.0738 53.7025 15.0441 53.9099 14.8888C54.1105 14.7369 54.2023 14.5056 54.1615 14.2644V14.2644ZM56.1675 7.168C56.1675 7.168 56.1641 7.15809 56.1607 7.15479L53.5869 9.78126C53.5325 9.83742 53.5121 9.91341 53.5257 9.98609L53.6005 10.3231L56.0213 7.84857C56.2015 7.66356 56.2559 7.40917 56.1675 7.168V7.168Z" fill="#400124"/>
<path opacity="0.5" d="M56.0213 7.84864L55.9601 7.91141C55.8615 7.83542 55.7391 7.78587 55.6031 7.77265L51.8835 7.38612C51.8121 7.3762 51.7441 7.33326 51.7101 7.27048L49.9319 4.07577C49.8095 3.85772 49.5885 3.72888 49.3369 3.72888H49.3097C49.0445 3.73879 48.8235 3.88415 48.7147 4.11872L47.1881 7.43567C47.1575 7.50175 47.0963 7.548 47.0215 7.56121L43.3461 8.21866C43.2305 8.23848 43.1285 8.28473 43.0435 8.35081L43.0129 8.32438C42.8157 8.15258 42.7443 7.9015 42.8157 7.65702C42.8871 7.40924 43.0843 7.23414 43.3461 7.18789L47.0215 6.53045C47.0963 6.51723 47.1575 6.47098 47.1881 6.40491L48.7147 3.08795C48.8235 2.85339 49.0445 2.70802 49.3097 2.70142C49.3165 2.70142 49.3267 2.70142 49.3369 2.70142C49.5885 2.70142 49.8095 2.83026 49.9319 3.04831L51.7101 6.24302C51.7441 6.30579 51.8121 6.34874 51.8835 6.35865L55.6031 6.74519C55.8649 6.77162 56.0757 6.9302 56.1675 7.17137C56.2559 7.41255 56.2015 7.66693 56.0213 7.85194V7.84864Z" fill="white"/>
<path d="M65.398 16.9998C65.1362 16.9998 64.8778 16.9238 64.65 16.7785C64.2216 16.501 64.0006 16.0186 64.0686 15.5231L64.6364 11.3868L61.4472 8.58521C61.0664 8.24823 60.9168 7.74276 61.0562 7.26042C61.1956 6.77807 61.6002 6.42457 62.1034 6.33537L66.3262 5.58212L68.084 1.77291C68.2948 1.31369 68.7436 1.01966 69.2604 0.999833C69.7738 0.980011 70.2464 1.24101 70.4912 1.68371L72.5346 5.35416L76.805 5.80016C77.3184 5.85302 77.7434 6.17679 77.9236 6.64922C78.1004 7.11835 77.9916 7.63704 77.6346 7.99715L74.6732 11.0201L75.5572 15.1035C75.6626 15.5924 75.479 16.088 75.0744 16.3986C74.6698 16.7091 74.1292 16.7653 73.6668 16.5505L69.7942 14.75L66.0712 16.828C65.8604 16.9437 65.6326 17.0031 65.4014 17.0031L65.398 16.9998ZM69.342 2.69795C69.342 2.69795 69.325 2.69795 69.3148 2.69795C69.0496 2.70787 68.8286 2.85323 68.7232 3.0878L67.1966 6.40475C67.166 6.47082 67.1048 6.51707 67.03 6.53029L63.3546 7.18773C63.0962 7.23399 62.8956 7.40908 62.8242 7.65686C62.7528 7.90464 62.8242 8.15242 63.0214 8.32422L65.7958 10.7591C65.8502 10.8086 65.8774 10.8813 65.8672 10.9507L65.3742 14.5518C65.3402 14.8062 65.449 15.044 65.67 15.1861C65.8876 15.3281 66.1562 15.3381 66.384 15.2092L69.6242 13.3988C69.6888 13.3624 69.767 13.3591 69.835 13.3922L73.2078 14.9614C73.4458 15.0738 73.711 15.044 73.9184 14.8854C74.1258 14.7269 74.2176 14.4824 74.1632 14.2313L73.3948 10.6765C73.3778 10.6071 73.4016 10.5311 73.4526 10.4783L76.0298 7.84518C76.2134 7.66017 76.2644 7.40578 76.176 7.16461C76.0842 6.92343 75.8734 6.76485 75.6116 6.73512L71.8954 6.34858C71.8206 6.34198 71.756 6.29903 71.7186 6.23295L69.9404 3.03824C69.818 2.82019 69.597 2.69465 69.3454 2.69465L69.342 2.69795Z" fill="#400124"/>
<path opacity="0.35" d="M65.7314 10.2702L65.677 10.6601L63.0182 8.32431C62.821 8.15251 62.7496 7.90143 62.821 7.65695C62.8278 7.63713 62.8346 7.61731 62.8414 7.60079L65.6566 10.072C65.7144 10.1215 65.7416 10.1975 65.7314 10.2702ZM74.1668 14.2644C74.1396 14.2942 74.109 14.3206 74.075 14.347C73.8608 14.5122 73.5854 14.5419 73.3406 14.4263L69.8454 12.8009C69.774 12.7678 69.6924 12.7711 69.6278 12.8108L66.2686 14.684C66.0306 14.8162 65.7552 14.8062 65.5274 14.6609C65.4696 14.6212 65.4152 14.575 65.3744 14.5254V14.5552C65.337 14.8095 65.4458 15.0441 65.6668 15.1895C65.8844 15.3315 66.153 15.3414 66.3808 15.2126L69.621 13.4022C69.6856 13.3658 69.7672 13.3625 69.8318 13.3955L73.2046 14.9648C73.4426 15.0738 73.7078 15.0441 73.9152 14.8888C74.1158 14.7369 74.2076 14.5056 74.1668 14.2644V14.2644ZM76.1728 7.168C76.1728 7.168 76.1694 7.15809 76.166 7.15479L73.5922 9.78126C73.5378 9.83742 73.5174 9.91341 73.531 9.98609L73.6058 10.3231L76.0266 7.84857C76.2068 7.66356 76.2612 7.40917 76.1728 7.168V7.168Z" fill="#400124"/>
<path d="M85.3998 16.9998C85.138 16.9998 84.8796 16.9238 84.6518 16.7785C84.2234 16.501 84.0024 16.0186 84.0704 15.5231L84.6382 11.3868L81.449 8.58521C81.0682 8.24823 80.9186 7.74276 81.058 7.26042C81.1974 6.77807 81.602 6.42457 82.1052 6.33537L86.328 5.58212L88.0858 1.77291C88.2966 1.31369 88.7454 1.01966 89.2622 0.999833C89.7756 0.980011 90.2482 1.24101 90.493 1.68371L92.5364 5.35416L96.8068 5.80016C97.3202 5.85302 97.7452 6.17679 97.9254 6.64922C98.1022 7.11835 97.9934 7.63704 97.6364 7.99715L94.675 11.0201L95.559 15.1035C95.6644 15.5924 95.4808 16.088 95.0762 16.3986C94.6716 16.7091 94.131 16.7653 93.6686 16.5505L89.796 14.75L86.073 16.828C85.8622 16.9437 85.6344 17.0031 85.4032 17.0031L85.3998 16.9998ZM89.3438 2.69795C89.3438 2.69795 89.3268 2.69795 89.3166 2.69795C89.0514 2.70787 88.8304 2.85323 88.725 3.0878L87.1984 6.40475C87.1678 6.47082 87.1066 6.51707 87.0318 6.53029L83.3564 7.18773C83.098 7.23399 82.8974 7.40908 82.826 7.65686C82.7546 7.90464 82.826 8.15242 83.0232 8.32422L85.7976 10.7591C85.852 10.8086 85.8792 10.8813 85.869 10.9507L85.376 14.5518C85.342 14.8062 85.4508 15.044 85.6718 15.1861C85.8894 15.3281 86.158 15.3381 86.3858 15.2092L89.626 13.3988C89.6906 13.3624 89.7688 13.3591 89.8368 13.3922L93.2096 14.9614C93.4476 15.0738 93.7128 15.044 93.9202 14.8854C94.1276 14.7269 94.2194 14.4824 94.165 14.2313L93.3966 10.6765C93.3796 10.6071 93.4034 10.5311 93.4544 10.4783L96.0316 7.84518C96.2152 7.66017 96.2662 7.40578 96.1778 7.16461C96.086 6.92343 95.8752 6.76485 95.6134 6.73512L91.8972 6.34858C91.8224 6.34198 91.7578 6.29903 91.7204 6.23295L89.9422 3.03824C89.8198 2.82019 89.5988 2.69465 89.3472 2.69465L89.3438 2.69795Z" fill="#400124"/>
<path opacity="0.35" d="M85.7332 10.2702L85.6788 10.6601L83.02 8.32431C82.8228 8.15251 82.7514 7.90143 82.8228 7.65695C82.8296 7.63713 82.8364 7.61731 82.8432 7.60079L85.6584 10.072C85.7162 10.1215 85.7434 10.1975 85.7332 10.2702ZM94.1686 14.2644C94.1414 14.2942 94.1108 14.3206 94.0768 14.347C93.8626 14.5122 93.5872 14.5419 93.3424 14.4263L89.8472 12.8009C89.7758 12.7678 89.6942 12.7711 89.6296 12.8108L86.2704 14.684C86.0324 14.8162 85.757 14.8062 85.5292 14.6609C85.4714 14.6212 85.417 14.575 85.3762 14.5254V14.5552C85.3388 14.8095 85.4476 15.0441 85.6686 15.1895C85.8862 15.3315 86.1548 15.3414 86.3826 15.2126L89.6228 13.4022C89.6874 13.3658 89.769 13.3625 89.8336 13.3955L93.2064 14.9648C93.4444 15.0738 93.7096 15.0441 93.917 14.8888C94.1176 14.7369 94.2094 14.5056 94.1686 14.2644V14.2644ZM96.1746 7.168C96.1746 7.168 96.1712 7.15809 96.1678 7.15479L93.594 9.78126C93.5396 9.83742 93.5192 9.91341 93.5328 9.98609L93.6076 10.3231L96.0284 7.84857C96.2086 7.66356 96.263 7.40917 96.1746 7.168V7.168Z" fill="#400124"/>
</svg>
