<svg width="99" height="17" viewBox="0 0 99 17" fill="none" xmlns="http://www.w3.org/2000/svg">
<path d="M9.32651 1.44385C9.32651 1.44385 9.30611 1.44385 9.29931 1.44385C9.02391 1.45376 8.79271 1.60573 8.68051 1.85021L7.09271 5.29931C7.06211 5.36869 6.99751 5.41824 6.91931 5.43146L3.09431 6.11533C2.82571 6.16489 2.61831 6.34659 2.54351 6.60098C2.46871 6.85867 2.54351 7.11636 2.74751 7.29477L5.63411 9.82873C5.69191 9.87829 5.71911 9.95428 5.70891 10.0303L5.19551 13.7767C5.15811 14.041 5.27371 14.2888 5.50151 14.4374C5.72931 14.5861 6.00811 14.596 6.24611 14.4639L9.61891 12.5807C9.68691 12.5444 9.76851 12.5411 9.83991 12.5741L13.3487 14.2062C13.5969 14.3218 13.8723 14.2921 14.0899 14.1269C14.3041 13.9617 14.3993 13.7073 14.3449 13.4463L13.5425 9.74944C13.5255 9.67676 13.5493 9.59747 13.6037 9.54461L16.2863 6.80581C16.4767 6.6142 16.5311 6.34659 16.4359 6.09881C16.3407 5.84773 16.1231 5.68254 15.8477 5.65281L11.9819 5.24975C11.9037 5.24315 11.8357 5.19689 11.7983 5.13082L9.94871 1.80726C9.82291 1.5793 9.59171 1.44715 9.32991 1.44715L9.32651 1.44385Z" fill="#FFA233"/>
<path d="M5.38965 16.0001C5.12785 16.0001 4.86945 15.9241 4.64165 15.7787C4.21325 15.5012 3.99225 15.0189 4.06025 14.5233L4.62805 10.387L1.43885 7.58546C1.05805 7.24848 0.908454 6.74301 1.04785 6.26066C1.18725 5.77831 1.59185 5.42481 2.09505 5.33561L6.31785 4.58236L8.07565 0.773152C8.28645 0.313932 8.73525 0.0198997 9.25205 7.72587e-05C9.76545 -0.0197452 10.2381 0.24125 10.4829 0.683951L12.5263 4.3544L16.7967 4.80041C17.3101 4.85327 17.7351 5.17703 17.9153 5.64947C18.0921 6.1186 17.9833 6.63729 17.6263 6.99739L14.6649 10.0203L15.5489 14.1037C15.6543 14.5927 15.4707 15.0882 15.0661 15.3988C14.6615 15.7093 14.1209 15.7655 13.6585 15.5508L9.78585 13.7502L6.06285 15.8283C5.85205 15.9439 5.62425 16.0034 5.39305 16.0034L5.38965 16.0001ZM9.33365 1.6982C9.33365 1.6982 9.31665 1.6982 9.30645 1.6982C9.04125 1.70811 8.82025 1.85347 8.71485 2.08804L7.18825 5.40499C7.15765 5.47107 7.09645 5.51732 7.02165 5.53053L3.34625 6.18798C3.08785 6.23423 2.88725 6.40933 2.81585 6.65711C2.74445 6.90489 2.81585 7.15267 3.01305 7.32446L5.78745 9.75932C5.84185 9.80887 5.86905 9.88156 5.85885 9.95093L5.36585 13.552C5.33185 13.8064 5.44065 14.0443 5.66165 14.1863C5.87925 14.3284 6.14785 14.3383 6.37565 14.2095L9.61585 12.399C9.68045 12.3627 9.75865 12.3594 9.82665 12.3924L13.1995 13.9617C13.4375 14.074 13.7027 14.0443 13.9101 13.8857C14.1175 13.7271 14.2093 13.4826 14.1549 13.2315L13.3865 9.67672C13.3695 9.60735 13.3933 9.53136 13.4443 9.4785L16.0215 6.84542C16.2051 6.66041 16.2561 6.40602 16.1677 6.16485C16.0759 5.92368 15.8651 5.7651 15.6033 5.73537L11.8871 5.34883C11.8123 5.34222 11.7477 5.29927 11.7103 5.2332L9.93205 2.03848C9.80965 1.82044 9.58865 1.69489 9.33705 1.69489L9.33365 1.6982Z" fill="#400124"/>
<path opacity="0.35" d="M5.7226 9.27021L5.6682 9.66005L3.0094 7.32431C2.8122 7.15251 2.7408 6.90143 2.8122 6.65695C2.819 6.63713 2.8258 6.61731 2.8326 6.60079L5.6478 9.07199C5.7056 9.12154 5.7328 9.19753 5.7226 9.27021ZM14.158 13.2644C14.1308 13.2942 14.1002 13.3206 14.0662 13.347C13.852 13.5122 13.5766 13.5419 13.3318 13.4263L9.8366 11.8009C9.7652 11.7678 9.6836 11.7711 9.619 11.8108L6.2598 13.684C6.0218 13.8162 5.7464 13.8062 5.5186 13.6609C5.4608 13.6212 5.4064 13.575 5.3656 13.5254V13.5552C5.3282 13.8095 5.437 14.0441 5.658 14.1895C5.8756 14.3315 6.1442 14.3414 6.372 14.2126L9.6122 12.4022C9.6768 12.3658 9.7584 12.3625 9.823 12.3955L13.1958 13.9648C13.4338 14.0738 13.699 14.0441 13.9064 13.8888C14.107 13.7369 14.1988 13.5056 14.158 13.2644V13.2644ZM16.164 6.168C16.164 6.168 16.1606 6.15809 16.1572 6.15479L13.5834 8.78126C13.529 8.83742 13.5086 8.91341 13.5222 8.98609L13.597 9.32307L16.0178 6.84857C16.198 6.66356 16.2524 6.40917 16.164 6.168V6.168Z" fill="#400124"/>
<path opacity="0.5" d="M16.0178 6.84839L15.9566 6.91117C15.858 6.83518 15.7356 6.78562 15.5996 6.77241L11.88 6.38587C11.8086 6.37596 11.7406 6.33301 11.7066 6.27024L9.9284 3.07553C9.806 2.85748 9.585 2.72863 9.3334 2.72863H9.3062C9.041 2.73855 8.82 2.88391 8.7112 3.11848L7.1846 6.43543C7.154 6.5015 7.0928 6.54775 7.018 6.56097L3.3426 7.21841C3.227 7.23824 3.125 7.28449 3.04 7.35056L3.0094 7.32413C2.8122 7.15234 2.7408 6.90125 2.8122 6.65678C2.8836 6.409 3.0808 6.2339 3.3426 6.18765L7.018 5.5302C7.0928 5.51699 7.154 5.47074 7.1846 5.40466L8.7112 2.08771C8.82 1.85314 9.041 1.70778 9.3062 1.70117C9.313 1.70117 9.3232 1.70117 9.3334 1.70117C9.585 1.70117 9.806 1.83002 9.9284 2.04806L11.7066 5.24278C11.7406 5.30555 11.8086 5.3485 11.88 5.35841L15.5996 5.74495C15.8614 5.77138 16.0722 5.92996 16.164 6.17113C16.2524 6.4123 16.198 6.66669 16.0178 6.8517V6.84839Z" fill="white"/>
<path d="M29.3283 1.44385C29.3283 1.44385 29.3079 1.44385 29.3011 1.44385C29.0257 1.45376 28.7945 1.60573 28.6823 1.85021L27.0945 5.29931C27.0639 5.36869 26.9993 5.41824 26.9211 5.43146L23.0961 6.11533C22.8275 6.16489 22.6201 6.34659 22.5453 6.60098C22.4705 6.85867 22.5453 7.11636 22.7493 7.29477L25.6359 9.82873C25.6937 9.87829 25.7209 9.95428 25.7107 10.0303L25.1973 13.7767C25.1599 14.041 25.2755 14.2888 25.5033 14.4374C25.7311 14.5861 26.0099 14.596 26.2479 14.4639L29.6207 12.5807C29.6887 12.5444 29.7703 12.5411 29.8417 12.5741L33.3505 14.2062C33.5987 14.3218 33.8741 14.2921 34.0917 14.1269C34.3059 13.9617 34.4011 13.7073 34.3467 13.4463L33.5443 9.74944C33.5273 9.67676 33.5511 9.59747 33.6055 9.54461L36.2881 6.80581C36.4785 6.6142 36.5329 6.34659 36.4377 6.09881C36.3425 5.84773 36.1249 5.68254 35.8495 5.65281L31.9837 5.24975C31.9055 5.24315 31.8375 5.19689 31.8001 5.13082L29.9505 1.80726C29.8247 1.5793 29.5935 1.44715 29.3317 1.44715L29.3283 1.44385Z" fill="#FFA233"/>
<path d="M25.3915 16.0001C25.1297 16.0001 24.8713 15.9241 24.6435 15.7787C24.2151 15.5012 23.9941 15.0189 24.0621 14.5233L24.6299 10.387L21.4407 7.58546C21.0599 7.24848 20.9103 6.74301 21.0497 6.26066C21.1891 5.77831 21.5937 5.42481 22.0969 5.33561L26.3197 4.58236L28.0775 0.773152C28.2883 0.313932 28.7371 0.0198997 29.2539 7.72587e-05C29.7673 -0.0197452 30.2399 0.24125 30.4847 0.683951L32.5281 4.3544L36.7985 4.80041C37.3119 4.85327 37.7369 5.17703 37.9171 5.64947C38.0939 6.1186 37.9851 6.63729 37.6281 6.99739L34.6667 10.0203L35.5507 14.1037C35.6561 14.5927 35.4725 15.0882 35.0679 15.3988C34.6633 15.7093 34.1227 15.7655 33.6603 15.5508L29.7877 13.7502L26.0647 15.8283C25.8539 15.9439 25.6261 16.0034 25.3949 16.0034L25.3915 16.0001ZM29.3355 1.6982C29.3355 1.6982 29.3185 1.6982 29.3083 1.6982C29.0431 1.70811 28.8221 1.85347 28.7167 2.08804L27.1901 5.40499C27.1595 5.47107 27.0983 5.51732 27.0235 5.53053L23.3481 6.18798C23.0897 6.23423 22.8891 6.40933 22.8177 6.65711C22.7463 6.90489 22.8177 7.15267 23.0149 7.32446L25.7893 9.75932C25.8437 9.80887 25.8709 9.88156 25.8607 9.95093L25.3677 13.552C25.3337 13.8064 25.4425 14.0443 25.6635 14.1863C25.8811 14.3284 26.1497 14.3383 26.3775 14.2095L29.6177 12.399C29.6823 12.3627 29.7605 12.3594 29.8285 12.3924L33.2013 13.9617C33.4393 14.074 33.7045 14.0443 33.9119 13.8857C34.1193 13.7271 34.2111 13.4826 34.1567 13.2315L33.3883 9.67672C33.3713 9.60735 33.3951 9.53136 33.4461 9.4785L36.0233 6.84542C36.2069 6.66041 36.2579 6.40602 36.1695 6.16485C36.0777 5.92368 35.8669 5.7651 35.6051 5.73537L31.8889 5.34883C31.8141 5.34222 31.7495 5.29927 31.7121 5.2332L29.9339 2.03848C29.8115 1.82044 29.5905 1.69489 29.3389 1.69489L29.3355 1.6982Z" fill="#400124"/>
<path opacity="0.35" d="M25.7244 9.27021L25.67 9.66005L23.0112 7.32431C22.814 7.15251 22.7426 6.90143 22.814 6.65695C22.8208 6.63713 22.8276 6.61731 22.8344 6.60079L25.6496 9.07199C25.7074 9.12154 25.7346 9.19753 25.7244 9.27021ZM34.1598 13.2644C34.1326 13.2942 34.102 13.3206 34.068 13.347C33.8538 13.5122 33.5784 13.5419 33.3336 13.4263L29.8384 11.8009C29.767 11.7678 29.6854 11.7711 29.6208 11.8108L26.2616 13.684C26.0236 13.8162 25.7482 13.8062 25.5204 13.6609C25.4626 13.6212 25.4082 13.575 25.3674 13.5254V13.5552C25.33 13.8095 25.4388 14.0441 25.6598 14.1895C25.8774 14.3315 26.146 14.3414 26.3738 14.2126L29.614 12.4022C29.6786 12.3658 29.7602 12.3625 29.8248 12.3955L33.1976 13.9648C33.4356 14.0738 33.7008 14.0441 33.9082 13.8888C34.1088 13.7369 34.2006 13.5056 34.1598 13.2644V13.2644ZM36.1658 6.168C36.1658 6.168 36.1624 6.15809 36.159 6.15479L33.5852 8.78126C33.5308 8.83742 33.5104 8.91341 33.524 8.98609L33.5988 9.32307L36.0196 6.84857C36.1998 6.66356 36.2542 6.40917 36.1658 6.168V6.168Z" fill="#400124"/>
<path opacity="0.5" d="M36.0196 6.84839L35.9584 6.91117C35.8598 6.83518 35.7374 6.78562 35.6014 6.77241L31.8818 6.38587C31.8104 6.37596 31.7424 6.33301 31.7084 6.27024L29.9302 3.07553C29.8078 2.85748 29.5868 2.72863 29.3352 2.72863H29.308C29.0428 2.73855 28.8218 2.88391 28.713 3.11848L27.1864 6.43543C27.1558 6.5015 27.0946 6.54775 27.0198 6.56097L23.3444 7.21841C23.2288 7.23824 23.1268 7.28449 23.0418 7.35056L23.0112 7.32413C22.814 7.15234 22.7426 6.90125 22.814 6.65678C22.8854 6.409 23.0826 6.2339 23.3444 6.18765L27.0198 5.5302C27.0946 5.51699 27.1558 5.47074 27.1864 5.40466L28.713 2.08771C28.8218 1.85314 29.0428 1.70778 29.308 1.70117C29.3148 1.70117 29.325 1.70117 29.3352 1.70117C29.5868 1.70117 29.8078 1.83002 29.9302 2.04806L31.7084 5.24278C31.7424 5.30555 31.8104 5.3485 31.8818 5.35841L35.6014 5.74495C35.8632 5.77138 36.074 5.92996 36.1658 6.17113C36.2542 6.4123 36.1998 6.66669 36.0196 6.8517V6.84839Z" fill="white"/>
<path d="M49.3301 1.44385C49.3301 1.44385 49.3097 1.44385 49.3029 1.44385C49.0275 1.45376 48.7963 1.60573 48.6841 1.85021L47.0963 5.29931C47.0657 5.36869 47.0011 5.41824 46.9229 5.43146L43.0979 6.11533C42.8293 6.16489 42.6219 6.34659 42.5471 6.60098C42.4723 6.85867 42.5471 7.11636 42.7511 7.29477L45.6377 9.82873C45.6955 9.87829 45.7227 9.95428 45.7125 10.0303L45.1991 13.7767C45.1617 14.041 45.2773 14.2888 45.5051 14.4374C45.7329 14.5861 46.0117 14.596 46.2497 14.4639L49.6225 12.5807C49.6905 12.5444 49.7721 12.5411 49.8435 12.5741L53.3523 14.2062C53.6005 14.3218 53.8759 14.2921 54.0935 14.1269C54.3077 13.9617 54.4029 13.7073 54.3485 13.4463L53.5461 9.74944C53.5291 9.67676 53.5529 9.59747 53.6073 9.54461L56.2899 6.80581C56.4803 6.6142 56.5347 6.34659 56.4395 6.09881C56.3443 5.84773 56.1267 5.68254 55.8513 5.65281L51.9855 5.24975C51.9073 5.24315 51.8393 5.19689 51.8019 5.13082L49.9523 1.80726C49.8265 1.5793 49.5953 1.44715 49.3335 1.44715L49.3301 1.44385Z" fill="#FFA233"/>
<path d="M45.3932 16.0001C45.1314 16.0001 44.873 15.9241 44.6452 15.7787C44.2168 15.5012 43.9958 15.0189 44.0638 14.5233L44.6316 10.387L41.4424 7.58546C41.0616 7.24848 40.912 6.74301 41.0514 6.26066C41.1908 5.77831 41.5954 5.42481 42.0986 5.33561L46.3214 4.58236L48.0792 0.773152C48.29 0.313932 48.7388 0.0198997 49.2556 7.72587e-05C49.769 -0.0197452 50.2416 0.24125 50.4864 0.683951L52.5298 4.3544L56.8002 4.80041C57.3136 4.85327 57.7386 5.17703 57.9188 5.64947C58.0956 6.1186 57.9868 6.63729 57.6298 6.99739L54.6684 10.0203L55.5524 14.1037C55.6578 14.5927 55.4742 15.0882 55.0696 15.3988C54.665 15.7093 54.1244 15.7655 53.662 15.5508L49.7894 13.7502L46.0664 15.8283C45.8556 15.9439 45.6278 16.0034 45.3966 16.0034L45.3932 16.0001ZM49.3372 1.6982C49.3372 1.6982 49.3202 1.6982 49.31 1.6982C49.0448 1.70811 48.8238 1.85347 48.7184 2.08804L47.1918 5.40499C47.1612 5.47107 47.1 5.51732 47.0252 5.53053L43.3498 6.18798C43.0914 6.23423 42.8908 6.40933 42.8194 6.65711C42.748 6.90489 42.8194 7.15267 43.0166 7.32446L45.791 9.75932C45.8454 9.80887 45.8726 9.88156 45.8624 9.95093L45.3694 13.552C45.3354 13.8064 45.4442 14.0443 45.6652 14.1863C45.8828 14.3284 46.1514 14.3383 46.3792 14.2095L49.6194 12.399C49.684 12.3627 49.7622 12.3594 49.8302 12.3924L53.203 13.9617C53.441 14.074 53.7062 14.0443 53.9136 13.8857C54.121 13.7271 54.2128 13.4826 54.1584 13.2315L53.39 9.67672C53.373 9.60735 53.3968 9.53136 53.4478 9.4785L56.025 6.84542C56.2086 6.66041 56.2596 6.40602 56.1712 6.16485C56.0794 5.92368 55.8686 5.7651 55.6068 5.73537L51.8906 5.34883C51.8158 5.34222 51.7512 5.29927 51.7138 5.2332L49.9356 2.03848C49.8132 1.82044 49.5922 1.69489 49.3406 1.69489L49.3372 1.6982Z" fill="#400124"/>
<path opacity="0.35" d="M45.7261 9.27021L45.6717 9.66005L43.0129 7.32431C42.8157 7.15251 42.7443 6.90143 42.8157 6.65695C42.8225 6.63713 42.8293 6.61731 42.8361 6.60079L45.6513 9.07199C45.7091 9.12154 45.7363 9.19753 45.7261 9.27021ZM54.1615 13.2644C54.1343 13.2942 54.1037 13.3206 54.0697 13.347C53.8555 13.5122 53.5801 13.5419 53.3353 13.4263L49.8401 11.8009C49.7687 11.7678 49.6871 11.7711 49.6225 11.8108L46.2633 13.684C46.0253 13.8162 45.7499 13.8062 45.5221 13.6609C45.4643 13.6212 45.4099 13.575 45.3691 13.5254V13.5552C45.3317 13.8095 45.4405 14.0441 45.6615 14.1895C45.8791 14.3315 46.1477 14.3414 46.3755 14.2126L49.6157 12.4022C49.6803 12.3658 49.7619 12.3625 49.8265 12.3955L53.1993 13.9648C53.4373 14.0738 53.7025 14.0441 53.9099 13.8888C54.1105 13.7369 54.2023 13.5056 54.1615 13.2644V13.2644ZM56.1675 6.168C56.1675 6.168 56.1641 6.15809 56.1607 6.15479L53.5869 8.78126C53.5325 8.83742 53.5121 8.91341 53.5257 8.98609L53.6005 9.32307L56.0213 6.84857C56.2015 6.66356 56.2559 6.40917 56.1675 6.168V6.168Z" fill="#400124"/>
<path opacity="0.5" d="M56.0213 6.84839L55.9601 6.91117C55.8615 6.83518 55.7391 6.78562 55.6031 6.77241L51.8835 6.38587C51.8121 6.37596 51.7441 6.33301 51.7101 6.27024L49.9319 3.07553C49.8095 2.85748 49.5885 2.72863 49.3369 2.72863H49.3097C49.0445 2.73855 48.8235 2.88391 48.7147 3.11848L47.1881 6.43543C47.1575 6.5015 47.0963 6.54775 47.0215 6.56097L43.3461 7.21841C43.2305 7.23824 43.1285 7.28449 43.0435 7.35056L43.0129 7.32413C42.8157 7.15234 42.7443 6.90125 42.8157 6.65678C42.8871 6.409 43.0843 6.2339 43.3461 6.18765L47.0215 5.5302C47.0963 5.51699 47.1575 5.47074 47.1881 5.40466L48.7147 2.08771C48.8235 1.85314 49.0445 1.70778 49.3097 1.70117C49.3165 1.70117 49.3267 1.70117 49.3369 1.70117C49.5885 1.70117 49.8095 1.83002 49.9319 2.04806L51.7101 5.24278C51.7441 5.30555 51.8121 5.3485 51.8835 5.35841L55.6031 5.74495C55.8649 5.77138 56.0757 5.92996 56.1675 6.17113C56.2559 6.4123 56.2015 6.66669 56.0213 6.8517V6.84839Z" fill="white"/>
<path d="M69.7686 1.59263V12.5544C69.721 12.5445 69.67 12.5544 69.6258 12.5809L66.2529 14.464C66.0149 14.5961 65.7361 14.5862 65.5083 14.4376C65.2805 14.2889 65.1649 14.0444 65.2023 13.7801L65.7157 10.0337C65.7259 9.95769 65.6988 9.88171 65.641 9.83215L62.7543 7.29818C62.5503 7.11978 62.4755 6.85879 62.5503 6.6011C62.6251 6.34671 62.8291 6.165 63.1011 6.11545L66.9261 5.43157C67.0009 5.41836 67.0656 5.3688 67.0996 5.29942L68.6874 1.85032C68.7996 1.60584 69.0307 1.45718 69.3027 1.44727H69.3333C69.4965 1.44727 69.6496 1.50013 69.7686 1.59263V1.59263Z" fill="#FFA233"/>
<path d="M65.396 16.0001C65.1342 16.0001 64.8758 15.9241 64.648 15.7787C64.2196 15.5012 63.9986 15.0189 64.0666 14.5233L64.6344 10.387L61.4452 7.58546C61.0644 7.24848 60.9148 6.74301 61.0542 6.26066C61.1936 5.77831 61.5982 5.42481 62.1014 5.33561L66.3242 4.58236L68.082 0.773152C68.2928 0.313932 68.7416 0.0198997 69.2584 7.72587e-05C69.7718 -0.0197452 70.2444 0.24125 70.4892 0.683951L72.5326 4.3544L76.803 4.80041C77.3164 4.85327 77.7414 5.17703 77.9216 5.64947C78.0984 6.1186 77.9896 6.63729 77.6326 6.99739L74.6712 10.0203L75.5552 14.1037C75.6606 14.5927 75.477 15.0882 75.0724 15.3988C74.6678 15.7093 74.1272 15.7655 73.6648 15.5508L69.7922 13.7502L66.0692 15.8283C65.8584 15.9439 65.6306 16.0034 65.3994 16.0034L65.396 16.0001ZM69.34 1.6982C69.34 1.6982 69.323 1.6982 69.3128 1.6982C69.0476 1.70811 68.8266 1.85347 68.7212 2.08804L67.1946 5.40499C67.164 5.47107 67.1028 5.51732 67.028 5.53053L63.3526 6.18798C63.0942 6.23423 62.8936 6.40933 62.8222 6.65711C62.7508 6.90489 62.8222 7.15267 63.0194 7.32446L65.7938 9.75932C65.8482 9.80887 65.8754 9.88156 65.8652 9.95093L65.3722 13.552C65.3382 13.8064 65.447 14.0443 65.668 14.1863C65.8856 14.3284 66.1542 14.3383 66.382 14.2095L69.6222 12.399C69.6868 12.3627 69.765 12.3594 69.833 12.3924L73.2058 13.9617C73.4438 14.074 73.709 14.0443 73.9164 13.8857C74.1238 13.7271 74.2156 13.4826 74.1612 13.2315L73.3928 9.67672C73.3758 9.60735 73.3996 9.53136 73.4506 9.4785L76.0278 6.84542C76.2114 6.66041 76.2624 6.40602 76.174 6.16485C76.0822 5.92368 75.8714 5.7651 75.6096 5.73537L71.8934 5.34883C71.8186 5.34222 71.754 5.29927 71.7166 5.2332L69.9384 2.03848C69.816 1.82044 69.595 1.69489 69.3434 1.69489L69.34 1.6982Z" fill="#400124"/>
<path opacity="0.35" d="M69.6258 11.8106L66.2666 13.6838C66.0286 13.8159 65.7532 13.806 65.5254 13.6607C65.4676 13.621 65.4132 13.5748 65.3724 13.5252V13.555C65.335 13.8093 65.4438 14.0439 65.6648 14.1893C65.8824 14.3313 66.151 14.3412 66.3788 14.2124L69.619 12.4019C69.6632 12.3755 69.7176 12.3656 69.7686 12.3755V11.7808C69.721 11.7742 69.67 11.7841 69.6258 11.8106V11.8106ZM65.6546 9.07178L62.8394 6.60059C62.8394 6.60059 62.8258 6.63693 62.819 6.65675C62.7476 6.90123 62.819 7.15231 63.0162 7.3241L65.675 9.65985L65.7294 9.27001C65.7396 9.19732 65.7124 9.12134 65.6546 9.07178V9.07178Z" fill="#400124"/>
<path opacity="0.5" d="M69.7686 1.84984V2.88061C69.653 2.78149 69.5034 2.72863 69.3402 2.72863H69.313C69.0478 2.73855 68.8268 2.88391 68.718 3.11848L67.1914 6.43543C67.1608 6.5015 67.0996 6.54775 67.0248 6.56097L63.3494 7.21841C63.2338 7.23824 63.1318 7.28449 63.0468 7.35056L63.0162 7.32413C62.819 7.15234 62.7476 6.90125 62.819 6.65678C62.8904 6.409 63.0876 6.2339 63.3494 6.18765L67.0248 5.5302C67.0996 5.51699 67.1608 5.47074 67.1914 5.40466L68.718 2.08771C68.8268 1.85314 69.0478 1.70778 69.313 1.70117C69.3198 1.70117 69.33 1.70117 69.3402 1.70117C69.5034 1.70117 69.653 1.75403 69.7686 1.85314V1.84984Z" fill="white"/>
<path d="M85.3998 16.0001C85.138 16.0001 84.8796 15.9241 84.6518 15.7787C84.2234 15.5012 84.0024 15.0189 84.0704 14.5233L84.6382 10.387L81.449 7.58546C81.0682 7.24848 80.9186 6.74301 81.058 6.26066C81.1974 5.77831 81.602 5.42481 82.1052 5.33561L86.328 4.58236L88.0858 0.773152C88.2966 0.313932 88.7454 0.0198997 89.2622 7.72587e-05C89.7756 -0.0197452 90.2482 0.24125 90.493 0.683951L92.5364 4.3544L96.8068 4.80041C97.3202 4.85327 97.7452 5.17703 97.9254 5.64947C98.1022 6.1186 97.9934 6.63729 97.6364 6.99739L94.675 10.0203L95.559 14.1037C95.6644 14.5927 95.4808 15.0882 95.0762 15.3988C94.6716 15.7093 94.131 15.7655 93.6686 15.5508L89.796 13.7502L86.073 15.8283C85.8622 15.9439 85.6344 16.0034 85.4032 16.0034L85.3998 16.0001ZM89.3438 1.6982C89.3438 1.6982 89.3268 1.6982 89.3166 1.6982C89.0514 1.70811 88.8304 1.85347 88.725 2.08804L87.1984 5.40499C87.1678 5.47107 87.1066 5.51732 87.0318 5.53053L83.3564 6.18798C83.098 6.23423 82.8974 6.40933 82.826 6.65711C82.7546 6.90489 82.826 7.15267 83.0232 7.32446L85.7976 9.75932C85.852 9.80887 85.8792 9.88156 85.869 9.95093L85.376 13.552C85.342 13.8064 85.4508 14.0443 85.6718 14.1863C85.8894 14.3284 86.158 14.3383 86.3858 14.2095L89.626 12.399C89.6906 12.3627 89.7688 12.3594 89.8368 12.3924L93.2096 13.9617C93.4476 14.074 93.7128 14.0443 93.9202 13.8857C94.1276 13.7271 94.2194 13.4826 94.165 13.2315L93.3966 9.67672C93.3796 9.60735 93.4034 9.53136 93.4544 9.4785L96.0316 6.84542C96.2152 6.66041 96.2662 6.40602 96.1778 6.16485C96.086 5.92368 95.8752 5.7651 95.6134 5.73537L91.8972 5.34883C91.8224 5.34222 91.7578 5.29927 91.7204 5.2332L89.9422 2.03848C89.8198 1.82044 89.5988 1.69489 89.3472 1.69489L89.3438 1.6982Z" fill="#400124"/>
<path opacity="0.35" d="M85.7332 9.2707L85.6788 9.66054L83.02 7.3248C82.8228 7.153 82.7514 6.90192 82.8228 6.65744C82.8296 6.63762 82.8364 6.6178 82.8432 6.60128L85.6584 9.07247C85.7162 9.12203 85.7434 9.19802 85.7332 9.2707ZM94.1686 13.2649C94.1414 13.2947 94.1108 13.3211 94.0768 13.3475C93.8626 13.5127 93.5872 13.5424 93.3424 13.4268L89.8472 11.8014C89.7758 11.7683 89.6942 11.7716 89.6296 11.8113L86.2704 13.6845C86.0324 13.8166 85.757 13.8067 85.5292 13.6614C85.4714 13.6217 85.417 13.5755 85.3762 13.5259V13.5556C85.3388 13.81 85.4476 14.0446 85.6686 14.19C85.8862 14.332 86.1548 14.3419 86.3826 14.2131L89.6228 12.4026C89.6874 12.3663 89.769 12.363 89.8336 12.396L93.2064 13.9653C93.4444 14.0743 93.7096 14.0446 93.917 13.8893C94.1176 13.7374 94.2094 13.5061 94.1686 13.2649V13.2649ZM96.1746 6.16849C96.1746 6.16849 96.1712 6.15858 96.1678 6.15527L93.594 8.78174C93.5396 8.83791 93.5192 8.91389 93.5328 8.98658L93.6076 9.32356L96.0284 6.84906C96.2086 6.66405 96.263 6.40966 96.1746 6.16849V6.16849Z" fill="#400124"/>
</svg>
