<svg width="99" height="18" viewBox="0 0 99 18" fill="none" xmlns="http://www.w3.org/2000/svg">
<path d="M9.32651 2.44373C9.32651 2.44373 9.30611 2.44373 9.29931 2.44373C9.02391 2.45364 8.79271 2.60561 8.68051 2.85009L7.09271 6.29919C7.06211 6.36857 6.99751 6.41812 6.91931 6.43134L3.09431 7.11521C2.82571 7.16477 2.61831 7.34647 2.54351 7.60086C2.46871 7.85855 2.54351 8.11624 2.74751 8.29464L5.63411 10.8286C5.69191 10.8782 5.71911 10.9542 5.70891 11.0301L5.19551 14.7766C5.15811 15.0409 5.27371 15.2887 5.50151 15.4373C5.72931 15.586 6.00811 15.5959 6.24611 15.4638L9.61891 13.5806C9.68691 13.5443 9.76851 13.541 9.83991 13.574L13.3487 15.2061C13.5969 15.3217 13.8723 15.292 14.0899 15.1268C14.3041 14.9616 14.3993 14.7072 14.3449 14.4462L13.5425 10.7493C13.5255 10.6766 13.5493 10.5973 13.6037 10.5445L16.2863 7.80569C16.4767 7.61407 16.5311 7.34647 16.4359 7.09869C16.3407 6.84761 16.1231 6.68242 15.8477 6.65269L11.9819 6.24963C11.9037 6.24302 11.8357 6.19677 11.7983 6.1307L9.94871 2.80714C9.82291 2.57918 9.59171 2.44703 9.32991 2.44703L9.32651 2.44373Z" fill="#FFA233"/>
<path d="M5.38965 17.0001C5.12785 17.0001 4.86945 16.9241 4.64165 16.7787C4.21325 16.5012 3.99225 16.0189 4.06025 15.5233L4.62805 11.387L1.43885 8.58546C1.05805 8.24848 0.908454 7.74301 1.04785 7.26066C1.18725 6.77831 1.59185 6.42481 2.09505 6.33561L6.31785 5.58236L8.07565 1.77315C8.28645 1.31393 8.73525 1.0199 9.25205 1.00008C9.76545 0.980255 10.2381 1.24125 10.4829 1.68395L12.5263 5.3544L16.7967 5.80041C17.3101 5.85327 17.7351 6.17703 17.9153 6.64947C18.0921 7.1186 17.9833 7.63729 17.6263 7.99739L14.6649 11.0203L15.5489 15.1037C15.6543 15.5927 15.4707 16.0882 15.0661 16.3988C14.6615 16.7093 14.1209 16.7655 13.6585 16.5508L9.78585 14.7502L6.06285 16.8283C5.85205 16.9439 5.62425 17.0034 5.39305 17.0034L5.38965 17.0001ZM9.33365 2.6982C9.33365 2.6982 9.31665 2.6982 9.30645 2.6982C9.04125 2.70811 8.82025 2.85347 8.71485 3.08804L7.18825 6.40499C7.15765 6.47107 7.09645 6.51732 7.02165 6.53053L3.34625 7.18798C3.08785 7.23423 2.88725 7.40933 2.81585 7.65711C2.74445 7.90489 2.81585 8.15267 3.01305 8.32446L5.78745 10.7593C5.84185 10.8089 5.86905 10.8816 5.85885 10.9509L5.36585 14.552C5.33185 14.8064 5.44065 15.0443 5.66165 15.1863C5.87925 15.3284 6.14785 15.3383 6.37565 15.2095L9.61585 13.399C9.68045 13.3627 9.75865 13.3594 9.82665 13.3924L13.1995 14.9617C13.4375 15.074 13.7027 15.0443 13.9101 14.8857C14.1175 14.7271 14.2093 14.4826 14.1549 14.2315L13.3865 10.6767C13.3695 10.6073 13.3933 10.5314 13.4443 10.4785L16.0215 7.84542C16.2051 7.66041 16.2561 7.40602 16.1677 7.16485C16.0759 6.92368 15.8651 6.7651 15.6033 6.73537L11.8871 6.34883C11.8123 6.34222 11.7477 6.29927 11.7103 6.2332L9.93205 3.03848C9.80965 2.82044 9.58865 2.69489 9.33705 2.69489L9.33365 2.6982Z" fill="#400124"/>
<path opacity="0.35" d="M5.7226 10.2703L5.6682 10.6602L3.0094 8.32443C2.8122 8.15264 2.7408 7.90155 2.8122 7.65708C2.819 7.63725 2.8258 7.61743 2.8326 7.60091L5.6478 10.0721C5.7056 10.1217 5.7328 10.1976 5.7226 10.2703ZM14.158 14.2646C14.1308 14.2943 14.1002 14.3207 14.0662 14.3471C13.852 14.5123 13.5766 14.5421 13.3318 14.4264L9.8366 12.801C9.7652 12.768 9.6836 12.7713 9.619 12.8109L6.2598 14.6841C6.0218 14.8163 5.7464 14.8064 5.5186 14.661C5.4608 14.6214 5.4064 14.5751 5.3656 14.5255V14.5553C5.3282 14.8097 5.437 15.0442 5.658 15.1896C5.8756 15.3317 6.1442 15.3416 6.372 15.2127L9.6122 13.4023C9.6768 13.3659 9.7584 13.3626 9.823 13.3957L13.1958 14.9649C13.4338 15.074 13.699 15.0442 13.9064 14.889C14.107 14.737 14.1988 14.5057 14.158 14.2646V14.2646ZM16.164 7.16812C16.164 7.16812 16.1606 7.15821 16.1572 7.15491L13.5834 9.78138C13.529 9.83754 13.5086 9.91353 13.5222 9.98621L13.597 10.3232L16.0178 7.84869C16.198 7.66368 16.2524 7.4093 16.164 7.16812V7.16812Z" fill="#400124"/>
<path opacity="0.5" d="M16.0178 7.84864L15.9566 7.91141C15.858 7.83542 15.7356 7.78587 15.5996 7.77265L11.88 7.38612C11.8086 7.3762 11.7406 7.33326 11.7066 7.27048L9.9284 4.07577C9.806 3.85772 9.585 3.72888 9.3334 3.72888H9.3062C9.041 3.73879 8.82 3.88415 8.7112 4.11872L7.1846 7.43567C7.154 7.50175 7.0928 7.548 7.018 7.56121L3.3426 8.21866C3.227 8.23848 3.125 8.28473 3.04 8.35081L3.0094 8.32438C2.8122 8.15258 2.7408 7.9015 2.8122 7.65702C2.8836 7.40924 3.0808 7.23414 3.3426 7.18789L7.018 6.53045C7.0928 6.51723 7.154 6.47098 7.1846 6.40491L8.7112 3.08795C8.82 2.85339 9.041 2.70802 9.3062 2.70142C9.313 2.70142 9.3232 2.70142 9.3334 2.70142C9.585 2.70142 9.806 2.83026 9.9284 3.04831L11.7066 6.24302C11.7406 6.30579 11.8086 6.34874 11.88 6.35865L15.5996 6.74519C15.8614 6.77162 16.0722 6.9302 16.164 7.17137C16.2524 7.41255 16.198 7.66693 16.0178 7.85194V7.84864Z" fill="white"/>
<path d="M29.3283 2.44373C29.3283 2.44373 29.3079 2.44373 29.3011 2.44373C29.0257 2.45364 28.7945 2.60561 28.6823 2.85009L27.0945 6.29919C27.0639 6.36857 26.9993 6.41812 26.9211 6.43134L23.0961 7.11521C22.8275 7.16477 22.6201 7.34647 22.5453 7.60086C22.4705 7.85855 22.5453 8.11624 22.7493 8.29464L25.6359 10.8286C25.6937 10.8782 25.7209 10.9542 25.7107 11.0301L25.1973 14.7766C25.1599 15.0409 25.2755 15.2887 25.5033 15.4373C25.7311 15.586 26.0099 15.5959 26.2479 15.4638L29.6207 13.5806C29.6887 13.5443 29.7703 13.541 29.8417 13.574L33.3505 15.2061C33.5987 15.3217 33.8741 15.292 34.0917 15.1268C34.3059 14.9616 34.4011 14.7072 34.3467 14.4462L33.5443 10.7493C33.5273 10.6766 33.5511 10.5973 33.6055 10.5445L36.2881 7.80569C36.4785 7.61407 36.5329 7.34647 36.4377 7.09869C36.3425 6.84761 36.1249 6.68242 35.8495 6.65269L31.9837 6.24963C31.9055 6.24302 31.8375 6.19677 31.8001 6.1307L29.9505 2.80714C29.8247 2.57918 29.5935 2.44703 29.3317 2.44703L29.3283 2.44373Z" fill="#FFA233"/>
<path d="M25.3915 17.0001C25.1297 17.0001 24.8713 16.9241 24.6435 16.7787C24.2151 16.5012 23.9941 16.0189 24.0621 15.5233L24.6299 11.387L21.4407 8.58546C21.0599 8.24848 20.9103 7.74301 21.0497 7.26066C21.1891 6.77831 21.5937 6.42481 22.0969 6.33561L26.3197 5.58236L28.0775 1.77315C28.2883 1.31393 28.7371 1.0199 29.2539 1.00008C29.7673 0.980255 30.2399 1.24125 30.4847 1.68395L32.5281 5.3544L36.7985 5.80041C37.3119 5.85327 37.7369 6.17703 37.9171 6.64947C38.0939 7.1186 37.9851 7.63729 37.6281 7.99739L34.6667 11.0203L35.5507 15.1037C35.6561 15.5927 35.4725 16.0882 35.0679 16.3988C34.6633 16.7093 34.1227 16.7655 33.6603 16.5508L29.7877 14.7502L26.0647 16.8283C25.8539 16.9439 25.6261 17.0034 25.3949 17.0034L25.3915 17.0001ZM29.3355 2.6982C29.3355 2.6982 29.3185 2.6982 29.3083 2.6982C29.0431 2.70811 28.8221 2.85347 28.7167 3.08804L27.1901 6.40499C27.1595 6.47107 27.0983 6.51732 27.0235 6.53053L23.3481 7.18798C23.0897 7.23423 22.8891 7.40933 22.8177 7.65711C22.7463 7.90489 22.8177 8.15267 23.0149 8.32446L25.7893 10.7593C25.8437 10.8089 25.8709 10.8816 25.8607 10.9509L25.3677 14.552C25.3337 14.8064 25.4425 15.0443 25.6635 15.1863C25.8811 15.3284 26.1497 15.3383 26.3775 15.2095L29.6177 13.399C29.6823 13.3627 29.7605 13.3594 29.8285 13.3924L33.2013 14.9617C33.4393 15.074 33.7045 15.0443 33.9119 14.8857C34.1193 14.7271 34.2111 14.4826 34.1567 14.2315L33.3883 10.6767C33.3713 10.6073 33.3951 10.5314 33.4461 10.4785L36.0233 7.84542C36.2069 7.66041 36.2579 7.40602 36.1695 7.16485C36.0777 6.92368 35.8669 6.7651 35.6051 6.73537L31.8889 6.34883C31.8141 6.34222 31.7495 6.29927 31.7121 6.2332L29.9339 3.03848C29.8115 2.82044 29.5905 2.69489 29.3389 2.69489L29.3355 2.6982Z" fill="#400124"/>
<path opacity="0.35" d="M25.7244 10.2703L25.67 10.6602L23.0112 8.32443C22.814 8.15264 22.7426 7.90155 22.814 7.65708C22.8208 7.63725 22.8276 7.61743 22.8344 7.60091L25.6496 10.0721C25.7074 10.1217 25.7346 10.1976 25.7244 10.2703ZM34.1598 14.2646C34.1326 14.2943 34.102 14.3207 34.068 14.3471C33.8538 14.5123 33.5784 14.5421 33.3336 14.4264L29.8384 12.801C29.767 12.768 29.6854 12.7713 29.6208 12.8109L26.2616 14.6841C26.0236 14.8163 25.7482 14.8064 25.5204 14.661C25.4626 14.6214 25.4082 14.5751 25.3674 14.5255V14.5553C25.33 14.8097 25.4388 15.0442 25.6598 15.1896C25.8774 15.3317 26.146 15.3416 26.3738 15.2127L29.614 13.4023C29.6786 13.3659 29.7602 13.3626 29.8248 13.3957L33.1976 14.9649C33.4356 15.074 33.7008 15.0442 33.9082 14.889C34.1088 14.737 34.2006 14.5057 34.1598 14.2646V14.2646ZM36.1658 7.16812C36.1658 7.16812 36.1624 7.15821 36.159 7.15491L33.5852 9.78138C33.5308 9.83754 33.5104 9.91353 33.524 9.98621L33.5988 10.3232L36.0196 7.84869C36.1998 7.66368 36.2542 7.4093 36.1658 7.16812V7.16812Z" fill="#400124"/>
<path opacity="0.5" d="M36.0196 7.84864L35.9584 7.91141C35.8598 7.83542 35.7374 7.78587 35.6014 7.77265L31.8818 7.38612C31.8104 7.3762 31.7424 7.33326 31.7084 7.27048L29.9302 4.07577C29.8078 3.85772 29.5868 3.72888 29.3352 3.72888H29.308C29.0428 3.73879 28.8218 3.88415 28.713 4.11872L27.1864 7.43567C27.1558 7.50175 27.0946 7.548 27.0198 7.56121L23.3444 8.21866C23.2288 8.23848 23.1268 8.28473 23.0418 8.35081L23.0112 8.32438C22.814 8.15258 22.7426 7.9015 22.814 7.65702C22.8854 7.40924 23.0826 7.23414 23.3444 7.18789L27.0198 6.53045C27.0946 6.51723 27.1558 6.47098 27.1864 6.40491L28.713 3.08795C28.8218 2.85339 29.0428 2.70802 29.308 2.70142C29.3148 2.70142 29.325 2.70142 29.3352 2.70142C29.5868 2.70142 29.8078 2.83026 29.9302 3.04831L31.7084 6.24302C31.7424 6.30579 31.8104 6.34874 31.8818 6.35865L35.6014 6.74519C35.8632 6.77162 36.074 6.9302 36.1658 7.17137C36.2542 7.41255 36.1998 7.66693 36.0196 7.85194V7.84864Z" fill="white"/>
<path d="M49.3301 2.44373C49.3301 2.44373 49.3097 2.44373 49.3029 2.44373C49.0275 2.45364 48.7963 2.60561 48.6841 2.85009L47.0963 6.29919C47.0657 6.36857 47.0011 6.41812 46.9229 6.43134L43.0979 7.11521C42.8293 7.16477 42.6219 7.34647 42.5471 7.60086C42.4723 7.85855 42.5471 8.11624 42.7511 8.29464L45.6377 10.8286C45.6955 10.8782 45.7227 10.9542 45.7125 11.0301L45.1991 14.7766C45.1617 15.0409 45.2773 15.2887 45.5051 15.4373C45.7329 15.586 46.0117 15.5959 46.2497 15.4638L49.6225 13.5806C49.6905 13.5443 49.7721 13.541 49.8435 13.574L53.3523 15.2061C53.6005 15.3217 53.8759 15.292 54.0935 15.1268C54.3077 14.9616 54.4029 14.7072 54.3485 14.4462L53.5461 10.7493C53.5291 10.6766 53.5529 10.5973 53.6073 10.5445L56.2899 7.80569C56.4803 7.61407 56.5347 7.34647 56.4395 7.09869C56.3443 6.84761 56.1267 6.68242 55.8513 6.65269L51.9855 6.24963C51.9073 6.24302 51.8393 6.19677 51.8019 6.1307L49.9523 2.80714C49.8265 2.57918 49.5953 2.44703 49.3335 2.44703L49.3301 2.44373Z" fill="#FFA233"/>
<path d="M45.3932 17.0001C45.1314 17.0001 44.873 16.9241 44.6452 16.7787C44.2168 16.5012 43.9958 16.0189 44.0638 15.5233L44.6316 11.387L41.4424 8.58546C41.0616 8.24848 40.912 7.74301 41.0514 7.26066C41.1908 6.77831 41.5954 6.42481 42.0986 6.33561L46.3214 5.58236L48.0792 1.77315C48.29 1.31393 48.7388 1.0199 49.2556 1.00008C49.769 0.980255 50.2416 1.24125 50.4864 1.68395L52.5298 5.3544L56.8002 5.80041C57.3136 5.85327 57.7386 6.17703 57.9188 6.64947C58.0956 7.1186 57.9868 7.63729 57.6298 7.99739L54.6684 11.0203L55.5524 15.1037C55.6578 15.5927 55.4742 16.0882 55.0696 16.3988C54.665 16.7093 54.1244 16.7655 53.662 16.5508L49.7894 14.7502L46.0664 16.8283C45.8556 16.9439 45.6278 17.0034 45.3966 17.0034L45.3932 17.0001ZM49.3372 2.6982C49.3372 2.6982 49.3202 2.6982 49.31 2.6982C49.0448 2.70811 48.8238 2.85347 48.7184 3.08804L47.1918 6.40499C47.1612 6.47107 47.1 6.51732 47.0252 6.53053L43.3498 7.18798C43.0914 7.23423 42.8908 7.40933 42.8194 7.65711C42.748 7.90489 42.8194 8.15267 43.0166 8.32446L45.791 10.7593C45.8454 10.8089 45.8726 10.8816 45.8624 10.9509L45.3694 14.552C45.3354 14.8064 45.4442 15.0443 45.6652 15.1863C45.8828 15.3284 46.1514 15.3383 46.3792 15.2095L49.6194 13.399C49.684 13.3627 49.7622 13.3594 49.8302 13.3924L53.203 14.9617C53.441 15.074 53.7062 15.0443 53.9136 14.8857C54.121 14.7271 54.2128 14.4826 54.1584 14.2315L53.39 10.6767C53.373 10.6073 53.3968 10.5314 53.4478 10.4785L56.025 7.84542C56.2086 7.66041 56.2596 7.40602 56.1712 7.16485C56.0794 6.92368 55.8686 6.7651 55.6068 6.73537L51.8906 6.34883C51.8158 6.34222 51.7512 6.29927 51.7138 6.2332L49.9356 3.03848C49.8132 2.82044 49.5922 2.69489 49.3406 2.69489L49.3372 2.6982Z" fill="#400124"/>
<path opacity="0.35" d="M45.7261 10.2703L45.6717 10.6602L43.0129 8.32443C42.8157 8.15264 42.7443 7.90155 42.8157 7.65708C42.8225 7.63725 42.8293 7.61743 42.8361 7.60091L45.6513 10.0721C45.7091 10.1217 45.7363 10.1976 45.7261 10.2703ZM54.1615 14.2646C54.1343 14.2943 54.1037 14.3207 54.0697 14.3471C53.8555 14.5123 53.5801 14.5421 53.3353 14.4264L49.8401 12.801C49.7687 12.768 49.6871 12.7713 49.6225 12.8109L46.2633 14.6841C46.0253 14.8163 45.7499 14.8064 45.5221 14.661C45.4643 14.6214 45.4099 14.5751 45.3691 14.5255V14.5553C45.3317 14.8097 45.4405 15.0442 45.6615 15.1896C45.8791 15.3317 46.1477 15.3416 46.3755 15.2127L49.6157 13.4023C49.6803 13.3659 49.7619 13.3626 49.8265 13.3957L53.1993 14.9649C53.4373 15.074 53.7025 15.0442 53.9099 14.889C54.1105 14.737 54.2023 14.5057 54.1615 14.2646V14.2646ZM56.1675 7.16812C56.1675 7.16812 56.1641 7.15821 56.1607 7.15491L53.5869 9.78138C53.5325 9.83754 53.5121 9.91353 53.5257 9.98621L53.6005 10.3232L56.0213 7.84869C56.2015 7.66368 56.2559 7.4093 56.1675 7.16812V7.16812Z" fill="#400124"/>
<path opacity="0.5" d="M56.0213 7.84864L55.9601 7.91141C55.8615 7.83542 55.7391 7.78587 55.6031 7.77265L51.8835 7.38612C51.8121 7.3762 51.7441 7.33326 51.7101 7.27048L49.9319 4.07577C49.8095 3.85772 49.5885 3.72888 49.3369 3.72888H49.3097C49.0445 3.73879 48.8235 3.88415 48.7147 4.11872L47.1881 7.43567C47.1575 7.50175 47.0963 7.548 47.0215 7.56121L43.3461 8.21866C43.2305 8.23848 43.1285 8.28473 43.0435 8.35081L43.0129 8.32438C42.8157 8.15258 42.7443 7.9015 42.8157 7.65702C42.8871 7.40924 43.0843 7.23414 43.3461 7.18789L47.0215 6.53045C47.0963 6.51723 47.1575 6.47098 47.1881 6.40491L48.7147 3.08795C48.8235 2.85339 49.0445 2.70802 49.3097 2.70142C49.3165 2.70142 49.3267 2.70142 49.3369 2.70142C49.5885 2.70142 49.8095 2.83026 49.9319 3.04831L51.7101 6.24302C51.7441 6.30579 51.8121 6.34874 51.8835 6.35865L55.6031 6.74519C55.8649 6.77162 56.0757 6.9302 56.1675 7.17137C56.2559 7.41255 56.2015 7.66693 56.0213 7.85194V7.84864Z" fill="white"/>
<path d="M69.3319 2.44373C69.3319 2.44373 69.3115 2.44373 69.3047 2.44373C69.0293 2.45364 68.7981 2.60561 68.6859 2.85009L67.0981 6.29919C67.0675 6.36857 67.0029 6.41812 66.9247 6.43134L63.0997 7.11521C62.8311 7.16477 62.6237 7.34647 62.5489 7.60086C62.4741 7.85855 62.5489 8.11624 62.7529 8.29464L65.6395 10.8286C65.6973 10.8782 65.7245 10.9542 65.7143 11.0301L65.2009 14.7766C65.1635 15.0409 65.2791 15.2887 65.5069 15.4373C65.7347 15.586 66.0135 15.5959 66.2515 15.4638L69.6243 13.5806C69.6923 13.5443 69.7739 13.541 69.8453 13.574L73.3541 15.2061C73.6023 15.3217 73.8777 15.292 74.0953 15.1268C74.3095 14.9616 74.4047 14.7072 74.3503 14.4462L73.5479 10.7493C73.5309 10.6766 73.5547 10.5973 73.6091 10.5445L76.2917 7.80569C76.4821 7.61407 76.5365 7.34647 76.4413 7.09869C76.3461 6.84761 76.1285 6.68242 75.8531 6.65269L71.9873 6.24963C71.9091 6.24302 71.8411 6.19677 71.8037 6.1307L69.9541 2.80714C69.8283 2.57918 69.5971 2.44703 69.3353 2.44703L69.3319 2.44373Z" fill="#FFA233"/>
<path d="M65.395 17.0001C65.1332 17.0001 64.8748 16.9241 64.647 16.7787C64.2186 16.5012 63.9976 16.0189 64.0656 15.5233L64.6334 11.387L61.4442 8.58546C61.0634 8.24848 60.9138 7.74301 61.0532 7.26066C61.1926 6.77831 61.5972 6.42481 62.1004 6.33561L66.3232 5.58236L68.081 1.77315C68.2918 1.31393 68.7406 1.0199 69.2574 1.00008C69.7708 0.980255 70.2434 1.24125 70.4882 1.68395L72.5316 5.3544L76.802 5.80041C77.3154 5.85327 77.7404 6.17703 77.9206 6.64947C78.0974 7.1186 77.9886 7.63729 77.6316 7.99739L74.6702 11.0203L75.5542 15.1037C75.6596 15.5927 75.476 16.0882 75.0714 16.3988C74.6668 16.7093 74.1262 16.7655 73.6638 16.5508L69.7912 14.7502L66.0682 16.8283C65.8574 16.9439 65.6296 17.0034 65.3984 17.0034L65.395 17.0001ZM69.339 2.6982C69.339 2.6982 69.322 2.6982 69.3118 2.6982C69.0466 2.70811 68.8256 2.85347 68.7202 3.08804L67.1936 6.40499C67.163 6.47107 67.1018 6.51732 67.027 6.53053L63.3516 7.18798C63.0932 7.23423 62.8926 7.40933 62.8212 7.65711C62.7498 7.90489 62.8212 8.15267 63.0184 8.32446L65.7928 10.7593C65.8472 10.8089 65.8744 10.8816 65.8642 10.9509L65.3712 14.552C65.3372 14.8064 65.446 15.0443 65.667 15.1863C65.8846 15.3284 66.1532 15.3383 66.381 15.2095L69.6212 13.399C69.6858 13.3627 69.764 13.3594 69.832 13.3924L73.2048 14.9617C73.4428 15.074 73.708 15.0443 73.9154 14.8857C74.1228 14.7271 74.2146 14.4826 74.1602 14.2315L73.3918 10.6767C73.3748 10.6073 73.3986 10.5314 73.4496 10.4785L76.0268 7.84542C76.2104 7.66041 76.2614 7.40602 76.173 7.16485C76.0812 6.92368 75.8704 6.7651 75.6086 6.73537L71.8924 6.34883C71.8176 6.34222 71.753 6.29927 71.7156 6.2332L69.9374 3.03848C69.815 2.82044 69.594 2.69489 69.3424 2.69489L69.339 2.6982Z" fill="#400124"/>
<path opacity="0.35" d="M65.728 10.2703L65.6736 10.6602L63.0148 8.32443C62.8176 8.15264 62.7462 7.90155 62.8176 7.65708C62.8244 7.63725 62.8312 7.61743 62.838 7.60091L65.6532 10.0721C65.711 10.1217 65.7382 10.1976 65.728 10.2703ZM74.1634 14.2646C74.1362 14.2943 74.1056 14.3207 74.0716 14.3471C73.8574 14.5123 73.582 14.5421 73.3372 14.4264L69.842 12.801C69.7706 12.768 69.689 12.7713 69.6244 12.8109L66.2652 14.6841C66.0272 14.8163 65.7518 14.8064 65.524 14.661C65.4662 14.6214 65.4118 14.5751 65.371 14.5255V14.5553C65.3336 14.8097 65.4424 15.0442 65.6634 15.1896C65.881 15.3317 66.1496 15.3416 66.3774 15.2127L69.6176 13.4023C69.6822 13.3659 69.7638 13.3626 69.8284 13.3957L73.2012 14.9649C73.4392 15.074 73.7044 15.0442 73.9118 14.889C74.1124 14.737 74.2042 14.5057 74.1634 14.2646V14.2646ZM76.1694 7.16812C76.1694 7.16812 76.166 7.15821 76.1626 7.15491L73.5888 9.78138C73.5344 9.83754 73.514 9.91353 73.5276 9.98621L73.6024 10.3232L76.0232 7.84869C76.2034 7.66368 76.2578 7.4093 76.1694 7.16812V7.16812Z" fill="#400124"/>
<path opacity="0.5" d="M76.0232 7.84864L75.962 7.91141C75.8634 7.83542 75.741 7.78587 75.605 7.77265L71.8854 7.38612C71.814 7.3762 71.746 7.33326 71.712 7.27048L69.9338 4.07577C69.8114 3.85772 69.5904 3.72888 69.3388 3.72888H69.3116C69.0464 3.73879 68.8254 3.88415 68.7166 4.11872L67.19 7.43567C67.1594 7.50175 67.0982 7.548 67.0234 7.56121L63.348 8.21866C63.2324 8.23848 63.1304 8.28473 63.0454 8.35081L63.0148 8.32438C62.8176 8.15258 62.7462 7.9015 62.8176 7.65702C62.889 7.40924 63.0862 7.23414 63.348 7.18789L67.0234 6.53045C67.0982 6.51723 67.1594 6.47098 67.19 6.40491L68.7166 3.08795C68.8254 2.85339 69.0464 2.70802 69.3116 2.70142C69.3184 2.70142 69.3286 2.70142 69.3388 2.70142C69.5904 2.70142 69.8114 2.83026 69.9338 3.04831L71.712 6.24302C71.746 6.30579 71.814 6.34874 71.8854 6.35865L75.605 6.74519C75.8668 6.77162 76.0776 6.9302 76.1694 7.17137C76.2578 7.41255 76.2034 7.66693 76.0232 7.85194V7.84864Z" fill="white"/>
<path d="M85.3998 16.9998C85.138 16.9998 84.8796 16.9238 84.6518 16.7785C84.2234 16.501 84.0024 16.0186 84.0704 15.5231L84.6382 11.3868L81.449 8.58521C81.0682 8.24823 80.9186 7.74276 81.058 7.26042C81.1974 6.77807 81.602 6.42457 82.1052 6.33537L86.328 5.58212L88.0858 1.77291C88.2966 1.31369 88.7454 1.01966 89.2622 0.999833C89.7756 0.980011 90.2482 1.24101 90.493 1.68371L92.5364 5.35416L96.8068 5.80016C97.3202 5.85302 97.7452 6.17679 97.9254 6.64922C98.1022 7.11835 97.9934 7.63704 97.6364 7.99715L94.675 11.0201L95.559 15.1035C95.6644 15.5924 95.4808 16.088 95.0762 16.3986C94.6716 16.7091 94.131 16.7653 93.6686 16.5505L89.796 14.75L86.073 16.828C85.8622 16.9437 85.6344 17.0031 85.4032 17.0031L85.3998 16.9998ZM89.3438 2.69795C89.3438 2.69795 89.3268 2.69795 89.3166 2.69795C89.0514 2.70787 88.8304 2.85323 88.725 3.0878L87.1984 6.40475C87.1678 6.47082 87.1066 6.51707 87.0318 6.53029L83.3564 7.18773C83.098 7.23399 82.8974 7.40908 82.826 7.65686C82.7546 7.90464 82.826 8.15242 83.0232 8.32422L85.7976 10.7591C85.852 10.8086 85.8792 10.8813 85.869 10.9507L85.376 14.5518C85.342 14.8062 85.4508 15.044 85.6718 15.1861C85.8894 15.3281 86.158 15.3381 86.3858 15.2092L89.626 13.3988C89.6906 13.3624 89.7688 13.3591 89.8368 13.3922L93.2096 14.9614C93.4476 15.0738 93.7128 15.044 93.9202 14.8854C94.1276 14.7269 94.2194 14.4824 94.165 14.2313L93.3966 10.6765C93.3796 10.6071 93.4034 10.5311 93.4544 10.4783L96.0316 7.84518C96.2152 7.66017 96.2662 7.40578 96.1778 7.16461C96.086 6.92343 95.8752 6.76485 95.6134 6.73512L91.8972 6.34858C91.8224 6.34198 91.7578 6.29903 91.7204 6.23295L89.9422 3.03824C89.8198 2.82019 89.5988 2.69465 89.3472 2.69465L89.3438 2.69795Z" fill="#400124"/>
<path opacity="0.35" d="M85.7332 10.2703L85.6788 10.6602L83.02 8.32443C82.8228 8.15264 82.7514 7.90155 82.8228 7.65708C82.8296 7.63725 82.8364 7.61743 82.8432 7.60091L85.6584 10.0721C85.7162 10.1217 85.7434 10.1976 85.7332 10.2703ZM94.1686 14.2646C94.1414 14.2943 94.1108 14.3207 94.0768 14.3471C93.8626 14.5123 93.5872 14.5421 93.3424 14.4264L89.8472 12.801C89.7758 12.768 89.6942 12.7713 89.6296 12.8109L86.2704 14.6841C86.0324 14.8163 85.757 14.8064 85.5292 14.661C85.4714 14.6214 85.417 14.5751 85.3762 14.5255V14.5553C85.3388 14.8097 85.4476 15.0442 85.6686 15.1896C85.8862 15.3317 86.1548 15.3416 86.3826 15.2127L89.6228 13.4023C89.6874 13.3659 89.769 13.3626 89.8336 13.3957L93.2064 14.9649C93.4444 15.074 93.7096 15.0442 93.917 14.889C94.1176 14.737 94.2094 14.5057 94.1686 14.2646V14.2646ZM96.1746 7.16812C96.1746 7.16812 96.1712 7.15821 96.1678 7.15491L93.594 9.78138C93.5396 9.83754 93.5192 9.91353 93.5328 9.98621L93.6076 10.3232L96.0284 7.84869C96.2086 7.66368 96.263 7.4093 96.1746 7.16812V7.16812Z" fill="#400124"/>
</svg>
