<svg width="21" height="16" viewBox="0 0 21 16" fill="none" xmlns="http://www.w3.org/2000/svg">
<path d="M10.9474 16C10.7426 16 10.5346 15.9488 10.3522 15.8496C8.16019 14.6592 0.992188 10.4032 0.992188 5.6672C0.992188 2.5408 3.64179 0 6.89619 0C8.41619 0 9.85939 0.5568 10.9506 1.5456C12.0418 0.5568 13.485 0 15.005 0C18.2594 0 20.909 2.5408 20.909 5.6672C20.909 10.2848 13.7474 14.624 11.5522 15.8432C11.3666 15.9456 11.1586 16 10.9474 16Z" fill="#400124"/>
<path d="M6.89627 1.53924C4.48987 1.53924 2.53467 3.38884 2.53467 5.66404C2.53467 8.71684 7.03387 12.2656 10.9475 14.4128C11.7283 13.9712 13.7987 12.7488 15.6931 11.152C18.1315 9.09764 19.3699 7.25124 19.3699 5.66404C19.3699 3.38884 17.4115 1.53924 15.0083 1.53924C13.6451 1.53924 12.3843 2.12484 11.5523 3.14884L10.9571 3.88164L10.3587 3.14884C9.52347 2.12484 8.26267 1.53924 6.89947 1.53924H6.89627Z" fill="#BF067D" fill-opacity="0.3" style="mix-blend-mode:multiply"/>
<g opacity="0.35">
<path d="M15.6322 10.6912C12.5538 12.6464 8.55056 12.5888 5.51696 10.4896C5.24816 10.304 4.95696 10.1504 4.65936 10.0128C4.50576 9.94238 4.35536 9.86558 4.20816 9.78238C3.32176 9.29598 2.44496 8.71038 1.62256 8.04478C1.62896 8.05438 1.63216 8.06398 1.63856 8.07358C1.65776 8.11198 1.67696 8.14718 1.69616 8.18558C1.70896 8.21118 1.72496 8.23678 1.73776 8.26558C1.92656 8.60478 2.14736 8.94398 2.39056 9.27358C2.42896 9.32478 2.46736 9.37598 2.50576 9.42398C2.53776 9.46558 2.56656 9.50398 2.59856 9.54558C2.63056 9.58398 2.66256 9.62558 2.69456 9.66718C5.14576 12.72 9.45936 15.1712 10.5282 15.7504C10.6818 15.8336 10.8642 15.8304 11.0146 15.7504C11.9202 15.248 15.1842 13.3568 17.6482 10.928C18.0578 10.5248 18.445 10.1056 18.797 9.67358C19.3282 9.02078 19.7762 8.34558 20.0898 7.65758C20.1634 7.49118 20.2274 7.32798 20.285 7.16158C19.373 8.26238 18.2754 9.19358 17.037 9.87198C16.5602 10.1312 16.093 10.4032 15.6354 10.6944L15.6322 10.6912Z" fill="#400124"/>
</g>
<g style="mix-blend-mode:soft-light">
<path d="M19.018 6.37757C19.018 6.47997 19.0148 6.58557 19.002 6.68797C18.8132 4.42557 16.8292 2.64637 14.4068 2.64637C13.0916 2.64637 11.9012 3.17437 11.0628 4.01917C11.0084 4.07357 11.37 4.48637 11.3572 4.55997C11.2772 5.05917 10.8452 4.46077 10.7652 4.34557C9.92363 3.31197 8.60523 2.64637 7.12363 2.64637C4.70123 2.64637 2.71402 4.42877 2.52842 6.69437C2.51882 6.58877 2.51562 6.48317 2.51562 6.37757C2.51562 3.94877 4.57963 1.98077 7.12363 1.98077C8.60523 1.98077 9.92043 2.64637 10.7652 3.67997C11.61 2.64637 12.9252 1.98077 14.4068 1.98077C16.954 1.98077 19.0148 3.94877 19.0148 6.37757H19.018Z" fill="white"/>
</g>
<g style="mix-blend-mode:soft-light">
<path d="M12.8353 3.60641C13.5393 2.92481 15.6065 2.81281 16.5313 3.74401C17.3217 4.54081 15.9745 4.41281 14.9089 4.35201C13.9841 4.29761 12.1313 4.29121 12.8385 3.60641H12.8353Z" fill="white"/>
</g>
</svg>
