<svg width="22" height="16" viewBox="0 0 22 16" fill="none" xmlns="http://www.w3.org/2000/svg">
<path d="M11.1163 16C10.9115 16 10.7035 15.9488 10.5211 15.8496C8.32913 14.6592 1.16113 10.4032 1.16113 5.6672C1.16113 2.5408 3.81073 0 7.06513 0C8.58513 0 10.0283 0.5568 11.1195 1.5456C12.2107 0.5568 13.6539 0 15.1739 0C18.4283 0 21.0779 2.5408 21.0779 5.6672C21.0779 10.2848 13.9163 14.624 11.7211 15.8432C11.5355 15.9456 11.3275 16 11.1163 16Z" fill="#400124"/>
<path d="M7.06521 1.53924C4.65881 1.53924 2.70361 3.38884 2.70361 5.66404C2.70361 8.71684 7.20281 12.2656 11.1164 14.4128C11.8972 13.9712 13.9676 12.7488 15.862 11.152C18.3004 9.09764 19.5388 7.25124 19.5388 5.66404C19.5388 3.38884 17.5804 1.53924 15.1772 1.53924C13.814 1.53924 12.5532 2.12484 11.7212 3.14884L11.126 3.88164L10.5276 3.14884C9.69241 2.12484 8.43161 1.53924 7.06841 1.53924H7.06521Z" fill="white"/>
<path d="M7.06521 1.53924C4.65881 1.53924 2.70361 3.38884 2.70361 5.66404C2.70361 8.71684 7.20281 12.2656 11.1164 14.4128C11.8972 13.9712 13.9676 12.7488 15.862 11.152C18.3004 9.09764 19.5388 7.25124 19.5388 5.66404C19.5388 3.38884 17.5804 1.53924 15.1772 1.53924C13.814 1.53924 12.5532 2.12484 11.7212 3.14884L11.126 3.88164L10.5276 3.14884C9.69241 2.12484 8.43161 1.53924 7.06841 1.53924H7.06521Z" fill="#BF067D" fill-opacity="0.2"/>
<g opacity="0.35">
<path d="M15.8011 10.6912C12.7227 12.6464 8.7195 12.5888 5.6859 10.4896C5.4171 10.304 5.1259 10.1504 4.8283 10.0128C4.6747 9.94238 4.5243 9.86558 4.3771 9.78238C3.4907 9.29598 2.6139 8.71038 1.7915 8.04478C1.7979 8.05438 1.8011 8.06398 1.8075 8.07358C1.8267 8.11198 1.8459 8.14718 1.8651 8.18558C1.8779 8.21118 1.8939 8.23678 1.9067 8.26558C2.0955 8.60478 2.3163 8.94398 2.5595 9.27358C2.5979 9.32478 2.6363 9.37598 2.6747 9.42398C2.7067 9.46558 2.7355 9.50398 2.7675 9.54558C2.7995 9.58398 2.8315 9.62558 2.8635 9.66718C5.3147 12.72 9.6283 15.1712 10.6971 15.7504C10.8507 15.8336 11.0331 15.8304 11.1835 15.7504C12.0891 15.248 15.3531 13.3568 17.8171 10.928C18.2267 10.5248 18.6139 10.1056 18.9659 9.67358C19.4971 9.02078 19.9451 8.34558 20.2587 7.65758C20.3323 7.49118 20.3963 7.32798 20.4539 7.16158C19.5419 8.26238 18.4443 9.19358 17.2059 9.87198C16.7291 10.1312 16.2619 10.4032 15.8043 10.6944L15.8011 10.6912Z" fill="#400124"/>
</g>
</svg>
