<svg width="20" height="16" viewBox="0 0 20 16" fill="none" xmlns="http://www.w3.org/2000/svg">
<g clip-path="url(#clip0_44_6757)">
<path d="M9.95777 16.0001C9.75186 16.0001 9.54595 15.9486 9.36256 15.8488C7.16831 14.6584 0 10.4018 0 5.66586C0 2.54179 2.6479 6.10352e-05 5.90388 6.10352e-05C7.42248 6.10352e-05 8.8703 0.556667 9.95777 1.54762C11.0485 0.556667 12.4931 6.10352e-05 14.0117 6.10352e-05C17.2676 6.10352e-05 19.9155 2.54179 19.9155 5.66586C19.9155 10.2828 12.7537 14.623 10.5594 15.8424C10.376 15.9454 10.1669 16.0001 9.95455 16.0001H9.95777ZM5.90388 1.54118C3.49729 1.54118 1.54112 3.39117 1.54112 5.66586C1.54112 8.71914 6.03901 12.2679 9.95455 14.4171C10.7364 13.9763 12.8051 12.7505 14.7002 11.1547C17.139 9.10201 18.3776 7.25524 18.3776 5.66586C18.3776 3.39117 16.4215 1.54118 14.0149 1.54118C12.6507 1.54118 11.3927 2.12674 10.5594 3.14987L9.96421 3.88343L9.36578 3.15309C8.53248 2.12996 7.27127 1.5444 5.9071 1.5444L5.90388 1.54118Z" fill="#400124"/>
<path opacity="0.3" d="M14.9093 10.64C11.7756 12.6283 7.70239 12.5704 4.61371 10.4373C4.34023 10.2474 4.04101 10.093 3.7418 9.95145C3.58736 9.87745 3.43293 9.80023 3.28171 9.71658C2.37763 9.22111 1.48642 8.62589 0.649902 7.95024C0.656337 7.95989 0.659554 7.96955 0.665989 7.98242C0.685293 8.02102 0.704598 8.05642 0.727119 8.09502C0.739989 8.12076 0.756076 8.14972 0.772163 8.17546C0.965205 8.52293 1.19042 8.86398 1.43494 9.19858C1.47355 9.25006 1.51216 9.30154 1.55077 9.35302C1.58294 9.39484 1.61511 9.43667 1.64729 9.47528C1.67946 9.5171 1.71164 9.55571 1.74381 9.59754C4.24049 12.7055 8.62899 15.199 9.71324 15.7878C9.86768 15.8714 10.0543 15.8714 10.2055 15.7878C11.1289 15.2762 14.446 13.3522 16.9556 10.8813C17.3738 10.4694 17.7663 10.0448 18.1267 9.60719C18.6672 8.94441 19.1241 8.25589 19.4426 7.55451C19.5166 7.3872 19.5841 7.21668 19.6421 7.04938C18.7155 8.17224 17.599 9.11815 16.3378 9.80667C15.8552 10.0705 15.379 10.3472 14.9125 10.6432L14.9093 10.64Z" fill="#400124"/>
</g>
<defs>
<clipPath id="clip0_44_6757">
<rect width="19.9155" height="16" fill="white"/>
</clipPath>
</defs>
</svg>
