<svg width="99" height="17" viewBox="0 0 99 17" fill="none" xmlns="http://www.w3.org/2000/svg">
<path d="M9.32651 1.44373C9.32651 1.44373 9.30611 1.44373 9.29931 1.44373C9.02391 1.45364 8.79271 1.60561 8.68051 1.85009L7.09271 5.29919C7.06211 5.36857 6.99751 5.41812 6.91931 5.43134L3.09431 6.11521C2.82571 6.16477 2.61831 6.34647 2.54351 6.60086C2.46871 6.85855 2.54351 7.11624 2.74751 7.29464L5.63411 9.82861C5.69191 9.87817 5.71911 9.95415 5.70891 10.0301L5.19551 13.7766C5.15811 14.0409 5.27371 14.2887 5.50151 14.4373C5.72931 14.586 6.00811 14.5959 6.24611 14.4638L9.61891 12.5806C9.68691 12.5443 9.76851 12.541 9.83991 12.574L13.3487 14.2061C13.5969 14.3217 13.8723 14.292 14.0899 14.1268C14.3041 13.9616 14.3993 13.7072 14.3449 13.4462L13.5425 9.74932C13.5255 9.67664 13.5493 9.59735 13.6037 9.54449L16.2863 6.80569C16.4767 6.61407 16.5311 6.34647 16.4359 6.09869C16.3407 5.84761 16.1231 5.68242 15.8477 5.65269L11.9819 5.24963C11.9037 5.24302 11.8357 5.19677 11.7983 5.1307L9.94871 1.80714C9.82291 1.57918 9.59171 1.44703 9.32991 1.44703L9.32651 1.44373Z" fill="#FFA233"/>
<path d="M5.38965 16.0001C5.12785 16.0001 4.86945 15.9241 4.64165 15.7787C4.21325 15.5012 3.99225 15.0189 4.06025 14.5233L4.62805 10.387L1.43885 7.58546C1.05805 7.24848 0.908454 6.74301 1.04785 6.26066C1.18725 5.77831 1.59185 5.42481 2.09505 5.33561L6.31785 4.58236L8.07565 0.773152C8.28645 0.313932 8.73525 0.0198997 9.25205 7.72587e-05C9.76545 -0.0197452 10.2381 0.24125 10.4829 0.683951L12.5263 4.3544L16.7967 4.80041C17.3101 4.85327 17.7351 5.17703 17.9153 5.64947C18.0921 6.1186 17.9833 6.63729 17.6263 6.99739L14.6649 10.0203L15.5489 14.1037C15.6543 14.5927 15.4707 15.0882 15.0661 15.3988C14.6615 15.7093 14.1209 15.7655 13.6585 15.5508L9.78585 13.7502L6.06285 15.8283C5.85205 15.9439 5.62425 16.0034 5.39305 16.0034L5.38965 16.0001ZM9.33365 1.6982C9.33365 1.6982 9.31665 1.6982 9.30645 1.6982C9.04125 1.70811 8.82025 1.85347 8.71485 2.08804L7.18825 5.40499C7.15765 5.47107 7.09645 5.51732 7.02165 5.53053L3.34625 6.18798C3.08785 6.23423 2.88725 6.40933 2.81585 6.65711C2.74445 6.90489 2.81585 7.15267 3.01305 7.32446L5.78745 9.75932C5.84185 9.80887 5.86905 9.88156 5.85885 9.95093L5.36585 13.552C5.33185 13.8064 5.44065 14.0443 5.66165 14.1863C5.87925 14.3284 6.14785 14.3383 6.37565 14.2095L9.61585 12.399C9.68045 12.3627 9.75865 12.3594 9.82665 12.3924L13.1995 13.9617C13.4375 14.074 13.7027 14.0443 13.9101 13.8857C14.1175 13.7271 14.2093 13.4826 14.1549 13.2315L13.3865 9.67672C13.3695 9.60735 13.3933 9.53136 13.4443 9.4785L16.0215 6.84542C16.2051 6.66041 16.2561 6.40602 16.1677 6.16485C16.0759 5.92368 15.8651 5.7651 15.6033 5.73537L11.8871 5.34883C11.8123 5.34222 11.7477 5.29927 11.7103 5.2332L9.93205 2.03848C9.80965 1.82044 9.58865 1.69489 9.33705 1.69489L9.33365 1.6982Z" fill="#400124"/>
<path opacity="0.35" d="M5.7226 9.27033L5.6682 9.66017L3.0094 7.32443C2.8122 7.15264 2.7408 6.90155 2.8122 6.65708C2.819 6.63725 2.8258 6.61743 2.8326 6.60091L5.6478 9.07211C5.7056 9.12166 5.7328 9.19765 5.7226 9.27033ZM14.158 13.2646C14.1308 13.2943 14.1002 13.3207 14.0662 13.3471C13.852 13.5123 13.5766 13.5421 13.3318 13.4264L9.8366 11.801C9.7652 11.768 9.6836 11.7713 9.619 11.8109L6.2598 13.6841C6.0218 13.8163 5.7464 13.8064 5.5186 13.661C5.4608 13.6214 5.4064 13.5751 5.3656 13.5255V13.5553C5.3282 13.8097 5.437 14.0442 5.658 14.1896C5.8756 14.3317 6.1442 14.3416 6.372 14.2127L9.6122 12.4023C9.6768 12.3659 9.7584 12.3626 9.823 12.3957L13.1958 13.9649C13.4338 14.074 13.699 14.0442 13.9064 13.889C14.107 13.737 14.1988 13.5057 14.158 13.2646V13.2646ZM16.164 6.16812C16.164 6.16812 16.1606 6.15821 16.1572 6.15491L13.5834 8.78138C13.529 8.83754 13.5086 8.91353 13.5222 8.98621L13.597 9.32319L16.0178 6.84869C16.198 6.66368 16.2524 6.4093 16.164 6.16812V6.16812Z" fill="#400124"/>
<path opacity="0.5" d="M16.0178 6.84864L15.9566 6.91141C15.858 6.83542 15.7356 6.78587 15.5996 6.77265L11.88 6.38612C11.8086 6.3762 11.7406 6.33326 11.7066 6.27048L9.9284 3.07577C9.806 2.85772 9.585 2.72888 9.3334 2.72888H9.3062C9.041 2.73879 8.82 2.88415 8.7112 3.11872L7.1846 6.43567C7.154 6.50175 7.0928 6.548 7.018 6.56121L3.3426 7.21866C3.227 7.23848 3.125 7.28473 3.04 7.35081L3.0094 7.32438C2.8122 7.15258 2.7408 6.9015 2.8122 6.65702C2.8836 6.40924 3.0808 6.23414 3.3426 6.18789L7.018 5.53045C7.0928 5.51723 7.154 5.47098 7.1846 5.40491L8.7112 2.08795C8.82 1.85339 9.041 1.70802 9.3062 1.70142C9.313 1.70142 9.3232 1.70142 9.3334 1.70142C9.585 1.70142 9.806 1.83026 9.9284 2.04831L11.7066 5.24302C11.7406 5.30579 11.8086 5.34874 11.88 5.35865L15.5996 5.74519C15.8614 5.77162 16.0722 5.9302 16.164 6.17137C16.2524 6.41255 16.198 6.66693 16.0178 6.85194V6.84864Z" fill="white"/>
<path d="M29.3283 1.44373C29.3283 1.44373 29.3079 1.44373 29.3011 1.44373C29.0257 1.45364 28.7945 1.60561 28.6823 1.85009L27.0945 5.29919C27.0639 5.36857 26.9993 5.41812 26.9211 5.43134L23.0961 6.11521C22.8275 6.16477 22.6201 6.34647 22.5453 6.60086C22.4705 6.85855 22.5453 7.11624 22.7493 7.29464L25.6359 9.82861C25.6937 9.87817 25.7209 9.95415 25.7107 10.0301L25.1973 13.7766C25.1599 14.0409 25.2755 14.2887 25.5033 14.4373C25.7311 14.586 26.0099 14.5959 26.2479 14.4638L29.6207 12.5806C29.6887 12.5443 29.7703 12.541 29.8417 12.574L33.3505 14.2061C33.5987 14.3217 33.8741 14.292 34.0917 14.1268C34.3059 13.9616 34.4011 13.7072 34.3467 13.4462L33.5443 9.74932C33.5273 9.67664 33.5511 9.59735 33.6055 9.54449L36.2881 6.80569C36.4785 6.61407 36.5329 6.34647 36.4377 6.09869C36.3425 5.84761 36.1249 5.68242 35.8495 5.65269L31.9837 5.24963C31.9055 5.24302 31.8375 5.19677 31.8001 5.1307L29.9505 1.80714C29.8247 1.57918 29.5935 1.44703 29.3317 1.44703L29.3283 1.44373Z" fill="#FFA233"/>
<path d="M25.3915 16.0001C25.1297 16.0001 24.8713 15.9241 24.6435 15.7787C24.2151 15.5012 23.9941 15.0189 24.0621 14.5233L24.6299 10.387L21.4407 7.58546C21.0599 7.24848 20.9103 6.74301 21.0497 6.26066C21.1891 5.77831 21.5937 5.42481 22.0969 5.33561L26.3197 4.58236L28.0775 0.773152C28.2883 0.313932 28.7371 0.0198997 29.2539 7.72587e-05C29.7673 -0.0197452 30.2399 0.24125 30.4847 0.683951L32.5281 4.3544L36.7985 4.80041C37.3119 4.85327 37.7369 5.17703 37.9171 5.64947C38.0939 6.1186 37.9851 6.63729 37.6281 6.99739L34.6667 10.0203L35.5507 14.1037C35.6561 14.5927 35.4725 15.0882 35.0679 15.3988C34.6633 15.7093 34.1227 15.7655 33.6603 15.5508L29.7877 13.7502L26.0647 15.8283C25.8539 15.9439 25.6261 16.0034 25.3949 16.0034L25.3915 16.0001ZM29.3355 1.6982C29.3355 1.6982 29.3185 1.6982 29.3083 1.6982C29.0431 1.70811 28.8221 1.85347 28.7167 2.08804L27.1901 5.40499C27.1595 5.47107 27.0983 5.51732 27.0235 5.53053L23.3481 6.18798C23.0897 6.23423 22.8891 6.40933 22.8177 6.65711C22.7463 6.90489 22.8177 7.15267 23.0149 7.32446L25.7893 9.75932C25.8437 9.80887 25.8709 9.88156 25.8607 9.95093L25.3677 13.552C25.3337 13.8064 25.4425 14.0443 25.6635 14.1863C25.8811 14.3284 26.1497 14.3383 26.3775 14.2095L29.6177 12.399C29.6823 12.3627 29.7605 12.3594 29.8285 12.3924L33.2013 13.9617C33.4393 14.074 33.7045 14.0443 33.9119 13.8857C34.1193 13.7271 34.2111 13.4826 34.1567 13.2315L33.3883 9.67672C33.3713 9.60735 33.3951 9.53136 33.4461 9.4785L36.0233 6.84542C36.2069 6.66041 36.2579 6.40602 36.1695 6.16485C36.0777 5.92368 35.8669 5.7651 35.6051 5.73537L31.8889 5.34883C31.8141 5.34222 31.7495 5.29927 31.7121 5.2332L29.9339 2.03848C29.8115 1.82044 29.5905 1.69489 29.3389 1.69489L29.3355 1.6982Z" fill="#400124"/>
<path opacity="0.35" d="M25.7244 9.27033L25.67 9.66017L23.0112 7.32443C22.814 7.15264 22.7426 6.90155 22.814 6.65708C22.8208 6.63725 22.8276 6.61743 22.8344 6.60091L25.6496 9.07211C25.7074 9.12166 25.7346 9.19765 25.7244 9.27033ZM34.1598 13.2646C34.1326 13.2943 34.102 13.3207 34.068 13.3471C33.8538 13.5123 33.5784 13.5421 33.3336 13.4264L29.8384 11.801C29.767 11.768 29.6854 11.7713 29.6208 11.8109L26.2616 13.6841C26.0236 13.8163 25.7482 13.8064 25.5204 13.661C25.4626 13.6214 25.4082 13.5751 25.3674 13.5255V13.5553C25.33 13.8097 25.4388 14.0442 25.6598 14.1896C25.8774 14.3317 26.146 14.3416 26.3738 14.2127L29.614 12.4023C29.6786 12.3659 29.7602 12.3626 29.8248 12.3957L33.1976 13.9649C33.4356 14.074 33.7008 14.0442 33.9082 13.889C34.1088 13.737 34.2006 13.5057 34.1598 13.2646V13.2646ZM36.1658 6.16812C36.1658 6.16812 36.1624 6.15821 36.159 6.15491L33.5852 8.78138C33.5308 8.83754 33.5104 8.91353 33.524 8.98621L33.5988 9.32319L36.0196 6.84869C36.1998 6.66368 36.2542 6.4093 36.1658 6.16812V6.16812Z" fill="#400124"/>
<path opacity="0.5" d="M36.0196 6.84864L35.9584 6.91141C35.8598 6.83542 35.7374 6.78587 35.6014 6.77265L31.8818 6.38612C31.8104 6.3762 31.7424 6.33326 31.7084 6.27048L29.9302 3.07577C29.8078 2.85772 29.5868 2.72888 29.3352 2.72888H29.308C29.0428 2.73879 28.8218 2.88415 28.713 3.11872L27.1864 6.43567C27.1558 6.50175 27.0946 6.548 27.0198 6.56121L23.3444 7.21866C23.2288 7.23848 23.1268 7.28473 23.0418 7.35081L23.0112 7.32438C22.814 7.15258 22.7426 6.9015 22.814 6.65702C22.8854 6.40924 23.0826 6.23414 23.3444 6.18789L27.0198 5.53045C27.0946 5.51723 27.1558 5.47098 27.1864 5.40491L28.713 2.08795C28.8218 1.85339 29.0428 1.70802 29.308 1.70142C29.3148 1.70142 29.325 1.70142 29.3352 1.70142C29.5868 1.70142 29.8078 1.83026 29.9302 2.04831L31.7084 5.24302C31.7424 5.30579 31.8104 5.34874 31.8818 5.35865L35.6014 5.74519C35.8632 5.77162 36.074 5.9302 36.1658 6.17137C36.2542 6.41255 36.1998 6.66693 36.0196 6.85194V6.84864Z" fill="white"/>
<path d="M49.3301 1.44373C49.3301 1.44373 49.3097 1.44373 49.3029 1.44373C49.0275 1.45364 48.7963 1.60561 48.6841 1.85009L47.0963 5.29919C47.0657 5.36857 47.0011 5.41812 46.9229 5.43134L43.0979 6.11521C42.8293 6.16477 42.6219 6.34647 42.5471 6.60086C42.4723 6.85855 42.5471 7.11624 42.7511 7.29464L45.6377 9.82861C45.6955 9.87817 45.7227 9.95415 45.7125 10.0301L45.1991 13.7766C45.1617 14.0409 45.2773 14.2887 45.5051 14.4373C45.7329 14.586 46.0117 14.5959 46.2497 14.4638L49.6225 12.5806C49.6905 12.5443 49.7721 12.541 49.8435 12.574L53.3523 14.2061C53.6005 14.3217 53.8759 14.292 54.0935 14.1268C54.3077 13.9616 54.4029 13.7072 54.3485 13.4462L53.5461 9.74932C53.5291 9.67664 53.5529 9.59735 53.6073 9.54449L56.2899 6.80569C56.4803 6.61407 56.5347 6.34647 56.4395 6.09869C56.3443 5.84761 56.1267 5.68242 55.8513 5.65269L51.9855 5.24963C51.9073 5.24302 51.8393 5.19677 51.8019 5.1307L49.9523 1.80714C49.8265 1.57918 49.5953 1.44703 49.3335 1.44703L49.3301 1.44373Z" fill="#FFA233"/>
<path d="M45.3932 16.0001C45.1314 16.0001 44.873 15.9241 44.6452 15.7787C44.2168 15.5012 43.9958 15.0189 44.0638 14.5233L44.6316 10.387L41.4424 7.58546C41.0616 7.24848 40.912 6.74301 41.0514 6.26066C41.1908 5.77831 41.5954 5.42481 42.0986 5.33561L46.3214 4.58236L48.0792 0.773152C48.29 0.313932 48.7388 0.0198997 49.2556 7.72587e-05C49.769 -0.0197452 50.2416 0.24125 50.4864 0.683951L52.5298 4.3544L56.8002 4.80041C57.3136 4.85327 57.7386 5.17703 57.9188 5.64947C58.0956 6.1186 57.9868 6.63729 57.6298 6.99739L54.6684 10.0203L55.5524 14.1037C55.6578 14.5927 55.4742 15.0882 55.0696 15.3988C54.665 15.7093 54.1244 15.7655 53.662 15.5508L49.7894 13.7502L46.0664 15.8283C45.8556 15.9439 45.6278 16.0034 45.3966 16.0034L45.3932 16.0001ZM49.3372 1.6982C49.3372 1.6982 49.3202 1.6982 49.31 1.6982C49.0448 1.70811 48.8238 1.85347 48.7184 2.08804L47.1918 5.40499C47.1612 5.47107 47.1 5.51732 47.0252 5.53053L43.3498 6.18798C43.0914 6.23423 42.8908 6.40933 42.8194 6.65711C42.748 6.90489 42.8194 7.15267 43.0166 7.32446L45.791 9.75932C45.8454 9.80887 45.8726 9.88156 45.8624 9.95093L45.3694 13.552C45.3354 13.8064 45.4442 14.0443 45.6652 14.1863C45.8828 14.3284 46.1514 14.3383 46.3792 14.2095L49.6194 12.399C49.684 12.3627 49.7622 12.3594 49.8302 12.3924L53.203 13.9617C53.441 14.074 53.7062 14.0443 53.9136 13.8857C54.121 13.7271 54.2128 13.4826 54.1584 13.2315L53.39 9.67672C53.373 9.60735 53.3968 9.53136 53.4478 9.4785L56.025 6.84542C56.2086 6.66041 56.2596 6.40602 56.1712 6.16485C56.0794 5.92368 55.8686 5.7651 55.6068 5.73537L51.8906 5.34883C51.8158 5.34222 51.7512 5.29927 51.7138 5.2332L49.9356 2.03848C49.8132 1.82044 49.5922 1.69489 49.3406 1.69489L49.3372 1.6982Z" fill="#400124"/>
<path opacity="0.35" d="M45.7261 9.27033L45.6717 9.66017L43.0129 7.32443C42.8157 7.15264 42.7443 6.90155 42.8157 6.65708C42.8225 6.63725 42.8293 6.61743 42.8361 6.60091L45.6513 9.07211C45.7091 9.12166 45.7363 9.19765 45.7261 9.27033ZM54.1615 13.2646C54.1343 13.2943 54.1037 13.3207 54.0697 13.3471C53.8555 13.5123 53.5801 13.5421 53.3353 13.4264L49.8401 11.801C49.7687 11.768 49.6871 11.7713 49.6225 11.8109L46.2633 13.6841C46.0253 13.8163 45.7499 13.8064 45.5221 13.661C45.4643 13.6214 45.4099 13.5751 45.3691 13.5255V13.5553C45.3317 13.8097 45.4405 14.0442 45.6615 14.1896C45.8791 14.3317 46.1477 14.3416 46.3755 14.2127L49.6157 12.4023C49.6803 12.3659 49.7619 12.3626 49.8265 12.3957L53.1993 13.9649C53.4373 14.074 53.7025 14.0442 53.9099 13.889C54.1105 13.737 54.2023 13.5057 54.1615 13.2646V13.2646ZM56.1675 6.16812C56.1675 6.16812 56.1641 6.15821 56.1607 6.15491L53.5869 8.78138C53.5325 8.83754 53.5121 8.91353 53.5257 8.98621L53.6005 9.32319L56.0213 6.84869C56.2015 6.66368 56.2559 6.4093 56.1675 6.16812V6.16812Z" fill="#400124"/>
<path opacity="0.5" d="M56.0213 6.84864L55.9601 6.91141C55.8615 6.83542 55.7391 6.78587 55.6031 6.77265L51.8835 6.38612C51.8121 6.3762 51.7441 6.33326 51.7101 6.27048L49.9319 3.07577C49.8095 2.85772 49.5885 2.72888 49.3369 2.72888H49.3097C49.0445 2.73879 48.8235 2.88415 48.7147 3.11872L47.1881 6.43567C47.1575 6.50175 47.0963 6.548 47.0215 6.56121L43.3461 7.21866C43.2305 7.23848 43.1285 7.28473 43.0435 7.35081L43.0129 7.32438C42.8157 7.15258 42.7443 6.9015 42.8157 6.65702C42.8871 6.40924 43.0843 6.23414 43.3461 6.18789L47.0215 5.53045C47.0963 5.51723 47.1575 5.47098 47.1881 5.40491L48.7147 2.08795C48.8235 1.85339 49.0445 1.70802 49.3097 1.70142C49.3165 1.70142 49.3267 1.70142 49.3369 1.70142C49.5885 1.70142 49.8095 1.83026 49.9319 2.04831L51.7101 5.24302C51.7441 5.30579 51.8121 5.34874 51.8835 5.35865L55.6031 5.74519C55.8649 5.77162 56.0757 5.9302 56.1675 6.17137C56.2559 6.41255 56.2015 6.66693 56.0213 6.85194V6.84864Z" fill="white"/>
<path d="M69.3319 1.44373C69.3319 1.44373 69.3115 1.44373 69.3047 1.44373C69.0293 1.45364 68.7981 1.60561 68.6859 1.85009L67.0981 5.29919C67.0675 5.36857 67.0029 5.41812 66.9247 5.43134L63.0997 6.11521C62.8311 6.16477 62.6237 6.34647 62.5489 6.60086C62.4741 6.85855 62.5489 7.11624 62.7529 7.29464L65.6395 9.82861C65.6973 9.87817 65.7245 9.95415 65.7143 10.0301L65.2009 13.7766C65.1635 14.0409 65.2791 14.2887 65.5069 14.4373C65.7347 14.586 66.0135 14.5959 66.2515 14.4638L69.6243 12.5806C69.6923 12.5443 69.7739 12.541 69.8453 12.574L73.3541 14.2061C73.6023 14.3217 73.8777 14.292 74.0953 14.1268C74.3095 13.9616 74.4047 13.7072 74.3503 13.4462L73.5479 9.74932C73.5309 9.67664 73.5547 9.59735 73.6091 9.54449L76.2917 6.80569C76.4821 6.61407 76.5365 6.34647 76.4413 6.09869C76.3461 5.84761 76.1285 5.68242 75.8531 5.65269L71.9873 5.24963C71.9091 5.24302 71.8411 5.19677 71.8037 5.1307L69.9541 1.80714C69.8283 1.57918 69.5971 1.44703 69.3353 1.44703L69.3319 1.44373Z" fill="#FFA233"/>
<path d="M65.395 16.0001C65.1332 16.0001 64.8748 15.9241 64.647 15.7787C64.2186 15.5012 63.9976 15.0189 64.0656 14.5233L64.6334 10.387L61.4442 7.58546C61.0634 7.24848 60.9138 6.74301 61.0532 6.26066C61.1926 5.77831 61.5972 5.42481 62.1004 5.33561L66.3232 4.58236L68.081 0.773152C68.2918 0.313932 68.7406 0.0198997 69.2574 7.72587e-05C69.7708 -0.0197452 70.2434 0.24125 70.4882 0.683951L72.5316 4.3544L76.802 4.80041C77.3154 4.85327 77.7404 5.17703 77.9206 5.64947C78.0974 6.1186 77.9886 6.63729 77.6316 6.99739L74.6702 10.0203L75.5542 14.1037C75.6596 14.5927 75.476 15.0882 75.0714 15.3988C74.6668 15.7093 74.1262 15.7655 73.6638 15.5508L69.7912 13.7502L66.0682 15.8283C65.8574 15.9439 65.6296 16.0034 65.3984 16.0034L65.395 16.0001ZM69.339 1.6982C69.339 1.6982 69.322 1.6982 69.3118 1.6982C69.0466 1.70811 68.8256 1.85347 68.7202 2.08804L67.1936 5.40499C67.163 5.47107 67.1018 5.51732 67.027 5.53053L63.3516 6.18798C63.0932 6.23423 62.8926 6.40933 62.8212 6.65711C62.7498 6.90489 62.8212 7.15267 63.0184 7.32446L65.7928 9.75932C65.8472 9.80887 65.8744 9.88156 65.8642 9.95093L65.3712 13.552C65.3372 13.8064 65.446 14.0443 65.667 14.1863C65.8846 14.3284 66.1532 14.3383 66.381 14.2095L69.6212 12.399C69.6858 12.3627 69.764 12.3594 69.832 12.3924L73.2048 13.9617C73.4428 14.074 73.708 14.0443 73.9154 13.8857C74.1228 13.7271 74.2146 13.4826 74.1602 13.2315L73.3918 9.67672C73.3748 9.60735 73.3986 9.53136 73.4496 9.4785L76.0268 6.84542C76.2104 6.66041 76.2614 6.40602 76.173 6.16485C76.0812 5.92368 75.8704 5.7651 75.6086 5.73537L71.8924 5.34883C71.8176 5.34222 71.753 5.29927 71.7156 5.2332L69.9374 2.03848C69.815 1.82044 69.594 1.69489 69.3424 1.69489L69.339 1.6982Z" fill="#400124"/>
<path opacity="0.35" d="M65.728 9.27033L65.6736 9.66017L63.0148 7.32443C62.8176 7.15264 62.7462 6.90155 62.8176 6.65708C62.8244 6.63725 62.8312 6.61743 62.838 6.60091L65.6532 9.07211C65.711 9.12166 65.7382 9.19765 65.728 9.27033ZM74.1634 13.2646C74.1362 13.2943 74.1056 13.3207 74.0716 13.3471C73.8574 13.5123 73.582 13.5421 73.3372 13.4264L69.842 11.801C69.7706 11.768 69.689 11.7713 69.6244 11.8109L66.2652 13.6841C66.0272 13.8163 65.7518 13.8064 65.524 13.661C65.4662 13.6214 65.4118 13.5751 65.371 13.5255V13.5553C65.3336 13.8097 65.4424 14.0442 65.6634 14.1896C65.881 14.3317 66.1496 14.3416 66.3774 14.2127L69.6176 12.4023C69.6822 12.3659 69.7638 12.3626 69.8284 12.3957L73.2012 13.9649C73.4392 14.074 73.7044 14.0442 73.9118 13.889C74.1124 13.737 74.2042 13.5057 74.1634 13.2646V13.2646ZM76.1694 6.16812C76.1694 6.16812 76.166 6.15821 76.1626 6.15491L73.5888 8.78138C73.5344 8.83754 73.514 8.91353 73.5276 8.98621L73.6024 9.32319L76.0232 6.84869C76.2034 6.66368 76.2578 6.4093 76.1694 6.16812V6.16812Z" fill="#400124"/>
<path opacity="0.5" d="M76.0232 6.84864L75.962 6.91141C75.8634 6.83542 75.741 6.78587 75.605 6.77265L71.8854 6.38612C71.814 6.3762 71.746 6.33326 71.712 6.27048L69.9338 3.07577C69.8114 2.85772 69.5904 2.72888 69.3388 2.72888H69.3116C69.0464 2.73879 68.8254 2.88415 68.7166 3.11872L67.19 6.43567C67.1594 6.50175 67.0982 6.548 67.0234 6.56121L63.348 7.21866C63.2324 7.23848 63.1304 7.28473 63.0454 7.35081L63.0148 7.32438C62.8176 7.15258 62.7462 6.9015 62.8176 6.65702C62.889 6.40924 63.0862 6.23414 63.348 6.18789L67.0234 5.53045C67.0982 5.51723 67.1594 5.47098 67.19 5.40491L68.7166 2.08795C68.8254 1.85339 69.0464 1.70802 69.3116 1.70142C69.3184 1.70142 69.3286 1.70142 69.3388 1.70142C69.5904 1.70142 69.8114 1.83026 69.9338 2.04831L71.712 5.24302C71.746 5.30579 71.814 5.34874 71.8854 5.35865L75.605 5.74519C75.8668 5.77162 76.0776 5.9302 76.1694 6.17137C76.2578 6.41255 76.2034 6.66693 76.0232 6.85194V6.84864Z" fill="white"/>
<path d="M89.3337 1.44373C89.3337 1.44373 89.3133 1.44373 89.3065 1.44373C89.0311 1.45364 88.7999 1.60561 88.6877 1.85009L87.0999 5.29919C87.0693 5.36857 87.0047 5.41812 86.9265 5.43134L83.1015 6.11521C82.8329 6.16477 82.6255 6.34647 82.5507 6.60086C82.4759 6.85855 82.5507 7.11624 82.7547 7.29464L85.6413 9.82861C85.6991 9.87817 85.7263 9.95415 85.7161 10.0301L85.2027 13.7766C85.1653 14.0409 85.2809 14.2887 85.5087 14.4373C85.7365 14.586 86.0153 14.5959 86.2533 14.4638L89.6261 12.5806C89.6941 12.5443 89.7757 12.541 89.8471 12.574L93.3559 14.2061C93.6041 14.3217 93.8795 14.292 94.0971 14.1268C94.3113 13.9616 94.4065 13.7072 94.3521 13.4462L93.5497 9.74932C93.5327 9.67664 93.5565 9.59735 93.6109 9.54449L96.2935 6.80569C96.4839 6.61407 96.5383 6.34647 96.4431 6.09869C96.3479 5.84761 96.1303 5.68242 95.8549 5.65269L91.9891 5.24963C91.9109 5.24302 91.8429 5.19677 91.8055 5.1307L89.9559 1.80714C89.8301 1.57918 89.5989 1.44703 89.3371 1.44703L89.3337 1.44373Z" fill="#FFA233"/>
<path d="M85.3969 16.0001C85.1351 16.0001 84.8767 15.9241 84.6489 15.7787C84.2205 15.5012 83.9995 15.0189 84.0675 14.5233L84.6353 10.387L81.4461 7.58546C81.0653 7.24848 80.9157 6.74301 81.0551 6.26066C81.1945 5.77831 81.5991 5.42481 82.1023 5.33561L86.3251 4.58236L88.0829 0.773152C88.2937 0.313932 88.7425 0.0198997 89.2593 7.72587e-05C89.7727 -0.0197452 90.2453 0.24125 90.4901 0.683951L92.5335 4.3544L96.8039 4.80041C97.3173 4.85327 97.7423 5.17703 97.9225 5.64947C98.0993 6.1186 97.9905 6.63729 97.6335 6.99739L94.6721 10.0203L95.5561 14.1037C95.6615 14.5927 95.4779 15.0882 95.0733 15.3988C94.6687 15.7093 94.1281 15.7655 93.6657 15.5508L89.7931 13.7502L86.0701 15.8283C85.8593 15.9439 85.6315 16.0034 85.4003 16.0034L85.3969 16.0001ZM89.3409 1.6982C89.3409 1.6982 89.3239 1.6982 89.3137 1.6982C89.0485 1.70811 88.8275 1.85347 88.7221 2.08804L87.1955 5.40499C87.1649 5.47107 87.1037 5.51732 87.0289 5.53053L83.3535 6.18798C83.0951 6.23423 82.8945 6.40933 82.8231 6.65711C82.7517 6.90489 82.8231 7.15267 83.0203 7.32446L85.7947 9.75932C85.8491 9.80887 85.8763 9.88156 85.8661 9.95093L85.3731 13.552C85.3391 13.8064 85.4479 14.0443 85.6689 14.1863C85.8865 14.3284 86.1551 14.3383 86.3829 14.2095L89.6231 12.399C89.6877 12.3627 89.7659 12.3594 89.8339 12.3924L93.2067 13.9617C93.4447 14.074 93.7099 14.0443 93.9173 13.8857C94.1247 13.7271 94.2165 13.4826 94.1621 13.2315L93.3937 9.67672C93.3767 9.60735 93.4005 9.53136 93.4515 9.4785L96.0287 6.84542C96.2123 6.66041 96.2633 6.40602 96.1749 6.16485C96.0831 5.92368 95.8723 5.7651 95.6105 5.73537L91.8943 5.34883C91.8195 5.34222 91.7549 5.29927 91.7175 5.2332L89.9393 2.03848C89.8169 1.82044 89.5959 1.69489 89.3443 1.69489L89.3409 1.6982Z" fill="#400124"/>
<path opacity="0.35" d="M85.7298 9.27033L85.6754 9.66017L83.0166 7.32443C82.8194 7.15264 82.748 6.90155 82.8194 6.65708C82.8262 6.63725 82.833 6.61743 82.8398 6.60091L85.655 9.07211C85.7128 9.12166 85.74 9.19765 85.7298 9.27033ZM94.1652 13.2646C94.138 13.2943 94.1074 13.3207 94.0734 13.3471C93.8592 13.5123 93.5838 13.5421 93.339 13.4264L89.8438 11.801C89.7724 11.768 89.6908 11.7713 89.6262 11.8109L86.267 13.6841C86.029 13.8163 85.7536 13.8064 85.5258 13.661C85.468 13.6214 85.4136 13.5751 85.3728 13.5255V13.5553C85.3354 13.8097 85.4442 14.0442 85.6652 14.1896C85.8828 14.3317 86.1514 14.3416 86.3792 14.2127L89.6194 12.4023C89.684 12.3659 89.7656 12.3626 89.8302 12.3957L93.203 13.9649C93.441 14.074 93.7062 14.0442 93.9136 13.889C94.1142 13.737 94.206 13.5057 94.1652 13.2646V13.2646ZM96.1712 6.16812C96.1712 6.16812 96.1678 6.15821 96.1644 6.15491L93.5906 8.78138C93.5362 8.83754 93.5158 8.91353 93.5294 8.98621L93.6042 9.32319L96.025 6.84869C96.2052 6.66368 96.2596 6.4093 96.1712 6.16812V6.16812Z" fill="#400124"/>
<path opacity="0.5" d="M96.025 6.84864L95.9638 6.91141C95.8652 6.83542 95.7428 6.78587 95.6068 6.77265L91.8872 6.38612C91.8158 6.3762 91.7478 6.33326 91.7138 6.27048L89.9356 3.07577C89.8132 2.85772 89.5922 2.72888 89.3406 2.72888H89.3134C89.0482 2.73879 88.8272 2.88415 88.7184 3.11872L87.1918 6.43567C87.1612 6.50175 87.1 6.548 87.0252 6.56121L83.3498 7.21866C83.2342 7.23848 83.1322 7.28473 83.0472 7.35081L83.0166 7.32438C82.8194 7.15258 82.748 6.9015 82.8194 6.65702C82.8908 6.40924 83.088 6.23414 83.3498 6.18789L87.0252 5.53045C87.1 5.51723 87.1612 5.47098 87.1918 5.40491L88.7184 2.08795C88.8272 1.85339 89.0482 1.70802 89.3134 1.70142C89.3202 1.70142 89.3304 1.70142 89.3406 1.70142C89.5922 1.70142 89.8132 1.83026 89.9356 2.04831L91.7138 5.24302C91.7478 5.30579 91.8158 5.34874 91.8872 5.35865L95.6068 5.74519C95.8686 5.77162 96.0794 5.9302 96.1712 6.17137C96.2596 6.41255 96.2052 6.66693 96.025 6.85194V6.84864Z" fill="white"/>
</svg>
