<svg width="15" height="16" viewBox="0 0 15 16" fill="none" xmlns="http://www.w3.org/2000/svg">
<path d="M0 15.5338C0 15.2755 0.217692 15.0676 0.483976 15.0676H0.812458C0.670569 13.1486 2.9058 11.795 4.63179 12.7704C6.22755 10.6136 5.82715 12.8135 5.87186 9.34051H4.95638V10.5238C4.95638 10.7821 4.73869 10.9899 4.47241 10.9899H4.46463C4.1964 10.9899 3.98066 10.7802 3.98066 10.5238V9.32928H1.43444C1.16621 9.32928 0.950459 9.11959 0.950459 8.86309V0.466183C0.950459 0.207817 1.16815 0 1.43444 0H13.1684C13.4367 0 13.6524 0.209689 13.6524 0.466183V8.85748C13.6524 9.11584 13.4347 9.32366 13.1684 9.32366H10.6358V10.5238C10.6358 10.7821 10.4181 10.9899 10.1518 10.9899H10.1441C9.87584 10.9899 9.66009 10.7802 9.66009 10.5238V9.33677H8.7485C8.74267 12.8022 8.44723 10.6511 9.97496 12.7704C11.6854 11.7931 13.9362 13.1411 13.7943 15.0564H14.1247C14.3929 15.0564 14.6087 15.2661 14.6087 15.5226V15.5338C14.6087 15.7922 14.391 16 14.1247 16H0.483976C0.215748 16 0 15.7903 0 15.5338ZM12.6825 1.53709C10.8768 3.14908 9.09448 4.73859 7.30435 6.33747C5.51228 4.73672 3.72992 3.1472 1.92424 1.53522V8.1685C1.92424 8.28458 2.02143 8.37819 2.14193 8.37819H12.4668C12.5873 8.37819 12.6845 8.28458 12.6845 8.1685V1.53709H12.6825ZM2.68616 0.93611C4.23916 2.32343 5.76884 3.68828 7.30435 5.05874C8.8418 3.6864 10.3695 2.32155 11.9225 0.93611H2.68616ZM1.80762 15.0489H12.8088C12.8555 14.3337 12.457 13.7234 11.7942 13.4856C11.4697 13.3677 11.1373 13.3564 10.8069 13.45C10.4045 13.5642 10.1091 13.7983 9.9011 14.1278C9.83502 14.2326 9.69702 14.2719 9.5804 14.2251C9.44434 14.1708 9.30828 14.1147 9.17028 14.0604C9.03228 14.0061 8.96619 13.8376 9.042 13.7084C9.07504 13.6504 9.10808 13.5923 9.13529 13.5324C9.16445 13.4725 9.17805 13.3789 9.15084 13.3246C8.77766 12.5907 8.1654 12.1844 7.31212 12.1807C6.4569 12.1769 5.84464 12.5795 5.45591 13.3077C5.41509 13.3845 5.42092 13.4762 5.47146 13.5474C5.50644 13.5979 5.53949 13.6504 5.57059 13.7065C5.64639 13.8376 5.58613 14.0023 5.4423 14.0585C5.29847 14.1147 5.15269 14.1746 5.01275 14.2308C4.90196 14.2757 4.77173 14.2401 4.70176 14.1465C4.1964 13.4631 3.5375 13.2291 2.82805 13.4781C2.15165 13.714 1.70655 14.3974 1.80568 15.0489H1.80762ZM7.74751 11.2483V9.33489H6.85536V11.2483H7.74751Z" fill="white"/>
</svg>
