<svg width="21" height="23" viewBox="0 0 21 23" fill="none" xmlns="http://www.w3.org/2000/svg">
<path d="M0 22.3299C0 21.9585 0.312932 21.6597 0.695716 21.6597H1.16791C0.963943 18.9011 4.17709 16.9553 6.6582 18.3575C8.9521 15.2571 8.37653 18.4194 8.44079 13.427H7.1248V15.1279C7.1248 15.4993 6.81187 15.798 6.42908 15.798H6.41791C6.03233 15.798 5.72219 15.4966 5.72219 15.1279V13.4108H2.062C1.67642 13.4108 1.36629 13.1094 1.36629 12.7407V0.670138C1.36629 0.298736 1.67922 0 2.062 0H18.9296C19.3152 0 19.6253 0.301428 19.6253 0.670138V12.7326C19.6253 13.104 19.3124 13.4028 18.9296 13.4028H15.289V15.1279C15.289 15.4993 14.9761 15.798 14.5933 15.798H14.5821C14.1965 15.798 13.8864 15.4966 13.8864 15.1279V13.4216H12.576C12.5676 18.4032 12.1429 15.3109 14.339 18.3575C16.7978 16.9526 20.0333 18.8904 19.8293 21.6436H20.3043C20.6899 21.6436 21 21.945 21 22.3137V22.3299C21 22.7013 20.6871 23 20.3043 23H0.695716C0.310138 23 0 22.6986 0 22.3299ZM18.2311 2.20957C15.6354 4.5268 13.0733 6.81172 10.5 9.11011C7.9239 6.80903 5.36176 4.5241 2.7661 2.20688V11.7422C2.7661 11.9091 2.9058 12.0436 3.07903 12.0436H17.921C18.0942 12.0436 18.2339 11.9091 18.2339 11.7422V2.20957H18.2311ZM3.86136 1.34566C6.0938 3.33993 8.29271 5.3019 10.5 7.27194C12.7101 5.2992 14.9062 3.33723 17.1386 1.34566H3.86136ZM2.59846 21.6328H18.4127C18.4798 20.6047 17.907 19.7274 16.9542 19.3856C16.4876 19.216 16.0098 19.1999 15.5349 19.3344C14.9565 19.4986 14.5318 19.835 14.2328 20.3087C14.1378 20.4594 13.9395 20.5159 13.7718 20.4486C13.5762 20.3706 13.3807 20.2898 13.1823 20.2118C12.9839 20.1337 12.8889 19.8915 12.9979 19.7058C13.0454 19.6224 13.0929 19.539 13.132 19.4528C13.1739 19.3667 13.1935 19.2322 13.1543 19.1541C12.6179 18.0991 11.7378 17.5151 10.5112 17.5097C9.2818 17.5043 8.40168 18.083 7.84287 19.1299C7.78419 19.2402 7.79258 19.3721 7.86522 19.4744C7.91551 19.547 7.96301 19.6224 8.00772 19.7031C8.11668 19.8915 8.03007 20.1284 7.82331 20.2091C7.61655 20.2898 7.407 20.376 7.20583 20.4567C7.04657 20.5213 6.85937 20.4702 6.75878 20.3356C6.03233 19.3533 5.08515 19.0168 4.06533 19.3748C3.093 19.7139 2.45317 20.6962 2.59566 21.6328H2.59846ZM11.137 16.1694V13.4189H9.85458V16.1694H11.137Z" fill="#7F034D"/>
</svg>
