<svg width="16" height="14" viewBox="0 0 16 14" fill="none" xmlns="http://www.w3.org/2000/svg">
<path d="M7.99903 13.913C7.83311 13.913 7.66912 13.8671 7.52249 13.7815C5.75714 12.7456 0 9.04703 0 4.92658C0 2.20955 2.12806 0 4.74231 0C5.96358 0 7.12312 0.484513 7.99903 1.34494C8.87495 0.484513 10.0364 0 11.2577 0C13.8739 0 16 2.20955 16 4.92658C16 8.94261 10.2467 12.7164 8.4833 13.7752C8.33474 13.865 8.16689 13.911 7.99903 13.911V13.913ZM4.74231 1.34076C2.81105 1.34076 1.23863 2.94885 1.23863 4.92658C1.23863 7.58096 4.85229 10.6656 7.99711 12.5347C8.62414 12.1504 10.2872 11.0874 11.8095 9.69861C13.7697 7.91302 14.7633 6.30702 14.7633 4.92658C14.7633 2.94885 13.1909 1.33868 11.2577 1.33868C10.1618 1.33868 9.15085 1.84825 8.48137 2.73792L8.00289 3.37488L7.52249 2.73792C6.85301 1.84825 5.84011 1.33868 4.74424 1.33868L4.74231 1.34076Z" fill="white"/>
</svg>
