<svg width="23" height="20" viewBox="0 0 23 20" fill="none" xmlns="http://www.w3.org/2000/svg">
<path d="M11.4986 20C11.2601 20 11.0244 19.934 10.8136 19.8109C8.2759 18.3218 0 13.0051 0 7.08196C0 3.17622 3.05909 0 6.81707 0C8.57265 0 10.2395 0.696488 11.4986 1.93335C12.7577 0.696488 14.4273 0 16.1829 0C19.9437 0 23 3.17622 23 7.08196C23 12.855 14.7297 18.2798 12.1947 19.8019C11.9812 19.931 11.7399 19.997 11.4986 19.997V20ZM6.81707 1.92735C4.04088 1.92735 1.78054 4.23897 1.78054 7.08196C1.78054 10.8976 6.97516 15.3317 11.4958 18.0186C12.3972 17.4662 14.7879 15.9382 16.9761 13.9418C19.7939 11.375 21.2222 9.06635 21.2222 7.08196C21.2222 4.23897 18.9619 1.92435 16.1829 1.92435C14.6076 1.92435 13.1543 2.65686 12.192 3.93576L11.5042 4.8514L10.8136 3.93576C9.8512 2.65686 8.39515 1.92435 6.81985 1.92435L6.81707 1.92735Z" fill="#7F034D"/>
</svg>
