<svg width="33" height="33" viewBox="0 0 33 33" fill="none" xmlns="http://www.w3.org/2000/svg">
<path d="M24.6468 5.74805C23.6012 5.74805 22.7646 6.59365 22.7646 7.6302C22.7646 8.66675 23.6103 9.51236 24.6468 9.51236C25.6834 9.51236 26.529 8.66675 26.529 7.6302C26.529 6.59365 25.6834 5.74805 24.6468 5.74805Z" fill="white"/>
<path d="M16.2635 8.16602C11.8991 8.16602 8.34387 11.7212 8.34387 16.0856C8.34387 20.45 11.8991 24.0052 16.2635 24.0052C20.6279 24.0052 24.1831 20.45 24.1831 16.0856C24.1831 11.7212 20.6279 8.16602 16.2635 8.16602ZM16.2635 21.1593C13.463 21.1593 11.1898 18.8861 11.1898 16.0856C11.1898 13.2851 13.463 11.012 16.2635 11.012C19.064 11.012 21.3371 13.2851 21.3371 16.0856C21.3371 18.8861 19.064 21.1593 16.2635 21.1593Z" fill="white"/>
<path d="M22.5555 32.1785H9.70772C4.3795 32.1785 0.0423584 27.8413 0.0423584 22.5131V9.66537C0.0423584 4.33714 4.3795 0 9.70772 0H22.5555C27.8837 0 32.2208 4.33714 32.2208 9.66537V22.5131C32.2208 27.8413 27.8837 32.1785 22.5555 32.1785ZM9.70772 3.02781C6.05253 3.02781 3.07017 6.00107 3.07017 9.66537V22.5131C3.07017 26.1683 6.04343 29.1507 9.70772 29.1507H22.5555C26.2107 29.1507 29.193 26.1774 29.193 22.5131V9.66537C29.193 6.01017 26.2198 3.02781 22.5555 3.02781H9.70772Z" fill="white"/>
</svg>
