<svg width="16" height="17" viewBox="0 0 16 17" fill="none" xmlns="http://www.w3.org/2000/svg">
<path d="M7.07451 16.0013C6.92555 16.0013 6.78614 15.944 6.68111 15.839L0.163354 9.3285C0.0411336 9.20631 -0.0180666 9.0383 0.00484961 8.86647C0.0258561 8.69463 0.12325 8.54572 0.272206 8.45598L1.87825 7.49564L0.533833 6.15536C0.42689 6.05035 0.3696 5.90907 0.3696 5.75824C0.3696 5.60932 0.4288 5.46994 0.533833 5.36494C0.776363 5.12437 1.02271 4.86663 1.26142 4.61843C2.44925 3.37743 3.67718 2.09443 5.13618 2.09443C5.67471 2.09443 6.20751 2.26435 6.76514 2.61374L6.88163 2.68629L6.9752 2.58701C8.58125 0.895429 10.5616 0 12.7023 0C13.5522 0 14.4172 0.145102 15.2709 0.429577C15.4408 0.483035 15.523 0.565132 15.5745 0.735054C16.0691 2.29108 16.1321 3.79746 15.7655 5.2122C15.3931 6.64603 14.5929 7.91949 13.3879 8.9982L13.281 9.09366L13.3593 9.21395C14.1575 10.432 14.0372 12.0377 13.069 13.0324C12.8246 13.2787 12.5801 13.5288 12.3338 13.7789C11.7876 14.3345 11.2223 14.9092 10.6552 15.4571C10.5501 15.5583 10.4107 15.6156 10.2656 15.6156C10.1205 15.6156 9.97723 15.5583 9.8722 15.4514L8.52587 14.1016L7.55193 15.7301C7.45071 15.9001 7.2712 16.0013 7.0726 16.0013H7.07451ZM2.52754 8.31088C2.44543 8.31088 2.36331 8.33379 2.29265 8.37579L1.72357 8.71564C1.60135 8.78819 1.52114 8.91038 1.50395 9.05166C1.48677 9.19294 1.53451 9.33041 1.63572 9.4316L6.57799 14.365C6.66392 14.451 6.7785 14.4987 6.90072 14.4987C7.06305 14.4987 7.21009 14.4147 7.29412 14.2753L7.63213 13.7083C7.73908 13.5288 7.71043 13.2978 7.56339 13.1508L2.85219 8.44453C2.76626 8.35861 2.65167 8.31088 2.52754 8.31088ZM9.48262 12.9828C9.39668 13.0687 9.34894 13.1832 9.34894 13.3054C9.34894 13.4276 9.39668 13.5422 9.48262 13.6281L9.9123 14.0577C9.99823 14.1436 10.1128 14.1913 10.235 14.1913C10.3573 14.1913 10.4718 14.1436 10.5578 14.0577C10.7507 13.8648 10.9722 13.672 11.2052 13.4677C12.2421 12.5608 13.4166 11.5337 12.7176 10.0655L12.6164 9.85163L9.48453 12.9809L9.48262 12.9828ZM9.19808 2.05051C9.08922 2.05051 8.98419 2.0887 8.90208 2.15934C7.77918 3.12541 6.72121 4.20412 5.69762 5.24656C5.05597 5.89952 4.39331 6.57539 3.7211 7.21689C3.63134 7.30281 3.57978 7.41927 3.57978 7.54337C3.57978 7.66747 3.62561 7.78393 3.71346 7.87176L8.12483 12.2783C8.21077 12.3642 8.32535 12.4119 8.44757 12.4119C8.56979 12.4119 8.68628 12.3642 8.77413 12.2764C9.28783 11.7551 9.82254 11.232 10.342 10.7261C11.5298 9.56524 12.7577 8.36243 13.8405 7.08706C13.9933 6.9076 13.9818 6.63458 13.8138 6.46847L9.52463 2.18416C9.4387 2.09824 9.32221 2.05051 9.19999 2.05051H9.19808ZM5.0617 3.08341C4.01328 3.08341 3.19402 3.98647 2.47216 4.78453C2.26974 5.00791 2.07877 5.21793 1.8878 5.40694C1.79995 5.49286 1.75221 5.60741 1.75221 5.73151C1.75221 5.8537 1.79995 5.97016 1.88589 6.05608L2.34612 6.5162C2.43206 6.60212 2.54664 6.64985 2.66886 6.64985C2.79108 6.64985 2.90566 6.60212 2.9916 6.5162L6.13494 3.37743L5.91342 3.27815C5.62887 3.14832 5.34051 3.08341 5.0617 3.08341ZM12.7405 0.971798C12.0091 0.971798 11.2548 1.09017 10.4967 1.32501L10.2312 1.4071L14.57 5.73724L14.6598 5.49095C15.1105 4.25758 15.1563 2.91349 14.7915 1.49684C14.7553 1.35746 14.5987 1.23718 14.4688 1.20282C13.9131 1.04817 13.3306 0.969889 12.7405 0.969889V0.971798ZM8.85624 8.8932C8.34827 8.8932 7.87275 8.70609 7.54811 8.38152C7.23874 8.07032 7.07451 7.63883 7.07833 7.1367C7.10506 5.93771 8.01789 5.38976 8.85242 5.38976C9.68696 5.38976 10.6303 5.94343 10.6456 7.16152C10.6323 8.34906 9.70796 8.8932 8.85624 8.8932ZM8.85624 6.3291C8.33299 6.3291 8.05799 6.74149 8.05799 7.15007C8.05799 7.36008 8.12865 7.55482 8.25469 7.70184C8.40174 7.86985 8.60798 7.95958 8.85242 7.95958H8.85624C9.38141 7.95958 9.66022 7.55673 9.66404 7.15961C9.66786 6.75486 9.39477 6.33864 8.86579 6.3291H8.85433H8.85624Z" fill="white"/>
</svg>
