<svg width="23" height="23" viewBox="0 0 23 23" fill="none" xmlns="http://www.w3.org/2000/svg">
<path d="M10.1688 23C9.9547 23 9.75432 22.9177 9.60334 22.7667L0.234802 13.4087C0.059125 13.233 -0.0259687 12.9915 0.00697076 12.7445C0.0371653 12.4976 0.177158 12.2835 0.391265 12.1545L2.69977 10.7741L0.767324 8.84763C0.613606 8.6967 0.531258 8.49362 0.531258 8.27682C0.531258 8.06276 0.616351 7.86243 0.767324 7.71149C1.11593 7.36571 1.47003 6.99523 1.81315 6.63847C3.52052 4.85467 5.28552 3.0105 7.38267 3.0105C8.15675 3.0105 8.92259 3.25474 9.72412 3.75695L9.89156 3.86123L10.0261 3.71853C12.3346 1.28708 15.1811 0 18.2582 0C19.4797 0 20.7232 0.208567 21.9502 0.617468C22.1945 0.694309 22.3125 0.812314 22.3866 1.05656C23.0976 3.29316 23.1881 5.45842 22.6611 7.49195C22.1258 9.55292 20.9757 11.3834 19.2436 12.9339L19.0899 13.0711L19.2025 13.244C20.3498 14.9949 20.1769 17.3028 18.7852 18.7326C18.4339 19.0866 18.0825 19.4461 17.7284 19.8056C16.9434 20.6042 16.1309 21.4303 15.3156 22.2179C15.1646 22.3633 14.9642 22.4457 14.7556 22.4457C14.547 22.4457 14.3411 22.3633 14.1902 22.2096L12.255 20.2694L10.855 22.6103C10.7096 22.8546 10.4515 23 10.1661 23H10.1688ZM3.63306 11.9459C3.51503 11.9459 3.39699 11.9789 3.29543 12.0393L2.47743 12.5277C2.30176 12.632 2.18647 12.8077 2.16176 13.0107C2.13706 13.2138 2.20568 13.4114 2.35116 13.5569L9.45512 20.6481C9.57864 20.7716 9.74333 20.8402 9.91901 20.8402C10.1523 20.8402 10.3637 20.7195 10.4845 20.5192L10.9703 19.7041C11.124 19.4461 11.0829 19.1141 10.8715 18.9028L4.0997 12.1381C3.97618 12.0146 3.81148 11.9459 3.63306 11.9459ZM13.6302 18.6613C13.5067 18.7848 13.438 18.9494 13.438 19.125C13.438 19.3007 13.5067 19.4653 13.6302 19.5888L14.2478 20.2063C14.3713 20.3298 14.536 20.3984 14.7117 20.3984C14.8874 20.3984 15.0521 20.3298 15.1756 20.2063C15.4528 19.9291 15.7713 19.652 16.1061 19.3583C17.5967 18.0548 19.2848 16.5783 18.2802 14.468L18.1347 14.1606L13.6329 18.6585L13.6302 18.6613ZM13.2212 2.94738C13.0647 2.94738 12.9138 3.00227 12.7957 3.10381C11.1817 4.49242 9.66099 6.04295 8.18969 7.54134C7.26738 8.4799 6.31488 9.45138 5.34866 10.3735C5.21965 10.497 5.14553 10.6644 5.14553 10.8427C5.14553 11.0211 5.21141 11.1885 5.33768 11.3148L11.6785 17.6486C11.8021 17.7721 11.9668 17.8407 12.1424 17.8407C12.3181 17.8407 12.4855 17.7721 12.6118 17.6459C13.3502 16.8967 14.1188 16.1447 14.8654 15.4175C16.5728 13.749 18.3378 12.02 19.8942 10.1869C20.1138 9.92889 20.0973 9.53645 19.8558 9.2977L13.6906 3.13948C13.5671 3.01599 13.3996 2.94738 13.2239 2.94738H13.2212ZM7.27562 4.43205C5.76864 4.43205 4.59105 5.7301 3.55346 6.87722C3.26249 7.19831 2.98799 7.50018 2.7135 7.77187C2.58723 7.89536 2.51861 8.06002 2.51861 8.2384C2.51861 8.41403 2.58723 8.58143 2.71075 8.70493L3.37229 9.36631C3.49581 9.4898 3.66051 9.55841 3.83619 9.55841C4.01186 9.55841 4.17656 9.4898 4.30008 9.36631L8.81828 4.85467L8.49987 4.71197C8.09087 4.52536 7.67638 4.43205 7.27562 4.43205ZM18.3131 1.39685C17.2618 1.39685 16.1775 1.567 15.0878 1.90455L14.7062 2.02255L20.9428 8.24663L21.0718 7.89261C21.7196 6.1198 21.7855 4.18781 21.2612 2.15153C21.209 1.9512 20.9839 1.77831 20.7973 1.72891C19.9985 1.50662 19.1613 1.39411 18.3131 1.39411V1.39685ZM12.7298 12.783C11.9997 12.783 11.3162 12.514 10.8496 12.0475C10.4049 11.6002 10.1688 10.98 10.1743 10.2582C10.2127 8.53478 11.5248 7.74717 12.7244 7.74717C13.9239 7.74717 15.2799 8.54301 15.3019 10.2939C15.2827 12.0008 13.9541 12.783 12.7298 12.783ZM12.7298 9.09736C11.9777 9.09736 11.5825 9.69013 11.5825 10.2774C11.5825 10.5793 11.684 10.8592 11.8652 11.0705C12.0765 11.312 12.373 11.441 12.7244 11.441H12.7298C13.4847 11.441 13.8855 10.8619 13.891 10.2911C13.8965 9.70934 13.5039 9.11109 12.7436 9.09736H12.7271H12.7298Z" fill="#7F034D"/>
</svg>
