<svg width="19" height="19" viewBox="0 0 19 19" fill="none" xmlns="http://www.w3.org/2000/svg">
<path d="M0.717655 17.4348H17.6519C17.7721 17.4348 17.8696 17.5323 17.8696 17.6524C17.8696 17.7726 17.7721 17.87 17.6519 17.87H0.717655C0.597418 17.87 0.5 17.7726 0.5 17.6524C0.5 17.5323 0.59742 17.4348 0.717655 17.4348Z" fill="black" stroke="#F2F2F2"/>
<path d="M1.98386 15.0957C2.09596 15.0794 2.20817 15.0631 2.32045 15.0468C3.10384 14.9329 3.89133 14.8184 4.6785 14.7145L4.67884 14.7144C5.42874 14.6159 6.06121 14.3222 6.61268 13.8173H5.92764C5.62854 14.0274 5.28745 14.1691 4.9169 14.2301L4.91684 14.2301C4.49668 14.2992 4.07301 14.3593 3.64403 14.4201C3.48337 14.4429 3.32196 14.4658 3.15971 14.4893L2.50146 14.5847L2.59273 13.9259C2.60068 13.8685 2.60852 13.8114 2.61633 13.7545C2.64238 13.5648 2.66809 13.3775 2.6963 13.1912L1.98386 15.0957ZM1.98386 15.0957C2.01355 14.8877 2.04308 14.6821 2.07315 14.4764L2.07328 14.4756C2.10686 14.243 2.13942 14.0119 2.17183 13.7818C2.2534 13.2028 2.33408 12.63 2.42794 12.0568L2.428 12.0564C2.52145 11.4829 2.78782 10.9798 3.19987 10.5302C3.22946 10.498 3.26229 10.4641 3.29627 10.4301C4.34213 9.38433 5.38783 8.33845 6.43351 7.2926C8.52454 5.20121 10.6155 3.10991 12.7074 1.01952C13.3049 0.422949 14.1549 0.338358 14.8177 0.775716C14.9096 0.836786 15.0013 0.912849 15.0912 0.999998C15.4252 1.32637 15.7555 1.65876 16.0871 1.99363C16.7296 2.64584 16.7431 3.6402 16.1184 4.31045L16.1168 4.31219C16.0857 4.34595 16.0549 4.37638 16.0164 4.41457C16.0012 4.42956 15.9849 4.44575 15.9668 4.4638C15.1395 5.2911 14.3118 6.11819 13.484 6.94533C11.2524 9.17537 9.02033 11.4058 6.79361 13.6417M1.98386 15.0957L6.79361 13.6417M6.79361 13.6417L6.11416 12.9634C5.45962 12.31 4.8124 11.6649 4.15838 11.0131L4.11274 10.9676L3.72843 10.5846L3.37802 10.9988C3.14547 11.2738 2.96276 11.6125 2.88499 12.0014L2.88483 12.0022C2.82565 12.3006 2.78135 12.6072 2.73924 12.8985C2.72484 12.9981 2.7107 13.096 2.69631 13.1911L6.79361 13.6417ZM13.8885 5.86429L13.5602 5.53545C13.2243 5.19909 12.8904 4.8641 12.5562 4.52888L12.554 4.5266C12.219 4.19058 11.8838 3.85431 11.5459 3.51588L11.2181 3.18753L11.5211 2.83612C11.5232 2.83361 11.5263 2.82991 11.5303 2.82525C11.5517 2.79988 11.5972 2.74603 11.6423 2.7009L11.9959 3.05446L11.6423 2.7009C11.7724 2.57087 11.9024 2.44062 12.0326 2.31028C12.3584 1.98411 12.6847 1.65737 13.0123 1.33213C13.2533 1.09217 13.5607 0.933981 13.9072 0.93247C14.2542 0.930957 14.5633 1.08696 14.8065 1.32618L14.8068 1.32656C15.123 1.63834 15.437 1.9523 15.7488 2.26846L13.8885 5.86429ZM13.8885 5.86429L14.2404 5.56089M13.8885 5.86429L14.2404 5.56089M14.2404 5.56089C14.2406 5.56077 14.2412 5.56029 14.2422 5.55947C14.2539 5.54985 14.3218 5.49439 14.3709 5.44438M14.2404 5.56089L14.3709 5.44438M14.3709 5.44438C14.436 5.37947 14.5011 5.31454 14.5662 5.24959C14.9612 4.85573 15.3572 4.46085 15.7515 4.06279L15.7515 4.06275C15.9912 3.82078 16.148 3.51235 16.147 3.1651C16.1459 2.81857 15.988 2.51085 15.749 2.26866L14.3709 5.44438ZM10.527 3.87626L10.5261 3.87711C8.50346 5.89966 6.48194 7.92106 4.46697 9.93481L4.11349 10.2881L4.46658 10.6417C5.11825 11.2945 5.78515 11.9613 6.43338 12.6095L6.43524 12.6114L6.78888 12.965L7.14242 12.6113C8.14464 11.6086 9.15817 10.5948 10.1711 9.58174C11.1859 8.56669 12.2001 7.55231 13.2015 6.55035L13.5546 6.19708L13.2017 5.84362C12.8767 5.51804 12.5475 5.18865 12.2185 4.85934L12.2153 4.85619C11.8873 4.52791 11.5594 4.19974 11.2355 3.87537L10.8819 3.52117L10.5281 3.87516L10.5271 3.87617L10.527 3.87626Z" fill="black" stroke="#F2F2F2"/>
</svg>
