<svg width="16" height="19" viewBox="0 0 16 19" fill="none" xmlns="http://www.w3.org/2000/svg">
<path d="M3.66109 18.3704C3.51403 18.3246 3.35973 18.2932 3.2199 18.2305C2.57378 17.9435 2.25554 17.4251 2.19286 16.733C2.04097 15.0378 1.88668 13.3401 1.73479 11.6449C1.59737 10.1209 1.46236 8.59685 1.32735 7.07524C1.28637 6.61225 1.24056 6.14926 1.19716 5.67179C0.982596 5.67179 0.780082 5.67179 0.577567 5.67179C0.227989 5.66697 0.00136576 5.44512 0.00377664 5.09546C0.00618753 4.63006 -0.0203322 4.15983 0.0399399 3.69924C0.146019 2.889 0.852408 2.30785 1.67693 2.30062C2.60271 2.29338 3.5309 2.30062 4.45668 2.30062C4.49284 2.30062 4.52901 2.30062 4.5941 2.30062C4.5941 2.08359 4.58446 1.87138 4.5941 1.65918C4.63026 0.933337 4.98225 0.41488 5.65248 0.132743C5.84535 0.0507542 6.06956 0.0121714 6.27931 0.00975995C7.42689 -0.00229719 8.57447 -0.00229719 9.72205 0.0049371C10.6671 0.00975995 11.3952 0.745245 11.4073 1.69294C11.4097 1.88826 11.4073 2.08359 11.4073 2.2982H11.617C12.4898 2.2982 13.3625 2.2982 14.2352 2.2982C15.2719 2.2982 15.9952 3.01922 16 4.05372C16 4.40097 16 4.74822 16 5.09305C15.9976 5.44271 15.7758 5.66456 15.4286 5.66697C15.2261 5.66938 15.0236 5.66697 14.809 5.66697C14.7753 6.0118 14.7439 6.34458 14.7126 6.67736C14.5703 8.24237 14.4281 9.80739 14.2883 11.3724C14.1509 12.8964 14.0158 14.4205 13.8808 15.9421C13.8519 16.2628 13.8278 16.5859 13.7844 16.9042C13.6807 17.6518 13.172 18.1823 12.4271 18.3342C12.3981 18.339 12.3716 18.3535 12.3451 18.3655H3.66109V18.3704ZM2.29171 5.68144C2.29171 5.73208 2.2893 5.77307 2.29171 5.81166C2.38814 6.88956 2.48458 7.96506 2.58101 9.04297C2.69432 10.2993 2.80523 11.5533 2.91854 12.8096C3.03426 14.0829 3.15239 15.3561 3.26329 16.6293C3.30187 17.0682 3.52608 17.2925 3.96486 17.2925C6.65541 17.2925 9.34355 17.2925 12.0341 17.2925C12.4729 17.2925 12.6995 17.0682 12.7357 16.6293C12.7935 15.9083 12.8634 15.1897 12.9285 14.4687C13.0443 13.1954 13.16 11.9222 13.2757 10.649C13.377 9.52525 13.4806 8.39912 13.5819 7.27539C13.6301 6.74729 13.6759 6.21919 13.7241 5.67903H2.29412L2.29171 5.68144ZM14.9247 4.58906C14.9247 4.40338 14.9247 4.23458 14.9247 4.06819C14.9247 3.61243 14.6861 3.37611 14.2256 3.37611C13.2516 3.37611 12.2776 3.37611 11.3012 3.37611C8.10917 3.37611 4.91716 3.37852 1.72515 3.38094C1.39486 3.38094 1.13448 3.56662 1.09591 3.87287C1.06698 4.10678 1.09109 4.34551 1.09109 4.58665H14.9272L14.9247 4.58906ZM10.3272 2.29097C10.3272 2.05706 10.3417 1.83039 10.3224 1.60854C10.2983 1.31917 10.0475 1.08526 9.75581 1.08526C8.58653 1.07802 7.41484 1.07802 6.24556 1.08526C5.95384 1.08526 5.70311 1.32158 5.67659 1.60854C5.6573 1.8328 5.67177 2.05947 5.67177 2.29097H10.3248H10.3272ZM6.50593 14.2661C6.41673 13.2606 6.32994 12.255 6.23833 11.2494C6.15636 10.3451 6.07439 9.44085 5.99 8.53657C5.96831 8.31472 5.85017 8.15797 5.64043 8.0784C5.24263 7.92648 4.881 8.25443 4.92439 8.7126C5.03288 9.8725 5.13414 11.0324 5.23781 12.1947C5.30531 12.9495 5.37282 13.7067 5.44997 14.4614C5.4789 14.7484 5.72963 14.9461 6.0117 14.9293C6.29378 14.9124 6.51799 14.6664 6.51558 14.365C6.51317 14.3409 6.50834 14.3047 6.50352 14.2685L6.50593 14.2661ZM10.5755 8.04223C10.2814 8.02293 10.0355 8.23996 10.0065 8.5438C9.92698 9.39986 9.84983 10.2583 9.77268 11.1144C9.67625 12.1923 9.5774 13.2678 9.48338 14.3457C9.45927 14.6351 9.67625 14.8907 9.95832 14.9244C10.2428 14.9582 10.5032 14.7581 10.5466 14.4687C10.5635 14.3626 10.5707 14.2541 10.5803 14.148C10.684 13.0122 10.7853 11.874 10.8865 10.7382C10.9492 10.0292 11.0119 9.32269 11.0794 8.58721C11.0866 8.31231 10.8648 8.06152 10.5755 8.04223Z" fill="white"/>
</svg>
