<svg width="154" height="53" viewBox="0 0 154 53" fill="none" xmlns="http://www.w3.org/2000/svg">
<path d="M24.4435 48.9497C24.5327 49.05 24.6236 49.1494 24.7146 49.2489C22.8166 51.0804 20.3584 52.2728 17.3398 52.826L16.1724 52.9498C13.9438 53.1288 11.7621 52.8287 9.62814 52.0495C7.49326 51.2702 5.66285 49.992 4.13421 48.2129C2.60646 46.4347 1.72459 44.3836 1.48948 42.0612L0.0635245 27.9471C-0.269769 24.652 0.708492 21.7167 2.99741 19.1412C5.28632 16.5667 8.31839 15.057 12.0936 14.614C15.9976 14.341 19.3477 15.2531 22.1438 17.3495C22.532 17.6388 22.75 18.0112 22.7959 18.4678C22.8257 18.7652 22.7545 19.0617 22.5824 19.3555L22.2933 19.8292C21.942 20.358 21.4546 20.6473 20.8304 20.697C20.3404 20.7368 19.8774 20.6039 19.4423 20.2984C18.3244 19.4676 17.0065 19.0933 15.4869 19.1747C13.9754 19.3365 12.7449 19.9458 11.7964 21.0017C10.8469 22.0584 10.4398 23.2517 10.5749 24.5815L12.4783 43.4C12.6089 44.6909 13.225 45.782 14.3258 46.6734C15.4274 47.5656 16.7183 48.0023 18.1992 47.9833C19.9584 47.8251 21.3033 47.1697 22.2365 46.0198C22.3149 46.1455 22.3942 46.2693 22.4762 46.3931C23.0716 47.289 23.7292 48.146 24.4435 48.9497ZM92.8263 21.3135C92.7821 20.6346 92.4768 20.0669 91.9093 19.6113C91.3427 19.1557 90.6779 18.9469 89.9158 18.9867L86.9243 19.1421C86.3081 19.1738 85.7676 19.3654 85.3019 19.7153C84.8362 20.0651 84.5327 20.5126 84.3894 21.0559L80.1692 37.8829L73.7844 21.6055C73.5547 21.0812 73.1899 20.669 72.6908 20.3689C72.1909 20.0687 71.6333 19.935 71.0172 19.9666L64.572 20.3011C64.0369 20.3291 63.5937 20.5189 63.2424 20.8697C62.8911 21.2213 62.7308 21.6354 62.7623 22.1118C62.7938 22.5882 63.0064 22.9832 63.401 23.296C63.7955 23.6088 64.2603 23.7516 64.7954 23.7236L65.4764 23.6884L66.9636 46.4365C66.9969 46.9428 67.2185 47.3469 67.6284 47.6524C68.0391 47.9571 68.5031 48.0963 69.0219 48.0692C69.6056 48.0393 70.0866 47.8115 70.4659 47.3857C70.7676 47.0223 70.9037 46.6164 70.8739 46.169L69.9659 32.2817L73.6853 41.762C73.9952 42.5286 74.5194 43.1288 75.2554 43.5609C75.9913 43.9939 76.7976 44.1874 77.6731 44.1422L79.5216 44.0464C80.4133 44.0003 81.1925 43.7246 81.8591 43.2183C82.5257 42.713 82.9626 42.063 83.1716 41.2702L85.6298 31.4691L86.4955 44.7063C86.5396 45.3852 86.8495 45.9529 87.4242 46.4076C87.9989 46.8632 88.6673 47.0712 89.4294 47.0314L91.7399 46.9111C92.502 46.8714 93.1352 46.5965 93.6379 46.0849C94.1414 45.5732 94.3711 44.9784 94.327 44.2995L92.8236 21.3126L92.8263 21.3135ZM126.73 43.3819C126.462 43.2653 126.207 43.2138 125.964 43.2264C125.412 43.2554 124.988 43.4805 124.69 43.9008C123.976 44.9233 122.897 45.4792 121.455 45.5687C120.381 45.5515 119.455 45.2089 118.679 44.5391C117.903 43.8692 117.485 43.0646 117.423 42.1263L116.528 28.4343C116.465 27.4671 116.791 26.6092 117.507 25.8616C118.223 25.1149 119.131 24.6981 120.232 24.6113C121.336 24.5833 122.283 24.8816 123.073 25.5072C123.381 25.7377 123.714 25.8435 124.07 25.8254C124.524 25.8019 124.885 25.6021 125.154 25.2261L125.376 24.8889C125.508 24.6791 125.567 24.4658 125.553 24.2488C125.531 23.9171 125.383 23.6422 125.109 23.4244C123.134 21.846 120.727 21.1156 117.888 21.234C115.138 21.4781 112.9 22.5113 111.172 24.332C109.444 26.1536 108.659 28.2635 108.815 30.6609L109.487 40.9303C109.598 42.6199 110.185 44.1259 111.247 45.4476C112.31 46.7692 113.606 47.7347 115.134 48.344C116.663 48.9533 118.238 49.2154 119.859 49.1314L120.709 49.0654C123.544 48.6287 125.734 47.4065 127.279 45.3988C127.488 45.1131 127.583 44.8247 127.564 44.5363C127.531 44.031 127.254 43.6468 126.732 43.3837L126.73 43.3819ZM61.0958 23.3258C59.4456 21.79 57.3368 20.9773 54.7705 20.8887C52.2744 20.9321 50.1737 21.7176 48.4703 23.2472C46.7669 24.7768 45.8887 26.6263 45.8355 28.795L45.7625 31.7746C45.7319 33.005 45.9931 34.1512 46.5435 35.2134C46.6102 35.9583 46.6814 36.7023 46.7624 37.4436C46.8417 38.1695 46.857 38.9207 46.8228 39.6484C46.7174 42.3161 45.831 44.9829 44.0736 47.0097C39.7371 52.0567 31.2616 52.4391 26.427 47.9019C25.2884 46.8533 24.4129 45.5542 23.803 44.135C23.5553 44.2181 23.3067 44.3013 23.0572 44.3818C23.6958 45.9321 24.6344 47.3577 25.8568 48.5103C31.0031 53.4371 40.111 53.0294 44.7356 47.5792C46.6228 45.3861 47.5542 42.5521 47.6371 39.6792C47.665 38.9144 47.6398 38.1252 47.5497 37.3649C47.5209 37.1118 47.493 36.8587 47.465 36.6047C47.8812 37.1082 48.3631 37.5647 48.9126 37.9733C50.4827 39.1675 52.3176 39.7849 54.4156 39.8256L56.0883 39.8582C56.6018 39.8681 57.0378 40.0371 57.3972 40.3644C57.7557 40.6916 57.9296 41.084 57.9187 41.5414C57.8791 41.959 57.6908 42.3152 57.353 42.609C57.0152 42.9037 56.6045 43.0457 56.1208 43.0357L52.5779 42.967C51.9321 42.9543 51.4249 42.6795 51.0574 42.1426C50.689 41.6056 50.1818 41.3317 49.5369 41.319C48.8766 41.3064 48.4136 41.4872 48.1469 41.8605C47.8803 42.2348 47.7443 42.5656 47.7371 42.8522C47.7308 43.1008 47.7983 43.3566 47.938 43.6215C48.3748 44.3628 48.9946 44.9594 49.799 45.4132C50.6025 45.867 51.5024 46.103 52.5005 46.1229L56.0433 46.1916C57.5098 46.2196 58.7727 45.7811 59.8293 44.8726C60.8869 43.965 61.4309 42.8576 61.4634 41.5504C61.4949 40.2568 61.0157 39.1431 60.0266 38.2084C59.0366 37.2745 57.7791 36.7719 56.2541 36.7032C55.2569 36.6707 54.4282 36.3443 53.7679 35.7233C53.1076 35.1022 52.7887 34.3546 52.8103 33.4786L52.9626 27.2845C52.9842 26.4094 53.3436 25.6582 54.0417 25.0308C54.7398 24.4043 55.5947 24.087 56.6081 24.0807C57.6053 24.1268 58.4259 24.4568 59.0718 25.0706C59.4591 25.4313 59.7347 25.8552 59.8987 26.3416C60.1761 26.9879 60.6526 27.317 61.3273 27.3306C61.8849 27.3414 62.2777 27.1886 62.5056 26.8731C62.7335 26.5576 62.8506 26.2756 62.8569 26.027C62.8614 25.8308 62.8155 25.6274 62.7182 25.4159C62.2966 24.6366 61.7561 23.9406 61.0958 23.3258ZM104.747 19.4043L99.2696 19.2081C98.7436 19.1892 98.2896 19.3365 97.9085 19.6502C97.5266 19.9639 97.3257 20.3544 97.3041 20.8236C97.2825 21.2919 97.4482 21.6968 97.8004 22.0367C98.1527 22.3766 98.5913 22.5556 99.1174 22.5746H99.1417L98.6422 33.6224L98.1427 44.6701C98.1175 45.2243 98.3157 45.7043 98.7364 46.1102C99.157 46.517 99.6786 46.7312 100.3 46.7529L103.505 46.8677C104.127 46.8903 104.666 46.7141 105.122 46.3389C105.578 45.9647 105.819 45.5 105.844 44.9459L106.904 21.488C106.929 20.9339 106.731 20.4538 106.31 20.047C105.89 19.6412 105.369 19.426 104.747 19.4043ZM144.127 26.1825C145.671 42.5566 146.441 50.7784 146.438 50.8499C146.42 51.2476 146.248 51.6002 145.923 51.9093C145.597 52.2176 145.179 52.3632 144.669 52.3442L140.412 52.1914C139.981 52.176 139.612 52.035 139.304 51.7674C138.996 51.4998 138.82 51.1735 138.774 50.7884L138.581 48.6902L132.314 48.4651L131.619 50.5958C131.474 50.9746 131.232 51.2756 130.896 51.498C130.558 51.7204 130.174 51.8244 129.743 51.809C129.137 51.7873 128.661 51.5568 128.313 51.1174C128.056 50.7956 127.936 50.4503 127.953 50.0806C127.96 49.9242 130.37 42.5204 135.186 27.8684L134.636 27.8485C134.11 27.8296 133.67 27.6506 133.319 27.3107C132.967 26.9708 132.802 26.5667 132.822 26.0975C132.844 25.6292 133.045 25.2378 133.427 24.9241C133.808 24.6104 134.262 24.4631 134.789 24.4821L142.443 24.7569C142.889 24.7731 143.27 24.9142 143.586 25.1818C143.901 25.4493 144.081 25.7829 144.127 26.1825ZM138.26 45.2207L137.15 33.7426L133.429 45.048L138.26 45.2216L138.26 45.2207ZM152.104 28.7037C152.104 29.1386 151.953 29.5074 151.652 29.8093C151.435 30.0272 151.176 30.1673 150.874 30.2306L151.366 30.971C151.387 31.0134 151.398 31.0559 151.398 31.0984C151.398 31.2413 151.326 31.3136 151.183 31.3136C151.109 31.3136 151.048 31.2819 151.001 31.2177L150.549 30.5253C150.549 30.8598 150.546 31.0288 150.541 31.0342L150.525 31.1138L150.517 31.1219C150.474 31.2015 150.427 31.2521 150.374 31.2729C150.358 31.2783 150.351 31.2837 150.351 31.2892C150.319 31.3 150.288 31.3054 150.255 31.3054C150.25 31.3109 150.176 31.3136 150.034 31.3136C149.833 31.3136 149.725 31.3027 149.709 31.2819L149.646 31.2503C149.587 31.2132 149.558 31.1816 149.558 31.1545C149.547 31.1436 149.541 31.1355 149.538 31.131C149.536 31.1255 149.532 31.1165 149.527 31.1029C149.521 31.0894 149.519 31.0722 149.519 31.0514H149.51V27.694C149.347 27.6732 149.265 27.5801 149.265 27.4155C149.265 27.3414 149.291 27.2772 149.344 27.2248C149.397 27.1715 149.46 27.1452 149.534 27.1452H150.549C150.882 27.1452 151.181 27.2383 151.445 27.4237C151.884 27.7419 152.104 28.1677 152.104 28.7037ZM151.589 28.7037C151.589 28.4172 151.487 28.1722 151.283 27.9679C151.08 27.7636 150.836 27.6614 150.55 27.6614V29.746C150.836 29.746 151.08 29.6439 151.283 29.4396C151.487 29.2353 151.589 28.9903 151.589 28.7037ZM153.999 27.2953V31.1382C153.999 31.7321 153.857 32.2709 153.571 32.7536C153.286 33.2364 152.901 33.6224 152.417 33.9117C151.934 34.2009 151.399 34.3456 150.812 34.3456C150.226 34.3456 149.683 34.2009 149.202 33.9117C148.721 33.6224 148.337 33.2364 148.048 32.7536C147.76 32.2709 147.616 31.7321 147.616 31.1382V27.2953C147.616 26.7068 147.76 26.1698 148.048 25.6844C148.337 25.1989 148.721 24.8129 149.202 24.5264C149.683 24.2398 150.22 24.097 150.812 24.097C151.689 24.097 152.44 24.4088 153.064 25.0317C153.687 25.6545 153.999 26.4094 153.999 27.2953ZM152.723 27.2953C152.723 26.7647 152.536 26.3127 152.163 25.9384C151.79 25.5641 151.34 25.377 150.811 25.377C150.282 25.377 149.824 25.5641 149.451 25.9384C149.078 26.3127 148.892 26.7647 148.892 27.2953V31.1382C148.892 31.6743 149.078 32.129 149.451 32.5032C149.824 32.8775 150.277 33.0646 150.811 33.0646C151.345 33.0646 151.79 32.8775 152.163 32.5032C152.536 32.129 152.723 31.6743 152.723 31.1382V27.2953ZM38.131 17.6478C38.5913 17.4535 39.5723 17.0973 40.0398 16.9138C42.0639 16.1373 46.1769 15.0886 47.2696 17.6867C48.5064 20.7883 45.3869 24.8635 43.4925 27.1317C38.2418 33.1216 31.031 38.3892 23.6805 41.4212C21.6762 42.1932 17.5506 43.6902 15.8751 41.8234C14.6843 40.3951 15.64 38.0936 16.3796 36.6508C16.7885 35.8562 17.3227 35.0796 17.8497 34.3555L18.2433 33.7996L18.3406 33.6603C18.5253 33.4136 19.2711 32.4381 19.4756 32.1688C20.7782 30.5181 22.1816 28.9388 23.6769 27.4535C23.6075 25.9755 23.867 24.5761 24.4534 23.2544C25.1326 21.7222 26.1388 20.4457 27.471 19.4269C28.8033 18.4072 30.3356 17.797 32.0705 17.5963C33.7298 17.4056 35.2944 17.6216 36.7645 18.2445C37.1978 18.0528 37.7374 17.8241 38.1319 17.6487L38.131 17.6478ZM24.8407 37.8341L24.0507 30.9321C23.5157 31.4148 22.9905 31.9066 22.4762 32.4101C21.4961 33.3828 17.7092 37.1136 19.0991 38.41C19.6576 38.9939 20.5385 39.0482 21.3078 38.9695C21.5186 38.9442 21.7285 38.909 21.9384 38.8656C21.7825 37.4951 21.6042 36.1255 21.4429 34.7542C21.6339 34.5698 21.8204 34.3799 22.0041 34.1892C22.2095 35.6925 22.4356 37.1941 22.6239 38.6956C22.8374 38.6341 23.0491 38.5663 23.2589 38.4913C23.7958 38.2979 24.321 38.0764 24.8407 37.8341ZM39.5615 20.0353C40.0011 20.4376 40.4064 20.8814 40.7785 21.3705C41.2955 22.0503 41.7063 22.7825 42.0116 23.5681C42.1017 23.4334 42.1891 23.2969 42.2747 23.1586C42.6332 22.5719 42.9638 21.9617 43.1818 21.3099C43.3772 20.707 43.5502 19.8473 42.9305 19.4432C42.2089 19.0734 40.9064 19.4396 39.5606 20.0362L39.5615 20.0353ZM38.6093 24.5164C38.4904 23.4813 38.0211 22.6343 37.2014 21.9735C37.0149 21.8234 36.8222 21.6932 36.624 21.5847C36.5276 21.5305 36.4303 21.4826 36.3321 21.4401C35.7385 21.1761 35.0954 21.0848 34.4017 21.1644C33.355 21.2855 32.5074 21.7601 31.8579 22.5909C31.3661 23.2192 31.094 23.9071 31.0436 24.6547C31.0292 24.8672 31.0319 25.085 31.0544 25.3083C31.0562 25.3345 31.0598 25.3607 31.0625 25.387L31.975 33.3548C34.4468 31.526 36.797 29.5264 38.93 27.3107L38.6102 24.5155L38.6093 24.5164ZM37.0077 43.9108C35.9601 44.0319 35.0269 43.7625 34.2072 43.1017C33.3875 42.4427 32.9172 41.5866 32.7965 40.5362L32.5776 38.626C30.7797 39.7759 28.924 40.8309 27.0161 41.7773C26.6117 41.9771 26.2027 42.1715 25.792 42.3586C26.0721 42.9878 26.4225 43.5826 26.8441 44.1422C27.8521 45.4801 29.1213 46.4935 30.6481 47.1832C32.1759 47.873 33.8072 48.1171 35.5421 47.9173C37.2762 47.7166 38.8102 47.1073 40.1407 46.0876C41.473 45.0679 42.4819 43.7915 43.1692 42.2583C43.8565 40.7242 44.1006 39.0879 43.9006 37.3468L43.08 30.18C41.9783 31.309 40.8244 32.3839 39.6263 33.409L40.3425 39.6638C40.4632 40.7142 40.1983 41.6553 39.5498 42.4843C38.9012 43.3141 38.0527 43.7887 37.0059 43.9099L37.0077 43.9108ZM31.9471 12.3766C33.4802 10.1013 35.7728 7.51222 32.9064 6.07486C31.0967 5.16635 29.3906 7.28712 28.7502 8.2318C28.2511 8.96856 27.2648 10.4819 26.9126 11.3831C25.4839 15.0407 29.7618 15.6211 31.9471 12.3766ZM32.1705 15.1673C34.1621 14.9783 36.1844 15.2595 38.0518 15.97C38.6274 16.1761 39.1633 16.4211 39.6624 16.6995C39.7732 16.6408 39.8849 16.5838 39.9975 16.5287C39.4111 16.2087 38.7886 15.942 38.1337 15.7368C36.2276 15.0859 34.163 14.8834 32.1705 15.1673ZM36.4979 24.0156C36.3249 23.8068 36.1259 23.6115 35.8718 23.4895C35.4602 23.2671 34.9008 23.4063 34.6945 23.8511C34.2801 24.7252 35.1575 25.9538 36.1196 25.7684C36.5817 25.6826 36.9105 25.2134 36.8429 24.7551C36.8105 24.4712 36.6663 24.2271 36.4979 24.0156ZM20.9916 26.6544C20.943 27.7735 20.9574 28.8881 21.0133 30.0001C21.1736 29.8283 21.3357 29.6584 21.4997 29.4893C21.4402 28.5528 21.4123 27.6144 21.4312 26.6733C21.4835 25.1935 21.6429 23.6838 22.3077 22.3486C23.4301 20.1167 25.0785 18.1288 27.2233 16.8216C25.002 18.0357 23.2481 19.991 22.042 22.2067C21.3096 23.5663 21.0907 25.1384 20.9916 26.6544ZM47.0552 12.0602C47.3119 12.1054 47.5722 12.1307 47.8344 12.1362C48.0965 12.1416 48.3487 12.128 48.5901 12.0964C49.2108 12.0159 49.763 11.836 50.2458 11.5585C50.7286 11.2801 51.1412 10.9339 51.4826 10.5189C51.824 10.104 52.0969 9.63661 52.3014 9.11591C52.5059 8.59521 52.6374 8.05371 52.6968 7.48962C52.7284 7.22294 52.7464 6.96078 52.75 6.70133C52.7536 6.44279 52.7581 6.18154 52.7617 5.91757C52.7833 4.52451 52.7356 3.13958 52.6194 1.7628C51.5618 1.94992 50.5052 2.14338 49.4495 2.34407C49.4954 3.04286 49.5513 3.73893 49.6161 4.4323C49.681 5.12657 49.708 5.82807 49.6999 6.53771C49.6972 6.73388 49.6918 6.93276 49.6819 7.13525C49.6729 7.33684 49.6513 7.53482 49.6197 7.72828C49.5873 7.92173 49.5369 8.10615 49.4684 8.28242C49.3999 8.4587 49.3072 8.616 49.1919 8.75522C49.0757 8.89534 48.9306 9.01195 48.7559 9.10506C48.5811 9.19908 48.3676 9.26236 48.1163 9.29581C47.7272 9.34733 47.3687 9.3166 47.0408 9.20269C46.7129 9.08879 46.4147 8.92426 46.1472 8.7073C45.9967 9.65108 45.8463 10.5958 45.6968 11.5395C45.8778 11.6697 46.0859 11.7782 46.3192 11.8641C46.5534 11.9499 46.7976 12.015 47.0552 12.0602ZM56.2964 8.24175C56.3892 8.65306 56.5225 9.03907 56.6946 9.39796C56.8666 9.75775 57.09 10.0651 57.3639 10.3209C57.6377 10.5777 57.9692 10.7702 58.3583 10.9013C58.7466 11.0324 59.2069 11.074 59.7383 11.027C60.1923 10.9872 60.6067 10.8769 60.9814 10.697C61.3562 10.5171 61.6967 10.2839 62.0038 9.99912C62.311 9.71436 62.5839 9.38801 62.8245 9.02009C63.065 8.65216 63.2767 8.26163 63.4622 7.8467C63.6469 7.43267 63.8036 7.00327 63.9315 6.56031C64.0603 6.11735 64.1657 5.68072 64.2504 5.25223C64.3351 4.82373 64.3981 4.4097 64.4405 4.01013C64.4828 3.61147 64.508 3.24625 64.517 2.9163C64.5333 2.2835 64.5216 1.66064 64.4819 1.04864C63.3992 1.12367 62.3164 1.20593 61.2346 1.29452C61.2499 1.63624 61.2589 1.97975 61.2625 2.32418C61.2661 2.6686 61.2643 3.01574 61.2562 3.36377C61.2544 3.45779 61.2481 3.60062 61.2391 3.79227C61.2301 3.98482 61.2147 4.2063 61.1931 4.45761C61.1715 4.70892 61.1445 4.98012 61.1129 5.27211C61.0814 5.5641 61.0409 5.857 60.9931 6.1499C60.9454 6.4437 60.8886 6.72665 60.8229 6.99875C60.7571 7.27176 60.6815 7.51403 60.5968 7.72556C60.5121 7.938 60.4148 8.10976 60.3067 8.24084C60.1977 8.37283 60.0779 8.44424 59.9446 8.45599C59.8293 8.46594 59.7311 8.42345 59.6483 8.32853C59.5654 8.23361 59.496 8.10795 59.4393 7.95247C59.3825 7.79698 59.3393 7.62432 59.3087 7.43267C59.278 7.24192 59.2555 7.0548 59.2411 6.87128C59.2267 6.68777 59.2177 6.52144 59.2132 6.37228C59.2096 6.22312 59.2087 6.11102 59.2096 6.03509C59.2249 5.32093 59.2843 4.60677 59.3888 3.89171C59.4942 3.17665 59.6158 2.46339 59.7564 1.75195C58.6763 1.80619 57.5963 1.86675 56.5162 1.93365C56.3847 2.56645 56.2802 3.19654 56.2045 3.82572C56.1289 4.4549 56.0847 5.08137 56.0739 5.70603C56.0667 6.11193 56.0784 6.53319 56.11 6.96892C56.1406 7.40464 56.2036 7.82771 56.2964 8.23994V8.24175ZM68.7355 8.97489C69.1309 9.3609 69.6056 9.6556 70.1587 9.8599C70.7127 10.0642 71.3225 10.1519 71.9891 10.1239C72.3341 10.1094 72.6981 10.0624 73.0818 9.98375C73.4655 9.9042 73.8412 9.79481 74.2087 9.65289C74.5762 9.51186 74.923 9.33829 75.2473 9.13218C75.5716 8.92698 75.8463 8.69013 76.0724 8.42164C76.0976 6.92553 76.1229 5.43031 76.149 3.9342C75.45 3.9794 74.7555 4.02188 74.0664 4.06076C73.3772 4.09963 72.6872 4.14483 71.9981 4.19636C71.9486 4.86622 71.8999 5.53518 71.8513 6.20504C72.4044 6.19058 72.9584 6.17792 73.5115 6.16617C73.4962 6.34064 73.4817 6.51421 73.4664 6.68868C73.3286 6.80077 73.1665 6.88213 72.9782 6.93366C72.7899 6.98519 72.608 7.01502 72.4332 7.02225C72.1747 7.0322 71.9495 6.99061 71.7567 6.8966C71.5639 6.80258 71.4045 6.67512 71.2784 6.5133C71.1523 6.35239 71.0604 6.16526 71.0019 5.95192C70.9442 5.73858 70.919 5.51619 70.9262 5.28477C70.9379 4.91503 71.0172 4.57965 71.1649 4.27952C71.3126 3.9794 71.509 3.72176 71.754 3.5057C71.999 3.29055 72.2837 3.1215 72.6089 3.00037C72.9341 2.87833 73.2818 2.81053 73.652 2.79787C73.9159 2.78883 74.1843 2.79606 74.4591 2.82047C74.7338 2.84488 74.9978 2.90002 75.2545 2.9859C75.3491 2.13343 75.4437 1.28096 75.5391 0.427591C75.3662 0.334479 75.1743 0.257639 74.9635 0.197975C74.7528 0.137408 74.5348 0.0922077 74.3114 0.0623758C74.088 0.0316399 73.8628 0.012656 73.6358 0.00542398C73.4097 -0.001808 73.1953 -0.001808 72.9962 0.00542398C72.4629 0.0253119 71.9594 0.115712 71.4865 0.273911C71.0136 0.432111 70.5767 0.646358 70.1749 0.914845C69.7732 1.18333 69.412 1.49883 69.0922 1.86043C68.7715 2.22203 68.4985 2.61526 68.2715 3.04014C68.0445 3.46412 67.8671 3.9134 67.7383 4.38529C67.6095 4.85808 67.5392 5.3372 67.5248 5.82265C67.5068 6.45997 67.605 7.04847 67.8203 7.58816C68.0346 8.12784 68.34 8.58888 68.7355 8.97489ZM79.6296 6.91106C79.7143 7.33052 79.8404 7.72737 80.0053 8.10072C80.171 8.47498 80.3881 8.80132 80.6574 9.08156C80.9268 9.3618 81.2556 9.58328 81.6429 9.74781C82.0294 9.91233 82.4897 9.99369 83.0238 9.99279C83.4796 9.99279 83.8967 9.91866 84.2759 9.7704C84.6552 9.62305 85.0011 9.41965 85.3146 9.16201C85.6271 8.90438 85.9082 8.60154 86.1568 8.25531C86.4054 7.90907 86.6261 7.53663 86.8189 7.13887C87.0116 6.74111 87.1774 6.32617 87.3152 5.89406C87.453 5.46195 87.5683 5.03617 87.6611 4.61491C87.7539 4.19364 87.826 3.78594 87.8773 3.39089C87.9277 2.99585 87.9602 2.63334 87.9755 2.30429C88.0043 1.6733 88.0052 1.05045 87.9782 0.435727C86.8918 0.416743 85.8064 0.404991 84.72 0.399567C84.7281 0.742182 84.7308 1.0857 84.7272 1.43103C84.7236 1.77545 84.7146 2.12168 84.7002 2.46882C84.6957 2.56193 84.6876 2.70476 84.675 2.8955C84.6624 3.08715 84.6417 3.30682 84.6155 3.55633C84.5885 3.80583 84.5561 4.07432 84.5182 4.3636C84.4804 4.65287 84.4345 4.94125 84.3804 5.23053C84.3264 5.51981 84.2633 5.79734 84.1922 6.06402C84.121 6.33069 84.0399 6.56664 83.9507 6.77094C83.8616 6.97524 83.7607 7.13887 83.6499 7.26091C83.5382 7.38295 83.4157 7.44442 83.2824 7.44442C83.1671 7.44442 83.0689 7.3938 82.9878 7.29074C82.9067 7.18859 82.8392 7.05751 82.786 6.8975C82.7329 6.73749 82.6923 6.56031 82.6662 6.36685C82.6392 6.1734 82.6203 5.98446 82.6104 5.80005C82.5996 5.61563 82.5933 5.44839 82.5933 5.29923C82.5924 5.15007 82.5933 5.03798 82.5969 4.96204C82.6257 4.24969 82.7004 3.54096 82.8203 2.83584C82.9401 2.13072 83.077 1.42832 83.231 0.729526C82.1474 0.68975 81.0628 0.656302 79.9792 0.630086C79.8341 1.25023 79.717 1.87127 79.6287 2.49323C79.5396 3.11518 79.4837 3.73803 79.4594 4.36088C79.4441 4.76587 79.4477 5.18804 79.4693 5.62558C79.4918 6.06402 79.545 6.49251 79.6296 6.91106ZM94.3162 6.86586C94.3558 6.54223 94.3954 6.2195 94.4351 5.89587C95.1287 5.9022 95.8232 5.91124 96.5168 5.92299C96.6042 5.23776 96.6916 4.55163 96.7798 3.8664C96.0907 3.83205 95.4007 3.80041 94.7116 3.77148C94.7495 3.49305 94.7873 3.21371 94.8242 2.93528C95.8088 2.92805 96.7934 2.92624 97.777 2.92986C97.8365 2.51492 97.8896 2.1036 97.9347 1.6968C97.9806 1.29 98.0284 0.878686 98.0788 0.462847C95.9394 0.347135 93.7991 0.255831 91.6597 0.190743C91.4273 3.3918 91.1976 6.59285 90.9697 9.79481C92.956 9.80657 94.9431 9.84001 96.9294 9.89606C96.978 9.41333 97.0303 8.9324 97.0861 8.45238C97.142 7.97235 97.1969 7.48872 97.251 7.00237C96.8447 6.98157 96.4384 6.96168 96.0331 6.9427C95.4611 6.91558 94.8882 6.89117 94.3162 6.86767V6.86586ZM100.669 3.86007C101.36 3.86911 102.052 3.87996 102.743 3.89352C102.615 5.99441 102.487 8.0953 102.361 10.1971C103.335 10.217 104.309 10.2414 105.282 10.2721C105.583 8.1866 105.888 6.10108 106.192 4.01556C106.883 4.0472 107.573 4.08155 108.264 4.11771C108.347 3.18117 108.43 2.24463 108.513 1.30808C105.988 1.07847 103.46 0.884109 100.932 0.725006C100.844 1.77003 100.757 2.81505 100.669 3.86007ZM117.188 10.2251C117.252 9.74961 117.315 9.2705 117.377 8.78776C116.973 8.73623 116.568 8.68651 116.163 8.6377C115.593 8.56809 115.023 8.50029 114.452 8.4352C114.498 8.11519 114.543 7.79517 114.589 7.47516C115.28 7.53301 115.973 7.59358 116.665 7.65686C116.764 6.97796 116.863 6.29996 116.962 5.62106C116.276 5.53608 115.588 5.45291 114.901 5.37246C114.943 5.09674 114.986 4.82102 115.028 4.5453C116.01 4.61129 116.992 4.68271 117.973 4.75955C118.039 4.34913 118.099 3.94233 118.151 3.53915C118.203 3.13597 118.259 2.72826 118.317 2.31695C116.187 2.04213 114.053 1.79172 111.919 1.56753C111.632 4.7496 111.347 7.93167 111.065 11.1146C113.047 11.2738 115.028 11.4555 117.007 11.6589C117.065 11.1806 117.124 10.7033 117.188 10.2278V10.2251ZM123.585 12.5882C122.601 12.4408 121.617 12.2989 120.632 12.1615C120.729 11.158 120.826 10.1591 120.92 9.16473C121.015 8.17033 121.114 7.17141 121.217 6.16978C121.263 5.66354 121.31 5.16183 121.357 4.66463C121.404 4.16743 121.46 3.66661 121.526 3.16309C121.857 3.09438 122.183 3.04466 122.502 3.01483C122.822 2.985 123.141 2.97325 123.46 2.97777C123.779 2.98319 124.103 3.00218 124.429 3.03653C124.755 3.07088 125.089 3.11427 125.43 3.1667C125.957 3.24806 126.459 3.39903 126.938 3.61689C127.418 3.83476 127.836 4.11409 128.19 4.4549C128.545 4.7948 128.82 5.19166 129.014 5.64456C129.207 6.09746 129.281 6.59828 129.237 7.14881C129.209 7.49233 129.153 7.79879 129.068 8.06727C128.983 8.33667 128.865 8.57622 128.713 8.78686C128.561 8.99749 128.372 9.18461 128.145 9.34733C127.918 9.51005 127.648 9.6574 127.336 9.78939C127.806 10.8127 128.275 11.8369 128.744 12.863C127.7 12.8829 126.656 12.9082 125.612 12.9398C125.334 11.9454 125.055 10.9519 124.775 9.95844C124.49 9.92318 124.204 9.88883 123.92 9.85448C123.808 10.7657 123.696 11.6778 123.585 12.5882ZM124.16 7.81687C124.215 7.825 124.27 7.83404 124.326 7.84218C124.523 7.87201 124.726 7.87924 124.935 7.86207C125.143 7.84489 125.333 7.79879 125.503 7.72285C125.675 7.64691 125.818 7.53753 125.934 7.3956C126.05 7.25368 126.116 7.07197 126.134 6.8514C126.148 6.66608 126.136 6.49251 126.095 6.32979C126.055 6.16707 125.987 6.02153 125.893 5.89316C125.798 5.76479 125.675 5.65631 125.527 5.56772C125.377 5.48003 125.2 5.41947 124.993 5.38783C124.901 5.37336 124.811 5.36522 124.722 5.36251C124.634 5.3598 124.548 5.36342 124.463 5.37336C124.363 6.18786 124.262 7.00236 124.162 7.81687H124.16ZM136.498 5.51077C135.272 5.33087 134.046 5.15911 132.818 4.99639C132.565 7.97778 132.313 10.9601 132.062 13.9433C133.029 14.0707 133.994 14.2027 134.959 14.3401C135.469 11.3958 135.982 8.45238 136.498 5.51077ZM136.75 4.24336C137.295 4.05443 137.853 3.87273 138.424 3.69916C138.04 3.08354 137.655 2.46972 137.27 1.85591C136.861 2.08733 136.468 2.31966 136.091 2.5547C135.933 2.65323 135.77 2.75629 135.601 2.86477C135.433 2.97325 135.27 3.08082 135.114 3.1893C134.957 3.29778 134.809 3.40445 134.669 3.50932C134.528 3.61418 134.409 3.71091 134.308 3.7995C134.575 4.16291 134.843 4.52632 135.11 4.89063C135.659 4.64745 136.206 4.4314 136.751 4.24246L136.75 4.24336ZM145.592 7.30792C146.199 10.462 146.801 13.6187 147.395 16.7773C146.26 16.6462 145.124 16.5215 143.987 16.4048C143.898 15.8787 143.808 15.3526 143.719 14.8265C143.202 14.7089 142.684 14.5932 142.166 14.4784C142.007 14.9485 141.847 15.4195 141.688 15.8896C140.541 15.5262 139.393 15.17 138.242 14.821C139.409 12.0837 140.583 9.35366 141.764 6.63263C143.041 6.84869 144.317 7.07378 145.592 7.30792ZM143.663 12.7599C143.562 11.9581 143.46 11.1571 143.359 10.3553C143.118 11.0803 142.879 11.8053 142.639 12.5303C142.981 12.6062 143.322 12.6831 143.663 12.7599Z" fill="white"/>
</svg>
