<svg width="17" height="16" viewBox="0 0 17 16" fill="none" xmlns="http://www.w3.org/2000/svg">
<path d="M14.3679 16C14.9706 16 15.5166 15.6787 15.8253 15.139C16.2159 14.4565 16.0941 13.6396 15.5124 13.0579C14.9517 12.4951 14.3784 11.926 13.8261 11.3758C13.5804 11.1322 13.3347 10.8865 13.089 10.6429L12.4548 10.0108C12.2805 9.83646 12.0852 9.67686 11.8437 9.67686C11.7135 9.67686 11.5749 9.72096 11.3964 9.82176L10.1826 8.58275C11.0835 7.19465 11.3292 5.67423 10.9113 4.06563C10.5879 2.81822 9.86339 1.79971 8.75879 1.03321C7.78228 0.357002 6.65037 0 5.48906 0C3.95605 0 2.51544 0.636304 1.42974 1.79131C0.581331 2.69432 0.0752363 3.92072 0.00803566 5.24373C-0.061264 6.57094 0.316727 7.84985 1.07273 8.84315C2.13324 10.2376 3.81325 11.0713 5.56466 11.0713C6.64827 11.0713 7.70248 10.7542 8.61809 10.1515L9.8382 11.3863C9.6219 11.7454 9.6786 12.0541 10.0209 12.3943C10.3044 12.6757 10.5858 12.9571 10.8672 13.2385C11.6001 13.9693 12.3561 14.7232 13.1037 15.4624C13.4544 15.8089 13.9038 16 14.3679 16ZM13.0785 11.8C13.173 11.9029 13.2696 12.01 13.3704 12.1108C13.8828 12.6232 14.4057 13.1419 14.9118 13.6438C15.1785 13.9084 15.2667 14.173 15.189 14.4754C15.0861 14.8807 14.7522 15.1516 14.3553 15.1516C14.1222 15.1516 13.8933 15.055 13.7127 14.8765C13.2465 14.4208 12.7761 13.9504 12.3225 13.4968C12.1566 13.3309 11.9907 13.165 11.8248 12.9991L13.0449 11.7622C13.0554 11.7748 13.0659 11.7853 13.0785 11.7979V11.8ZM11.2158 12.3565L10.6446 11.7706L11.8395 10.6072L12.3876 11.1616L11.2179 12.3586L11.2158 12.3565ZM10.4493 10.7311L9.34048 9.60336L9.6282 9.31356L10.7433 10.4308L10.4493 10.7332V10.7311ZM5.42607 9.85116C4.32146 9.85116 3.27145 9.40596 2.46714 8.59745C1.64394 7.77005 1.19454 6.66964 1.20084 5.50203C1.21554 3.13532 3.14754 1.20961 5.50796 1.20961C5.52686 1.20961 5.54366 1.20961 5.56256 1.20961C6.74067 1.22431 7.88308 1.71151 8.69579 2.54942C9.50009 3.37682 9.91589 4.44573 9.89699 5.64063C9.86129 7.96115 7.89357 9.85116 5.51006 9.85116H5.47016H5.42817H5.42607Z" fill="#BFBFBF"/>
</svg>
