<svg width="19" height="18" viewBox="0 0 19 18" fill="none" xmlns="http://www.w3.org/2000/svg">
<g clip-path="url(#clip0_128_19184)">
<path d="M9.40904 18C14.229 18 18.1363 13.9706 18.1363 9C18.1363 4.02944 14.229 0 9.40904 0C4.5891 0 0.681763 4.02944 0.681763 9C0.681763 13.9706 4.5891 18 9.40904 18Z" fill="white"/>
<path d="M9.21411 15.4402C8.92169 15.4402 8.62758 15.4281 8.3402 15.4073C7.64948 15.3536 6.74701 15.2444 5.89832 14.8648C5.55884 14.7123 5.24961 14.4766 4.95215 14.1421C4.66813 13.8232 4.59082 13.4298 4.73031 13.0087C4.88997 12.5234 5.17566 12.1127 5.45296 11.7331C5.79244 11.2704 6.18738 10.8267 6.65626 10.3813C6.41594 10.1612 6.23107 9.93068 6.09326 9.68458C5.71849 9.00867 5.53867 8.2669 5.55716 7.4818C5.58405 6.36742 5.9168 5.41941 6.54702 4.66551C7.10497 3.99827 7.82931 3.60312 8.69817 3.49393C8.91664 3.4662 9.13512 3.45234 9.34687 3.45234C10.162 3.45234 10.9266 3.65858 11.619 4.06586C12.4744 4.56846 13.0122 5.33276 13.2223 6.33622C13.2257 6.35355 13.229 6.35875 13.229 6.35875C13.4324 6.45754 13.5735 6.62218 13.6441 6.83535C13.8441 7.43501 13.8004 8.03639 13.5164 8.62392C13.3887 8.88735 13.192 9.05893 12.9433 9.12305C12.7635 9.5234 12.5349 9.87868 12.2492 10.2062C12.2845 10.2305 12.3181 10.2548 12.3518 10.279C13.1332 10.8388 13.6643 11.4194 14.0223 12.104C14.1567 12.3622 14.2508 12.6395 14.3432 12.9064L14.3517 12.9307C14.4794 13.3068 14.3987 13.6776 14.1197 14.0052C13.7803 14.4038 13.3383 14.6205 12.9904 14.766C12.2812 15.0624 11.4846 15.2582 10.5552 15.364C10.1082 15.4142 9.65778 15.4402 9.21579 15.4402H9.21411ZM7.99568 14.7539C8.40911 14.8024 8.82757 14.8284 9.241 14.8284C10.0141 14.8284 10.7972 14.7418 11.572 14.5685C11.4846 14.1213 11.4241 13.643 11.5131 13.1594C11.5938 12.7262 11.782 12.4402 12.0913 12.2842C12.1803 12.2392 12.2728 12.2114 12.3618 12.1837L12.424 12.1646C12.7013 12.0763 12.9299 11.9827 13.1147 11.8284C12.9517 11.6135 12.6223 11.2738 12.4156 11.1109C11.9047 11.5147 11.2829 11.7851 10.4762 11.9584C10.0006 12.0607 9.50485 12.1127 9.00235 12.1127C8.80573 12.1127 8.60406 12.104 8.40407 12.0884C8.21416 12.7435 7.99905 14.2357 7.99736 14.7539H7.99568ZM6.42266 11.5113C6.0731 11.9081 5.82269 12.2409 5.61934 12.5771C5.49834 12.7782 5.39582 12.9809 5.31347 13.1785C5.2244 13.3917 5.25969 13.5789 5.41935 13.7504C5.66808 14.0173 5.90336 14.1924 6.16049 14.3068C6.57727 14.4905 7.01758 14.5945 7.38563 14.6655C7.43101 13.7556 7.60243 12.8873 7.7957 12.0104C7.33353 11.922 6.85793 11.7903 6.42098 11.5147L6.42266 11.5113ZM13.4609 12.3432C13.1534 12.5893 12.8038 12.7088 12.4929 12.7938C12.298 12.8475 12.1871 12.9636 12.1333 13.1698C12.0308 13.5633 12.0728 13.9428 12.1619 14.409C12.5719 14.2773 12.9198 14.1473 13.2391 13.9411C13.382 13.8475 13.5282 13.7227 13.6979 13.5442C13.7903 13.4471 13.8223 13.3276 13.7887 13.1906C13.7181 12.8856 13.6072 12.6014 13.4609 12.3432ZM8.56036 11.4697C8.71161 11.4783 8.8595 11.4835 9.00571 11.4835C9.84097 11.4835 10.5922 11.3432 11.298 11.052C11.5215 10.9601 11.7215 10.8527 11.9014 10.7244C11.8493 10.6898 11.7988 10.6534 11.7501 10.617C11.7467 10.6135 11.7451 10.6118 11.74 10.6118C11.7367 10.6118 11.7299 10.6118 11.7232 10.617C10.9249 10.9359 10.0981 11.1109 9.26621 11.1369C9.17377 11.1404 9.08134 11.1404 8.98723 11.1404C8.90992 11.1404 8.6864 11.1386 8.65111 11.1386L8.56036 11.4679V11.4697ZM6.85961 11.0468C7.22934 11.2496 7.60915 11.3414 7.95031 11.3986C7.97888 11.2946 8.00745 11.1889 8.03602 11.0832C7.72511 11.0208 7.43773 10.9133 7.16043 10.7539L6.86129 11.0468H6.85961ZM7.30664 10.1213C7.58898 10.3172 7.90997 10.4385 8.26626 10.4818C8.50658 10.5113 8.75195 10.5251 8.99731 10.5251C9.76534 10.5251 10.535 10.3847 11.3535 10.0988C11.5417 10.0329 11.6862 9.93241 11.8089 9.78163C12.0341 9.50606 12.2039 9.2461 12.335 8.97747C12.0963 8.78336 12.019 8.50087 11.9803 8.2669C11.977 8.2461 11.9736 8.2253 11.9703 8.20277C11.6375 9.11092 11.0459 9.74697 10.2124 10.0971C9.78719 10.2738 9.33007 10.3605 8.81413 10.3605C8.63263 10.3605 8.44776 10.3501 8.24945 10.3293C7.90493 10.2929 7.59234 10.2236 7.30833 10.1213H7.30664ZM12.9282 6.90121C12.8828 6.90121 12.8307 6.93587 12.7853 6.9948C12.7517 7.03986 12.7265 7.08319 12.7097 7.12478C12.5484 7.52166 12.5114 7.89428 12.5988 8.26343C12.6459 8.46101 12.6862 8.49913 12.7585 8.50953C12.7685 8.50953 12.7769 8.51126 12.787 8.51126C12.8576 8.51126 12.9114 8.45754 12.9904 8.30503C13.1097 8.07799 13.1433 7.82149 13.1601 7.45927C13.1551 7.43501 13.15 7.40728 13.1433 7.37608C13.1248 7.27383 13.0979 7.13518 13.0492 7.0156C13.0341 6.98094 12.9937 6.89948 12.9265 6.89948L12.9282 6.90121ZM8.56204 4.23224C8.81245 4.23224 9.06622 4.2617 9.3183 4.32236C10.6527 4.63605 11.5686 5.5234 12.0408 6.96014C12.0526 6.99827 12.0644 7.0364 12.0745 7.07626C12.0812 7.05546 12.0879 7.03639 12.0946 7.0156C12.2039 6.69324 12.3702 6.4766 12.6022 6.35702C12.4341 5.67591 12.0661 5.13345 11.5047 4.73483C11.0476 4.40901 10.5048 4.20797 9.84769 4.12132C9.64098 4.09359 9.44099 4.07972 9.25276 4.07972C8.85782 4.07972 8.49986 4.13865 8.16374 4.25996C8.29483 4.24263 8.42759 4.23397 8.56036 4.23397L8.56204 4.23224Z" fill="#400124"/>
<path opacity="0.6" d="M8.60739 4.86308C8.19565 4.86308 7.78223 4.95494 7.40914 5.12651C6.88479 5.36915 6.53691 5.74003 6.37558 6.22703C6.19912 6.76083 6.13021 7.28769 6.16887 7.79203C6.18231 7.97227 6.2092 8.20624 6.28315 8.41594C6.42431 8.81629 6.70665 9.13518 7.12344 9.36222C7.57215 9.60658 8.07633 9.7175 8.81074 9.73657L8.86284 9.7331C8.92502 9.72963 9.00233 9.72617 9.07964 9.71924C10.2493 9.62565 11.0224 9.02946 11.4425 7.89255C11.5148 7.69844 11.5333 7.49913 11.4963 7.30156C11.4274 6.92374 11.261 6.54939 10.9854 6.15771C10.3989 5.32409 9.55356 4.86482 8.60739 4.86482V4.86308Z" fill="#FFA233"/>
<path d="M10.4359 8.33102C10.2947 8.33102 10.1838 8.23744 10.1485 8.08666L10.1401 8.05546C10.1233 7.98787 10.1014 7.90295 10.1182 7.81109C10.135 7.71404 10.2191 7.56499 10.3518 7.53726L10.3686 7.5338H10.3972C10.5098 7.5338 10.6258 7.61872 10.6745 7.70018C10.7182 7.7747 10.7283 7.85442 10.735 7.90815C10.735 7.91855 10.7417 7.94974 10.7417 7.94974V7.96707C10.7501 8.25997 10.5619 8.31716 10.4795 8.32929C10.4644 8.33103 10.4493 8.33276 10.4342 8.33276L10.4359 8.33102Z" fill="#F2F2F2"/>
<path d="M10.2678 7.11092L10.2208 7.05373C10.1788 7.0156 10.1216 6.96014 10.0981 6.87522C10.0544 6.70364 9.97205 6.57019 9.846 6.46274C9.75693 6.38648 9.73172 6.29983 9.72668 6.24263C9.72164 6.18544 9.73172 6.09879 9.80567 6.01213C9.86449 5.94107 9.94348 5.90295 10.0275 5.90295C10.0964 5.90295 10.167 5.92894 10.2275 5.98094C10.4645 6.17504 10.6174 6.42461 10.6796 6.72444C10.7014 6.82669 10.6813 6.92374 10.6241 6.99653C10.5636 7.07279 10.4695 7.11612 10.3586 7.11612L10.2661 7.11265L10.2678 7.11092Z" fill="#F2F2F2"/>
</g>
<defs>
<clipPath id="clip0_128_19184">
<rect width="17.4545" height="18" fill="white" transform="translate(0.681763)"/>
</clipPath>
</defs>
</svg>
