<svg width="17" height="16" viewBox="0 0 17 16" fill="none" xmlns="http://www.w3.org/2000/svg">
<path d="M14.368 16C14.9707 16 15.5167 15.6787 15.8254 15.139C16.216 14.4565 16.0942 13.6396 15.5125 13.0579C14.9518 12.4951 14.3785 11.926 13.8262 11.3758C13.5805 11.1322 13.3348 10.8865 13.0891 10.6429L12.4549 10.0108C12.2806 9.83646 12.0853 9.67686 11.8438 9.67686C11.7136 9.67686 11.575 9.72096 11.3965 9.82176L10.1827 8.58275C11.0836 7.19465 11.3293 5.67423 10.9114 4.06563C10.588 2.81822 9.86345 1.79971 8.75885 1.03321C7.78234 0.357002 6.65043 0 5.48913 0C3.95612 0 2.5155 0.636304 1.4298 1.79131C0.581392 2.69432 0.0752974 3.92072 0.00809669 5.24373C-0.061203 6.57094 0.316788 7.84985 1.07279 8.84315C2.1333 10.2376 3.81331 11.0713 5.56472 11.0713C6.64833 11.0713 7.70254 10.7542 8.61815 10.1515L9.83826 11.3863C9.62196 11.7454 9.67866 12.0541 10.021 12.3943C10.3045 12.6757 10.5859 12.9571 10.8673 13.2385C11.6002 13.9693 12.3562 14.7232 13.1038 15.4624C13.4545 15.8089 13.9039 16 14.368 16ZM13.0786 11.8C13.1731 11.9029 13.2697 12.01 13.3705 12.1108C13.8829 12.6232 14.4058 13.1419 14.9119 13.6438C15.1786 13.9084 15.2668 14.173 15.1891 14.4754C15.0862 14.8807 14.7523 15.1516 14.3554 15.1516C14.1223 15.1516 13.8934 15.055 13.7128 14.8765C13.2466 14.4208 12.7762 13.9504 12.3226 13.4968C12.1567 13.3309 11.9908 13.165 11.8249 12.9991L13.045 11.7622C13.0555 11.7748 13.066 11.7853 13.0786 11.7979V11.8ZM11.2159 12.3565L10.6447 11.7706L11.8396 10.6072L12.3877 11.1616L11.218 12.3586L11.2159 12.3565ZM10.4494 10.7311L9.34054 9.60336L9.62826 9.31356L10.7434 10.4308L10.4494 10.7332V10.7311ZM5.42613 9.85116C4.32152 9.85116 3.27151 9.40596 2.4672 8.59745C1.644 7.77005 1.1946 6.66964 1.2009 5.50203C1.2156 3.13532 3.1476 1.20961 5.50802 1.20961C5.52692 1.20961 5.54372 1.20961 5.56262 1.20961C6.74073 1.22431 7.88314 1.71151 8.69585 2.54942C9.50015 3.37682 9.91595 4.44573 9.89705 5.64063C9.86135 7.96115 7.89364 9.85116 5.51012 9.85116H5.47022H5.42823H5.42613Z" fill="white"/>
</svg>
