<svg width="17" height="16" viewBox="0 0 17 16" fill="none" xmlns="http://www.w3.org/2000/svg">
<path d="M0.0535209 0.365205C0.170267 0.0915822 0.376396 -0.00692199 0.671908 0.000374615C1.28847 0.0149678 1.90686 0.00402292 2.52342 0.00584707C2.86454 0.00584707 3.02871 0.137186 3.10532 0.47283C3.2166 0.952581 3.32605 1.43233 3.43914 1.92485C3.51211 1.92485 3.58143 1.92485 3.65075 1.92485C7.80434 1.92485 11.9579 1.92485 16.1133 1.92303C16.356 1.92303 16.5603 1.98323 16.6515 2.22401C16.688 2.32252 16.6898 2.45021 16.6661 2.55419C16.252 4.42212 15.8306 6.29005 15.411 8.15798C15.3618 8.37505 15.3125 8.5903 15.2651 8.80737C15.1867 9.15579 15.0316 9.27983 14.6577 9.27983C11.5657 9.27983 8.47198 9.27983 5.38004 9.27983C5.31072 9.27983 5.23958 9.27983 5.1429 9.27983C5.16844 9.40022 5.19033 9.50238 5.21404 9.60453C5.29795 9.97301 5.39281 10.3415 5.46395 10.7118C5.49131 10.8559 5.55333 10.8869 5.69015 10.8869C8.64709 10.8833 11.604 10.8833 14.561 10.8851C14.6376 10.8851 14.7124 10.8851 14.789 10.8906C15.0334 10.9124 15.2195 11.1131 15.2232 11.3557C15.2268 11.602 15.0334 11.8136 14.7854 11.8355C14.7361 11.8391 14.6887 11.8391 14.6394 11.8391C11.5092 11.8391 8.37894 11.8391 5.2487 11.8391C4.86928 11.8391 4.71787 11.7187 4.63396 11.3557C3.84228 7.94273 3.05425 4.52792 2.26804 1.11311C2.24068 0.996361 2.20055 0.954405 2.07833 0.95623C1.6077 0.963526 1.13524 0.948933 0.664611 0.963526C0.369099 0.972647 0.16297 0.872319 0.0516968 0.593224V0.365205H0.0535209ZM15.6099 2.89713H3.66899C3.67264 2.92814 3.67446 2.94455 3.67811 2.95915C4.07942 4.69756 4.48256 6.43415 4.87657 8.17439C4.90759 8.30756 4.96596 8.32762 5.08453 8.32762C8.12721 8.32397 11.1699 8.3258 14.2126 8.3258C14.2655 8.3258 14.3202 8.3258 14.3859 8.3258C14.7927 6.51624 15.1994 4.71398 15.6081 2.89895L15.6099 2.89713ZM11.0969 14.2415C11.0969 13.2711 11.8813 12.4867 12.8499 12.4849C13.824 12.4849 14.6157 13.2784 14.6121 14.2506C14.6084 15.2156 13.8167 16 12.8481 16C11.8795 16 11.0951 15.212 11.0969 14.2433V14.2415ZM13.6489 14.2397C13.6471 13.8001 13.2914 13.4444 12.8536 13.4444C12.4213 13.4444 12.0564 13.8055 12.0528 14.2379C12.0491 14.6738 12.4249 15.0478 12.8609 15.0423C13.3005 15.035 13.6507 14.6793 13.6489 14.2397ZM5.33626 14.2488C5.32896 13.2857 6.11882 12.4885 7.0838 12.4849C8.04877 12.4812 8.8441 13.2619 8.85687 14.2269C8.86782 15.1828 8.07249 15.9909 7.11481 15.9982C6.13706 16.0055 5.34538 15.2266 5.33809 14.2488H5.33626ZM7.89007 14.247C7.89007 13.8074 7.54348 13.4517 7.10204 13.4444C6.66607 13.4371 6.29212 13.8074 6.29576 14.247C6.29759 14.6811 6.66242 15.0423 7.09474 15.0423C7.53071 15.0423 7.88825 14.6848 7.89007 14.247Z" fill="white"/>
</svg>
