<svg width="18" height="23" viewBox="0 0 18 23" fill="none" xmlns="http://www.w3.org/2000/svg">
<path d="M1.55019 1.87301V17.0003C1.55019 17.183 1.69942 17.3322 1.88215 17.3322H5.36322C5.54595 17.3322 5.69518 17.4815 5.69518 17.6642V21.13C5.69518 21.3128 5.84441 21.462 6.02715 21.462H15.1882C15.3709 21.462 15.5201 21.3128 15.5201 21.13V1.87301C15.5201 1.69028 15.3709 1.54105 15.1882 1.54105H1.8791C1.69637 1.54105 1.54714 1.69028 1.54714 1.87301H1.55019ZM0 18.6723C0.0152278 12.7274 -0.0152278 6.78549 0.0121822 0.840572C0.0152278 0.374603 0.392876 0 0.858845 0C5.98451 0.0121822 11.098 0.0213189 16.2297 0.0152278C16.6957 0.0152278 17.0764 0.392876 17.0764 0.858845C17.0734 7.06568 17.0764 18.8185 17.0855 22.1533C17.0855 22.6193 16.7079 23 16.2419 23H4.07495C3.84044 23 3.61507 22.9025 3.4567 22.7289L0.225371 19.2479C0.0791843 19.0926 0 18.8855 0 18.6723ZM4.14195 18.8824H1.90042C2.64354 19.6255 3.39883 20.3808 4.14195 21.1239V18.8824ZM3.24656 12.7091V11.2137H13.8177V12.7091H3.24656ZM13.8268 14.2715V15.7668H3.25569V14.2715H13.8268ZM4.77238 7.32455C4.15109 6.70326 3.49934 6.05151 2.87195 5.42108C3.19783 5.08912 3.55111 4.72974 3.94094 4.33686C4.20286 4.61096 4.4861 4.91247 4.77542 5.21703C5.58554 4.40387 6.38347 3.60289 7.16314 2.82018C7.54078 3.19783 7.89102 3.54807 8.21994 3.87699C7.087 5.00993 5.92055 6.17638 4.77238 7.32455ZM13.8298 8.16512V9.65744H7.87579V8.16512H13.8298ZM7.87275 18.8215V17.3292H13.8146V18.8215H7.87275Z" fill="#7F034D"/>
</svg>
