<svg width="12" height="16" viewBox="0 0 12 16" fill="none" xmlns="http://www.w3.org/2000/svg">
<path d="M1.07839 1.30297V11.8263C1.07839 11.9534 1.1822 12.0572 1.30932 12.0572H3.73093C3.85805 12.0572 3.96186 12.161 3.96186 12.2881V14.6992C3.96186 14.8263 4.06568 14.9301 4.1928 14.9301H10.5657C10.6928 14.9301 10.7966 14.8263 10.7966 14.6992V1.30297C10.7966 1.17585 10.6928 1.07203 10.5657 1.07203H1.3072C1.18008 1.07203 1.07627 1.17585 1.07627 1.30297H1.07839ZM0 12.9894C0.0105932 8.85381 -0.0105932 4.72034 0.00847458 0.584746C0.0105932 0.260593 0.273305 0 0.597458 0C4.16314 0.00847458 7.72034 0.0148305 11.2903 0.0105932C11.6144 0.0105932 11.8792 0.273305 11.8792 0.597458C11.8771 4.91525 11.8792 13.0911 11.8856 15.411C11.8856 15.7352 11.6229 16 11.2987 16H2.83475C2.67161 16 2.51483 15.9322 2.40466 15.8114L0.15678 13.3898C0.0550848 13.2818 0 13.1377 0 12.9894ZM2.88136 13.1356H1.32203C1.83898 13.6525 2.36441 14.178 2.88136 14.6949V13.1356ZM2.25847 8.8411V7.80085H9.61229V8.8411H2.25847ZM9.61864 9.92797V10.9682H2.26483V9.92797H9.61864ZM3.31992 5.09534C2.88771 4.66314 2.43432 4.20975 1.99788 3.77119C2.22458 3.54025 2.47034 3.29025 2.74153 3.01695C2.92373 3.20763 3.12076 3.41737 3.32203 3.62924C3.88559 3.06356 4.44068 2.50636 4.98305 1.96186C5.24576 2.22458 5.48941 2.46822 5.71822 2.69703C4.93008 3.48517 4.11864 4.29661 3.31992 5.09534ZM9.62076 5.68008V6.71822H5.47881V5.68008H9.62076ZM5.4767 13.0932V12.0551H9.61017V13.0932H5.4767Z" fill="white"/>
</svg>
