<svg width="239" height="194" viewBox="0 0 239 194" fill="none" xmlns="http://www.w3.org/2000/svg">
<path d="M133.441 12.349C134.48 14.3883 133.812 16.9096 131.958 18.022C130.142 19.1714 127.583 18.6152 126.248 16.7613C124.876 14.8703 125.47 12.2007 127.583 10.8658C129.734 9.5681 132.366 10.2726 133.441 12.3861V12.349Z" fill="#400124"/>
<path d="M150.942 5.89726C151.424 8.15904 150.09 10.3837 148.013 10.977C145.937 11.5703 143.638 10.4208 142.822 8.2332C142.007 6.04557 143.304 3.5984 145.677 2.89391C148.087 2.22649 150.46 3.5984 150.942 5.89726Z" fill="#400124"/>
<path d="M169.482 4.30311C169.37 6.63905 167.517 8.30758 165.329 8.38174C163.141 8.38174 161.25 6.71321 161.028 4.37727C160.842 2.07841 162.696 0.00201746 165.181 0.00201746C167.665 -0.0721394 169.593 2.04133 169.482 4.30311Z" fill="#400124"/>
<path d="M187.835 7.49198C187.131 9.64253 184.869 10.9032 182.719 10.4583C180.605 9.93916 179.233 7.6403 179.604 5.41559C180.012 3.07965 182.311 1.70775 184.758 2.301C187.205 2.85718 188.54 5.2302 187.798 7.49198H187.835Z" fill="#400124"/>
<path d="M204.706 15.4265C203.408 17.3546 200.85 18.0591 198.996 16.9467C197.142 15.7973 196.326 13.4243 197.328 11.3108C198.329 9.23442 200.998 8.30746 203.149 9.64229C205.299 10.903 206.004 13.4984 204.743 15.4265H204.706Z" fill="#400124"/>
<path d="M218.796 27.625C217.053 29.1452 214.384 29.071 212.9 27.5137C211.454 25.8823 211.232 23.4722 212.789 21.6553C214.272 19.9497 217.164 19.7273 218.87 21.5812C220.613 23.398 220.576 26.1047 218.796 27.625Z" fill="#400124"/>
<path d="M228.955 43.1983C226.842 44.1624 224.321 43.3466 223.357 41.4186C222.355 39.4905 222.874 37.0804 224.84 35.7826C226.731 34.522 229.549 35.1523 230.698 37.377C231.847 39.6388 231.032 42.2343 228.918 43.1612L228.955 43.1983Z" fill="#400124"/>
<path d="M234.183 61.0698C231.885 61.3664 229.734 59.8832 229.4 57.7327C228.881 55.6563 230.216 53.4316 232.441 52.7642C234.665 52.0968 237.038 53.5428 237.632 55.99C238.04 58.4743 236.482 60.736 234.183 61.0327V61.0698Z" fill="#400124"/>
<path d="M233.961 79.6464C231.699 79.2015 230.068 77.1251 230.364 75.0116C230.587 72.8981 232.441 71.1925 234.814 71.2296C237.113 71.2296 238.967 73.3431 238.744 75.9015C238.41 78.4228 236.26 80.0913 233.998 79.6464H233.961Z" fill="#400124"/>
<path d="M228.028 97.2953C225.915 96.2571 225.099 93.847 225.878 91.8077C226.657 89.7684 229.141 88.7302 231.291 89.4718C233.516 90.2134 234.517 92.6976 233.627 95.0336C232.7 97.3324 230.068 98.2594 228.028 97.2583V97.2953Z" fill="#400124"/>
<path d="M218.425 113.313C216.571 111.942 216.052 109.346 217.35 107.492C218.61 105.638 221.132 105.045 223.134 106.269C225.099 107.455 225.729 110.162 224.32 112.164C222.949 114.166 220.316 114.685 218.425 113.313Z" fill="#400124"/>
<path d="M206.523 127.7C204.854 126.143 204.706 123.473 206.189 121.768C207.709 120.099 210.305 119.877 212.085 121.323C213.865 122.806 214.087 125.513 212.456 127.292C210.861 129.109 208.192 129.257 206.486 127.663L206.523 127.7Z" fill="#400124"/>
<path d="M193.249 140.825C191.692 139.12 191.84 136.487 193.471 134.893C195.14 133.336 197.81 133.373 199.404 135.041C201.035 136.71 200.961 139.379 199.219 141.011C197.513 142.679 194.769 142.531 193.249 140.825Z" fill="#400124"/>
<path d="M178.974 152.913C177.528 151.096 177.861 148.464 179.604 147.018C181.384 145.572 184.016 145.794 185.537 147.574C187.02 149.354 186.76 152.023 184.906 153.506C183.089 155.027 180.383 154.73 178.937 152.913H178.974Z" fill="#400124"/>
<path d="M164.031 164.111C162.696 162.22 163.141 159.587 164.995 158.252C166.849 156.881 169.482 157.288 170.854 159.142C172.225 160.996 171.818 163.629 169.927 165.038C167.999 166.41 165.366 166.002 164.031 164.111Z" fill="#400124"/>
<path d="M148.532 174.53C147.272 172.565 147.865 170.006 149.793 168.709C151.721 167.448 154.317 167.967 155.614 169.895C156.912 171.823 156.356 174.456 154.391 175.753C152.426 177.051 149.793 176.495 148.532 174.53Z" fill="#400124"/>
<path d="M132.589 184.281C131.439 182.279 132.107 179.721 134.109 178.534C136.111 177.348 138.669 177.978 139.893 179.98C141.117 181.945 140.449 184.578 138.41 185.764C136.371 186.988 133.775 186.284 132.626 184.281H132.589Z" fill="#400124"/>
<path d="M115.199 188.916C116.015 186.729 117.869 185.394 119.389 185.357C120.909 185.394 122.763 186.766 123.542 188.953C124.32 191.104 122.503 193.737 119.352 193.737C116.2 193.737 114.42 191.03 115.236 188.879L115.199 188.916Z" fill="#400124"/>
<path d="M98.8103 179.943C99.9968 177.941 102.555 177.311 104.557 178.46C106.56 179.647 107.264 182.168 106.115 184.207C104.965 186.21 102.37 186.914 100.33 185.728C98.2912 184.541 97.6238 181.946 98.8103 179.943Z" fill="#400124"/>
<path d="M83.0148 170.006C84.3126 168.078 86.871 167.559 88.8361 168.783C90.7642 170.043 91.3575 172.639 90.1339 174.604C88.9103 176.569 86.2777 177.125 84.2755 175.865C82.2733 174.604 81.7171 171.934 83.0148 170.006Z" fill="#400124"/>
<path d="M67.6642 159.328C69.0361 157.474 71.6687 157.066 73.5226 158.401C75.3766 159.736 75.8586 162.368 74.5238 164.259C73.1889 166.15 70.5564 166.595 68.6283 165.223C66.7002 163.814 66.2923 161.182 67.6642 159.328Z" fill="#400124"/>
<path d="M52.9812 147.797C54.4643 146.017 57.134 145.757 58.9137 147.241C60.6935 148.724 60.9901 151.319 59.5811 153.136C58.1351 154.953 55.4654 155.25 53.6486 153.766C51.7947 152.246 51.5351 149.614 53.0182 147.834L52.9812 147.797Z" fill="#400124"/>
<path d="M39.1139 135.264C40.7453 133.633 43.3779 133.596 45.0464 135.153C46.7149 136.747 46.8262 139.38 45.2689 141.086C43.7116 142.828 41.0049 142.902 39.2993 141.271C37.5566 139.639 37.4824 136.933 39.1139 135.301V135.264Z" fill="#400124"/>
<path d="M26.4331 121.545C28.2499 120.062 30.8083 120.322 32.3285 121.99C33.8488 123.696 33.6634 126.366 31.9948 127.923C30.2892 129.517 27.6196 129.332 26.0252 127.515C24.3938 125.735 24.6533 122.991 26.4331 121.545Z" fill="#400124"/>
<path d="M15.5691 106.38C17.5714 105.194 20.0927 105.787 21.3163 107.641C22.577 109.495 22.0949 112.09 20.2039 113.425C18.3129 114.76 15.6804 114.241 14.3085 112.239C12.9736 110.199 13.604 107.53 15.5691 106.343V106.38Z" fill="#400124"/>
<path d="M7.56019 89.5459C9.71074 88.8414 12.1579 89.8796 12.9366 91.9189C13.6781 93.9953 12.8624 96.3683 10.7489 97.3694C8.70962 98.3335 6.0029 97.4065 5.15009 95.0706C4.22313 92.7717 5.29841 90.2875 7.56019 89.5459Z" fill="#400124"/>
<path d="M4.18606 71.2296C6.522 71.2296 8.413 72.8981 8.59839 75.0116C8.89502 77.125 7.26357 79.2014 5.00178 79.6093C2.74 80.0542 0.589452 78.3486 0.255746 75.8273C0.0332756 73.306 1.8872 71.1925 4.18606 71.1925V71.2296Z" fill="#400124"/>
<path d="M6.52202 52.7643C8.74672 53.4318 10.0815 55.6194 9.56245 57.7328C9.22874 59.8463 7.07819 61.3295 4.77933 61.0699C2.48047 60.8104 0.923177 58.5115 1.33104 56.0272C1.92429 53.5801 4.29731 52.134 6.52202 52.8014V52.7643Z" fill="#400124"/>
<path d="M14.123 35.7821C16.0882 37.0799 16.6073 39.49 15.6062 41.418C14.6421 43.3461 12.1208 44.1248 10.0073 43.1978C7.89386 42.2338 7.07814 39.6383 8.22757 37.4136C9.41408 35.1889 12.195 34.5585 14.086 35.8192L14.123 35.7821Z" fill="#400124"/>
<path d="M26.2106 21.6555C27.7679 23.4723 27.5454 25.8824 26.0993 27.5139C24.6162 29.0711 21.9836 29.1453 20.2039 27.6251C18.4241 26.1049 18.4241 23.3981 20.1297 21.5813C21.7982 19.7274 24.7274 19.9499 26.2106 21.6555Z" fill="#400124"/>
<path d="M41.6724 11.3112C42.6735 13.4247 41.8207 15.7606 40.0039 16.9471C38.1129 18.0595 35.5544 17.355 34.2938 15.4269C32.996 13.4988 33.7005 10.9033 35.8881 9.64265C38.0016 8.30783 40.7083 9.23479 41.7095 11.3112H41.6724Z" fill="#400124"/>
<path d="M59.3588 5.41547C59.7667 7.64017 58.3577 9.90196 56.2442 10.4581C54.1308 10.9402 51.869 9.64241 51.1274 7.49186C50.3858 5.23008 51.7207 2.85706 54.1678 2.30088C56.5779 1.70763 58.9139 3.07953 59.3217 5.41547H59.3588Z" fill="#400124"/>
<path d="M77.9721 4.41432C77.7867 6.75026 75.8587 8.41879 73.671 8.41879C71.4834 8.34463 69.6295 6.6761 69.5183 4.34016C69.407 2.07838 71.3351 -0.035091 73.8193 0.0390658C76.3036 0.0390658 78.1575 2.15254 77.9721 4.41432Z" fill="#400124"/>
<path d="M96.1776 8.23381C95.399 10.3844 93.063 11.5709 90.9866 10.9776C88.9102 10.3844 87.5754 8.15965 88.0574 5.89787C88.5395 3.59901 90.9125 2.2271 93.3226 2.89452C95.7327 3.59901 96.9933 6.04618 96.1776 8.23381Z" fill="#400124"/>
<path d="M112.752 16.7244C111.417 18.5784 108.859 19.1345 107.042 17.9851C105.188 16.8727 104.483 14.3514 105.559 12.3121C106.634 10.2357 109.266 9.53122 111.417 10.7919C113.53 12.1267 114.124 14.7964 112.752 16.6874V16.7244Z" fill="#400124"/>
<path d="M120.394 191.057C119.138 191.057 117.883 190.731 116.749 190.119C61.5122 159.978 2.50928 111.892 2.50928 67.517C2.50928 32.1964 32.3955 3.44244 69.1255 3.44244C86.2959 3.44244 102.575 9.68267 115.008 21.0211L120.434 25.997L125.861 21.0211C138.253 9.68267 154.573 3.44244 171.702 3.44244C208.432 3.44244 238.319 32.1964 238.319 67.517C238.319 110.75 179.316 159.203 124.079 190.078C122.945 190.731 121.649 191.057 120.353 191.057H120.394Z" fill="#BF067D" fill-opacity="0.05"/>
<g style="mix-blend-mode:multiply" opacity="0.05">
<path d="M226.75 99.8318C207.054 133.3 161.162 170.424 117.314 191.057C75.9175 172.211 33.0092 138.215 11.5959 106.493C88.0545 163.803 154.665 163.885 226.75 99.8318Z" fill="#7F034D"/>
</g>
</svg>
