<svg width="118" height="115" viewBox="0 0 118 115" fill="none" xmlns="http://www.w3.org/2000/svg">
<ellipse cx="57.0032" cy="57.492" rx="56.7474" ry="57.4843" fill="white"/>
<path d="M88.5516 110.039L60.8111 96.6737L34.1549 112.104C28.8048 115.214 22.2527 110.775 23.0776 104.626L27.1314 73.9316L4.31687 53.1123C-0.255466 48.958 1.88929 41.314 7.97003 40.1745L25.1045 36.9935L38.2087 34.5721L50.7709 6.32249C53.2927 0.648837 61.1647 0.363968 64.1108 5.82397L78.747 33.0765L109.339 36.3762C115.467 37.0409 118.177 44.495 113.935 48.9817L92.7232 71.4152L97.9319 96.2938L99.0632 101.73C100.336 107.807 94.1373 112.721 88.5516 110.039Z" fill="#FFA233"/>
<g opacity="0.35">
<path d="M109.337 36.352L108.865 36.3046C111.293 40.0554 111.694 42.7141 105.377 48.4353C100.711 52.6371 93.4986 59.1891 88.5963 63.6521C85.3674 66.5957 84.024 71.0824 85.1317 75.3317C87.2765 83.5929 88.8556 96.6732 86.8758 98.9997C83.9297 102.442 59.3239 84.9223 59.3239 84.9223C59.3239 84.9223 34.6946 102.466 31.772 98.9997C29.8394 96.7207 31.23 84.1864 33.3747 75.9252C34.5296 71.4148 32.9269 66.6432 29.2738 63.747C24.0179 59.6164 16.6173 53.6341 12.1864 49.3848C9.16962 46.4887 7.96762 42.6904 9.45245 39.9367L8.01475 40.1978C1.95759 41.3135 -0.210739 48.9575 4.3616 53.1356L27.1761 73.9074L23.1223 104.602C23.0988 104.792 23.0752 104.982 23.0752 105.172C23.0752 104.982 23.0988 104.792 23.1223 104.602L23.2402 103.629C24.3243 108.234 29.6744 110.988 34.1996 108.377L60.8559 92.9462L88.5963 106.335C93.0744 108.472 97.9295 105.742 99.0373 101.445L99.108 101.753L97.9767 96.3171L92.768 71.4385L113.98 49.005C118.222 44.4946 115.512 37.0405 109.384 36.3758L109.337 36.352Z" fill="#400124"/>
</g>
<g opacity="0.5">
<path d="M115.704 44.0435C114.926 41.2897 112.617 38.987 109.341 38.6309L108.869 38.5835L83.7449 39.1295C76.58 39.2719 70.1222 34.8564 67.6474 28.0908L61.3546 10.9274C58.4085 5.46735 55.6745 5.75222 53.1527 11.4259L47.9911 28.9928C45.9642 35.8772 39.8363 40.7437 32.695 41.0761L9.43264 42.2156L7.99495 42.4767C4.95458 43.0464 2.9041 45.2304 2.17347 47.818C1.0186 43.8298 3.37547 39.2007 7.99495 38.3461L9.43264 38.0849L25.153 35.1888L38.2336 32.7674L50.7722 4.44657C53.2941 -1.22709 61.166 -1.5357 64.1121 3.94805L78.7483 31.2006L108.869 34.4529L109.341 34.5003C114.219 35.0226 116.93 39.8416 115.704 44.0672V44.0435Z" fill="white"/>
</g>
<path d="M30.4527 114.976C28.6379 114.976 26.8467 114.43 25.2676 113.386C22.2979 111.392 20.7659 107.926 21.2373 104.365L25.1733 74.6434L3.06582 54.5126C0.426121 52.0913 -0.610904 48.4592 0.355414 44.9933C1.32173 41.5273 4.12641 38.9873 7.61459 38.3463L36.887 32.9338L49.072 5.56253C50.5333 2.26279 53.6443 0.150007 57.2268 0.00757228C60.7857 -0.134863 64.0617 1.74053 65.7587 4.92158L79.9235 31.2958L109.526 34.5006C113.085 34.8804 116.031 37.2068 117.28 40.6015C118.506 43.9725 117.751 47.6995 115.277 50.2871L94.7482 72.0084L100.876 101.35C101.607 104.863 100.334 108.424 97.5293 110.656C94.7247 112.887 90.9772 113.291 87.7719 111.748L60.9271 98.8099L35.1193 113.742C33.658 114.573 32.0789 115 30.4763 115L30.4527 114.976ZM57.5803 3.75836C57.5803 3.75836 57.4389 3.75836 57.3446 3.75836C55.1763 3.82958 53.3615 5.08775 52.4659 7.08184L39.9038 35.3552C39.6445 35.9249 39.1496 36.3285 38.5368 36.4234L8.29808 42.0259C6.15332 42.4294 4.52708 43.9013 3.93786 46.014C3.34864 48.1268 3.93786 50.2396 5.56411 51.7114L28.3786 72.4832C28.8265 72.8868 29.0621 73.504 28.9679 74.1212L24.914 104.816C24.6312 106.976 25.5268 108.994 27.3416 110.228C29.1329 111.439 31.3483 111.534 33.2338 110.442L59.8901 95.0116C60.4321 94.703 61.0685 94.6793 61.6341 94.9404L89.3745 108.306C91.3307 109.255 93.5227 109.018 95.2196 107.665C96.9165 106.311 97.6707 104.222 97.2229 102.086L90.8829 71.771C90.7651 71.1775 90.9301 70.5366 91.3543 70.0855L112.566 47.652C114.051 46.0615 114.499 43.9013 113.768 41.8359C113.014 39.7944 111.293 38.4175 109.125 38.1801L78.5565 34.8804C77.9437 34.8092 77.4016 34.4531 77.1188 33.9071L62.4826 6.70201C61.4927 4.85036 59.6779 3.75836 57.6039 3.75836H57.5803Z" fill="#400124"/>
</svg>
