<svg width="115" height="126" viewBox="0 0 115 126" fill="none" xmlns="http://www.w3.org/2000/svg">
<ellipse cx="57.3846" cy="65.6752" rx="56.6463" ry="57.382" fill="white"/>
<g opacity="0.2">
<path d="M60.5252 126C75.7939 126 88.1715 124.543 88.1715 122.745C88.1715 120.948 75.7939 119.491 60.5252 119.491C45.2566 119.491 32.8789 120.948 32.8789 122.745C32.8789 124.543 45.2566 126 60.5252 126Z" fill="#400124"/>
</g>
<path d="M79.8975 60.5198V87.2262C79.8975 90.2309 77.4584 92.6693 74.4527 92.6693H46.3647C43.359 92.6693 40.9199 90.2309 40.9199 87.2262V60.5198C40.9199 59.1566 41.4193 57.9183 42.2451 56.9583C43.2438 55.8063 44.7226 55.0671 46.3647 55.0671H74.4527C75.7779 55.0671 76.9879 55.5375 77.9289 56.3151C79.1389 57.3135 79.9071 58.8206 79.9071 60.5102L79.8975 60.5198Z" fill="white"/>
<path d="M74.4516 55.0672C77.4572 55.0672 79.8963 57.5056 79.8963 60.5103V87.2167C79.8963 90.2214 77.4572 92.6598 74.4516 92.6598H46.3635C43.3579 92.6598 40.9188 90.2214 40.9188 87.2167V60.5103C40.9188 57.5056 43.3579 55.0672 46.3635 55.0672H74.4516ZM74.4516 53.6177H46.3635C42.5608 53.6177 39.4688 56.7088 39.4688 60.5103V87.2167C39.4688 91.0182 42.5608 94.1093 46.3635 94.1093H74.4516C78.2543 94.1093 81.3463 91.0182 81.3463 87.2167V60.5103C81.3463 56.7088 78.2543 53.6177 74.4516 53.6177Z" fill="#400124"/>
<path d="M54.5844 115.748C54.4499 115.748 54.3155 115.709 54.2002 115.633C50.8585 113.53 45.9611 114.461 45.9131 114.471C45.5194 114.548 45.1352 114.289 45.0584 113.905C44.9816 113.511 45.2409 113.127 45.625 113.05C45.8459 113.002 51.137 112.004 54.9589 114.404C55.295 114.615 55.4006 115.066 55.1893 115.402C55.0549 115.623 54.8148 115.738 54.5747 115.738L54.5844 115.748Z" fill="#400124"/>
<path d="M75.0408 113.77C75.0408 113.77 77.4895 103.344 78.3346 95.4053C78.5939 92.919 78.7283 90.4039 78.7571 87.9079C78.7571 87.2264 78.7571 86.5544 78.7571 85.8824C78.7379 84.2601 78.6803 82.6569 78.5843 81.0633C78.1233 73.2396 76.8366 65.8958 75.5978 60.2991C75.1273 58.1776 74.6663 56.3057 74.263 54.7505C73.4468 51.6594 72.861 49.8354 72.861 49.8354H47.9515C47.9515 49.8354 47.3849 51.5634 46.6071 54.5201C46.1942 56.0945 45.714 58.024 45.2243 60.2319C43.9855 65.8478 42.6892 73.23 42.2186 81.1017C42.1226 82.6665 42.065 84.2601 42.0458 85.8536C42.0458 86.5352 42.0458 87.2168 42.0458 87.8983C42.0746 90.4039 42.1994 92.9286 42.4683 95.4149C43.3134 103.344 45.7621 113.779 45.7621 113.779C45.7621 113.779 41.9114 115.046 41.0375 117.744C40.8935 118.205 40.8262 118.704 40.8839 119.241C40.8839 119.337 41.1527 123.245 51.5717 122.851C55.989 122.688 58.4953 121.843 59.5708 119.52C59.9453 118.704 60.1566 116.957 60.2718 115.133C60.387 113.357 60.4062 111.062 60.4062 109.613C60.4062 112.291 60.5119 117.955 61.2417 119.52C62.3172 121.843 65.3229 122.688 69.7305 122.851C80.1495 123.245 79.9094 119.337 79.919 119.241C80.2935 115.507 75.0408 113.779 75.0408 113.779V113.77ZM60.4159 108.183C60.4159 108.183 60.4159 108.643 60.4159 109.373C60.4159 108.643 60.4159 108.183 60.4159 108.183V95.0885H60.4351V108.183H60.4159Z" fill="white"/>
<g opacity="0.3">
<path d="M79.921 119.241C79.9114 119.337 79.6521 123.244 69.2331 122.851C64.8159 122.688 62.3095 121.843 61.234 119.52C60.8595 118.704 60.6483 116.957 60.533 115.133L60.437 108.144L60.2738 115.133C60.1585 116.957 59.9473 118.704 59.5728 119.52C58.4973 121.843 55.9909 122.688 51.5737 122.851C41.1547 123.244 40.8954 119.337 40.8858 119.241C40.8282 118.704 40.8954 118.205 41.0395 117.744C41.414 118.368 42.5375 119.261 45.8408 119.712C51.1992 120.451 56.9512 119.789 57.9307 116.227C58.6701 113.549 59.8801 99.1396 55.7989 97.402C49.4995 94.7141 47.1852 92.5446 48.9425 92.199C49.8356 92.0262 52.1786 92.7558 60.389 92.7558C68.5993 92.7558 70.952 92.0166 71.8355 92.199C73.5832 92.5446 71.2785 94.7141 64.9791 97.402C60.9075 99.1396 62.1175 113.549 62.8473 116.227C63.8268 119.789 69.5788 120.441 74.9372 119.712C78.2405 119.261 79.364 118.368 79.7385 117.744C79.8826 118.205 79.9498 118.704 79.8922 119.241H79.921Z" fill="#400124"/>
</g>
<path d="M45.5427 60.7791C45.0722 65.2333 44.1599 69.582 43.651 74.0075C43.3917 76.2154 43.1613 78.4234 43.0364 80.6409C43.0172 80.9193 42.998 81.1977 42.9884 81.4665L42.95 82.3017C42.9308 82.8584 42.8924 83.4056 42.8732 83.9624L42.8348 85.6232C42.8156 86.1799 42.8348 86.7271 42.8348 87.2839C42.8252 88.3879 42.8732 89.5014 42.902 90.6054L42.998 92.2662C43.0172 92.5446 43.0268 92.823 43.046 93.0917L43.1228 93.9173C43.2957 96.1253 43.603 98.314 43.9391 100.512C44.6401 104.899 45.5043 109.277 46.4934 113.616L46.6375 114.269L46.0037 114.48C45.9076 114.509 45.7732 114.566 45.658 114.614C45.5331 114.662 45.4179 114.71 45.3027 114.768C45.0626 114.874 44.8321 114.989 44.6017 115.114C44.1407 115.363 43.699 115.641 43.3053 115.949C42.902 116.256 42.5563 116.611 42.2682 116.995C41.9897 117.379 41.7785 117.792 41.6824 118.233C41.6248 118.454 41.6152 118.675 41.6056 118.896V119.069C41.6152 119.126 41.6248 119.193 41.6248 119.213C41.6344 119.28 41.6632 119.366 41.7016 119.453C41.8457 119.808 42.1434 120.163 42.5083 120.451C43.2477 121.037 44.2368 121.421 45.2643 121.661L45.6484 121.757C45.7828 121.785 45.9076 121.805 46.0421 121.824L46.8295 121.958L47.6361 122.035C47.905 122.064 48.1739 122.102 48.4428 122.102L49.259 122.131C49.5279 122.141 49.8064 122.16 50.0752 122.15C50.6226 122.141 51.17 122.15 51.7173 122.121C52.812 122.073 53.8971 121.987 54.9342 121.785C55.9713 121.584 56.9604 121.257 57.7286 120.691C58.1127 120.413 58.4296 120.067 58.6793 119.664C58.7465 119.568 58.7945 119.462 58.8522 119.357C58.881 119.309 58.9098 119.251 58.929 119.203L58.9866 119.069C59.0538 118.857 59.121 118.617 59.169 118.358C59.3707 117.331 59.4571 116.227 59.5339 115.133C59.6684 112.934 59.6972 110.707 59.6876 108.49V95.0885V94.3685H61.1472V95.0885V108.509C61.1376 110.726 61.1664 112.954 61.3009 115.162C61.3777 116.256 61.4641 117.369 61.6658 118.387C61.7138 118.646 61.781 118.886 61.8578 119.088C61.877 119.136 61.8962 119.184 61.9154 119.232L62.0019 119.385L62.0787 119.539C62.1075 119.587 62.1459 119.635 62.1747 119.683C62.434 120.057 62.7605 120.393 63.1638 120.662C63.5671 120.931 64.0184 121.142 64.4986 121.325C64.9883 121.488 65.4876 121.632 66.0158 121.737C67.0529 121.958 68.1476 122.054 69.2327 122.112C69.7801 122.15 70.3274 122.141 70.8748 122.15C71.1437 122.15 71.4221 122.169 71.691 122.15L72.5073 122.121C73.5924 122.083 74.6679 121.949 75.705 121.728L76.4636 121.526C76.7037 121.44 76.9437 121.353 77.1838 121.267C77.4143 121.171 77.6351 121.046 77.856 120.941L78.1537 120.739C78.2017 120.71 78.2593 120.672 78.3073 120.643L78.4322 120.528C78.7875 120.24 79.0467 119.885 79.1524 119.529C79.1716 119.481 79.1812 119.443 79.1812 119.405C79.1908 119.357 79.1908 119.318 79.2004 119.289L79.2196 118.896C79.2196 118.675 79.2004 118.445 79.1428 118.233C79.0467 117.792 78.8355 117.379 78.557 116.995C78.2689 116.611 77.9136 116.256 77.5199 115.949C77.1262 115.632 76.6845 115.354 76.2235 115.104C75.9931 114.979 75.7626 114.864 75.5225 114.758C75.2921 114.653 75.0328 114.547 74.8119 114.47L74.1877 114.259L74.3318 113.626C74.9368 111.014 75.4841 108.365 75.9931 105.725C76.4924 103.085 76.9533 100.426 77.3182 97.7668C78.048 92.4582 78.1633 87.0919 77.8656 81.7353C77.5487 76.3786 76.8189 71.0508 75.8394 65.7613C75.5993 64.4366 75.3305 63.1214 75.0616 61.8158C75.004 61.4895 74.9079 61.1631 74.8311 60.8367L74.5815 59.8575L74.0821 57.8992L72.1328 50.0466L72.8049 50.613L66.1694 50.1234C65.0651 50.037 63.9608 49.9314 62.8565 49.797C61.7522 49.6626 60.6575 49.5186 59.5532 49.2978C59.3515 49.2594 59.2267 49.0674 59.2651 48.8658C59.2939 48.693 59.4379 48.5778 59.6012 48.5682C60.7151 48.5106 61.829 48.5106 62.9429 48.5394C64.0568 48.5586 65.1612 48.6066 66.2655 48.6738L72.901 49.1058L73.4387 49.1442L73.5732 49.6722L75.5801 57.5344L76.0699 59.5023L76.3195 60.4815C76.3964 60.8079 76.4924 61.1343 76.5596 61.4703C76.8381 62.8142 77.0974 64.139 77.347 65.4733C78.3361 70.8108 79.0467 76.2058 79.3444 81.6393C79.6421 87.0727 79.4885 92.5542 78.7394 97.9492C78.3745 100.647 77.9136 103.315 77.4047 105.984C76.8957 108.653 76.3388 111.293 75.7338 113.942L75.2536 113.088C75.5705 113.194 75.8298 113.309 76.0987 113.424C76.3676 113.549 76.6364 113.674 76.8957 113.818C77.4239 114.096 77.9232 114.422 78.4033 114.797C78.8835 115.171 79.3252 115.613 79.7093 116.121C80.0838 116.64 80.3911 117.235 80.5352 117.897C80.612 118.224 80.6408 118.56 80.6408 118.896V119.145L80.6216 119.27C80.6216 119.337 80.6216 119.289 80.6216 119.347C80.6216 119.453 80.6024 119.549 80.5832 119.645C80.564 119.741 80.5448 119.837 80.516 119.923C80.3047 120.643 79.8438 121.209 79.3444 121.632L79.1524 121.795C79.0851 121.843 79.0179 121.881 78.9507 121.929L78.5474 122.188C78.2689 122.332 77.9904 122.476 77.712 122.592C77.4239 122.697 77.1454 122.803 76.8573 122.899L75.9931 123.12C74.8407 123.36 73.6884 123.504 72.5457 123.542L71.6814 123.58C71.3933 123.59 71.1149 123.58 70.8268 123.58C70.2602 123.571 69.6841 123.58 69.1175 123.542C67.9748 123.475 66.832 123.379 65.6797 123.139C65.1035 123.024 64.5274 122.87 63.9608 122.668C63.3943 122.457 62.8277 122.198 62.2995 121.843C61.7714 121.497 61.2913 121.027 60.9263 120.48C60.8783 120.413 60.8303 120.345 60.7919 120.278L60.6767 120.057L60.5614 119.837C60.523 119.76 60.4942 119.673 60.4558 119.587C60.3406 119.261 60.2638 118.963 60.2061 118.675C59.9757 117.504 59.8892 116.381 59.8124 115.248C59.6684 112.992 59.6396 110.746 59.6588 108.49V95.0885L60.3886 95.8085H60.379L61.0992 95.0885V108.47C61.1184 110.717 61.0896 112.963 60.9456 115.219C60.8687 116.352 60.7823 117.475 60.5518 118.646C60.4942 118.944 60.4174 119.241 60.3118 119.558L60.2157 119.808C60.1773 119.885 60.1389 119.952 60.1101 120.029C60.0333 120.173 59.9661 120.317 59.87 120.451C59.5243 120.998 59.073 121.488 58.5545 121.872C57.5078 122.63 56.317 122.995 55.1743 123.216C54.022 123.436 52.8792 123.532 51.7365 123.58C51.17 123.6 50.5938 123.6 50.0272 123.609C49.7391 123.619 49.4607 123.609 49.1726 123.59L48.3179 123.552C48.0299 123.552 47.7418 123.504 47.4537 123.484L46.5894 123.398L45.7252 123.254C45.5812 123.225 45.4371 123.206 45.2931 123.177L44.8609 123.072C43.7182 122.793 42.5659 122.381 41.548 121.584C41.0487 121.181 40.5781 120.672 40.2996 119.99C40.2324 119.817 40.1748 119.645 40.1364 119.433C40.1172 119.318 40.1172 119.251 40.1172 119.165V118.915C40.1172 118.579 40.1364 118.243 40.2132 117.917C40.3573 117.254 40.6741 116.659 41.0391 116.141C41.4232 115.632 41.8649 115.19 42.345 114.816C42.8252 114.432 43.3245 114.115 43.8527 113.827C44.1119 113.683 44.3808 113.558 44.6497 113.434C44.7841 113.376 44.9186 113.309 45.0626 113.261C45.2066 113.203 45.3315 113.155 45.4947 113.098L45.005 113.962C43.9967 109.584 43.1036 105.197 42.3834 100.762C41.6536 96.3364 41.2119 91.8054 41.2311 87.3031C41.2023 82.7912 41.548 78.2986 42.1242 73.8347C42.4122 71.6076 42.7483 69.3804 43.1613 67.1725C43.5838 64.9646 44.0831 62.7758 44.7937 60.6351C44.8609 60.4431 45.0626 60.3375 45.2547 60.4047C45.4179 60.4623 45.5235 60.6255 45.5043 60.7887L45.5427 60.7791Z" fill="#400124"/>
<path d="M74.9033 114.481L74.3847 114.433C74.2023 114.414 74.0294 114.404 73.847 114.385C73.4917 114.356 73.1268 114.337 72.7619 114.318C72.0416 114.289 71.3118 114.289 70.6012 114.337C69.881 114.385 69.1704 114.49 68.4694 114.644C67.7684 114.807 67.0962 115.047 66.424 115.335H66.4048C66.2224 115.422 66.0111 115.335 65.9247 115.162C65.8575 115.009 65.9055 114.826 66.0399 114.721C66.6737 114.241 67.3843 113.847 68.1333 113.559C68.3158 113.482 68.5078 113.425 68.6999 113.367L68.988 113.271C69.084 113.242 69.18 113.223 69.2761 113.194C69.4681 113.146 69.6602 113.098 69.8618 113.05L70.4476 112.945C71.235 112.82 72.0224 112.772 72.8195 112.782C73.2132 112.791 73.6069 112.81 74.0006 112.858C74.3943 112.897 74.7784 112.954 75.1914 113.06C75.5851 113.156 75.8251 113.54 75.7291 113.934C75.6427 114.289 75.3066 114.519 74.9513 114.49H74.9129L74.9033 114.481Z" fill="#400124"/>
<path d="M45.7076 113.059C45.9285 113.011 46.111 112.972 46.3126 112.934C46.5047 112.905 46.7063 112.876 46.8984 112.857C47.2921 112.809 47.6858 112.79 48.0795 112.78C48.8669 112.761 49.664 112.809 50.4514 112.924C51.2388 113.04 52.0166 113.251 52.7657 113.529C53.5147 113.817 54.2253 114.22 54.8495 114.71C55.0031 114.835 55.0319 115.065 54.9167 115.219C54.811 115.353 54.6382 115.391 54.4942 115.334H54.4749C53.8028 115.046 53.1306 114.806 52.4296 114.652C51.7286 114.508 51.018 114.393 50.2977 114.345C49.5775 114.297 48.8573 114.288 48.1371 114.316C47.7722 114.326 47.4169 114.345 47.052 114.374C46.6967 114.393 46.3222 114.441 45.9957 114.47H45.9573C45.5636 114.518 45.2083 114.22 45.1603 113.827C45.1219 113.462 45.3619 113.136 45.7172 113.049L45.7076 113.059Z" fill="#400124"/>
<g opacity="0.25">
<path d="M78.7566 85.8818C78.4493 86.0738 78.1036 86.1986 77.7387 86.2466C75.578 86.5154 72.534 86.7074 70.2485 86.0834V87.2354C70.2485 88.8193 69.0002 90.1153 67.4733 90.1153H52.3106C50.7838 90.1153 49.5354 88.8193 49.5354 87.2354V86.3234C47.4324 86.6594 44.9741 86.4866 43.14 86.2562C42.7462 86.2082 42.3813 86.0642 42.0645 85.8626C42.0837 84.269 42.1413 82.6755 42.2373 81.1107C42.6022 80.9091 43.0247 80.7939 43.4665 80.7939C43.5049 80.7939 43.5529 80.7939 43.5913 80.7939C45.2718 80.8803 47.5764 80.9283 49.545 80.7555V78.7012C49.545 77.1173 50.7934 75.8213 52.3202 75.8213H67.4829C68.7025 75.8213 69.7492 76.6469 70.1141 77.7892C70.2101 78.0772 70.2581 78.3844 70.2581 78.7012V80.6307C72.4091 80.9571 75.2996 80.8995 77.3065 80.8035C77.345 80.8035 77.393 80.8035 77.4314 80.8035C77.8539 80.8035 78.2476 80.9091 78.6029 81.0915C78.6989 82.6851 78.7566 84.2882 78.7758 85.9106L78.7566 85.8818Z" fill="#400124"/>
</g>
<path d="M51.522 83.2997C49.1886 84.2789 45.5875 84.0773 43.1292 83.7605C41.6504 83.5781 40.6229 82.167 40.8342 80.6406C41.0358 79.2486 42.217 78.2407 43.5614 78.2983C45.8564 78.4135 49.3134 78.4615 51.4932 77.9623L51.5124 83.2997H51.522Z" fill="white"/>
<g opacity="0.25">
<path d="M51.5316 83.2903C49.1981 84.2695 45.5971 84.0679 43.1388 83.7607C41.6696 83.5783 40.6325 82.1671 40.8437 80.6408C40.8918 80.3144 40.9878 80.0168 41.1318 79.7384C41.5255 80.4968 42.2457 81.044 43.1292 81.1592C45.5875 81.4664 49.1789 81.6679 51.5124 80.6984V83.2999L51.5316 83.2903Z" fill="#400124"/>
</g>
<path d="M46.8935 84.7397C45.5395 84.7397 44.1951 84.6245 43.0428 84.4805C42.1593 84.3653 41.3623 83.9045 40.8053 83.1845C40.2388 82.4357 39.9891 81.4758 40.1235 80.535C40.3732 78.7591 41.8713 77.4919 43.6093 77.5783C46.9799 77.7415 49.7263 77.6263 51.3396 77.2615C51.6853 77.1847 52.5495 77.1655 53.0488 78.7399C53.6058 80.4774 53.4906 83.2613 51.8005 83.9717C50.4177 84.5573 48.6412 84.7493 46.8839 84.7493L46.8935 84.7397ZM43.4461 79.0182C42.505 79.0182 41.6984 79.7382 41.5544 80.7366C41.4775 81.303 41.6216 81.8598 41.9577 82.3014C42.2746 82.7141 42.7259 82.9733 43.2156 83.0405C46.711 83.4821 49.5535 83.3285 51.2339 82.6277C51.522 82.5029 51.7429 82.0806 51.8389 81.4566C52.0118 80.3334 51.7141 79.0854 51.4644 78.7111C49.2366 79.1814 45.9332 79.143 43.5229 79.0278C43.4941 79.0278 43.4653 79.0278 43.4365 79.0278L43.4461 79.0182Z" fill="#400124"/>
<path d="M69.3477 83.2997C71.6811 84.2789 75.2822 84.0773 77.7405 83.7605C79.2193 83.5781 80.2468 82.167 80.0355 80.6406C79.8339 79.2486 78.6527 78.2407 77.3083 78.2983C75.0133 78.4135 71.5563 78.4615 69.3765 77.9623L69.3573 83.2997H69.3477Z" fill="white"/>
<g opacity="0.25">
<path d="M77.7326 83.7608C75.2743 84.068 71.6733 84.2696 69.3398 83.2904V80.6889C71.6829 81.668 75.2743 81.4568 77.7326 81.1496C78.6161 81.0344 79.3459 80.4873 79.7396 79.7289C79.8837 79.9977 79.9797 80.3049 80.0277 80.6313C80.2486 82.1576 79.2115 83.5688 77.7326 83.7512V83.7608Z" fill="#400124"/>
</g>
<path d="M73.984 84.7394C72.2267 84.7394 70.4502 84.5474 69.0674 83.9618C67.3773 83.2514 67.2621 80.4675 67.8191 78.73C68.328 77.1556 69.1826 77.1748 69.5283 77.2516C71.1416 77.626 73.888 77.7412 77.2586 77.5684C78.9967 77.482 80.4947 78.7588 80.7444 80.5251C80.8788 81.4659 80.6291 82.4259 80.0626 83.1746C79.5056 83.8946 78.7182 84.3554 77.8251 84.4706C76.6728 84.6146 75.3284 84.7298 73.9744 84.7298L73.984 84.7394ZM69.4035 78.7108C69.1538 79.0948 68.8561 80.3427 69.029 81.4563C69.125 82.0803 69.3459 82.5027 69.634 82.6275C71.3145 83.3378 74.1665 83.4818 77.6523 83.0402C78.1516 82.973 78.6029 82.7139 78.9102 82.3011C79.2463 81.8595 79.3904 81.3027 79.3135 80.7363C79.1695 79.7091 78.3149 78.97 77.3354 79.018C74.9251 79.1332 71.6217 79.1716 69.3939 78.7012L69.4035 78.7108Z" fill="#400124"/>
<path d="M70.2463 76.1955V84.7392C70.2463 86.3232 68.998 87.6191 67.4711 87.6191H52.3084C50.7816 87.6191 49.5332 86.3232 49.5332 84.7392V76.1955C49.5332 74.6115 50.7816 73.3156 52.3084 73.3156H67.4711C68.6907 73.3156 69.7374 74.1411 70.1023 75.2835C70.1983 75.5715 70.2463 75.8787 70.2463 76.1955Z" fill="white"/>
<g opacity="0.25">
<path d="M70.2522 76.1959V84.7397C70.2522 86.3236 69.0038 87.6196 67.477 87.6196H52.3143C50.7874 87.6196 49.5391 86.3236 49.5391 84.7397V81.8597C52.151 83.3669 57.3365 85.6228 62.5412 83.7605C65.0859 82.8485 67.9956 79.7286 67.9956 79.7286C67.9956 79.7286 68.1108 83.0021 68.5717 82.9541C69.8681 82.8101 69.8585 76.1863 70.1082 75.2839C70.2042 75.5719 70.2522 75.8791 70.2522 76.1959Z" fill="#400124"/>
</g>
<path d="M67.8469 88.3491H51.9256C50.2067 88.3491 48.8047 86.9475 48.8047 85.2292V75.7159C48.8047 73.9975 50.2067 72.5959 51.9256 72.5959H67.8469C69.5658 72.5959 70.9678 73.9975 70.9678 75.7159V85.2292C70.9678 86.9475 69.5658 88.3491 67.8469 88.3491ZM51.9256 74.0359C51.0037 74.0359 50.2547 74.7847 50.2547 75.7063V85.2196C50.2547 86.1411 51.0037 86.8899 51.9256 86.8899H67.8469C68.7688 86.8899 69.5178 86.1411 69.5178 85.2196V75.7063C69.5178 74.7847 68.7688 74.0359 67.8469 74.0359H51.9256Z" fill="#400124"/>
<path d="M65.2563 82.9639C66.5769 82.9639 67.6474 81.8507 67.6474 80.4775C67.6474 79.1044 66.5769 77.9912 65.2563 77.9912C63.9358 77.9912 62.8652 79.1044 62.8652 80.4775C62.8652 81.8507 63.9358 82.9639 65.2563 82.9639Z" fill="#62A4EC"/>
<path d="M67.657 80.4775C67.657 80.6503 67.6378 80.8135 67.609 80.9671C67.3881 79.8248 66.4183 78.9704 65.2563 78.9704C64.0944 78.9704 63.1245 79.8248 62.9132 80.9671C62.8844 80.8039 62.8652 80.6407 62.8652 80.4775C62.8652 79.1048 63.9407 77.9912 65.2563 77.9912C66.5719 77.9912 67.6474 79.1048 67.6474 80.4775H67.657Z" fill="white"/>
<g opacity="0.35">
<path d="M67.6572 80.4677C67.6572 81.8404 66.5817 82.954 65.2661 82.954C63.9505 82.954 62.875 81.8404 62.875 80.4677C62.875 80.2373 62.9038 80.0165 62.9614 79.8053C63.2399 80.8517 64.1714 81.6196 65.2661 81.6196C66.3608 81.6196 67.2923 80.8517 67.5707 79.8053C67.6284 80.0165 67.6572 80.2373 67.6572 80.4677Z" fill="#400124"/>
</g>
<path d="M65.2568 83.5016C63.6339 83.5016 62.3184 82.1384 62.3184 80.4681C62.3184 78.7977 63.6339 77.4346 65.2568 77.4346C66.8797 77.4346 68.1952 78.7977 68.1952 80.4681C68.1952 82.1384 66.8797 83.5016 65.2568 83.5016ZM65.2568 78.5289C64.2389 78.5289 63.4035 79.4025 63.4035 80.4681C63.4035 81.5337 64.2293 82.4072 65.2568 82.4072C66.2843 82.4072 67.1101 81.5337 67.1101 80.4681C67.1101 79.4025 66.2843 78.5289 65.2568 78.5289Z" fill="#400124"/>
<path d="M58.4773 88.3491C58.074 88.3491 57.7571 88.0227 57.7571 87.6291V83.2516C57.7571 82.3973 57.3634 81.5813 56.7104 81.0629L56.3263 80.7653C55.3276 79.9781 54.7227 78.7398 54.7227 77.4438V73.3159C54.7227 72.9127 55.0491 72.5959 55.4429 72.5959C55.8366 72.5959 56.1631 72.9223 56.1631 73.3159V77.4438C56.1631 78.2982 56.5568 79.1142 57.2098 79.6325L57.5939 79.9301C58.5926 80.7173 59.1975 81.9557 59.1975 83.2516V87.6291C59.1975 88.0323 58.871 88.3491 58.4773 88.3491Z" fill="#400124"/>
<path d="M51.6085 102.749C48.7757 102.749 45.6452 102.26 42.774 100.714C42.4187 100.522 42.2842 100.09 42.4763 99.7348C42.6684 99.3796 43.1005 99.2452 43.4558 99.4372C50.6482 103.296 60.0685 99.8884 60.1646 99.85C60.5391 99.7156 60.952 99.898 61.096 100.282C61.2305 100.656 61.048 101.069 60.6735 101.213C60.4142 101.309 56.4579 102.749 51.6181 102.749H51.6085Z" fill="#400124"/>
<path d="M69.2036 102.749C64.3638 102.749 60.4075 101.309 60.1482 101.213C59.7737 101.079 59.5816 100.656 59.7257 100.282C59.8601 99.9075 60.2826 99.7155 60.6571 99.8595C60.7532 99.8979 70.1639 103.296 77.3659 99.4467C77.7212 99.2547 78.1533 99.3891 78.3454 99.7443C78.5375 100.1 78.403 100.532 78.0477 100.723C75.1765 102.259 72.046 102.759 69.2132 102.759L69.2036 102.749Z" fill="#400124"/>
<path d="M53.7305 94.7624C53.7305 94.7624 56.4384 95.972 60.4044 95.972C64.3703 95.972 67.0879 94.7624 67.0879 94.7624C67.0879 94.7624 65.2922 93.3417 60.4044 93.3417C55.5166 93.3417 53.7305 94.7624 53.7305 94.7624Z" fill="white"/>
<g opacity="0.3">
<path d="M53.7324 94.7623C53.7324 94.7623 56.4404 95.9719 60.4063 95.9719C64.3723 95.9719 67.0898 94.7623 67.0898 94.7623C67.0898 94.7623 65.2941 93.3416 60.4063 93.3416C55.5185 93.3416 53.7324 94.7623 53.7324 94.7623Z" fill="#400124"/>
</g>
<path d="M52.8818 94.3204C53.4868 94.4932 54.1302 94.6468 54.764 94.762C55.3978 94.8868 56.0412 94.9924 56.6749 95.0788C57.3183 95.1556 57.9521 95.2324 58.6051 95.2708C58.922 95.29 59.2485 95.3092 59.5654 95.3188C59.8822 95.3284 60.2087 95.3188 60.5256 95.3284C61.8124 95.3188 63.0992 95.2324 64.3763 95.0692L64.8565 95.002L65.3366 94.9252C65.6535 94.8772 65.98 94.8196 66.2969 94.7524C66.9307 94.6276 67.5741 94.474 68.179 94.3108H68.1982C68.3903 94.2532 68.5919 94.3684 68.64 94.5604C68.688 94.7236 68.6112 94.8964 68.4671 94.9732C67.8429 95.3188 67.2188 95.5684 66.5754 95.7988C65.932 96.0196 65.2694 96.202 64.5972 96.3459C63.2624 96.6339 61.8892 96.7779 60.516 96.7779C59.1428 96.7683 57.7792 96.6339 56.4349 96.3363C55.7627 96.1923 55.1097 96.01 54.4567 95.7892C53.8133 95.5588 53.1795 95.3188 52.565 94.9732C52.3921 94.8772 52.3249 94.6564 52.4209 94.4836C52.5073 94.33 52.6802 94.2628 52.8338 94.3108H52.853L52.8818 94.3204Z" fill="#400124"/>
<path d="M86.1645 46.1401C85.8668 46.0921 85.6651 45.8041 85.7227 45.5065L88.3251 29.5038C88.3731 29.1966 88.6516 28.9854 88.9493 29.0334C92.0605 29.5134 94.1539 32.5085 93.6258 35.734L92.7423 41.1867C92.2142 44.4026 89.2757 46.6297 86.1645 46.1497V46.1401Z" fill="white"/>
<path d="M87.0115 46.3317C86.7234 46.3317 86.4353 46.3125 86.1472 46.2645C85.9744 46.2357 85.8207 46.1397 85.7151 45.9957C85.6095 45.8421 85.5615 45.6598 85.5903 45.4774L88.1926 29.4746C88.2502 29.1002 88.5959 28.841 88.9704 28.8986C90.4685 29.129 91.7936 29.945 92.6963 31.1834C93.647 32.4889 94.0215 34.1113 93.7622 35.7432L92.8787 41.1959C92.389 44.1814 89.8539 46.3317 87.0211 46.3317H87.0115ZM88.8744 29.1482C88.6727 29.1482 88.4903 29.3018 88.4519 29.5226L85.8495 45.5254C85.8303 45.6406 85.8495 45.7558 85.9264 45.8517C85.9936 45.9381 86.08 45.9957 86.1856 46.0149C89.2201 46.4853 92.1009 44.3062 92.6099 41.1671L93.4933 35.7144C93.743 34.1497 93.3877 32.6041 92.4754 31.3466C91.6112 30.1562 90.3532 29.3882 88.9224 29.1674C88.9032 29.1674 88.884 29.1674 88.8648 29.1674L88.8744 29.1482Z" fill="#400124"/>
<g opacity="0.25">
<path d="M93.1592 38.6135L92.7462 41.1766C92.2181 44.3926 89.2797 46.6197 86.1684 46.1397C85.8707 46.0917 85.669 45.8037 85.7266 45.4965L86.418 41.2438C86.466 41.455 86.6389 41.6086 86.8502 41.647L87.2151 41.7046C89.6734 42.0886 92.026 40.7735 93.1592 38.6135Z" fill="#400124"/>
</g>
<path d="M87.0089 46.9266C86.692 46.9266 86.3751 46.9074 86.0582 46.8498C85.7221 46.8018 85.434 46.6194 85.2324 46.3506C85.0307 46.0722 84.9443 45.7266 85.0019 45.381L87.6042 29.3783C87.7195 28.6775 88.3725 28.1975 89.0543 28.3031C90.7059 28.5623 92.1752 29.4551 93.1642 30.8279C94.2109 32.2678 94.6239 34.0438 94.3358 35.8293L93.4523 41.282C92.9242 44.5555 90.1298 46.917 87.0089 46.917V46.9266ZM86.4615 45.4482C89.1023 45.7554 91.5798 43.8163 92.0215 41.0612L92.905 35.6085C93.1354 34.207 92.8089 32.815 91.9927 31.6918C91.2629 30.6839 90.2066 30.0119 89.0062 29.7815L86.4519 45.4578L86.4615 45.4482Z" fill="#400124"/>
<path d="M37.9686 21.1615C38.2663 21.2095 38.468 21.4975 38.4104 21.7951L35.808 37.7978C35.76 38.105 35.4815 38.3162 35.1838 38.2682C32.0726 37.7882 29.9792 34.7931 30.5073 31.5676L31.3908 26.1149C31.9189 22.899 34.8573 20.6719 37.9686 21.1519V21.1615Z" fill="white"/>
<path d="M35.2628 38.4025C35.2628 38.4025 35.1956 38.4025 35.1667 38.4025C33.6687 38.1721 32.3435 37.3562 31.4409 36.1178C30.4902 34.8122 30.1157 33.1899 30.375 31.5579L31.2584 26.1053C31.7962 22.8222 34.8114 20.547 37.9803 21.0366C38.1532 21.0654 38.3068 21.1614 38.4125 21.3054C38.5181 21.459 38.5661 21.6414 38.5373 21.8238L35.935 37.8266C35.8773 38.1721 35.5893 38.4121 35.2628 38.4121V38.4025ZM37.1257 21.219C34.4081 21.219 31.9882 23.2734 31.5273 26.1341L30.6438 31.5867C30.3942 33.1515 30.7495 34.697 31.6617 35.9546C32.526 37.145 33.7839 37.913 35.2148 38.1337C35.4452 38.1721 35.6565 38.0089 35.6949 37.769L38.2972 21.7662C38.3164 21.651 38.2972 21.5358 38.2204 21.4398C38.1532 21.3534 38.0668 21.2958 37.9611 21.2766C37.6827 21.2382 37.4138 21.2094 37.1353 21.2094L37.1257 21.219Z" fill="#400124"/>
<g opacity="0.25">
<path d="M36.5407 33.3632L35.8205 37.7982C35.7725 38.1054 35.4844 38.3166 35.1963 38.2686C33.5638 38.019 32.2098 37.0687 31.3744 35.7631C30.6158 34.5823 30.2701 33.104 30.5197 31.5776L30.8943 29.2737C31.4512 31.424 33.1893 33.1328 35.4652 33.488L36.0317 33.5744C36.2334 33.6032 36.435 33.5168 36.5503 33.3536L36.5407 33.3632Z" fill="#400124"/>
</g>
<path d="M35.2602 38.9978C35.193 38.9978 35.1354 38.9978 35.0682 38.9786C33.4165 38.7194 31.9473 37.8266 30.9582 36.4538C29.9115 35.0139 29.4986 33.2379 29.7867 31.4524L30.6701 25.9997C31.2559 22.3998 34.5784 19.9039 38.0738 20.4415C38.4099 20.4895 38.698 20.6719 38.8997 20.9407C39.1013 21.2191 39.1877 21.5647 39.1301 21.9103L36.5278 37.913C36.4221 38.5466 35.8844 38.9978 35.2698 38.9978H35.2602ZM37.1232 21.8143C34.6937 21.8143 32.5234 23.667 32.1105 26.2301L31.2271 31.6828C30.9966 33.0843 31.3231 34.4763 32.1393 35.5995C32.8691 36.6074 33.9254 37.2794 35.1258 37.5098L37.6801 21.8335C37.4977 21.8143 37.3152 21.8047 37.1328 21.8047L37.1232 21.8143Z" fill="#400124"/>
<g opacity="0.25">
<path d="M77.9201 56.3247C73.5797 60.6926 67.77 63.5149 61.2594 63.9085C53.9997 64.3405 47.249 61.6525 42.2363 56.9583C43.235 55.8063 44.7138 55.0671 46.3559 55.0671H74.4439C75.7691 55.0671 76.9791 55.5375 77.9201 56.3151V56.3247Z" fill="#400124"/>
</g>
<path d="M87.768 40.6166C91.7687 25.886 83.5107 10.8229 69.3231 6.9721C55.1356 3.1213 40.3911 11.9411 36.3904 26.6716C32.3897 41.4022 40.6478 56.4653 54.8353 60.3161C69.0228 64.1669 83.7673 55.3471 87.768 40.6166Z" fill="white"/>
<path d="M61.5744 61.3457C59.6538 61.3457 57.7045 61.1345 55.7647 60.6834C48.9852 59.1186 43.1947 54.9523 39.4496 48.9525C35.5029 42.6167 34.2833 35.0521 36.0118 27.6315C39.4976 12.7231 54.0266 3.29621 68.4019 6.60812C75.1814 8.17287 80.9719 12.3392 84.717 18.339C88.6637 24.6748 89.8833 32.2394 88.1548 39.66C85.1395 52.5524 73.8659 61.3457 61.584 61.3457H61.5744ZM62.5922 6.20493C50.4256 6.20493 39.2576 14.9215 36.2711 27.6891C34.5522 35.0329 35.7622 42.5399 39.6705 48.8085C43.3771 54.7507 49.11 58.8786 55.8223 60.4242C70.0536 63.7073 84.4481 54.3667 87.8955 39.5928L88.0203 39.6216L87.8955 39.5928C89.6144 32.249 88.4044 24.742 84.4961 18.4734C80.7895 12.5311 75.0566 8.40327 68.3443 6.85771C66.4237 6.41612 64.4936 6.20493 62.5922 6.20493Z" fill="#400124"/>
<g opacity="0.35">
<path d="M88.6339 35.8489C88.5186 37.1065 88.3074 38.364 88.0097 39.6312C84.5335 54.4916 70.1006 63.8609 55.7733 60.5586C41.446 57.2563 32.6498 42.5207 36.126 27.6604C36.2221 27.2284 36.3373 26.806 36.4525 26.3932C35.137 39.9 43.6162 52.4852 56.7239 55.5091C70.6383 58.7155 84.6487 49.9701 88.6339 35.8489Z" fill="#400124"/>
</g>
<path d="M61.5682 61.9411C59.5996 61.9411 57.6118 61.7203 55.6241 61.2595C48.6909 59.6563 42.766 55.3941 38.9441 49.2598C34.9109 42.7896 33.6626 35.0618 35.4391 27.4876C38.9921 12.2721 53.838 2.64356 68.5302 6.03227C75.4633 7.63542 81.3882 11.8977 85.2101 18.0319C89.2433 24.5021 90.4916 32.2299 88.7151 39.8041C85.6423 52.9653 74.119 61.9507 61.5586 61.9507L61.5682 61.9411ZM62.5861 6.80024C50.6883 6.80024 39.7699 15.3248 36.8411 27.8332C35.1606 35.0234 36.3417 42.3672 40.1636 48.511C43.7839 54.3189 49.3919 58.3508 55.941 59.8675C69.8553 63.0738 83.9234 53.9349 87.3035 39.4777C88.984 32.2875 87.8029 24.9437 83.981 18.7999C80.3607 12.9921 74.7527 8.96018 68.2037 7.44343C66.3215 7.01144 64.4394 6.80024 62.5765 6.80024H62.5861Z" fill="#400124"/>
<path d="M87.7667 40.3032C86.6144 45.583 83.8872 50.1333 80.1709 53.5892C77.3861 56.1811 67.5049 59.637 56.721 57.4291C46.7246 55.3843 38.8503 47.9254 37.3907 44.4215C35.4509 39.756 34.8652 34.4953 36.0175 29.2155C39.0712 15.2383 51.9196 11.9168 66.2085 14.9791C80.4974 18.0414 90.8108 26.3164 87.7571 40.3032H87.7667Z" fill="#400124"/>
<path d="M63.8321 58.869C61.5274 58.869 59.0883 58.6482 56.582 58.1394C46.2015 56.0178 38.26 48.3765 36.7331 44.6998C34.659 39.7271 34.1788 34.3225 35.3215 29.0618C36.8196 22.2076 40.6223 17.4845 46.6432 15.0366C51.8959 12.8959 58.7138 12.6271 66.3768 14.2686C75.7875 16.2846 82.6631 20.2877 86.2449 25.8555C88.9337 30.0314 89.6827 34.9368 88.4824 40.4567C87.33 45.7173 84.6317 50.4404 80.6753 54.1171C78.5243 56.1138 72.0329 58.869 63.8417 58.869H63.8321ZM56.9565 14.6718C48.8614 14.6718 39.3547 17.3886 36.7331 29.369C35.648 34.3321 36.109 39.4487 38.0679 44.143C39.4507 47.4741 47.1329 54.7219 56.8701 56.7186C67.6636 58.9265 77.1991 55.3651 79.6766 53.0611C83.4217 49.586 85.9761 45.1221 87.0612 40.1495L87.7718 40.3031L87.0612 40.1495C88.1847 35.0232 87.4933 30.4826 85.0254 26.6427C81.6548 21.4108 75.0961 17.6285 66.0695 15.6894C63.7649 15.1998 60.5 14.6718 56.9565 14.6718Z" fill="#400124"/>
<g opacity="0.35">
<path d="M85.5902 26.1821C88.0677 29.9932 88.9992 34.6874 87.77 40.3033C86.6177 45.5831 83.8905 50.1334 80.1742 53.5893C77.3894 56.1812 67.5082 59.6371 56.7243 57.4292C52.912 56.6516 49.4166 55.0868 46.459 53.2533C59.778 55.6724 71.8198 51.4102 75.2768 48.1942C79.9918 43.8168 83.4488 38.0377 84.918 31.3275C85.3117 29.5324 85.523 27.814 85.5902 26.1725V26.1821Z" fill="#1B202C"/>
</g>
<path d="M88.2248 28.2935C88.004 28.2935 87.7927 28.1975 87.6487 28.0055L87.5911 27.9287L87.5527 27.8327C84.5662 20.5273 76.9032 15.0651 66.5418 12.8475C56.1133 10.6108 46.837 12.5691 41.0946 18.2234L41.0369 18.2714C40.7296 18.521 40.2687 18.473 40.019 18.1658C39.779 17.8682 39.8078 17.4362 40.0959 17.177C46.1936 11.1868 55.9404 9.09403 66.8395 11.4364C77.6714 13.7595 85.7089 19.5289 88.8874 27.2759C89.0219 27.5735 88.9355 27.9383 88.6666 28.1399C88.5321 28.2359 88.3785 28.2935 88.2248 28.2935Z" fill="#400124"/>
<path d="M29.3474 86.5647C28.704 86.5647 28.0511 86.5455 27.3981 86.4879C26.7163 86.4303 26.0825 86.3343 25.5159 86.1999C25.1222 86.1135 24.8821 85.7199 24.9782 85.3263C25.0646 84.9327 25.4583 84.6927 25.852 84.7887C26.3514 84.9039 26.9179 84.9903 27.5325 85.0479C28.9153 85.1727 30.3365 85.1151 31.5945 85.0575L31.969 85.0383C32.3819 85.0191 32.814 85.0095 33.2077 85.0095C33.6014 85.0095 33.9279 85.3359 33.9279 85.7295C33.9279 86.1231 33.6014 86.4495 33.2077 86.4495C32.8428 86.4495 32.4203 86.4591 32.0266 86.4783L31.6521 86.4975C30.9319 86.5263 30.1541 86.5551 29.357 86.5551L29.3474 86.5647Z" fill="#452253"/>
<path d="M53.6946 66.069V85.47C53.6946 85.6332 53.541 85.7676 53.3585 85.7676H25.9427C25.6354 85.7676 25.3569 85.662 25.1361 85.4988C24.9056 85.3164 24.752 85.0476 24.752 84.7405V66.8082C24.752 66.2418 25.2801 65.781 25.9331 65.781H53.3393C53.5218 65.781 53.6754 65.9154 53.6754 66.0786L53.6946 66.069Z" fill="#DB2B2B"/>
<g opacity="0.25">
<path d="M54.1088 85.7677H26.5489C26.2321 85.7677 25.9536 85.6621 25.7423 85.4989C25.5022 85.3165 25.3582 85.0477 25.3582 84.7405V82.1678L24.9741 82.1102C24.9741 82.1102 24.6956 77.2527 25.3582 76.8207C25.3582 76.8207 25.1854 80.5358 29.4874 80.5358C29.4874 80.5358 40.1272 80.5262 46.5419 80.4974C49.173 80.4878 51.2952 78.6351 51.2952 76.3503V69.9857C51.2952 68.7282 50.1141 67.701 48.6641 67.701H26.4529C25.8287 67.701 25.3198 68.085 25.3198 68.565V67.029C25.3198 66.549 25.8287 66.165 26.4529 66.165H52.7741C52.9565 66.165 53.1005 66.2706 53.1005 66.4146V66.789H53.6959V79.1535C53.6959 79.1535 54.2913 85.7773 54.1088 85.7773V85.7677Z" fill="#400124"/>
</g>
<path d="M42.3032 65.781H36.5703V85.7676H42.3032V65.781Z" fill="#76C744"/>
<path d="M43.0168 86.4874H35.834V65.0513H43.0168V86.4874ZM37.284 85.0379H41.5668V66.5008H37.284V85.0379Z" fill="#400124"/>
<g opacity="0.2">
<path d="M42.2973 66.1558H36.5645V67.6917H42.2973V66.1558Z" fill="#452253"/>
</g>
<g opacity="0.2">
<path d="M42.2973 80.4977H36.5645V85.7583H42.2973V80.4977Z" fill="#452253"/>
</g>
<path d="M53.36 86.4874H25.9442C25.4832 86.4874 25.0319 86.3339 24.6862 86.0555C24.2733 85.7291 24.0332 85.2491 24.0332 84.7403V66.808C24.0332 65.8384 24.8878 65.0513 25.9442 65.0513H53.3504C53.9362 65.0513 54.4163 65.5121 54.4163 66.0688V85.4699C54.4163 86.0267 53.9362 86.4874 53.3504 86.4874H53.36ZM25.9442 66.5008C25.6753 66.5008 25.4832 66.664 25.4832 66.808V84.7403C25.4832 84.8267 25.5504 84.8939 25.5888 84.9323C25.6849 85.0091 25.8097 85.0475 25.9442 85.0475H52.9663V66.5104H25.9442V66.5008Z" fill="#400124"/>
<g opacity="0.2">
<path d="M38.755 56.9879C35.7205 54.876 35.4901 49.5961 35.4805 48.4058C35.4805 48.3002 35.5957 48.233 35.6917 48.2906C36.3831 48.7705 38.5822 50.7769 38.755 56.9783V56.9879Z" fill="#452253"/>
</g>
<g opacity="0.2">
<path d="M43.208 48.396C43.208 48.396 43.208 48.4344 43.208 48.4536C43.208 48.5592 43.208 48.684 43.1984 48.8375C43.1984 48.8951 43.1984 48.9527 43.1984 49.0199C43.1888 49.2887 43.16 49.6151 43.1215 49.9703C43.1215 50.0471 43.1023 50.1239 43.0927 50.2007C43.0735 50.3831 43.0447 50.5655 43.0159 50.7671C43.0159 50.8151 42.9967 50.8631 42.9967 50.9111C42.9583 51.1799 42.9007 51.4583 42.8431 51.7367C42.8335 51.7943 42.8239 51.8423 42.8047 51.8999C42.7662 52.0919 42.7182 52.2838 42.6606 52.4758C42.651 52.5238 42.6318 52.5814 42.6222 52.6294C42.5838 52.7638 42.5454 52.9078 42.4974 53.0422L42.4494 53.1862C42.4301 53.2438 42.4109 53.311 42.3821 53.3686C42.3629 53.4262 42.3437 53.4742 42.3245 53.5318C42.2477 53.7526 42.1517 53.9734 42.0556 54.1846C42.0364 54.2422 42.0076 54.2902 41.9788 54.3478C41.806 54.7222 41.6043 55.0774 41.3738 55.423C41.3546 55.4518 41.3258 55.4902 41.3066 55.519C41.2586 55.5862 41.2202 55.6438 41.1722 55.7109C41.1434 55.7493 41.1146 55.7877 41.0858 55.8165C41.0762 55.8357 41.057 55.8549 41.0473 55.8645C41.0089 55.9125 40.9801 55.9509 40.9417 55.9989C40.7401 56.2293 40.5288 56.4501 40.2887 56.6517C40.2311 56.6997 40.1735 56.7477 40.1063 56.7957C40.0487 56.8437 39.991 56.8821 39.9238 56.9301C40.1063 50.7575 42.2957 48.7703 42.9871 48.2904C43.0735 48.2328 43.1888 48.2904 43.1984 48.396H43.208Z" fill="#452253"/>
</g>
<path d="M38.7687 58.2067C38.7687 58.2067 34.2746 56.9396 31.2018 55.5956C30.52 55.298 29.9054 54.9908 29.4348 54.6932C29.1852 54.5396 28.9739 54.3861 28.8107 54.2325C28.5418 53.9925 28.465 53.5989 28.6282 53.2725C29.1756 52.1877 30.9041 49.5862 35.3117 48.2134C35.3982 48.1846 35.4846 48.2518 35.4846 48.3382C35.4846 48.4822 35.4846 48.703 35.5038 48.991C35.5326 49.6342 35.619 50.575 35.8207 51.6213C36.2048 53.5413 37.021 55.7684 38.7495 56.978C38.7591 57.362 38.7687 57.7748 38.7495 58.1971L38.7687 58.2067Z" fill="#76C744"/>
<g opacity="0.6">
<path d="M35.7168 49.2309C32.0582 50.5077 30.2817 52.6868 29.6575 53.7812C29.3886 54.2612 29.5135 54.674 29.6575 54.9139C29.4078 54.7604 29.1966 54.6068 29.0333 54.4532C28.7644 54.2132 28.6876 53.8196 28.8509 53.4932C29.3982 52.4084 31.1267 49.8069 35.5344 48.4341C35.6208 48.4053 35.7072 48.4725 35.7072 48.5589C35.7072 48.7029 35.7072 48.9237 35.7264 49.2117L35.7168 49.2309Z" fill="white"/>
</g>
<g opacity="0.35">
<path d="M38.7636 58.207C38.7636 58.207 34.2695 56.9398 31.1966 55.5958L31.1582 55.4806C31.1582 55.4806 33.7605 56.3254 34.2983 55.8262C34.7784 55.3846 32.7811 53.5799 32.6658 53.4839C32.8099 53.5799 35.9884 55.8742 35.902 54.6455C35.8059 53.3879 35.4794 53.0615 35.7291 51.8135C35.7483 51.7271 35.7771 51.6695 35.8251 51.6407C36.2092 53.5607 37.0255 55.7878 38.754 56.9974C38.7636 57.3814 38.7732 57.7942 38.754 58.2166L38.7636 58.207Z" fill="#400124"/>
</g>
<path d="M39.475 59.1576L38.5627 58.8984C37.7177 58.6584 30.2851 56.5369 28.307 54.7706C27.798 54.3098 27.654 53.561 27.9613 52.9466C28.5374 51.8042 30.3908 48.9819 35.0769 47.5324C35.3362 47.4556 35.6243 47.5036 35.8355 47.6572C36.0564 47.8204 36.1812 48.0699 36.1812 48.3483C36.1812 48.9627 36.2869 54.4058 39.1485 56.3929L39.4462 56.6041V56.9689C39.4654 57.3529 39.475 57.7753 39.4654 58.2169V59.1576H39.475ZM34.7696 49.1643C31.159 50.4891 29.7186 52.6778 29.2577 53.5994C29.2384 53.6282 29.2481 53.6666 29.2673 53.6858C30.5252 54.809 35.1441 56.3641 37.8137 57.1705C35.3938 55.0297 34.8753 51.0267 34.7696 49.1643Z" fill="#400124"/>
<path d="M38.757 56.9878C35.7225 54.8759 35.492 49.596 35.4824 48.4056C35.4824 48.3 35.5977 48.2328 35.6937 48.2904C36.3851 48.7704 38.5841 50.7768 38.757 56.9782V56.9878Z" fill="#76C744"/>
<path d="M39.5188 58.3989L38.3377 57.5829C35.0728 55.3078 34.7655 49.9895 34.7559 48.4152C34.7559 48.0888 34.9287 47.8008 35.2072 47.6472C35.4953 47.4936 35.8314 47.5128 36.1002 47.6952C37.0509 48.3576 39.298 50.5847 39.4804 56.9589L39.5188 58.3989ZM36.3019 50.0183C36.4651 51.4775 36.8685 53.5318 37.8864 55.0582C37.5887 52.4951 36.9069 50.9303 36.3019 50.0183Z" fill="#452253"/>
<path d="M49.8954 54.2324C47.994 55.9412 39.9277 58.2067 39.9277 58.2067C39.9277 57.7651 39.9277 57.3427 39.9373 56.9395C39.995 56.9011 40.0622 56.8531 40.1198 56.8051C40.1774 56.7571 40.235 56.7092 40.3022 56.6612C40.5423 56.4596 40.7536 56.2484 40.9552 56.0084C40.9936 55.97 41.0321 55.922 41.0609 55.874C41.0801 55.8548 41.0897 55.8452 41.0993 55.826C41.1281 55.7876 41.1569 55.7492 41.1857 55.7204C41.2337 55.6628 41.2817 55.5956 41.3201 55.5284C41.3393 55.4996 41.3681 55.4612 41.3874 55.4324C41.6178 55.0964 41.8195 54.7316 41.9923 54.3572C42.0211 54.2996 42.0403 54.2516 42.0691 54.194C42.1652 53.9828 42.2516 53.762 42.338 53.5412C42.3572 53.4836 42.3764 53.4356 42.3956 53.378C42.4148 53.3204 42.4341 53.2533 42.4629 53.1957L42.5109 53.0517C42.5589 52.9077 42.5973 52.7733 42.6357 52.6389C42.6549 52.5909 42.6645 52.5333 42.6741 52.4853C42.7221 52.2933 42.7701 52.1013 42.8182 51.9093C42.8278 51.8517 42.8374 51.8037 42.8566 51.7461C42.9142 51.4677 42.9718 51.1893 43.0102 50.9205C43.0102 50.8725 43.0294 50.8245 43.0294 50.7765C43.0582 50.5845 43.087 50.3925 43.1062 50.2101C43.1062 50.1333 43.1254 50.0565 43.1351 49.9797C43.1735 49.615 43.1927 49.2982 43.2119 49.0294C43.2119 48.9622 43.2119 48.9046 43.2119 48.847C43.2119 48.6934 43.2119 48.5686 43.2215 48.463C43.2215 48.4438 43.2215 48.4246 43.2215 48.415V48.3574C43.2215 48.271 43.3079 48.2038 43.3943 48.2326C47.8116 49.5958 49.5305 52.2069 50.0778 53.2821C50.2411 53.6084 50.1739 54.002 49.8954 54.242V54.2324Z" fill="#76C744"/>
<path d="M43.2119 48.3957C43.2119 48.3957 43.2119 48.4341 43.2119 48.4533C43.2119 48.5589 43.2119 48.6837 43.2023 48.8373C43.2023 48.8949 43.2023 48.9525 43.2023 49.0197C43.1927 49.2885 43.1639 49.6149 43.1255 49.9701C43.1255 50.0469 43.1062 50.1237 43.0966 50.2005C43.0774 50.3829 43.0486 50.5653 43.0198 50.7668C43.0198 50.8148 43.0006 50.8628 43.0006 50.9108C42.9622 51.1796 42.9046 51.458 42.847 51.7364C42.8374 51.794 42.8278 51.842 42.8086 51.8996C42.7701 52.0916 42.7221 52.2836 42.6645 52.4756C42.6549 52.5236 42.6357 52.5812 42.6261 52.6292C42.5877 52.7636 42.5493 52.9076 42.5013 53.042L42.4533 53.186C42.4341 53.2436 42.4148 53.3108 42.386 53.3684C42.3668 53.426 42.3476 53.474 42.3284 53.5316C42.2516 53.7524 42.1556 53.9732 42.0595 54.1843C42.0403 54.2419 42.0115 54.2899 41.9827 54.3475C41.8099 54.7219 41.6082 55.0771 41.3777 55.4227C41.3585 55.4515 41.3297 55.4899 41.3105 55.5187C41.2625 55.5859 41.2241 55.6435 41.1761 55.7107C41.1473 55.7491 41.1185 55.7875 41.0897 55.8163C41.0801 55.8355 41.0609 55.8547 41.0513 55.8643C41.0128 55.9123 40.984 55.9507 40.9456 55.9987C40.744 56.2291 40.5327 56.4499 40.2926 56.6515C40.235 56.6995 40.1774 56.7475 40.1102 56.7955C40.0526 56.8435 39.995 56.8819 39.9277 56.9299C40.1102 50.7572 42.2996 48.7701 42.991 48.2901C43.0774 48.2325 43.1927 48.2901 43.2023 48.3957H43.2119Z" fill="#5E992F"/>
<path d="M43.2119 48.3957C43.2119 48.3957 43.2119 48.4341 43.2119 48.4533C43.2119 48.5589 43.2119 48.6837 43.2023 48.8373C43.2023 48.8949 43.2023 48.9525 43.2023 49.0197C43.1927 49.2885 43.1639 49.6149 43.1255 49.9701C43.1255 50.0469 43.1062 50.1237 43.0966 50.2005C43.0774 50.3829 43.0486 50.5653 43.0198 50.7668C43.0198 50.8148 43.0006 50.8628 43.0006 50.9108C42.9622 51.1796 42.9046 51.458 42.847 51.7364C42.8374 51.794 42.8278 51.842 42.8086 51.8996C42.7701 52.0916 42.7221 52.2836 42.6645 52.4756C42.6549 52.5236 42.6357 52.5812 42.6261 52.6292C42.5877 52.7636 42.5493 52.9076 42.5013 53.042L42.4533 53.186C42.4341 53.2436 42.4148 53.3108 42.386 53.3684C42.3668 53.426 42.3476 53.474 42.3284 53.5316C42.2516 53.7524 42.1556 53.9732 42.0595 54.1843C42.0403 54.2419 42.0115 54.2899 41.9827 54.3475C41.8099 54.7219 41.6082 55.0771 41.3777 55.4227C41.3585 55.4515 41.3297 55.4899 41.3105 55.5187C41.2625 55.5859 41.2241 55.6435 41.1761 55.7107C41.1473 55.7491 41.1185 55.7875 41.0897 55.8163C41.0801 55.8355 41.0609 55.8547 41.0513 55.8643C41.0128 55.9123 40.984 55.9507 40.9456 55.9987C40.744 56.2291 40.5327 56.4499 40.2926 56.6515C40.235 56.6995 40.1774 56.7475 40.1102 56.7955C40.0526 56.8435 39.995 56.8819 39.9277 56.9299C40.1102 50.7572 42.2996 48.7701 42.991 48.2901C43.0774 48.2325 43.1927 48.2901 43.2023 48.3957H43.2119Z" fill="#76C744"/>
<g opacity="0.35">
<path d="M38.755 56.9879C35.7205 54.876 35.4901 49.5961 35.4805 48.4058C35.4805 48.3002 35.5957 48.233 35.6917 48.2906C36.3831 48.7705 38.5822 50.7769 38.755 56.9783V56.9879Z" fill="#400124"/>
</g>
<g opacity="0.35">
<path d="M43.208 48.396C43.208 48.396 43.208 48.4344 43.208 48.4536C43.208 48.5592 43.208 48.684 43.1984 48.8375C43.1984 48.8951 43.1984 48.9527 43.1984 49.0199C43.1888 49.2887 43.16 49.6151 43.1215 49.9703C43.1215 50.0471 43.1023 50.1239 43.0927 50.2007C43.0735 50.3831 43.0447 50.5655 43.0159 50.7671C43.0159 50.8151 42.9967 50.8631 42.9967 50.9111C42.9583 51.1799 42.9007 51.4583 42.8431 51.7367C42.8335 51.7943 42.8239 51.8423 42.8047 51.8999C42.7662 52.0919 42.7182 52.2838 42.6606 52.4758C42.651 52.5238 42.6318 52.5814 42.6222 52.6294C42.5838 52.7638 42.5454 52.9078 42.4974 53.0422L42.4494 53.1862C42.4301 53.2438 42.4109 53.311 42.3821 53.3686C42.3629 53.4262 42.3437 53.4742 42.3245 53.5318C42.2477 53.7526 42.1517 53.9734 42.0556 54.1846C42.0364 54.2422 42.0076 54.2902 41.9788 54.3478C41.806 54.7222 41.6043 55.0774 41.3738 55.423C41.3546 55.4518 41.3258 55.4902 41.3066 55.519C41.2586 55.5862 41.2202 55.6438 41.1722 55.7109C41.1434 55.7493 41.1146 55.7877 41.0858 55.8165C41.0762 55.8357 41.057 55.8549 41.0473 55.8645C41.0089 55.9125 40.9801 55.9509 40.9417 55.9989C40.7401 56.2293 40.5288 56.4501 40.2887 56.6517C40.2311 56.6997 40.1735 56.7477 40.1063 56.7957C40.0487 56.8437 39.991 56.8821 39.9238 56.9301C40.1063 50.7575 42.2957 48.7703 42.9871 48.2904C43.0735 48.2328 43.1888 48.2904 43.1984 48.396H43.208Z" fill="#400124"/>
</g>
<path d="M39.5188 58.3989L38.3377 57.5829C35.0728 55.3078 34.7655 49.9895 34.7559 48.4152C34.7559 48.0888 34.9287 47.8008 35.2072 47.6472C35.4953 47.4936 35.8314 47.5128 36.1002 47.6952C37.0509 48.3576 39.298 50.5847 39.4804 56.9589L39.5188 58.3989ZM36.3019 50.0183C36.4651 51.4775 36.8685 53.5318 37.8864 55.0582C37.5887 52.4951 36.9069 50.9303 36.3019 50.0183Z" fill="#400124"/>
<path d="M39.1699 58.3511L39.2083 56.9111C39.4004 50.5753 41.6282 48.3578 42.5789 47.6954C42.8382 47.513 43.1743 47.4938 43.4527 47.6282C43.7312 47.7626 43.9137 48.041 43.9329 48.3578V48.4058C43.9329 48.4058 43.9329 48.4538 43.9329 48.4826C43.9329 48.5882 43.9329 48.7226 43.9233 48.8665C43.9233 48.9145 43.9233 48.9817 43.9233 49.0585C43.9137 49.3657 43.8849 49.7017 43.8465 50.0473V50.0665C43.8369 50.1337 43.8273 50.2105 43.8177 50.2873C43.7984 50.4697 43.7696 50.6713 43.7408 50.8729C43.7408 50.9209 43.7216 50.9689 43.7216 51.0265C43.6736 51.3049 43.6256 51.6025 43.5584 51.8905C43.5584 51.9289 43.5392 51.9769 43.5296 52.0249V52.0537C43.472 52.2744 43.4239 52.476 43.3759 52.668C43.3663 52.716 43.3471 52.764 43.3375 52.8216C43.2991 52.9752 43.2511 53.1192 43.2031 53.2728L43.1551 53.4264C43.1359 53.4936 43.107 53.5704 43.0782 53.6376C43.059 53.6856 43.0398 53.7432 43.0206 53.8008C42.9246 54.0504 42.8382 54.2808 42.7325 54.5016C42.7037 54.5688 42.6749 54.6264 42.6557 54.6744C42.4637 55.0872 42.2428 55.4808 41.9931 55.8359L41.9163 55.9415C41.8683 56.0087 41.8203 56.0759 41.7627 56.1527L41.6762 56.2679C41.6762 56.2679 41.6378 56.3159 41.6186 56.3351C41.5802 56.3831 41.5418 56.4311 41.4938 56.4791C41.2729 56.7383 41.0233 56.9879 40.764 57.2087C40.7064 57.2663 40.6295 57.3143 40.5623 57.3719C40.5047 57.4199 40.4279 57.4679 40.3607 57.5255L39.1795 58.3511H39.1699ZM42.3868 50.0185C41.7819 50.9305 41.1001 52.476 40.8024 55.0008C40.9944 54.7224 41.1769 54.396 41.3401 54.0504C41.3593 54.0024 41.3786 53.9544 41.4074 53.916C41.5034 53.7144 41.5802 53.5128 41.657 53.292C41.6762 53.244 41.6954 53.196 41.705 53.148C41.7339 53.0808 41.7435 53.0232 41.7627 52.9752L41.8107 52.8312C41.8491 52.7064 41.8875 52.572 41.9259 52.4472C41.9451 52.3896 41.9547 52.3512 41.9643 52.3032C42.0123 52.1209 42.0604 51.9481 42.0988 51.7465V51.7177C42.0988 51.7177 42.118 51.6409 42.1276 51.6025C42.1852 51.3337 42.2332 51.0649 42.2716 50.8057C42.2716 50.7577 42.2908 50.7193 42.2908 50.6713C42.3196 50.4793 42.3484 50.2969 42.3676 50.1241C42.3676 50.0857 42.3676 50.0569 42.3772 50.0281L42.3868 50.0185Z" fill="#400124"/>
<g opacity="0.35">
<path d="M39.9409 58.2067C39.9409 58.2067 44.435 56.9395 47.5079 55.5956L47.5463 55.4804C47.5463 55.4804 44.944 56.3252 44.4062 55.826C43.9261 55.3844 45.9234 53.5796 46.0387 53.4836C45.8946 53.5796 42.7161 55.874 42.8026 54.6452C42.8986 53.3876 43.2251 53.0613 42.9754 51.8133C42.9562 51.7269 42.9274 51.6693 42.8794 51.6405C42.4953 53.5604 41.679 55.7876 39.9505 56.9971C39.9409 57.3811 39.9313 57.7939 39.9505 58.2163L39.9409 58.2067Z" fill="#400124"/>
</g>
<path d="M37.416 57.5829C37.416 56.4981 38.2899 55.6245 39.375 55.6245C40.4601 55.6245 41.3339 56.4981 41.3339 57.5829" fill="#5E992F"/>
<path d="M37.416 57.5829C37.416 56.4981 38.2899 55.6245 39.375 55.6245C40.4601 55.6245 41.3339 56.4981 41.3339 57.5829" fill="#76C744"/>
<g opacity="0.6">
<path d="M42.9823 49.231C46.6409 50.5078 48.4174 52.6869 49.0416 53.7813C49.3105 54.2613 49.1856 54.6741 49.0416 54.9141C49.2913 54.7605 49.5025 54.6069 49.6658 54.4533C49.9346 54.2133 50.0115 53.8197 49.8482 53.4933C49.3009 52.4085 47.5724 49.807 43.1647 48.4343C43.0783 48.4055 42.9919 48.4727 42.9919 48.559C42.9919 48.703 42.9919 48.9238 42.9727 49.2118L42.9823 49.231Z" fill="white"/>
</g>
<path d="M39.9285 58.9269C39.6116 58.9269 39.3236 58.7157 39.2275 58.399C39.1219 58.015 39.3428 57.6118 39.7269 57.5062C41.9259 56.8918 47.9468 55.0006 49.4065 53.6951C49.4353 53.6759 49.4353 53.6375 49.4257 53.6087C48.9551 52.6871 47.5147 50.4984 43.9137 49.1736C43.8945 49.452 43.8753 49.7496 43.8465 50.0568V50.076C43.8369 50.1432 43.8273 50.22 43.8177 50.2968C43.7984 50.4792 43.7696 50.6808 43.7408 50.8824C43.7408 50.9304 43.7216 50.9784 43.7216 51.036C43.6736 51.3144 43.6256 51.6119 43.5584 51.8999C43.5584 51.9383 43.5392 51.9863 43.5296 52.0343V52.0631C43.472 52.2839 43.4239 52.4855 43.3759 52.6775C43.3663 52.7255 43.3471 52.7735 43.3375 52.8311C43.2991 52.9847 43.2511 53.1287 43.2031 53.2823L43.1551 53.4359C43.1359 53.5031 43.107 53.5799 43.0782 53.6471C43.059 53.6951 43.0398 53.7527 43.0206 53.8103C42.9246 54.0599 42.8382 54.2903 42.7325 54.5111C42.7037 54.5783 42.6749 54.6359 42.6557 54.6839C42.4637 55.0966 42.2428 55.4902 41.9931 55.8454L41.9163 55.951C41.8683 56.0182 41.8203 56.0854 41.7627 56.1622L41.6762 56.2774C41.6762 56.2774 41.6378 56.3254 41.6186 56.3446C41.5802 56.3926 41.5418 56.4406 41.4938 56.4886C41.465 56.5174 41.4266 56.5654 41.3882 56.6038C41.1193 56.9014 40.668 56.9302 40.3607 56.6614C40.063 56.3926 40.0342 55.9414 40.303 55.6342C40.3319 55.6054 40.3607 55.567 40.3895 55.5382C40.4279 55.4902 40.4567 55.4614 40.4855 55.423L40.6103 55.2694C40.6103 55.2694 40.6872 55.1734 40.7256 55.1158L40.8024 55.0102C40.9944 54.7319 41.1769 54.4055 41.3401 54.0503C41.3593 54.0023 41.3786 53.9543 41.4074 53.9159C41.5034 53.7143 41.5802 53.5127 41.657 53.2919C41.6762 53.2439 41.6954 53.1959 41.705 53.1479C41.7339 53.0807 41.7435 53.0231 41.7627 52.9751L41.8107 52.8311C41.8491 52.7063 41.8875 52.5719 41.9259 52.4471C41.9451 52.3895 41.9547 52.3511 41.9643 52.3031C42.0123 52.1207 42.0604 51.9479 42.0988 51.7463V51.7175C42.0988 51.7175 42.118 51.6407 42.1276 51.6023C42.1852 51.3336 42.2332 51.0648 42.2716 50.8056C42.2716 50.7576 42.2908 50.7192 42.2908 50.6712C42.3196 50.4792 42.3484 50.2968 42.3676 50.124C42.3676 50.0472 42.3868 49.9896 42.3868 49.9224V49.8936C42.4253 49.5768 42.4445 49.2696 42.4637 48.9816C42.4637 48.9144 42.4637 48.8664 42.4637 48.8184C42.4637 48.6648 42.4637 48.54 42.4733 48.444V48.4056V48.348C42.4733 48.0792 42.6077 47.8201 42.819 47.6569C43.0398 47.4937 43.3279 47.4457 43.5872 47.5321C48.2637 48.9816 50.1267 51.8039 50.7028 52.9463C51.0101 53.5607 50.8757 54.3095 50.3571 54.7703C48.3886 56.5366 40.9464 58.6581 40.1014 58.8981C40.0342 58.9173 39.967 58.9269 39.9093 58.9269H39.9285Z" fill="#400124"/>
<path d="M41.4894 58.3215C41.1245 58.3215 40.8268 58.024 40.8268 57.6592C40.8268 56.8624 40.1738 56.2096 39.3768 56.2096C38.5797 56.2096 37.9267 56.8624 37.9267 57.6592C37.9267 58.024 37.6291 58.3215 37.2642 58.3215C36.8992 58.3215 36.6016 58.024 36.6016 57.6592C36.6016 56.1232 37.8499 54.8752 39.3864 54.8752C40.9228 54.8752 42.1712 56.1232 42.1712 57.6592C42.1712 58.024 41.8735 58.3215 41.5086 58.3215H41.4894Z" fill="#400124"/>
<path d="M38.0083 57.8135C37.9507 57.8135 37.9027 57.8039 37.8451 57.7751C37.6626 57.6887 37.5762 57.4775 37.6626 57.2951C37.7491 57.1127 37.9507 57.0263 38.1332 57.1127L38.1716 57.1319C38.3444 57.2183 38.4212 57.4391 38.3252 57.6215C38.258 57.7463 38.1332 57.8231 37.9987 57.8231L38.0083 57.8135Z" fill="#452253"/>
<path d="M38.5994 66.2896H32.1367V57.0835H38.5994V66.2896ZM32.8665 65.5697H37.8792V57.8131H32.8665V65.5697Z" fill="#452253"/>
<path d="M55.7141 57.6694V65.6275C55.7141 65.7907 55.5605 65.9251 55.378 65.9251H24.1403C23.4969 65.9251 22.9688 65.4739 22.9688 64.9076V58.4565C22.9688 57.8998 23.4873 57.439 24.1403 57.439H55.4549C55.5989 57.439 55.7141 57.5446 55.7141 57.6694Z" fill="#DB2B2B"/>
<g opacity="0.6">
<path d="M55.3684 57.6696V58.8792C55.3684 58.7544 55.2532 58.6488 55.1092 58.6488H48.8866C49.6644 58.8696 50.1733 59.2248 50.1733 59.6279C50.1733 60.2999 48.7713 60.8375 47.0428 60.8375C45.3144 60.8375 43.9123 60.2999 43.9123 59.6279C43.9123 59.2248 44.4213 58.8696 45.1991 58.6488H25.8304C24.8989 58.6488 24.1403 59.3016 24.1403 60.1079V61.2311C24.1403 61.9319 23.6601 62.5271 22.9688 62.7959V58.4568C22.9688 57.9 23.4873 57.4392 24.1403 57.4392H55.1092C55.2532 57.4392 55.3684 57.5352 55.3684 57.6696Z" fill="white"/>
</g>
<g opacity="0.25">
<path d="M55.645 58.3701V65.8099H53.8108V65.7523H24.6665C24.0423 65.7523 23.543 65.3011 23.543 64.7347V62.786C23.543 63.3428 24.0519 63.8035 24.6665 63.8035H51.0356C52.5721 63.8035 53.8204 62.7188 53.8204 61.3844V57.1893H54.483C55.136 57.1893 55.6546 57.7173 55.6546 58.3605L55.645 58.3701Z" fill="#400124"/>
</g>
<path d="M42.2582 57.4482H36.5254V65.9248H42.2582V57.4482Z" fill="#76C744"/>
<g opacity="0.6">
<path d="M42.2602 57.4487H36.5273V58.6967H42.2602V57.4487Z" fill="white"/>
</g>
<path d="M54.448 66.6545H23.9113C22.999 66.6545 22.25 65.9057 22.25 64.9938V58.3891C22.25 57.4772 22.999 56.7284 23.9113 56.7284H54.5152C54.9666 56.7284 55.3795 56.9012 55.6964 57.218C56.0133 57.5348 56.1861 57.9572 56.1765 58.3987L56.1189 65.0034C56.1189 65.9153 55.3603 66.6545 54.4576 66.6545H54.448ZM23.9113 58.1684C23.796 58.1684 23.7 58.2644 23.7 58.3795V64.9842C23.7 65.0993 23.796 65.1953 23.9113 65.1953H54.448C54.5633 65.1953 54.6593 65.0993 54.6593 64.9842L54.7169 58.3795C54.7169 58.3027 54.6881 58.2548 54.6593 58.226C54.6305 58.1972 54.5825 58.1587 54.5056 58.1587H23.9113V58.1684Z" fill="#400124"/>
<g opacity="0.2">
<path d="M42.2602 63.7937H36.5273V65.8096H42.2602V63.7937Z" fill="#452253"/>
</g>
<path d="M42.9914 66.6545H35.8086V56.7284H42.9914V66.6545ZM37.2586 65.2049H41.5414V58.1684H37.2586V65.2049Z" fill="#400124"/>
<path d="M22.407 69.5148C22.9832 67.7388 24.7693 66.1453 24.7693 66.1453L24.923 69.678C24.923 69.678 30.8287 67.4316 32.0962 71.3195C33.3926 75.2938 34.0168 83.8855 24.7693 83.06C24.7693 83.06 19.6799 77.9433 22.407 69.5148Z" fill="white"/>
<g opacity="0.25">
<path d="M24.769 83.0702C24.769 83.0702 20.5726 78.8559 21.8401 71.7617C21.917 73.2017 22.1954 74.4688 22.5699 75.544C24.308 80.5263 31.5197 80.1903 32.7777 75.064C32.7777 75.0352 32.7873 75.0064 32.7969 74.9776C33.085 79.0287 31.6926 83.6942 24.7594 83.0702H24.769Z" fill="#400124"/>
</g>
<path d="M25.9777 83.8473C25.5648 83.8473 25.1422 83.8281 24.7005 83.7897C24.5277 83.7705 24.374 83.7033 24.2492 83.5785C24.0283 83.3577 18.8812 78.049 21.7141 69.2941C22.3382 67.3549 24.2108 65.6846 24.2876 65.6078C24.4989 65.4254 24.7965 65.3774 25.0462 65.483C25.3055 65.5886 25.4783 65.8382 25.4879 66.1166L25.6032 68.7085C26.8515 68.3725 29.089 67.9789 30.7983 68.7949C31.7681 69.2557 32.4403 70.0333 32.786 71.0988C33.7655 74.1131 34.14 78.6058 31.9314 81.3705C30.6254 83.0121 28.628 83.8377 25.9777 83.8377V83.8473ZM25.1134 82.3689C27.7446 82.5513 29.6555 81.9177 30.8079 80.4778C32.7764 78.001 32.1138 73.7004 31.4128 71.5596C31.192 70.878 30.7887 70.398 30.1837 70.1101C28.3015 69.2077 25.2191 70.3501 25.1902 70.3693C24.9694 70.4556 24.7293 70.4268 24.5373 70.2925C24.3452 70.1677 24.2204 69.9565 24.2108 69.7165L24.1339 67.9309C23.7306 68.4493 23.3177 69.0925 23.1065 69.7453C20.8306 76.7915 24.2972 81.4089 25.123 82.3689H25.1134Z" fill="#400124"/>
<path d="M73.0775 61.0189C65.4337 69.9563 55.0339 68.3051 53.9296 68.2955C52.1915 68.2763 47.1116 68.6699 45.7096 71.9626C43.6546 76.7721 45.748 81.0823 49.157 82.1575C50.4726 82.5703 53.5071 81.9079 53.5071 81.9079C53.5071 81.9079 71.6659 83.7799 74.8732 74.3049" fill="white"/>
<g opacity="0.25">
<path d="M74.1954 74.3052C70.9977 83.7801 52.8293 81.9082 52.8293 81.9082C52.8293 81.9082 49.7948 82.5706 48.4792 82.1578C45.1375 81.1018 43.0633 76.9643 44.8974 72.2797C45.0799 75.1884 46.165 78.0011 48.4696 78.8651C50.9855 79.8154 52.5988 78.9035 54.3081 78.9035C56.0174 78.9035 66.4844 81.4666 73.408 74.0556C73.6672 73.7772 74.1378 73.9308 74.1858 74.3052H74.1954Z" fill="#400124"/>
</g>
<path d="M72.6864 61.2593C72.5616 61.4801 72.4175 61.6913 72.2831 61.9025C72.2063 62.0081 72.139 62.1137 72.0622 62.2192L71.8221 62.5168C71.6685 62.7184 71.4956 62.9104 71.3324 63.1024C71.1595 63.2848 70.9771 63.4672 70.8042 63.6496C70.6314 63.832 70.4297 63.9952 70.2377 64.168C70.0456 64.3312 69.8536 64.504 69.6423 64.6576C69.4407 64.8112 69.239 64.9744 69.0373 65.1184L68.4036 65.56C66.7039 66.6927 64.8409 67.5951 62.882 68.1999C60.9326 68.8143 58.8968 69.1406 56.8611 69.2174C55.8432 69.2558 54.8157 69.227 53.817 69.1598L53.4521 69.1311C53.3176 69.1311 53.2696 69.1214 53.1352 69.1214C52.9047 69.1214 52.6743 69.1214 52.4438 69.1406C51.9733 69.1694 51.5123 69.2174 51.0514 69.2846C50.1295 69.419 49.2269 69.6494 48.3914 69.995C47.5656 70.3406 46.8166 70.8206 46.3076 71.4446C46.25 71.5214 46.1828 71.5982 46.1252 71.6846C46.0676 71.771 46.0099 71.8478 45.9619 71.9342C45.9043 72.0206 45.8659 72.107 45.8275 72.203C45.7795 72.2894 45.7411 72.4046 45.7027 72.5101C45.6258 72.7213 45.5394 72.9325 45.4626 73.1533L45.2801 73.8061C45.0689 74.6893 44.9921 75.5917 45.0785 76.4652C45.1649 77.3484 45.405 78.2028 45.8275 78.9612C46.2404 79.7195 46.8358 80.3819 47.5464 80.8523L47.6808 80.9483C47.6808 80.9483 47.7769 80.9963 47.8249 81.0251L48.1033 81.1787C48.1898 81.2363 48.2954 81.2651 48.3914 81.3035L48.6891 81.4187C48.9964 81.5243 49.4477 81.5435 49.8991 81.5435C50.8113 81.5243 51.7812 81.3899 52.6935 81.2171L52.8183 81.1883H52.9239V81.1979C53.3945 81.2363 53.9034 81.2459 54.3931 81.2651C54.8925 81.2843 55.3822 81.2939 55.8816 81.2939C56.8707 81.2939 57.8693 81.2555 58.8584 81.2075C60.8366 81.0923 62.8052 80.8523 64.7065 80.4107C65.6572 80.1899 66.5982 79.9211 67.5009 79.5755C68.4036 79.23 69.2774 78.8268 70.0744 78.318C70.8811 77.8092 71.5917 77.2044 72.2351 76.5228C72.8784 75.8413 73.397 75.0637 73.8771 74.1997C73.9732 74.0173 74.194 73.9501 74.3765 74.0461C74.5205 74.1229 74.5877 74.2765 74.5589 74.4301C74.3765 75.4765 73.9155 76.494 73.2529 77.3676C72.6 78.2412 71.7741 78.9612 70.8811 79.5563C69.095 80.7467 67.088 81.4763 65.0714 81.9659C64.0631 82.2155 63.0356 82.3883 62.0177 82.5323C60.9902 82.6667 59.9723 82.7627 58.9449 82.8107C57.9174 82.8683 56.8899 82.8683 55.8624 82.8491C54.8349 82.8203 53.8266 82.7723 52.7799 82.6571L53.0104 82.6475C52.4918 82.7626 52.0021 82.849 51.4931 82.9258C50.9842 83.0026 50.4752 83.0602 49.9375 83.0794C49.803 83.0794 49.6686 83.0794 49.5342 83.0794C49.3997 83.0794 49.2557 83.0794 49.1212 83.0602C48.9868 83.0602 48.8332 83.0314 48.6795 83.0122C48.5355 82.9834 48.353 82.945 48.2186 82.897L47.8249 82.753C47.6904 82.7051 47.556 82.6571 47.4408 82.5899L47.0663 82.3979C47.0086 82.3691 46.9414 82.3307 46.8838 82.3019L46.7109 82.1867C45.7699 81.5819 45.0017 80.7275 44.4639 79.7675C43.9165 78.8076 43.5997 77.7324 43.494 76.6572C43.3884 75.5725 43.494 74.4877 43.7341 73.4509L43.9454 72.6829C44.0318 72.4334 44.1278 72.1838 44.2238 71.9342C44.3103 71.6942 44.4351 71.4158 44.5791 71.1662C44.6464 71.0414 44.7328 70.9166 44.8096 70.7918C44.8864 70.667 44.9825 70.5614 45.0689 70.4462C45.8083 69.5438 46.7878 68.9487 47.7769 68.5263C48.7755 68.1135 49.7934 67.8639 50.8209 67.7103C51.3395 67.6335 51.8484 67.5759 52.367 67.5567C52.6262 67.5471 52.8855 67.5375 53.1544 67.5375C53.2696 67.5375 53.4713 67.5375 53.5769 67.5567L53.9514 67.5855C54.9117 67.6623 55.8624 67.6911 56.8226 67.6623C58.7336 67.6047 60.6253 67.3071 62.4499 66.7599C64.2744 66.2223 66.0125 65.4064 67.6065 64.3792C69.2006 63.3328 70.5834 62.0465 72.1486 60.8369C72.3119 60.7121 72.5423 60.7409 72.6672 60.8945C72.7632 61.0193 72.7632 61.1825 72.696 61.3073L72.6864 61.2593Z" fill="#400124"/>
<path d="M66.2023 81.5436C66.1255 81.5436 66.0391 81.534 65.9622 81.5052C65.5877 81.3708 65.3861 80.9581 65.5205 80.5837C68.3821 72.4143 63.8688 67.624 63.6768 67.432C63.3983 67.1441 63.4079 66.6833 63.6864 66.4049C63.9745 66.1265 64.4258 66.1265 64.7043 66.4145C64.9251 66.6353 70.0434 72.0111 66.8745 81.0637C66.7689 81.3612 66.4904 81.5532 66.1927 81.5532L66.2023 81.5436Z" fill="#400124"/>
<g opacity="0.5">
<path d="M82.9525 37.8664C83.9502 35.3589 83.3368 32.7606 81.5824 32.0631C79.8281 31.3655 77.5971 32.8328 76.5994 35.3403C75.6017 37.8479 76.2152 40.4461 77.9695 41.1437C79.7239 41.8412 81.9548 40.374 82.9525 37.8664Z" fill="white"/>
</g>
<g opacity="0.5">
<path d="M75.2714 46.0519C75.841 44.9557 75.5626 43.6826 74.6496 43.2085C73.7366 42.7344 72.5346 43.2387 71.965 44.3349C71.3954 45.4311 71.6738 46.7042 72.5868 47.1783C73.4998 47.6525 74.7018 47.1481 75.2714 46.0519Z" fill="white"/>
</g>
<g opacity="0.5">
<path d="M40.0139 38.7769C40.0139 38.7769 38.852 24.0893 47.216 20.1246C55.58 16.16 65.8933 18.3967 65.4996 19.0303C65.4996 19.0303 53.4578 19.4527 46.9471 27.8524C41.9249 34.3322 40.0139 38.7769 40.0139 38.7769Z" fill="white"/>
</g>
</svg>
