<svg width="113" height="128" viewBox="0 0 113 128" fill="none" xmlns="http://www.w3.org/2000/svg">
<ellipse cx="56.7276" cy="56.7268" rx="55.9991" ry="56.7263" fill="white"/>
<path d="M40.4093 91.8927C40.4093 91.8927 47.5054 97.6412 43.7582 105.199C40.0213 112.747 31.0874 111.558 29.3517 115.404C31.0772 111.568 24.3385 105.509 27.5241 97.7032C30.7096 89.8972 39.6435 91.5515 39.6435 91.5515" fill="#BF067D"/>
<path d="M39.2205 93.5264C37.689 93.3713 33.2476 93.3299 31.5323 97.5586C30.2254 100.764 31.3076 103.607 32.4614 106.616C32.5941 106.967 32.7269 107.308 32.8596 107.66C33.2067 107.525 33.5539 107.401 33.901 107.277C36.9028 106.181 39.731 105.148 41.2728 102.046C43.2944 97.9722 40.3743 94.612 39.2409 93.516L39.2205 93.5264Z" fill="#E5912E"/>
<path d="M38.893 94.2298C38.0456 94.1471 35.6054 94.1264 34.666 96.4527C33.9513 98.2104 34.5435 99.7819 35.1765 101.436C35.248 101.622 35.3195 101.819 35.3909 102.015C35.5849 101.943 35.7687 101.87 35.9627 101.808C37.6168 101.209 39.1687 100.64 40.0161 98.9341C41.1291 96.6905 39.5261 94.8398 38.893 94.2402V94.2298Z" fill="#FFA233"/>
<path d="M29.3542 116.376C29.2215 116.376 29.0887 116.345 28.956 116.283C28.5987 116.117 28.3944 115.766 28.3944 115.394C28.3944 115.259 28.4251 115.125 28.4863 114.991C29.0377 113.76 28.3434 111.92 27.5368 109.79C26.2503 106.419 24.6473 102.222 26.6485 97.321C28.0779 93.8057 30.8959 91.5621 34.8064 90.8177C37.6857 90.2698 40.1259 90.735 40.228 90.7557C40.3812 90.7867 40.5139 90.8487 40.6364 90.9418C40.7181 91.0038 42.6683 92.565 44.1487 95.1291C46.1499 98.6031 46.3235 102.232 44.6388 105.634C42.2905 110.369 38.1145 111.899 34.7554 113.129C32.6419 113.905 30.8143 114.567 30.2527 115.807C30.0893 116.169 29.7422 116.376 29.3746 116.376H29.3542ZM37.6142 92.4927C34.8779 92.4927 30.365 93.2784 28.4149 98.0654C26.7098 102.242 28.0984 105.882 29.3236 109.087C29.8341 110.421 30.3037 111.672 30.508 112.83C31.5085 112.22 32.744 111.765 34.0815 111.279C37.2773 110.11 40.9019 108.787 42.9031 104.744C45.9457 98.6134 40.6671 93.5472 39.6154 92.6167C39.2581 92.565 38.5433 92.472 37.6244 92.472L37.6142 92.4927Z" fill="#400124"/>
<path d="M30.2328 115.807L23.9434 127.893C23.831 128.11 23.4941 127.966 23.586 127.728L28.4767 115C29.0178 113.749 30.8046 114.576 30.2328 115.807Z" fill="#400124"/>
<path d="M36.5078 58.8282C36.5078 58.8282 14.6172 57.6082 23.4388 81.1917C23.4388 81.1917 26.2057 69.5188 36.13 71.049L36.5078 58.8282Z" fill="#BF067D"/>
<g opacity="0.6">
<path d="M36.452 61.1132L36.5234 58.8282C36.5234 58.8282 14.6328 57.6082 23.4544 81.1917C23.4544 81.1917 23.4646 81.14 23.485 81.0573C17.8695 62.7364 32.5312 61.2062 36.452 61.1235V61.1132Z" fill="white"/>
</g>
<path d="M23.4529 82.1638C23.0547 82.1638 22.6973 81.9157 22.5544 81.5331C19.6343 73.7271 19.6751 67.6684 22.6769 63.5121C27.0979 57.4017 36.185 57.8256 36.5729 57.8463C37.0937 57.8773 37.5021 58.3218 37.4817 58.8491L37.1039 71.0699C37.1039 71.3491 36.9711 71.6076 36.7567 71.7937C36.5423 71.9695 36.2666 72.0522 35.991 72.0108C32.2745 71.4422 29.2114 72.8069 26.8835 76.0637C25.0661 78.6071 24.3922 81.3884 24.382 81.409C24.2799 81.8226 23.9226 82.1224 23.5039 82.1535C23.4835 82.1535 23.4631 82.1535 23.4427 82.1535L23.4529 82.1638ZM35.5213 59.8003C33.2138 59.8727 27.2613 60.462 24.2187 64.6701C21.952 67.8028 21.707 72.3623 23.4631 78.2246C23.8919 77.2424 24.4943 76.0948 25.2805 74.9678C27.8126 71.4008 31.2228 69.6845 35.2048 69.9533L35.5213 59.79V59.8003Z" fill="#400124"/>
<path d="M66.8648 72.8484C66.8648 72.8484 82.1188 88.7913 58.7477 97.4968C58.7477 97.4968 65.6396 87.7367 57.9922 81.1403L66.8648 72.8484Z" fill="#BF067D"/>
<g opacity="0.3">
<path d="M59.2739 96.6699C60.7237 94.1782 64.3177 86.5789 58.0078 81.1406L64.2054 75.3403C67.0132 79.0727 72.9759 89.4532 59.2739 96.6699Z" fill="#400124"/>
</g>
<path d="M58.7446 98.479C58.4485 98.479 58.1626 98.3446 57.9788 98.0964C57.7236 97.7552 57.7134 97.29 57.9584 96.9385C57.9788 96.9178 59.6023 94.5708 60.3068 91.5208C61.2155 87.6023 60.2251 84.3558 57.3662 81.8951C57.1518 81.7193 57.0293 81.4505 57.0293 81.1713C57.0293 80.8922 57.1314 80.6234 57.3356 80.4373L66.2082 72.1453C66.5962 71.7834 67.1884 71.8041 67.556 72.1867C67.8214 72.4658 74.1007 79.1345 72.4364 86.527C71.3031 91.5415 66.8106 95.553 59.0815 98.4273C58.9692 98.4686 58.8569 98.4893 58.7446 98.4893V98.479ZM59.4083 81.1507C62.2161 84.0146 63.1758 87.7573 62.1752 92.0274C61.8587 93.3715 61.389 94.5811 60.9398 95.553C66.4737 93.051 69.7001 89.8769 70.5578 86.0824C71.7013 80.9956 68.2503 76.0535 66.7902 74.2545L59.4185 81.1507H59.4083Z" fill="#400124"/>
<path d="M47.9569 74.12L58.8818 79.1655L52.4596 86.4338C50.8566 88.2535 48.2734 88.8015 46.0782 87.7883L42.5251 86.1443L38.972 84.5004C36.7768 83.4872 35.5005 81.1506 35.8068 78.7312L37.032 69.0538L47.9569 74.0993" fill="#007F5E"/>
<g opacity="0.3">
<path d="M49.1108 74.6577L43.3625 81.1817C41.7595 83.0014 39.1763 83.5493 36.9811 82.5361L36.5625 82.3397C37.1241 83.2702 37.9409 84.0353 38.9721 84.5109L42.5252 86.1548L46.0784 87.7987C48.2735 88.8119 50.8567 88.264 52.4597 86.4443L58.8819 79.1759L49.1108 74.6577Z" fill="#400124"/>
</g>
<path d="M48.3818 89.2876C47.4731 89.2876 46.5541 89.0911 45.6863 88.6879L38.58 85.4001C35.9866 84.2007 34.4959 81.4816 34.8533 78.6176L36.0785 68.9402C36.1194 68.6301 36.3031 68.3613 36.5686 68.2062C36.8341 68.0511 37.1608 68.0407 37.4365 68.1751L48.3613 73.2206C48.3613 73.2206 48.3613 73.2206 48.3715 73.2206L59.2862 78.2661C59.5619 78.3902 59.7661 78.6486 59.8273 78.9485C59.8886 79.2483 59.8069 79.5688 59.6027 79.7963L53.1805 87.0647C51.9247 88.4915 50.1685 89.2566 48.3715 89.2566L48.3818 89.2876ZM37.8142 70.5118L36.7626 78.8761C36.5073 80.8819 37.559 82.7946 39.3764 83.6321L46.4827 86.9199C48.3001 87.7574 50.4136 87.3128 51.7409 85.8033L57.285 79.5171L47.5445 75.0196C47.5445 75.0196 47.5445 75.0196 47.5343 75.0196L37.804 70.5221L37.8142 70.5118Z" fill="#400124"/>
<path d="M59.8143 82.0707C58.344 83.5079 56.1591 83.8904 54.3008 83.0323L37.158 75.1125C35.2997 74.2544 34.1562 72.3313 34.2583 70.2635C34.6463 62.7263 36.627 44.0022 46.439 24.8646C48.5014 20.8426 50.7987 17.5031 53.2083 14.7116C62.3566 4.11401 73.0671 1.60161 78.1007 1.01228C79.9181 0.795158 81.7049 1.62228 82.7361 3.15247C85.5949 7.38116 90.7306 17.2343 88.8316 31.1714C88.3313 34.8418 87.3409 38.7913 85.697 43.0097C77.8556 63.0571 65.1746 76.8392 59.8143 82.0811V82.0707Z" fill="white"/>
<path d="M88.8342 31.1714C74.0192 10.7931 53.2109 14.7116 53.2109 14.7116C62.3592 4.11401 73.0697 1.60161 78.1033 1.01228C79.9207 0.795158 81.7075 1.62228 82.7387 3.15247C85.5976 7.38116 90.7333 17.2343 88.8342 31.1714Z" fill="#BF067D"/>
<g opacity="0.6">
<path d="M82.4011 2.70793C82.0131 2.65623 81.6149 2.65623 81.227 2.70793C76.2036 3.29726 65.4829 5.81999 56.3346 16.4072C53.925 19.1988 51.6277 22.5383 49.5652 26.5602C41.3869 42.5134 38.6506 58.1771 37.7419 67.3169C37.5581 69.1469 37.456 70.7081 37.3845 71.9591C37.3028 73.51 37.9257 74.9678 39.0284 75.9707L37.8031 75.4021L37.1599 75.1022C35.3017 74.2441 34.1581 72.321 34.2602 70.2532C34.6482 62.716 36.629 43.9919 46.4409 24.8543C48.5034 20.8324 50.8007 17.4928 53.2103 14.7013C62.3586 4.12438 73.0792 1.60165 78.1026 1.01232C79.7363 0.815874 81.3495 1.46724 82.4011 2.71827V2.70793Z" fill="white"/>
</g>
<g opacity="0.3">
<path d="M85.9645 29.9716C85.4642 33.6419 84.4738 37.5915 82.83 41.8098C74.9886 61.8573 62.3075 75.6393 56.9472 80.8812C55.7424 82.0599 54.0577 82.5252 52.4547 82.184L39.0182 75.9702C37.9155 74.9673 37.2927 73.4991 37.3743 71.9586C37.4356 70.7076 37.5479 69.1464 37.7317 67.3164L47.8193 71.9793C49.6776 72.8374 51.8625 72.4549 53.3328 71.0281C56.1304 68.2882 60.9292 63.2324 65.9832 56.1501C71.0883 55.23 75.5195 51.8284 77.7147 46.9587C79.5423 42.9058 79.5627 38.4806 78.1333 34.6035C78.5008 33.735 78.8582 32.8562 79.2053 31.967C80.8492 27.759 81.8396 23.8095 82.3399 20.1288C83.126 14.4216 82.7176 9.39678 81.7783 5.16809C84.4942 10.2963 87.4858 18.8364 85.9645 29.9922V29.9716Z" fill="#400124"/>
</g>
<path d="M88.8359 32.1535C88.5398 32.1535 88.2437 32.0191 88.0599 31.7606C80.6065 21.5042 71.591 17.6788 65.3423 16.283C58.5424 14.7528 53.4373 15.673 53.3862 15.6833C52.8655 15.7764 52.3652 15.4352 52.2631 14.8976C52.1712 14.3703 52.5082 13.8637 53.0289 13.7603C53.2535 13.7189 58.5015 12.7574 65.6691 14.3496C72.2648 15.8177 81.7807 19.8293 89.6017 30.6026C89.9182 31.0369 89.8263 31.6469 89.3975 31.9674C89.2239 32.0915 89.0299 32.1535 88.8257 32.1535H88.8359Z" fill="#400124"/>
<path d="M56.3749 84.4591C55.5377 84.4591 54.7004 84.2834 53.904 83.9111L36.7612 75.9914C34.5252 74.9575 33.1672 72.6932 33.2999 70.2015C33.6777 62.8918 35.6381 43.8162 45.593 24.4097C55.701 4.66204 71.6187 0.784878 77.9898 0.040464C80.1748 -0.218013 82.2985 0.7642 83.5339 2.60456C87.1483 7.97054 94.6834 22.6831 86.5867 43.3612C78.633 63.6879 65.6763 77.6973 60.4794 82.7738C59.346 83.8801 57.8656 84.4695 56.3647 84.4695L56.3749 84.4591ZM78.6739 1.9532C78.5207 1.9532 78.3676 1.9532 78.2144 1.98421C72.1496 2.69761 56.9977 6.399 47.2879 25.3195C37.5065 44.3848 35.587 63.1399 35.2092 70.3152C35.1173 71.9902 36.0363 73.5307 37.5474 74.2234L54.6902 82.1432C56.2013 82.8359 57.9473 82.536 59.1418 81.3677C64.2469 76.3739 76.979 62.623 84.8 42.6479C92.5597 22.8278 85.3819 8.81835 81.9411 3.71084C81.1958 2.60456 79.9706 1.96353 78.6739 1.96353V1.9532Z" fill="#400124"/>
<path d="M51.6905 65.8384C51.6905 65.8384 54.7841 71.4215 52.1091 77.8317C49.434 84.242 41.0923 89.3495 41.0923 89.3495C41.0923 89.3495 39.4383 79.6307 42.4605 73.3859C45.4827 67.1411 51.6803 65.8487 51.6803 65.8487L51.6905 65.8384Z" fill="#BF067D"/>
<g opacity="0.6">
<path d="M43.5789 75.888C46.3459 70.1911 51.7368 68.6196 52.6557 68.3818C52.2269 66.7999 51.696 65.8384 51.696 65.8384C51.696 65.8384 45.5086 67.1308 42.4762 73.3756C39.4438 79.6204 41.108 89.3391 41.108 89.3391C41.108 89.3391 41.3939 89.1634 41.8738 88.8429C41.6288 85.4723 41.6083 79.9409 43.5789 75.8776V75.888Z" fill="white"/>
</g>
<path d="M41.0962 90.3212C40.9634 90.3212 40.8205 90.2902 40.698 90.2281C40.4121 90.0937 40.1977 89.8249 40.1466 89.5044C40.0752 89.0908 38.4722 79.3928 41.6067 72.9412C44.8127 66.3449 51.2247 64.9387 51.5003 64.8767C51.9087 64.794 52.3274 64.9801 52.5316 65.3523C52.6643 65.6004 55.8192 71.4317 53.0012 78.2038C50.2343 84.8311 41.9538 89.9593 41.5965 90.1765C41.4433 90.2695 41.2698 90.3212 41.0962 90.3212ZM51.1634 67.0065C49.5298 67.5545 45.5172 69.3018 43.3322 73.8097C41.1677 78.2762 41.5352 84.7691 41.8517 87.6744C44.2205 86.0098 49.3154 82.0396 51.2247 77.4594C53.1544 72.8378 51.8271 68.6194 51.1634 67.0169V67.0065Z" fill="#400124"/>
<path d="M76.4055 40.3894C76.4817 33.0181 70.6423 26.9798 63.3629 26.9026C56.0835 26.8254 50.1205 32.7385 50.0443 40.1099C49.968 47.4812 55.8074 53.5195 63.0868 53.5967C70.3663 53.6739 76.3292 47.7608 76.4055 40.3894Z" fill="#007F5E"/>
<g opacity="0.6">
<path d="M52.8825 37.2104C55.9047 30.5004 63.7257 27.5434 70.352 30.6037C72.1797 31.4515 73.7214 32.6612 74.9466 34.119C73.6397 31.5446 71.5058 29.3837 68.7082 28.0913C62.0818 25.031 54.2608 27.988 51.2386 34.698C49.0537 39.5574 49.9828 45.0475 53.1684 48.8729C51.3816 45.3576 51.1467 41.0876 52.8927 37.2104H52.8825Z" fill="white"/>
</g>
<path d="M63.2215 54.5796C61.2203 54.5796 59.2293 54.1454 57.3506 53.2769C53.9098 51.6847 51.296 48.8414 49.9687 45.2538C48.6516 41.6661 48.7843 37.7786 50.3567 34.2943C53.5933 27.1086 62.0064 23.9242 69.1025 27.212C76.1986 30.4895 79.3331 39.0089 76.0965 46.1946C74.5241 49.6789 71.7163 52.3257 68.1734 53.6698C66.5602 54.2798 64.8857 54.5796 63.2215 54.5796ZM63.2419 27.8737C58.5963 27.8737 54.1548 30.5619 52.1026 35.1111C50.7446 38.1198 50.6323 41.48 51.7759 44.5817C52.9194 47.6834 55.1861 50.1441 58.147 51.5089C61.1182 52.884 64.4365 52.9977 67.4995 51.8398C70.5626 50.6818 72.9926 48.3865 74.3403 45.3882C77.1379 39.1847 74.422 31.8233 68.2959 28.9904C66.6521 28.2356 64.9368 27.8737 63.2419 27.8737Z" fill="#400124"/>
<path d="M63.2272 48.3041C67.6199 48.3041 71.1809 44.6981 71.1809 40.25C71.1809 35.8018 67.6199 32.1958 63.2272 32.1958C58.8344 32.1958 55.2734 35.8018 55.2734 40.25C55.2734 44.6981 58.8344 48.3041 63.2272 48.3041Z" fill="#00BF88"/>
<g opacity="0.3">
<path d="M57.6353 39.9705C59.4527 35.9279 64.18 34.1392 68.1722 35.9899C69.234 36.4759 70.1325 37.1789 70.8575 38.0164C70.2346 35.8349 68.7133 33.9325 66.5283 32.9296C62.5362 31.0892 57.8089 32.8779 55.9915 36.9101C54.6539 39.8774 55.2563 43.248 57.2473 45.5536C56.7368 43.7649 56.8287 41.7902 57.6455 39.9705H57.6353Z" fill="#400124"/>
</g>
<path d="M63.2136 49.2758C61.9782 49.2758 60.7223 49.0173 59.5277 48.459C57.3632 47.4561 55.7091 45.6674 54.8821 43.4032C54.0449 41.1389 54.1368 38.6886 55.1169 36.4967C56.1073 34.3048 57.8737 32.6299 60.1097 31.7924C62.3457 30.9446 64.7656 31.0376 66.9301 32.0302C71.4022 34.098 73.3829 39.464 71.3409 43.9925C69.8502 47.3114 66.6034 49.2758 63.2136 49.2758ZM63.234 33.1675C60.5794 33.1675 58.0371 34.708 56.8629 37.3031C55.2599 40.8494 56.8118 45.0574 60.3241 46.6807C63.8262 48.3039 67.9817 46.7324 69.5847 43.1757C71.1877 39.6294 69.6358 35.4214 66.1235 33.7982C65.1842 33.3639 64.204 33.1571 63.234 33.1571V33.1675Z" fill="#400124"/>
</svg>
