<svg width="127" height="128" viewBox="0 0 127 128" fill="none" xmlns="http://www.w3.org/2000/svg">
<ellipse cx="63.5213" cy="64" rx="63.1795" ry="64" fill="white"/>
<path d="M116.939 81.9258L50.7405 117.728C45.6141 120.5 39.1935 118.509 36.5541 113.342L10.9984 63.1994C8.52406 58.5997 10.2244 51.9207 15.5157 48.556L73.7076 19.2818L81.5748 15.3248C85.4196 13.3841 90.1145 15.035 91.8783 18.9416L93.6802 22.9238C96.2814 23.1758 98.6923 24.7636 99.847 27.3218L120.2 72.2728C121.824 75.8391 120.391 80.0481 116.926 81.9258H116.939Z" fill="#E5912E"/>
<g opacity="0.3">
<path d="M26.5413 54.8568C23.166 58.1585 9.08118 57.4906 18.8898 50.8494L75.7874 22.1675L82.9948 18.5508C86.8396 16.6101 91.5345 18.2609 93.2983 22.1675" fill="#400124"/>
</g>
<g opacity="0.3">
<path d="M116.94 81.9256L50.7408 117.728C47.2767 119.605 43.2162 119.303 40.1328 117.312C42.1123 117.501 44.1679 117.123 46.0459 116.102L112.245 80.2999C115.709 78.4223 117.13 74.2258 115.518 70.6469L112.524 64.0183L100.596 70.1428C96.1549 72.4238 90.6859 70.5587 88.6049 66.0472C88.0593 64.8752 87.8055 63.6402 87.8055 62.4179C87.8055 59.2548 89.5439 56.2177 92.5512 54.6803L105.329 48.1147L108.539 46.4639L115.747 62.3675L120.226 72.2725C121.85 75.8389 120.416 80.0479 116.952 81.9256H116.94Z" fill="#400124"/>
</g>
<g opacity="0.3">
<path d="M108.525 46.4639L105.315 48.1147L95.1639 25.696C94.6182 24.4736 93.7807 23.478 92.7656 22.7471C92.994 22.6841 93.2605 22.6211 93.5143 22.5581L93.6919 22.9362C96.2932 23.1882 98.7041 24.776 99.8588 27.3342L108.525 46.4765V46.4639Z" fill="#400124"/>
</g>
<g opacity="0.6">
<path d="M94.9501 23.1507C92.4757 23.995 90.0648 25.0157 87.73 26.2129L30.2614 55.5123C28.5484 56.3819 26.6577 56.8985 24.729 56.9867C23.3966 57.0498 21.7217 57.0246 19.7422 56.7977C23.0667 56.6591 26.0867 55.9912 28.7514 54.731C28.7514 54.731 88.6944 24.121 88.8467 24.0454C88.9862 23.9698 94.9501 23.1381 94.9501 23.1381V23.1507Z" fill="white"/>
</g>
<g opacity="0.6">
<path d="M87.4518 14.9213C86.3352 14.9339 85.2058 15.1986 84.1526 15.7279L76.2854 19.6849L18.0809 48.9716C12.7895 52.3237 11.0892 59.0154 13.5636 63.615L39.1193 113.745C40.4643 116.392 42.8118 118.206 45.4638 118.975C41.8093 118.849 38.3326 116.82 36.5561 113.342L11.0004 63.1992C8.52601 58.5995 10.2263 51.9205 15.5177 48.5558L73.7096 19.2816L81.5768 15.3246C83.4801 14.3669 85.5865 14.2912 87.4391 14.9213H87.4518Z" fill="white"/>
</g>
<path d="M55.2966 40.9317L43.4704 46.8546L27.0001 55.1214L19.1963 50.6604L9.34961 45.0399L27.2792 14.0519L44.9931 24.1586L47.2898 27.9014L55.2966 40.9317Z" fill="#007F5E"/>
<path d="M41.5033 26.6286L31.923 21.1594C30.9079 22.9237 28.6366 23.5286 26.8601 22.5204L16.5059 40.4277C18.2823 41.4359 18.8914 43.6916 17.8763 45.4559L23.3199 48.5685L31.1871 53.0548L48.0889 44.8762L39.6887 32.9926L39.2446 32.1105L37.4428 29.7665L41.5159 26.6538L41.5033 26.6286Z" fill="#00BF88"/>
<g style="mix-blend-mode:soft-light">
<path d="M35.528 45.1408C38.0719 45.1408 40.1341 43.0927 40.1341 40.5663C40.1341 38.0399 38.0719 35.9918 35.528 35.9918C32.9841 35.9918 30.9219 38.0399 30.9219 40.5663C30.9219 43.0927 32.9841 45.1408 35.528 45.1408Z" fill="#F2F2F2"/>
</g>
<g opacity="0.3">
<path d="M55.297 40.9317L43.4708 46.8546L41.9988 44.8131L39.9178 41.9147L35.7305 36.1052L43.6865 30.4596L47.2902 27.9014L55.297 40.9317Z" fill="#400124"/>
</g>
<path d="M80.2569 28.3799L75.7904 22.1672L73.7094 19.2814L66.3371 9.02344L44.9941 24.1583L37.0508 29.7914L41.2255 35.6134L43.3065 38.4993L47.773 44.712" fill="#007F5E"/>
<path d="M76.7409 30.1446L72.2744 23.9318L67.5795 17.404C65.9172 18.5886 63.5951 18.198 62.415 16.5471L45.4879 28.5567C46.6806 30.2076 46.2873 32.5137 44.625 33.6857L46.8202 36.7353L51.2867 42.9355" fill="#00BF88"/>
<g opacity="0.6">
<path d="M80.255 28.3802L78.7704 29.1237L75.4332 24.4988L73.3521 21.6004L65.9798 11.3424L44.6242 26.4773L38.0259 31.1652L37.0488 29.7916L44.9922 24.1586L66.3351 9.02368L73.7074 19.2816L75.7884 22.1675L80.255 28.3802Z" fill="white"/>
</g>
<g opacity="0.55">
<path d="M44.9931 24.1586L43.3562 25.318L28.0279 16.5723L11.0119 45.9851L9.34961 45.0399L27.2792 14.0519L44.9931 24.1586Z" fill="white"/>
</g>
<g style="mix-blend-mode:soft-light">
<path d="M61.946 37.1133C64.4898 37.1133 66.5521 35.0653 66.5521 32.5388C66.5521 30.0124 64.4898 27.9644 61.946 27.9644C59.4021 27.9644 57.3398 30.0124 57.3398 32.5388C57.3398 35.0653 59.4021 37.1133 61.946 37.1133Z" fill="#F2F2F2"/>
</g>
<path d="M45.8069 119.794C44.6903 119.794 43.5736 119.63 42.4697 119.29C39.5639 118.395 37.2037 116.404 35.8206 113.707L10.2649 63.5645C10.0619 63.1612 10.2269 62.6697 10.6202 62.4681C11.0263 62.2665 11.5211 62.4303 11.7242 62.8209L37.2799 112.951C38.46 115.257 40.4648 116.946 42.9519 117.715C45.4389 118.483 48.0656 118.231 50.3496 116.996L116.548 81.1945C119.619 79.531 120.901 75.7631 119.467 72.6L99.1135 27.6491C98.1238 25.4689 96.0174 23.9693 93.6192 23.7299C92.3503 23.6039 91.0687 23.8433 89.9267 24.423L28.2326 55.4488C27.9027 55.6001 27.6108 55.7513 27.3317 55.8647C21.85 58.2717 16.343 58.1834 15.036 55.6631C14.6173 54.8565 14.1351 52.6764 18.7793 49.967C19.1726 49.7402 19.6675 49.8662 19.8959 50.2569C20.1243 50.6475 19.9974 51.139 19.6041 51.3658C16.9774 52.9032 16.14 54.2517 16.4826 54.9196C17.0663 56.0411 21.0633 56.835 26.6592 54.3777C26.9256 54.2643 27.2048 54.1382 27.4966 53.987L89.178 22.9738C90.5992 22.2555 92.1853 21.9656 93.7715 22.1168C96.7534 22.4067 99.38 24.2718 100.611 26.9812L120.964 71.9321C122.753 75.8639 121.154 80.5644 117.335 82.6311L51.1363 118.433C49.474 119.328 47.6468 119.794 45.8069 119.794Z" fill="#400124"/>
<path d="M75.788 22.9867C75.4835 22.9867 75.2043 22.8229 75.052 22.5457C74.849 22.1424 75.014 21.6509 75.4073 21.4493L82.6147 17.8326C84.6703 16.7992 87.0051 16.648 89.1876 17.4041C91.3701 18.1728 93.0832 19.748 94.0348 21.84C94.2252 22.2558 94.0348 22.7347 93.6288 22.9111C93.2227 23.1002 92.7279 22.9111 92.5502 22.5079C91.7889 20.8192 90.4058 19.559 88.6547 18.9415C86.9036 18.324 85.0256 18.4501 83.3634 19.2818L76.156 22.8985C76.0418 22.9615 75.9149 22.9867 75.788 22.9867Z" fill="#400124"/>
<path d="M17.4591 63.3625C17.4591 63.3625 17.3956 63.3625 17.3702 63.3625C16.4433 63.2239 15.6815 62.9466 15.1228 62.5434C14.8689 62.3669 14.8181 62.0141 14.9959 61.7747C15.1736 61.5226 15.5291 61.4722 15.7704 61.6486C16.1767 61.9385 16.7988 62.1527 17.5352 62.2661C17.84 62.3165 18.0431 62.5938 18.005 62.8962C17.9669 63.1735 17.7257 63.3625 17.4591 63.3625Z" fill="#400124"/>
<path d="M46.9872 114.703C46.7207 114.703 46.4923 114.514 46.4416 114.249C46.3908 113.947 46.5938 113.657 46.8984 113.607C48.0531 113.405 49.2585 112.964 50.4767 112.309L50.7939 112.145C51.0604 112.006 51.403 112.107 51.5426 112.372C51.6821 112.636 51.5806 112.976 51.3142 113.115L51.0096 113.279C49.69 113.997 48.3703 114.476 47.1014 114.69C47.0633 114.69 47.0379 114.69 46.9999 114.69L46.9872 114.703ZM54.8925 111.137C54.6894 111.137 54.4991 111.036 54.3976 110.847C54.258 110.582 54.3595 110.242 54.626 110.103L58.4708 108.062C58.7372 107.923 59.0798 108.024 59.2194 108.289C59.359 108.553 59.2575 108.893 58.991 109.032L55.1462 111.074C55.0574 111.124 54.9686 111.137 54.8798 111.137H54.8925ZM62.582 107.054C62.379 107.054 62.1886 106.953 62.0871 106.764C61.9476 106.499 62.0491 106.159 62.3155 106.02L66.1603 103.979C66.4268 103.84 66.7694 103.941 66.909 104.205C67.0485 104.47 66.947 104.81 66.6806 104.949L62.8358 106.991C62.747 107.041 62.6581 107.054 62.5693 107.054H62.582ZM70.2716 102.971C70.0685 102.971 69.8782 102.87 69.7767 102.681C69.6371 102.416 69.7386 102.076 70.0051 101.937L73.8499 99.8957C74.1163 99.757 74.4589 99.8578 74.5985 100.122C74.7381 100.387 74.6366 100.727 74.3701 100.866L70.5253 102.908C70.4365 102.958 70.3477 102.971 70.2589 102.971H70.2716ZM77.9611 98.8875C77.7581 98.8875 77.5678 98.7867 77.4662 98.5977C77.3267 98.333 77.4282 97.9928 77.6946 97.8541L81.5394 95.8126C81.8059 95.674 82.1485 95.7748 82.2881 96.0395C82.4277 96.3041 82.3261 96.6444 82.0597 96.783L78.2149 98.8245C78.1261 98.8749 78.0373 98.8875 77.9484 98.8875H77.9611ZM85.6507 94.8045C85.4476 94.8045 85.2573 94.7037 85.1558 94.5146C85.0162 94.25 85.1177 93.9098 85.3842 93.7585L89.229 91.717C89.4954 91.5784 89.8381 91.6792 89.9776 91.9439C90.1172 92.2085 90.0157 92.5488 89.7492 92.6874L85.9044 94.7289C85.8156 94.7793 85.7268 94.7919 85.638 94.7919L85.6507 94.8045ZM93.3402 90.7215C93.1372 90.7215 92.9469 90.6207 92.8453 90.4316C92.7058 90.167 92.8073 89.8267 93.0737 89.6881L96.9185 87.6466C97.185 87.508 97.5276 87.6088 97.6672 87.8734C97.8068 88.1381 97.7052 88.4783 97.4388 88.617L93.594 90.6585C93.5052 90.7089 93.4164 90.7215 93.3275 90.7215H93.3402ZM101.03 86.6385C100.827 86.6385 100.636 86.5376 100.535 86.3486C100.395 86.084 100.497 85.7437 100.763 85.6051L104.608 83.5636C104.875 83.425 105.217 83.5258 105.357 83.7904C105.496 84.0551 105.395 84.3953 105.128 84.5339L101.284 86.5755C101.195 86.6259 101.106 86.6385 101.017 86.6385H101.03ZM108.719 82.5554C108.516 82.5554 108.326 82.4546 108.224 82.2656C108.085 82.001 108.186 81.6607 108.453 81.5221L111.879 79.6948C112.006 79.6318 112.133 79.5562 112.247 79.4806C112.513 79.3168 112.856 79.3924 113.021 79.657C113.186 79.9217 113.11 80.2619 112.843 80.4257C112.704 80.5139 112.551 80.6022 112.412 80.6778L108.986 82.505C108.897 82.5554 108.808 82.568 108.719 82.568V82.5554ZM115.394 77.2879C115.318 77.2879 115.241 77.2753 115.165 77.2374C114.886 77.1114 114.759 76.7838 114.886 76.5065C115.305 75.5992 115.533 74.5911 115.533 73.5955C115.533 73.2553 115.508 72.915 115.457 72.5874C115.406 72.2849 115.622 72.0077 115.927 71.9573C116.231 71.9195 116.51 72.1211 116.561 72.4235C116.625 72.8142 116.65 73.2048 116.65 73.5955C116.65 74.7549 116.396 75.9143 115.901 76.9602C115.812 77.1618 115.609 77.2879 115.394 77.2879ZM114.48 69.021C114.264 69.021 114.061 68.895 113.973 68.6934L112.158 64.749C112.031 64.4717 112.158 64.1441 112.437 64.0181C112.716 63.892 113.046 64.0181 113.173 64.2953L114.988 68.2397C115.115 68.5169 114.988 68.8446 114.709 68.9706C114.632 69.0084 114.556 69.021 114.48 69.021ZM21.7995 63.1485C21.5457 63.1485 21.3046 62.9721 21.2538 62.7075C21.1904 62.405 21.3934 62.1152 21.6853 62.0522C23.0049 61.7875 24.3626 61.3591 25.7204 60.7668C25.9995 60.6408 26.3294 60.7668 26.4563 61.0566C26.5832 61.3339 26.4563 61.6615 26.1645 61.7875C24.7306 62.405 23.2968 62.8587 21.9137 63.1485C21.8756 63.1485 21.8375 63.1485 21.7995 63.1485ZM110.826 61.107C110.61 61.107 110.407 60.981 110.318 60.7794L108.504 56.835C108.377 56.5577 108.504 56.2301 108.783 56.1041C109.062 55.9781 109.392 56.1041 109.519 56.3813L111.333 60.3257C111.46 60.603 111.333 60.9306 111.054 61.0566C110.978 61.0944 110.902 61.107 110.826 61.107ZM29.8443 59.9099C29.6413 59.9099 29.451 59.7964 29.3494 59.6074C29.2099 59.3302 29.3241 59.0025 29.5905 58.8639L33.4734 56.9106C33.7525 56.772 34.0824 56.8854 34.222 57.15C34.3616 57.4273 34.2474 57.7549 33.9809 57.8935L30.0981 59.8468C30.022 59.8846 29.9331 59.9099 29.8443 59.9099ZM37.6227 55.9907C37.4197 55.9907 37.2293 55.8772 37.1278 55.6882C36.9882 55.411 37.1024 55.0833 37.3689 54.9447L41.2518 52.9914C41.5309 52.8528 41.8608 52.9662 42.0004 53.2308C42.14 53.5081 42.0258 53.8357 41.7593 53.9744L37.8765 55.9277C37.8003 55.9655 37.7115 55.9907 37.6227 55.9907ZM107.197 53.2308C106.981 53.2308 106.778 53.1048 106.689 52.9032L104.875 48.9588C104.748 48.6816 104.875 48.3539 105.154 48.2279C105.433 48.1019 105.763 48.2279 105.89 48.5051L107.704 52.4495C107.831 52.7268 107.704 53.0544 107.425 53.1804C107.349 53.2182 107.273 53.2308 107.197 53.2308ZM45.4011 52.0715C45.198 52.0715 45.0077 51.9581 44.9062 51.769C44.7666 51.4918 44.8808 51.1641 45.1473 51.0255L49.0301 49.0722C49.3093 48.9336 49.6392 49.047 49.7788 49.3117C49.9184 49.5889 49.8042 49.9165 49.5377 50.0552L45.6548 52.0085C45.5787 52.0463 45.4899 52.0715 45.4011 52.0715ZM53.1794 48.1523C52.9764 48.1523 52.7861 48.0389 52.6846 47.8498C52.545 47.5726 52.6592 47.245 52.9257 47.1063L56.8085 45.153C57.0877 45.0144 57.4176 45.1278 57.5572 45.3925C57.6967 45.6697 57.5825 45.9974 57.3161 46.136L53.4332 48.0893C53.3571 48.1271 53.2683 48.1523 53.1794 48.1523ZM103.58 45.3547C103.365 45.3547 103.162 45.2286 103.073 45.027L101.258 41.0826C101.131 40.8054 101.258 40.4777 101.537 40.3517C101.816 40.2257 102.146 40.3517 102.273 40.629L104.088 44.5734C104.215 44.8506 104.088 45.1782 103.809 45.3043C103.733 45.3421 103.656 45.3547 103.58 45.3547ZM60.9578 44.2457C60.7548 44.2457 60.5645 44.1323 60.4629 43.9433C60.3234 43.666 60.4376 43.3384 60.704 43.1997L64.5869 41.2465C64.866 41.1078 65.1959 41.2212 65.3355 41.4859C65.4751 41.7631 65.3609 42.0908 65.0944 42.2294L61.2116 44.1827C61.1355 44.2205 61.0466 44.2457 60.9578 44.2457ZM68.7362 40.3265C68.5332 40.3265 68.3428 40.2131 68.2413 40.0241C68.1017 39.7468 68.2159 39.4192 68.4824 39.2806L72.3653 37.3273C72.6444 37.1886 72.9743 37.3021 73.1139 37.5667C73.2535 37.8439 73.1393 38.1716 72.8728 38.3102L68.99 40.2635C68.9138 40.3013 68.825 40.3265 68.7362 40.3265ZM99.9512 37.4785C99.7355 37.4785 99.5325 37.3525 99.4436 37.1508L97.6291 33.2064C97.5022 32.9292 97.6291 32.6016 97.9083 32.4755C98.1874 32.3495 98.5173 32.4755 98.6442 32.7528L100.459 36.6972C100.586 36.9744 100.459 37.3021 100.18 37.4281C100.103 37.4659 100.027 37.4785 99.9512 37.4785ZM76.5146 36.4073C76.3115 36.4073 76.1212 36.2939 76.0197 36.1049C75.8801 35.8276 75.9943 35.5 76.2608 35.3614L80.1436 33.4081C80.4228 33.2695 80.7527 33.3829 80.8923 33.6475C81.0319 33.9248 80.9177 34.2524 80.6512 34.391L76.7683 36.3443C76.6922 36.3821 76.6034 36.4073 76.5146 36.4073ZM84.2929 32.4881C84.0899 32.4881 83.8996 32.3747 83.7981 32.1857C83.6585 31.9085 83.7727 31.5808 84.0392 31.4422L87.922 29.4889C88.2012 29.3503 88.5311 29.4637 88.6707 29.7283C88.8102 30.0056 88.696 30.3332 88.4296 30.4718L84.5467 32.4251C84.4706 32.4629 84.3818 32.4881 84.2929 32.4881ZM96.1191 29.7283C95.9795 29.7283 95.8273 29.6779 95.7258 29.5645C95.0659 28.8966 94.1396 28.5059 93.188 28.5059C92.8707 28.5059 92.5535 28.5437 92.2617 28.632C91.9698 28.7076 91.6526 28.5437 91.5764 28.2413C91.5003 27.9515 91.6653 27.6364 91.9698 27.5608C92.3632 27.4474 92.7819 27.397 93.2006 27.397C94.4442 27.397 95.6623 27.901 96.5379 28.7832C96.7536 28.9974 96.7536 29.3503 96.5379 29.5645C96.4237 29.6653 96.2841 29.7283 96.1445 29.7283H96.1191Z" fill="#400124"/>
<path d="M42.6847 114.35C42.6213 114.35 42.5451 114.35 42.4816 114.312C41.7706 114.035 41.0976 113.657 40.4755 113.178C40.2343 112.989 40.1835 112.636 40.3739 112.397C40.5644 112.157 40.9199 112.107 41.1611 112.296C41.6944 112.712 42.2784 113.039 42.8752 113.279C43.1672 113.392 43.3069 113.707 43.1926 113.997C43.1037 114.211 42.9006 114.35 42.6721 114.35H42.6847Z" fill="#400124"/>
<path d="M93.6941 23.7426C93.3769 23.7426 93.0851 23.5662 92.9455 23.2637L91.1436 19.2815C90.3823 17.5929 88.9992 16.3327 87.2481 15.7152C85.497 15.0977 83.619 15.2237 81.9568 16.0554L74.0896 20.0124C73.6835 20.2141 73.1887 20.0502 72.9856 19.6596C72.7826 19.2563 72.9476 18.7649 73.3409 18.5632L81.2081 14.6062C83.2764 13.5729 85.6112 13.4217 87.781 14.1904C89.9636 14.9591 91.6766 16.5343 92.6283 18.6262L94.4301 22.6084C94.6204 23.0243 94.4301 23.5032 94.024 23.6796C93.9098 23.73 93.7957 23.7552 93.6941 23.7552V23.7426Z" fill="#400124"/>
<path d="M10.9997 64.0185C10.7079 64.0185 10.4287 63.8673 10.2764 63.5901C7.47217 58.3855 9.62931 51.341 15.0729 47.8881C15.4536 47.6487 15.9611 47.7621 16.2022 48.1402C16.4433 48.5182 16.3291 49.0223 15.9484 49.2617C11.2027 52.2736 9.31208 58.3603 11.7103 62.834C11.926 63.2246 11.7738 63.7287 11.3677 63.9303C11.2408 63.9933 11.1139 64.0311 10.987 64.0311L10.9997 64.0185Z" fill="#400124"/>
<path d="M47.7713 45.5187C47.5175 45.5187 47.2637 45.4053 47.0988 45.1785L36.3766 30.2578C36.2497 30.0814 36.1989 29.8672 36.237 29.6529C36.275 29.4387 36.3892 29.2497 36.5669 29.1236L65.8532 8.35573C66.0308 8.22971 66.2465 8.17931 66.4622 8.21711C66.678 8.25492 66.8683 8.36834 66.9952 8.54476L80.9151 27.9013C81.1815 28.2667 81.0927 28.7708 80.7247 29.0354C80.3567 29.3001 79.8492 29.2119 79.5827 28.8464L66.145 10.1578L38.1911 29.9806L48.4438 44.2333C48.7103 44.5988 48.6215 45.1028 48.2535 45.3675C48.1139 45.4683 47.9489 45.5187 47.784 45.5187H47.7713Z" fill="#400124"/>
<path d="M51.2876 43.6538C51.0592 43.6538 50.8435 43.553 50.7039 43.3514L44.0422 34.1016C43.8138 33.7865 43.8899 33.3329 44.2071 33.106C45.5522 32.1483 45.8567 30.2958 44.905 28.96C44.7908 28.8088 44.7528 28.6198 44.7782 28.4307C44.8035 28.2417 44.9177 28.0779 45.07 27.9645L61.9972 15.9549C62.3144 15.728 62.7712 15.8036 62.9996 16.1187C63.964 17.4545 65.8293 17.7569 67.1743 16.8118C67.3266 16.6984 67.5169 16.6606 67.7072 16.6858C67.8976 16.711 68.0625 16.8244 68.1767 16.9756L77.3382 29.7161C77.5666 30.0312 77.4905 30.4848 77.1732 30.7117C76.856 30.9385 76.3992 30.8629 76.1708 30.5478L67.39 18.3492C65.6897 19.1809 63.6341 18.8407 62.3017 17.5049L46.4531 28.7458C47.2906 30.4344 46.948 32.4759 45.6029 33.7991L51.8713 42.5196C52.0997 42.8347 52.0236 43.2884 51.7064 43.5152C51.5795 43.6034 51.4399 43.6538 51.2876 43.6538Z" fill="#400124"/>
<path d="M26.9994 55.9281C26.8598 55.9281 26.7202 55.8903 26.5933 55.8147L8.93017 45.7458C8.53681 45.5189 8.39723 45.0275 8.62564 44.6368L26.5679 13.6488C26.7963 13.2581 27.2912 13.1195 27.6846 13.3463L45.3858 23.453C45.7791 23.6799 45.9187 24.1713 45.6903 24.562C45.4619 24.9527 44.967 25.0913 44.5737 24.8644L27.583 15.161L10.4655 44.7376L27.4181 54.4159C27.8115 54.6427 27.951 55.1342 27.7226 55.5248C27.5704 55.7895 27.2912 55.9281 27.012 55.9281H26.9994Z" fill="#400124"/>
<path d="M31.1876 53.7604C31.0607 53.7604 30.9465 53.7352 30.8323 53.6596L17.5215 46.0607C17.1789 45.859 17.0647 45.4306 17.2551 45.0903C18.0799 43.6663 17.585 41.8516 16.1511 41.0325C15.8085 40.8309 15.6943 40.4024 15.8847 40.0622L26.2516 22.1675C26.3404 22.0037 26.5054 21.8902 26.683 21.8398C26.8607 21.7894 27.0637 21.8146 27.2287 21.9154C28.6625 22.7346 30.4897 22.2431 31.3145 20.8191C31.5175 20.4788 31.949 20.3654 32.2916 20.5544L41.8718 26.0237C42.2144 26.2253 42.3286 26.6538 42.1383 26.994C41.9352 27.3343 41.5038 27.4477 41.1612 27.2586L32.152 22.1171C31.5683 22.8228 30.7816 23.3395 29.8807 23.5789C28.9797 23.8183 28.0407 23.7805 27.1779 23.4529L17.4708 40.226C18.93 41.4106 19.4757 43.4143 18.8158 45.1659L31.5556 52.4372C31.8982 52.6389 32.0124 53.0673 31.8221 53.4076C31.6952 53.6344 31.4541 53.7604 31.2003 53.7604H31.1876Z" fill="#400124"/>
<path d="M115.266 58.9524L98.8333 67.3957C94.3921 69.6766 88.9232 67.8115 86.8422 63.3C84.8881 59.0784 86.6264 54.0755 90.7758 51.9331L107.766 43.2C108.858 42.6455 110.19 43.0992 110.698 44.2082L116.23 56.1674C116.712 57.2007 116.281 58.4231 115.266 58.9524Z" fill="#E5912E"/>
<g opacity="0.6">
<path d="M95.3028 63.9554C97.4332 63.9554 99.1602 62.2402 99.1602 60.1244C99.1602 58.0086 97.4332 56.2935 95.3028 56.2935C93.1724 56.2935 91.4453 58.0086 91.4453 60.1244C91.4453 62.2402 93.1724 63.9554 95.3028 63.9554Z" fill="white"/>
</g>
<g opacity="0.3">
<path d="M115.251 58.9523L98.8191 67.3956C94.3779 69.6766 88.9089 67.8115 86.8279 63.3C86.6884 62.985 86.5615 62.6573 86.4473 62.3423C88.947 65.707 93.6293 66.9041 97.5248 64.9004L113.957 56.4572C114.972 55.9405 115.404 54.7055 114.921 53.6722L110.277 43.6158C110.442 43.7797 110.582 43.9813 110.696 44.2207L116.228 56.1799C116.711 57.2133 116.279 58.4357 115.264 58.9649L115.251 58.9523Z" fill="#400124"/>
</g>
<g opacity="0.6">
<path d="M110.681 44.2082C110.186 44.0822 109.653 44.1326 109.171 44.3846L92.1805 53.1177C89.1859 54.6552 87.4348 57.6922 87.4348 60.8553C87.4348 62.0777 87.6886 63.3127 88.2343 64.4847C88.6657 65.4172 89.2494 66.2363 89.9346 66.9294C88.6276 66.0725 87.5237 64.8375 86.8131 63.3127C86.2675 62.1407 86.0137 60.9057 86.0137 59.6833C86.0137 56.5203 87.7521 53.4832 90.7594 51.9458L107.75 43.2127C108.841 42.6582 110.174 43.1118 110.681 44.2082Z" fill="white"/>
</g>
<path d="M94.8097 69.198C93.7565 69.198 92.7033 69.0215 91.6755 68.6687C89.1758 67.8118 87.1836 66.0223 86.0796 63.6405C83.9352 59.0156 85.8259 53.5464 90.3812 51.2151L107.372 42.482C108.095 42.1039 108.92 42.0535 109.694 42.3181C110.468 42.5828 111.077 43.1373 111.42 43.8682L116.952 55.8274C117.612 57.264 117.028 58.9526 115.62 59.6709L99.1874 68.1142C97.8043 68.8199 96.307 69.1854 94.797 69.1854L94.8097 69.198ZM108.742 43.78C108.539 43.78 108.324 43.8304 108.133 43.9312L91.1426 52.6643C87.3612 54.605 85.8005 59.1291 87.5769 62.9726C88.4906 64.9511 90.1401 66.4382 92.2084 67.1439C94.2767 67.8496 96.4973 67.6857 98.4514 66.6902L114.884 58.2469C115.518 57.9193 115.772 57.1632 115.48 56.5331L109.948 44.5739C109.795 44.2462 109.516 43.9942 109.174 43.8808C109.034 43.8304 108.882 43.8052 108.742 43.8052V43.78Z" fill="#400124"/>
<path d="M94.6309 63.5145C96.7613 63.5145 98.4884 61.7993 98.4884 59.6835C98.4884 57.5677 96.7613 55.8525 94.6309 55.8525C92.5005 55.8525 90.7734 57.5677 90.7734 59.6835C90.7734 61.7993 92.5005 63.5145 94.6309 63.5145Z" fill="#400124"/>
<g opacity="0.19">
<path d="M52.9228 79.6575L44.2182 84.0682C42.5051 84.9377 40.3988 84.2446 39.5486 82.5182L34.3588 71.9326C33.534 70.2439 34.2192 68.2276 35.9068 67.3833L44.5608 63.0356C46.2738 62.1787 48.3548 62.8718 49.2049 64.5731L54.4328 75.0957C55.2703 76.7717 54.5851 78.8132 52.9101 79.6575H52.9228Z" fill="white"/>
</g>
<g opacity="0.19">
<path d="M60.2702 91.944L49.3323 97.2747C48.2029 97.8291 46.8452 97.3629 46.2869 96.2413L45.386 94.4014C44.853 93.3051 45.2845 91.9819 46.3757 91.4148L57.1868 85.8321C58.3161 85.2524 59.7119 85.7061 60.2702 86.8403L61.3107 88.9322C61.869 90.0538 61.3995 91.4022 60.2702 91.9567V91.944Z" fill="white"/>
</g>
<g opacity="0.19">
<path d="M93.9345 58.9811C94.5016 58.2996 94.6544 57.4956 94.276 57.1854C93.8975 56.8752 93.1309 57.1762 92.5639 57.8578C91.9968 58.5393 91.8439 59.3433 92.2224 59.6535C92.6009 59.9637 93.3674 59.6627 93.9345 58.9811Z" fill="white"/>
</g>
</svg>
