<svg width="24" height="22" viewBox="0 0 24 22" fill="none" xmlns="http://www.w3.org/2000/svg">
<path d="M11.3661 1.97122C11.3661 1.97122 11.3383 1.97122 11.329 1.97122C10.9532 1.98475 10.6377 2.1921 10.4847 2.52568L8.31817 7.23183C8.27642 7.32649 8.18827 7.39411 8.08157 7.41214L2.86253 8.34526C2.49603 8.41288 2.21305 8.6608 2.11099 9.00791C2.00892 9.35951 2.11099 9.71112 2.38933 9.95454L6.32797 13.412C6.40684 13.4796 6.44395 13.5833 6.43004 13.687L5.72952 18.7989C5.67849 19.1595 5.83622 19.4976 6.14705 19.7004C6.45787 19.9033 6.83828 19.9168 7.16302 19.7365L11.7651 17.167C11.8578 17.1174 11.9692 17.1129 12.0666 17.158L16.8542 19.3849C17.1929 19.5426 17.5686 19.5021 17.8655 19.2767C18.1578 19.0513 18.2877 18.7042 18.2135 18.3481L17.1186 13.3038C17.0954 13.2047 17.1279 13.0965 17.2021 13.0244L20.8624 9.28739C21.1222 9.02594 21.1965 8.6608 21.0666 8.32272C20.9367 7.98013 20.6398 7.75474 20.264 7.71417L14.9893 7.16421C14.8826 7.1552 14.7898 7.09209 14.7388 7.00193L12.2151 2.46708C12.0434 2.15604 11.7279 1.97573 11.3707 1.97573L11.3661 1.97122Z" fill="#FFA233"/>
<path d="M5.99415 21.8327C5.63694 21.8327 5.28436 21.7291 4.97354 21.5307C4.38901 21.1521 4.08746 20.4939 4.18025 19.8177L4.95498 14.174L0.60346 10.3514C0.0838754 9.89156 -0.120247 9.20187 0.069958 8.54373C0.260163 7.88559 0.812222 7.40325 1.49882 7.28154L7.26064 6.25376L9.65908 1.05626C9.94671 0.429679 10.5591 0.0284847 11.2642 0.00143789C11.9647 -0.0256089 12.6096 0.330508 12.9436 0.934553L15.7317 5.94272L21.5585 6.55128C22.259 6.6234 22.8389 7.06517 23.0848 7.70978C23.326 8.34989 23.1776 9.05762 22.6905 9.54897L18.6498 13.6736L19.8559 19.2453C19.9998 19.9124 19.7492 20.5886 19.1972 21.0123C18.6451 21.436 17.9075 21.5127 17.2766 21.2197L11.9926 18.7629L6.91271 21.5983C6.62508 21.7561 6.31426 21.8372 5.99879 21.8372L5.99415 21.8327ZM11.3756 2.31845C11.3756 2.31845 11.3524 2.31845 11.3385 2.31845C10.9766 2.33197 10.6751 2.53032 10.5312 2.85037L8.44827 7.37621C8.40651 7.46636 8.32301 7.52947 8.22095 7.5475L3.20602 8.44456C2.85345 8.50767 2.57974 8.74658 2.48232 9.08466C2.38489 9.42275 2.48232 9.76084 2.75139 9.99524L6.53694 13.3175C6.61116 13.3851 6.64827 13.4843 6.63436 13.5789L5.96168 18.4925C5.91529 18.8396 6.06374 19.1641 6.36529 19.358C6.66219 19.5518 7.02868 19.5653 7.33951 19.3895L11.7606 16.9192C11.8488 16.8696 11.9555 16.8651 12.0482 16.9102L16.6503 19.0514C16.975 19.2047 17.3369 19.1641 17.6199 18.9477C17.9029 18.7314 18.0281 18.3978 17.9539 18.0552L16.9054 13.2048C16.8822 13.1101 16.9147 13.0065 16.9843 12.9343L20.5008 9.34161C20.7513 9.08917 20.8209 8.74207 20.7003 8.413C20.575 8.08393 20.2874 7.86756 19.9302 7.82699L14.8596 7.29957C14.7575 7.29056 14.6694 7.23196 14.6183 7.1418L12.1921 2.78275C12.0251 2.48524 11.7235 2.31394 11.3802 2.31394L11.3756 2.31845Z" fill="#400124"/>
<path opacity="0.35" d="M6.44942 12.6503L6.3752 13.1822L2.74738 9.99521C2.47831 9.7608 2.38089 9.41821 2.47831 9.08463C2.48759 9.05758 2.49687 9.03054 2.50615 9.008L6.34736 12.3798C6.42623 12.4475 6.46334 12.5511 6.44942 12.6503ZM17.9592 18.1002C17.922 18.1408 17.8803 18.1769 17.8339 18.2129C17.5416 18.4383 17.1659 18.4789 16.8318 18.3211L12.0628 16.1033C11.9654 16.0582 11.854 16.0627 11.7659 16.1168L7.18241 18.6727C6.85767 18.853 6.4819 18.8395 6.17107 18.6412C6.09221 18.5871 6.01798 18.524 5.96231 18.4564V18.4969C5.91128 18.844 6.05973 19.1641 6.36128 19.3624C6.65819 19.5563 7.02468 19.5698 7.3355 19.394L11.7566 16.9237C11.8448 16.8741 11.9561 16.8696 12.0442 16.9147L16.6463 19.0559C16.971 19.2047 17.3329 19.1641 17.6159 18.9522C17.8896 18.7449 18.0148 18.4293 17.9592 18.1002V18.1002ZM20.6963 8.41748C20.6963 8.41748 20.6916 8.40395 20.687 8.39944L17.1751 11.9831C17.1009 12.0598 17.0731 12.1635 17.0916 12.2626L17.1937 12.7224L20.4968 9.34608C20.7426 9.09365 20.8169 8.74655 20.6963 8.41748V8.41748Z" fill="#400124"/>
<path opacity="0.5" d="M20.4968 9.34601L20.4133 9.43165C20.2787 9.32798 20.1117 9.26036 19.9262 9.24233L14.8509 8.71491C14.7535 8.70139 14.6607 8.64279 14.6143 8.55714L12.1881 4.19809C12.021 3.90058 11.7195 3.72477 11.3762 3.72477H11.3391C10.9772 3.7383 10.6757 3.93664 10.5272 4.25669L8.44426 8.78253C8.40251 8.87269 8.319 8.9358 8.21694 8.95383L3.20202 9.85088C3.04429 9.87793 2.90511 9.94104 2.78913 10.0312L2.74738 9.99513C2.47831 9.76072 2.38089 9.41813 2.47831 9.08455C2.57573 8.74647 2.8448 8.50755 3.20202 8.44445L8.21694 7.54739C8.319 7.52936 8.40251 7.46625 8.44426 7.3761L10.5272 2.85026C10.6757 2.5302 10.9772 2.33186 11.3391 2.32285C11.3484 2.32285 11.3623 2.32285 11.3762 2.32285C11.7195 2.32285 12.021 2.49865 12.1881 2.79616L14.6143 7.15521C14.6607 7.24086 14.7535 7.29946 14.8509 7.31299L19.9262 7.8404C20.2834 7.87646 20.571 8.09284 20.6963 8.42191C20.8169 8.75098 20.7426 9.09808 20.4968 9.35051V9.34601Z" fill="white"/>
</svg>
