<svg width="29" height="33" viewBox="0 0 29 33" fill="none" xmlns="http://www.w3.org/2000/svg">
<path d="M29.0001 13.2751C28.7364 13.3024 28.4636 13.3115 28.1908 13.3206C25.2357 13.3206 22.4807 11.8294 20.8622 9.35621V22.8404C20.8622 28.3505 16.3978 32.8059 10.8968 32.8059C5.39583 32.8059 0.931396 28.3414 0.931396 22.8404C0.931396 17.3395 5.39583 12.875 10.8968 12.875C11.1059 12.875 11.306 12.8932 11.5151 12.9023V17.8123C11.3151 17.785 11.1059 17.7486 10.8968 17.7486C8.08722 17.7486 5.805 20.0309 5.805 22.8404C5.805 25.65 8.08722 27.9323 10.8968 27.9323C13.7064 27.9323 16.1887 25.7137 16.1887 22.9041L16.2341 0H20.935C21.3805 4.21894 24.772 7.51043 29.0001 7.81957V13.2751Z" fill="white"/>
</svg>
