<svg width="40" height="33" viewBox="0 0 40 33" fill="none" xmlns="http://www.w3.org/2000/svg">
<path d="M38.9375 3.86122C37.7009 4.42496 36.3279 4.76138 34.9822 4.98869C35.6187 4.87958 36.5552 3.73392 36.928 3.26111C37.5008 2.55189 37.9737 1.74266 38.2373 0.869774C38.2737 0.806126 38.301 0.715205 38.2373 0.66065C38.1555 0.62428 38.0919 0.642462 38.0282 0.678832C36.537 1.47897 34.9913 2.0609 33.3456 2.47006C33.2092 2.50643 33.1091 2.47006 33.0182 2.38823C32.8818 2.23365 32.7545 2.08817 32.6091 1.96997C31.918 1.37896 31.1724 0.92433 30.3359 0.578813C29.2357 0.133279 28.0355 -0.0576668 26.8535 0.0150735C25.6987 0.0878138 24.5713 0.415151 23.5529 0.951611C22.5254 1.48807 21.6162 2.23366 20.8888 3.12473C20.1341 4.05217 19.5795 5.15236 19.2976 6.3162C19.0248 7.43458 19.043 8.54388 19.2158 9.68044C19.243 9.87139 19.2158 9.88957 19.0521 9.87139C12.6146 8.91667 7.27726 6.60716 2.94921 1.67901C2.75827 1.46079 2.65825 1.46079 2.50368 1.6972C0.612428 4.53407 1.53077 9.09852 3.89483 11.3444C4.21307 11.6444 4.53131 11.9445 4.88592 12.2173C4.75862 12.2445 3.18562 12.0718 1.77627 11.3444C1.58533 11.2262 1.4944 11.2898 1.47622 11.508C1.45803 11.8172 1.47622 12.0991 1.53077 12.4264C1.89448 15.3087 3.88574 17.9728 6.62259 19.0094C6.94993 19.1458 7.30453 19.264 7.65914 19.3276C7.04085 19.464 6.39528 19.564 4.61314 19.4185C4.39492 19.3731 4.304 19.4913 4.39492 19.7004C5.73153 23.3556 8.63204 24.4467 10.7961 25.065C11.087 25.1196 11.378 25.1196 11.669 25.1832C11.6508 25.2105 11.6326 25.2105 11.6144 25.2378C10.8961 26.338 8.40473 27.1472 7.24089 27.5564C5.13142 28.2929 2.83101 28.6293 0.603335 28.4111C0.248726 28.3565 0.166894 28.3656 0.0759682 28.4111C-0.0240497 28.4747 0.0668757 28.5565 0.175986 28.6475C0.630613 28.9475 1.08524 29.2112 1.55805 29.4658C2.97649 30.2205 4.44948 30.8115 5.99521 31.2388C13.9785 33.4392 22.9619 31.8208 28.9539 25.8742C33.6547 21.2007 35.3095 14.7541 35.3095 8.29837C35.3095 8.04378 35.6096 7.9074 35.7824 7.77101C37.0098 6.85267 37.9918 5.75247 38.9102 4.52498C39.1193 4.2522 39.1193 4.0067 39.1193 3.90668V3.87031C39.1193 3.7703 39.1193 3.79757 38.9557 3.87031L38.9375 3.86122Z" fill="white"/>
</svg>
