<?xml version="1.0" encoding="utf-8"?>
<!-- Generator: Adobe Illustrator 26.5.0, SVG Export Plug-In . SVG Version: 6.00 Build 0)  -->
<svg version="1.1" id="Layer_1" xmlns="http://www.w3.org/2000/svg" xmlns:xlink="http://www.w3.org/1999/xlink" x="0px" y="0px"
	 viewBox="0 0 1080 1080" style="enable-background:new 0 0 1080 1080;" xml:space="preserve">
<style type="text/css">
	.st0{fill:#FFFFFF;}
	.st1{fill-rule:evenodd;clip-rule:evenodd;fill:#FFFFFF;}
</style>
<g>
	<path class="st0" d="M248.6,845.2l45-167.9c-25.5-46-38.9-97.5-38.9-149.8c0-171,139.1-310,310-310c171,0,310,139.1,310,310
		c0,171-139.1,310-310,310c-51.3,0-102-13-147.4-37.6L248.6,845.2z M425.8,737l10.6,6.3c39,23.2,83.4,35.5,128.4,35.5
		c138.6,0,251.4-112.8,251.4-251.4c0-138.6-112.8-251.4-251.4-251.4S313.3,388.9,313.3,527.5c0,45.8,12.7,90.9,36.8,130.4l6.5,10.7
		l-25.1,93.8L425.8,737z"/>
	<path class="st1" d="M680.1,570.6c-12.8-7.6-29.4-16.2-44.4-10c-11.5,4.7-18.9,22.8-26.4,32c-3.8,4.7-8.4,5.5-14.3,3.1
		c-43.3-17.2-76.5-46.2-100.4-86c-4-6.2-3.3-11.1,1.5-16.8c7.2-8.5,16.3-18.1,18.2-29.6c2-11.4-3.4-24.8-8.1-35
		c-6-13-12.8-31.6-25.9-39c-12-6.8-27.8-3-38.5,5.7c-18.5,15-27.4,38.6-27.1,61.9c0.1,6.6,0.9,13.2,2.4,19.6
		c3.7,15.4,10.8,29.8,18.8,43.4c6,10.3,12.6,20.3,19.7,29.9c23.2,31.5,52,58.8,85.3,79.2c16.7,10.2,34.6,19.2,53.2,25.3
		c20.8,6.9,39.4,14.1,61.9,9.8c23.6-4.5,46.8-19.1,56.2-41.8c2.8-6.7,4.2-14.2,2.6-21.3C711.8,586.4,692,577.7,680.1,570.6z"/>
</g>
</svg>
